<svg version="1.1" xmlns="http://www.w3.org/2000/svg" xmlns:xlink="http://www.w3.org/1999/xlink" width="926.90788" height="546.29533" viewBox="0,0,926.90788,546.29533"><g transform="translate(140.95394,90.64765)"><g stroke-miterlimit="10"><path d="M-134.95394,454.64769v-539.29533h919.90788v539.29533z" fill="#ffffff" stroke="#000000" stroke-width="2" stroke-linecap="butt"/><path d="M-139.95394,449.64769v-539.29533h919.90788v539.29533z" fill="#ffffff" stroke="#000000" stroke-width="2" stroke-linecap="butt"/><path d="M72.93134,314.5032l13.10661,-42.69199l45.04008,14.08194c0,0 -8.7235,26.81885 -11.19084,34.84978c-0.70713,2.3017 -2.35613,7.37557 -3.40776,8.23187c-1.68821,1.37457 -4.19969,1.48756 -5.7703,1.3945c-0.60778,-0.03603 -6.14382,0.11388 -9.30656,-0.4875c-0.96541,-0.18357 -7.7931,-1.75468 -11.15534,-2.904c-0.74683,-0.25531 -6.45444,-2.13766 -9.42998,-3.96298c-0.89075,-0.54643 -3.84943,-3.37257 -4.92654,-4.15279c-1.56069,-1.13048 -2.94581,-3.63098 -2.94581,-3.63098" fill="#ffffff" stroke="#000000" stroke-width="2.5" stroke-linecap="round"/><path d="M122.50728,298.64929l-2.8851,9.22773" fill="none" stroke="#000000" stroke-width="2.5" stroke-linecap="round"/><path d="M132.56359,286.59879c-1.51752,4.85363 -13.54111,5.4137 -26.85548,1.25093c-13.31437,-4.16278 -22.87758,-11.47206 -21.36009,-16.32567c1.51752,-4.85363 13.54111,-5.4137 26.85548,-1.25094c13.31437,4.16279 22.87761,11.47204 21.36009,16.32569z" fill="#000000" stroke="none" stroke-width="0" stroke-linecap="butt"/><path d="M116.49392,318.18574c-0.48644,-0.06808 -0.82725,-0.50588 -0.76118,-0.97783c0.06606,-0.47197 0.51393,-0.79939 1.00038,-0.7313c0.48644,0.06808 0.82725,0.50588 0.76119,0.97783c-0.06606,0.47197 -0.51394,0.79939 -1.00038,0.7313z" fill="#ff0000" stroke="#000000" stroke-width="1" stroke-linecap="butt"/><path d="M66.25931,332.70901l18.53043,-7.20546" fill="none" stroke="#000000" stroke-width="2.5" stroke-linecap="round"/><path d="M123.57987,312.37493l5.51783,16.40498" fill="none" stroke="#000000" stroke-width="2.5" stroke-linecap="round"/><path d="M64.56153,310.09448l13.47438,-12.67697" fill="none" stroke="#000000" stroke-width="2.5" stroke-linecap="round"/><path d="M104.11957,331.83869l-3.95196,19.48532" fill="none" stroke="#000000" stroke-width="2.5" stroke-linecap="round"/><path d="M130.02674,290.2267c-1.62157,4.81518 -13.26653,5.11351 -26.00974,0.66633c-12.74322,-4.44718 -21.75909,-11.95581 -20.13752,-16.77099c1.62157,-4.81518 13.26653,-5.11351 26.00975,-0.66633c12.74322,4.44717 21.75909,11.95581 20.13752,16.771z" fill-opacity="0.50196" fill="#000000" stroke="none" stroke-width="0" stroke-linecap="butt"/><path d="M129.0456,293.20059c-1.60986,4.81716 -13.08791,5.14349 -25.63696,0.72888c-12.54905,-4.41461 -21.41702,-11.89842 -19.80716,-16.71556c1.60986,-4.81716 13.08792,-5.14349 25.63697,-0.72888c12.54906,4.41459 21.41701,11.89841 19.80715,16.71557z" fill-opacity="0.50196" fill="#000000" stroke="none" stroke-width="0" stroke-linecap="butt"/></g></g></svg>