<svg version="1.1" xmlns="http://www.w3.org/2000/svg" xmlns:xlink="http://www.w3.org/1999/xlink" width="660.21709" height="454.6344" viewBox="0,0,660.21709,454.6344"><g transform="translate(2.1285,-38.8656)"><g stroke="none" stroke-miterlimit="10"><path d="M139.17529,89.53368v-11h18.5v11z" fill="#ff0000" stroke-width="0"/><path d="M317.48957,366.67749v-35h167v35z" fill="#ff0000" stroke-width="0"/><path d="M457.52203,84v-28h64v28z" fill="#ff0000" stroke-width="0"/><path d="M-2.1285,171.05258v-85h250.08108v85z" fill="#000000" stroke-width="0"/><path d="M371.18071,279.5v-25.64638h170v25.64638z" fill="#000000" stroke-width="0"/><path d="M389.38929,261.29142v-25.64638h170v25.64638z" fill="#000000" stroke-width="0"/><path d="M411.26869,244.53172v-25.64638h170v25.64638z" fill="#000000" stroke-width="0"/><path d="M431.70784,225.98915v-25.64638h170v25.64638z" fill="#000000" stroke-width="0"/><path d="M451.81294,204.89576v-25.64638h170v25.64638z" fill="#000000" stroke-width="0"/><path d="M475.24532,179.36024v-25.64638h170v25.64638z" fill="#000000" stroke-width="0"/><path d="M627.59968,125.46794c0,13.61317 -9.67028,24.64882 -21.59918,24.64882c-11.9289,0 -21.59918,-11.03565 -21.59918,-24.64882c0,-13.61316 9.67028,-24.64882 21.59918,-24.64882c11.9289,0 21.59918,11.03566 21.59918,24.64882z" fill="#000000" stroke-width="0"/><path d="M554.97902,63.51442c0,13.61316 -9.67028,24.64882 -21.59918,24.64882c-11.9289,0 -21.59918,-11.03566 -21.59918,-24.64882c0,-13.61317 9.67028,-24.64882 21.59918,-24.64882c11.9289,0 21.59918,11.03565 21.59918,24.64882z" fill="#000000" stroke-width="0"/><path d="M464.70235,71.17803c0,13.61316 -9.67028,24.64882 -21.59918,24.64882c-11.9289,0 -21.59918,-11.03566 -21.59918,-24.64882c0,-13.61317 9.67028,-24.64882 21.59918,-24.64882c11.9289,0 21.59918,11.03566 21.59918,24.64882z" fill="#000000" stroke-width="0"/><path d="M-1.5,493.5v-144h659.58859v144z" fill="#000000" stroke-width="NaN"/><path d="M315.21642,332.35812v-25.64638h170v25.64638z" fill="#000000" stroke-width="0"/><path d="M333.425,314.14954v-25.64638h170v25.64638z" fill="#000000" stroke-width="0"/><path d="M355.3044,297.38984v-25.64638h170v25.64638z" fill="#000000" stroke-width="0"/><path d="M366.09874,133.23509c0,13.61316 -9.67028,24.64882 -21.59918,24.64882c-11.9289,0 -21.59918,-11.03566 -21.59918,-24.64882c0,-13.61317 9.67028,-24.64882 21.59918,-24.64882c11.9289,0 21.59918,11.03566 21.59918,24.64882z" fill="#000000" stroke-width="0"/><path d="M231.58968,190.23264v-19.5h57v19.5z" fill="#ff0000" stroke-width="0"/></g></g></svg>