<svg version="1.1" xmlns="http://www.w3.org/2000/svg" xmlns:xlink="http://www.w3.org/1999/xlink" width="43.44824" height="52.93568" viewBox="0,0,43.44824,52.93568"><g transform="translate(-298.27588,-154.03216)"><g stroke-miterlimit="10"><path d="M299.93479,200.16246l-0.19798,-38.40892h40.58675c0,0 -0.27786,24.254 -0.24209,31.4797c0.01025,2.07092 -0.04115,6.65918 -0.68466,7.63199c-1.03304,1.56166 -3.06566,2.29897 -4.37885,2.62568c-0.50815,0.12642 -5.01411,1.67032 -7.76469,1.98837c-0.8396,0.09708 -6.84756,0.55971 -9.90253,0.4792c-0.67859,-0.01788 -5.84695,-0.09821 -8.75801,-0.83294c-0.87144,-0.21995 -4.02549,-1.78053 -5.10991,-2.14454c-1.57129,-0.52744 -3.35004,-2.22456 -3.35004,-2.22456" fill="none" stroke="#ffffff" stroke-width="2" stroke-linecap="round"/><path d="M340.33009,164.68125c0,1.79166 0.85509,4.83961 -0.83802,6.29246c-3.50807,3.01025 -11.95478,3.67327 -19.54901,3.67327c-6.56364,0 -15.47797,-0.71898 -19.20684,-3.07401c-2.66772,-1.68485 -1.18019,-4.59628 -1.18019,-6.89172c0,-5.50392 8.8998,2.10704 20.15924,2.10704c11.25944,0 20.61482,-7.61096 20.61482,-2.10704z" fill-opacity="0.58039" fill="#ffffff" stroke="none" stroke-width="0" stroke-linecap="butt"/><path d="M340.44399,162.17558c0,1.79166 0.85509,4.83961 -0.83802,6.29246c-3.50807,3.01025 -11.95478,3.67327 -19.54901,3.67327c-6.56364,0 -15.47797,-0.71898 -19.20684,-3.07401c-2.66772,-1.68485 -1.18019,-4.59628 -1.18019,-6.89172c0,-5.50392 8.8998,2.10704 20.15924,2.10704c11.25944,0 20.61482,-7.61096 20.61482,-2.10704z" fill-opacity="0.58039" fill="#ffffff" stroke="none" stroke-width="0" stroke-linecap="butt"/><path d="M336.56186,174.42453v8.31534" fill="none" stroke="#ffffff" stroke-width="2" stroke-linecap="round"/><path d="M332.00823,191.25317l7.72138,-0.39597" fill="none" stroke="#ffffff" stroke-width="2" stroke-linecap="round"/><path d="M341.72412,161.95153c0,4.37375 -9.72622,7.91936 -21.72412,7.91936c-11.99791,0 -21.72412,-3.54562 -21.72412,-7.91936c0,-4.37375 9.72622,-7.91937 21.72412,-7.91937c11.9979,0 21.72412,3.54562 21.72412,7.91937z" fill="#ffffff" stroke="none" stroke-width="0" stroke-linecap="butt"/><path d="M318.26234,206.56157c0,0.20711 -0.14332,0.375 -0.32012,0.375c-0.1768,0 -0.32012,-0.16789 -0.32012,-0.375c0,-0.20711 0.14332,-0.375 0.32012,-0.375c0.1768,0 0.32012,0.16789 0.32012,0.375z" fill="#ffffff" stroke="none" stroke-width="0" stroke-linecap="butt"/></g></g></svg>