<svg version="1.1" xmlns="http://www.w3.org/2000/svg" xmlns:xlink="http://www.w3.org/1999/xlink" width="921.90788" height="541.29533" viewBox="0,0,921.90788,541.29533"><g transform="translate(140.95394,90.64766)"><g stroke-miterlimit="10"><path d="M-139.95394,449.64768v-539.29533h919.90788v539.29533z" fill="#ffffff" stroke="#000000" stroke-width="2" stroke-linecap="butt"/><path d="M72.09939,321.26756l2.98497,-44.55872l47.06774,3.39686c0,0 -2.35213,28.10368 -2.91542,36.48619c-0.16141,2.40246 -0.60504,7.71909 -1.43272,8.7934c-1.3287,1.72454 -3.74761,2.4095 -5.29782,2.67848c-0.59989,0.10407 -5.95459,1.51737 -9.171,1.65602c-0.9818,0.04232 -7.98785,0.07601 -11.52389,-0.27305c-0.78545,-0.07756 -6.7724,-0.60327 -10.0868,-1.69892c-0.99219,-0.32799 -4.51928,-2.40174 -5.7464,-2.91466c-1.77804,-0.74318 -3.69883,-2.86016 -3.69883,-2.86016" fill="#ffffff" stroke="#000000" stroke-width="2.5" stroke-linecap="round"/><path d="M116.0333,304.12832l0.69597,-9.64316" fill="none" stroke="#000000" stroke-width="2.5" stroke-linecap="round"/><path d="M123.75974,280.45248c-0.36607,5.07213 -11.94212,8.36992 -25.85588,7.36579c-13.91378,-1.00414 -24.89632,-5.92998 -24.53029,-11.00209c0.36607,-5.07213 11.94212,-8.36992 25.85588,-7.3658c13.91378,1.00415 24.89635,5.92996 24.53029,11.00211z" fill="#000000" stroke="none" stroke-width="0" stroke-linecap="butt"/><path d="M115.34811,314.87942c-0.4891,0.04508 -0.92109,-0.30306 -0.96482,-0.77761c-0.04375,-0.47456 0.31727,-0.89581 0.8064,-0.9409c0.4891,-0.04508 0.92109,0.30306 0.96483,0.77761c0.04375,0.47456 -0.31728,0.89582 -0.8064,0.9409z" fill="#ff0000" stroke="#000000" stroke-width="1" stroke-linecap="butt"/><path d="M77.87829,348.41602l6.88008,-18.65368" fill="none" stroke="#000000" stroke-width="2.5" stroke-linecap="round"/><path d="M130.85135,322.11578l-9.61448,-14.39207" fill="none" stroke="#000000" stroke-width="2.5" stroke-linecap="round"/><path d="M72.96684,302.94691l-7.53989,16.89421" fill="none" stroke="#000000" stroke-width="2.5" stroke-linecap="round"/><path d="M106.428,331.00269l0.6138,19.87256" fill="none" stroke="#000000" stroke-width="2.5" stroke-linecap="round"/><path d="M121.88463,283.30158c-0.3481,5.06896 -11.53713,8.30923 -24.99142,7.23736c-13.4543,-1.07188 -24.07897,-6.05 -23.73088,-11.11896c0.3481,-5.06896 11.53714,-8.30924 24.99143,-7.23736c13.45429,1.07187 24.07897,6.05 23.73088,11.11897z" fill-opacity="0.50196" fill="#000000" stroke="none" stroke-width="0" stroke-linecap="butt"/><path d="M121.68933,286.42703c-0.33626,5.06789 -11.35675,8.29295 -24.61496,7.20338c-13.25821,-1.08958 -23.73352,-6.08119 -23.39726,-11.14908c0.33626,-5.06789 11.35677,-8.29296 24.61498,-7.20338c13.25821,1.08957 23.73351,6.08118 23.39725,11.14909z" fill-opacity="0.50196" fill="#000000" stroke="none" stroke-width="0" stroke-linecap="butt"/></g></g></svg>