<svg version="1.1" xmlns="http://www.w3.org/2000/svg" xmlns:xlink="http://www.w3.org/1999/xlink" width="921.90788" height="541.29533" viewBox="0,0,921.90788,541.29533"><g transform="translate(140.95394,90.64766)"><g stroke-miterlimit="10"><path d="M-139.95394,449.64768v-539.29533h919.90788v539.29533z" fill="#ffffff" stroke="#000000" stroke-width="2" stroke-linecap="butt"/><path d="M90.77063,201.47058l-44.0965,-7.06318l7.70365,-46.55711c0,0 27.76905,4.92231 36.06445,6.25277c2.3775,0.38132 7.63095,1.31116 8.62471,2.23398c1.5953,1.48141 2.05527,3.95298 2.18078,5.52135c0.04857,0.60689 0.96431,6.06873 0.80706,9.28429c-0.048,0.98153 -0.65767,7.96108 -1.32988,11.45016c-0.14932,0.77502 -1.22245,6.6884 -2.6178,9.88823c-0.4177,0.95788 -2.80652,4.27969 -3.4299,5.45454c-0.90327,1.70232 -3.18766,3.42061 -3.18766,3.42061" fill="#ffffff" stroke="#000000" stroke-width="2.5" stroke-linecap="round"/><path d="M77.73722,156.1487l-9.53853,-1.57831" fill="none" stroke="#000000" stroke-width="2.5" stroke-linecap="round"/><path d="M54.87072,146.28129c5.01713,0.83017 7.23821,12.66011 4.96092,26.42291c-2.27729,13.76281 -8.19058,24.24678 -13.2077,23.41661c-5.01713,-0.83017 -7.23821,-12.66011 -4.96092,-26.42292c2.27728,-13.76281 8.19057,-24.24678 13.20771,-23.41661z" fill="#000000" stroke="none" stroke-width="0" stroke-linecap="butt"/><path d="M88.38002,157.81802c0,0.49119 -0.38633,0.88938 -0.86289,0.88938c-0.47656,0 -0.86289,-0.39819 -0.86289,-0.88938c0,-0.49119 0.38633,-0.88938 0.86289,-0.88938c0.47656,0 0.86289,0.39819 0.86289,0.88938z" fill="#ff0000" stroke="#000000" stroke-width="1" stroke-linecap="butt"/><path d="M102.26471,172.51786l15.00197,-7.69838" fill="none" stroke="#000000" stroke-width="2.5" stroke-linecap="round"/><path d="M100.68555,185.54589l18.16028,-8.09317" fill="none" stroke="#000000" stroke-width="2.5" stroke-linecap="round"/><path d="M93.77675,141.13214l-13.62021,10.6593" fill="none" stroke="#000000" stroke-width="2.5" stroke-linecap="round"/><path d="M81.73569,184.36152l-11.84366,14.2124" fill="none" stroke="#000000" stroke-width="2.5" stroke-linecap="round"/><path d="M57.73016,148.02145c5.01713,0.80246 7.23821,12.23753 4.96092,25.54094c-2.27729,13.30342 -8.19058,23.43745 -13.2077,22.63499c-5.01713,-0.80246 -7.23821,-12.23754 -4.96092,-25.54095c2.27728,-13.30342 8.19057,-23.43744 13.20771,-22.63498z" fill-opacity="0.50196" fill="#000000" stroke="none" stroke-width="0" stroke-linecap="butt"/><path d="M60.8254,148.49698c5.01713,0.79059 7.23821,12.05642 4.96092,25.16296c-2.27729,13.10654 -8.19058,23.09059 -13.2077,22.30001c-5.01713,-0.79058 -7.23821,-12.05643 -4.96092,-25.16297c2.27728,-13.10654 8.19057,-23.09059 13.20771,-22.3z" fill-opacity="0.50196" fill="#000000" stroke="none" stroke-width="0" stroke-linecap="butt"/></g></g></svg>