<svg version="1.1" xmlns="http://www.w3.org/2000/svg" xmlns:xlink="http://www.w3.org/1999/xlink" width="60.32336" height="93.63148" viewBox="0,0,60.32336,93.63148"><defs><radialGradient cx="239.96314" cy="184.48882" r="25.70394" gradientUnits="userSpaceOnUse" id="color-1"><stop offset="0" stop-color="#fdfdfd"/><stop offset="1" stop-color="#fff9b9"/></radialGradient><radialGradient cx="239.96314" cy="184.48882" r="25.70394" gradientUnits="userSpaceOnUse" id="color-2"><stop offset="0" stop-color="#ffffff"/><stop offset="1" stop-color="#ffea00"/></radialGradient><radialGradient cx="239.92804" cy="159.01508" r="25.2586" gradientUnits="userSpaceOnUse" id="color-3"><stop offset="0" stop-color="#ffffff"/><stop offset="1" stop-color="#ffea00"/></radialGradient><radialGradient cx="239.35636" cy="158.61296" r="30.16168" gradientUnits="userSpaceOnUse" id="color-4"><stop offset="0" stop-color="#ffffff"/><stop offset="1" stop-color="#ffea00"/></radialGradient><radialGradient cx="239.62774" cy="143.48394" r="19.02706" gradientUnits="userSpaceOnUse" id="color-5"><stop offset="0" stop-color="#fdfdfd"/><stop offset="1" stop-color="#fff9b9"/></radialGradient><radialGradient cx="239.62774" cy="143.48394" r="19.02706" gradientUnits="userSpaceOnUse" id="color-6"><stop offset="0" stop-color="#ffffff"/><stop offset="1" stop-color="#ffea00"/></radialGradient><radialGradient cx="239.60176" cy="124.62728" r="18.6974" gradientUnits="userSpaceOnUse" id="color-7"><stop offset="0" stop-color="#ffffff"/><stop offset="1" stop-color="#ffea00"/></radialGradient><radialGradient cx="239.73951" cy="147.76584" r="16.8992" gradientUnits="userSpaceOnUse" id="color-8"><stop offset="0" stop-color="#ffffff"/><stop offset="1" stop-color="#ffea00"/></radialGradient><radialGradient cx="230.60018" cy="196.8837" r="13.38414" gradientUnits="userSpaceOnUse" id="color-9"><stop offset="0" stop-color="#ffffff"/><stop offset="1" stop-color="#ffea00"/></radialGradient><radialGradient cx="251.7381" cy="199.76257" r="10.43187" gradientUnits="userSpaceOnUse" id="color-10"><stop offset="0" stop-color="#ffffff"/><stop offset="1" stop-color="#ffea00"/></radialGradient><radialGradient cx="241.63006" cy="200.6703" r="9.89861" gradientUnits="userSpaceOnUse" id="color-11"><stop offset="0" stop-color="#ffffff"/><stop offset="1" stop-color="#ffea00"/></radialGradient></defs><g transform="translate(-209.19467,-117.81128)"><g stroke-miterlimit="10"><path d="M216.59825,203.44288l-0.23019,-44.658h47.19016c0,0 -0.32307,28.20009 -0.28148,36.6014c0.01192,2.40786 -0.04784,7.74262 -0.79605,8.8737c-1.20111,1.81574 -3.56444,2.67301 -5.09128,3.05287c-0.59082,0.14699 -5.8299,1.94208 -9.02799,2.31187c-0.9762,0.11288 -7.96165,0.65077 -11.51366,0.55716c-0.789,-0.02079 -6.79824,-0.11419 -10.18293,-0.96846c-1.01322,-0.25573 -4.68043,-2.07022 -5.94129,-2.49345c-1.82694,-0.61325 -3.89509,-2.58649 -3.89509,-2.58649" fill="url(#color-1)" stroke="url(#color-2)" stroke-width="2.5" stroke-linecap="round"/><path d="M259.18448,183.18565v-9.66823" fill="none" stroke="#ffea00" stroke-width="2.5" stroke-linecap="round"/><path d="M265.18664,159.01508c0,5.08535 -11.30866,9.20783 -25.2586,9.20783c-13.94995,0 -25.2586,-4.12249 -25.2586,-9.20783c0,-5.08535 11.30866,-9.20784 25.2586,-9.20784c13.94994,0 25.2586,4.12249 25.2586,9.20784z" fill="url(#color-3)" stroke="none" stroke-width="0" stroke-linecap="butt"/><path d="M269.51804,158.61297c0,6.0725 -13.50385,10.99521 -30.16168,10.99521c-16.65785,0 -30.16168,-4.92273 -30.16168,-10.99521c0,-6.0725 13.50385,-10.99522 30.16168,-10.99522c16.65783,0 30.16168,4.92272 30.16168,10.99522z" fill="url(#color-4)" stroke="none" stroke-width="0" stroke-linecap="butt"/><path d="M222.33214,157.51447l-0.1704,-33.05759h34.932c0,0 -0.23915,20.87481 -0.20836,27.09378c0.00883,1.78239 -0.03542,5.73139 -0.58927,6.56866c-0.88911,1.34408 -2.63854,1.97867 -3.76877,2.25986c-0.43735,0.10881 -4.31552,1.4376 -6.68287,1.71133c-0.72262,0.08355 -5.89352,0.48173 -8.52286,0.41243c-0.58405,-0.01539 -5.03233,-0.08453 -7.53781,-0.71689c-0.75002,-0.1893 -3.46463,-1.53246 -4.39797,-1.84575c-1.35237,-0.45396 -2.8833,-1.91462 -2.8833,-1.91462" fill="url(#color-5)" stroke="url(#color-6)" stroke-width="2.5" stroke-linecap="round"/><path d="M253.85613,142.51928v-7.1568" fill="none" stroke="#ffea00" stroke-width="2.5" stroke-linecap="round"/><path d="M258.29916,124.62728c0,3.76437 -8.37111,6.816 -18.6974,6.816c-10.32629,0 -18.6974,-3.05163 -18.6974,-6.816c0,-3.76438 8.37111,-6.816 18.6974,-6.816c10.32629,0 18.6974,3.05163 18.6974,6.816z" fill="url(#color-7)" stroke="none" stroke-width="0" stroke-linecap="butt"/><path d="M222.84031,152.68923v-9.84677c0,0 10.93504,2.12903 16.50001,2.12903c5.69802,0 17.2984,-2.12903 17.2984,-2.12903v9.84677c0,0 -11.42155,2.66129 -17.03226,2.66129c-5.65507,0 -16.76614,-2.66129 -16.76614,-2.66129z" fill="url(#color-8)" stroke="none" stroke-width="0" stroke-linecap="butt"/><path d="M241.12586,157.59709c-0.75,0 -0.75,-0.75 -0.75,-0.75v-0.44573c0,-1.0172 -0.06577,-2.01663 -0.12585,-3.0199c-0.69567,0.04624 -1.50167,-0.03843 -2.42619,-0.26411l-0.5713,-0.42014c0,0 -0.53033,-0.53033 0,-1.06066c0.53033,-0.53033 1.06066,0 1.06066,0l-0.12556,0.0256c0.80563,0.20723 1.4585,0.29714 1.98776,0.27103c-0.0138,-0.36563 -0.02238,-0.73313 -0.02238,-1.1035c0,-1.69018 -0.21017,-3.31277 -0.49211,-4.9168c-0.31298,-0.14183 -0.64706,-0.27052 -1.0071,-0.39121c-1.21792,-0.40825 -2.32101,-0.12749 -3.08365,-1.45422c-1.38925,-2.41679 0.47607,-4.63837 2.77626,-5.68951c-0.13083,-1.41549 -0.04205,-2.65088 -0.39968,-4.0814c0,0 -0.1819,-0.7276 0.5457,-0.9095c0.72761,-0.1819 0.90951,0.5457 0.90951,0.5457c0.34506,1.38025 0.30858,2.60801 0.40839,3.95053c0.77089,-0.1709 1.52569,-0.1952 2.16604,-0.03889c0,0 0.72761,0.1819 0.54571,0.9095c-0.1819,0.72761 -0.90951,0.5457 -0.90951,0.5457c-0.43739,-0.11251 -1.02223,-0.07972 -1.63777,0.06973c0.2534,1.83939 0.64584,3.62208 0.98752,5.41485c0.01365,0.00642 0.02704,0.01291 0.04014,0.0195c1.3357,0.67104 2.08661,1.68901 2.84703,2.91141c0.07803,2.68855 -0.55544,4.54637 -2.1209,5.3013c0.06464,1.12509 0.14728,2.242 0.14728,3.38499v0.44573c0,0 0,0.75 -0.75,0.75zM241.653,150.82967c0,0.1475 0.00136,0.29451 0.00387,0.44109c0.50484,-0.61723 0.68727,-1.66072 0.75698,-3.12103c-0.34318,-0.45819 -0.69513,-0.84306 -1.07323,-1.17295c0.18703,1.25888 0.31238,2.53571 0.31238,3.85288zM236.87543,143.3284c0.33776,0.5998 1.45634,0.83164 2.49533,1.03876c-0.28958,-1.47376 -0.60232,-2.94515 -0.82951,-4.45267c-1.39703,0.73818 -2.46151,2.00093 -1.66582,3.41392z" fill="#ffea00" stroke="#ffea00" stroke-width="1.5" stroke-linecap="butt"/><path d="M216.98717,181.95863l28.67814,27.8178" fill="none" stroke="#ffea00" stroke-width="1.5" stroke-linecap="round"/><path d="M240.21647,205.18793l23.51607,-17.49367" fill="none" stroke="#ffea00" stroke-width="1.5" stroke-linecap="round"/><path d="M217.21605,203.48098l0.6423,-19.04673l26.12597,23.66968l-15.91444,1.22923z" fill="url(#color-9)" stroke="#ffea00" stroke-width="1.5" stroke-linecap="butt"/><path d="M241.30623,205.22858l20.86374,-14.52165l-0.31746,14.61952l-17.89416,3.49177z" fill="url(#color-10)" stroke="#ffea00" stroke-width="1.5" stroke-linecap="butt"/><path d="M253.74598,193.08406c0,0 2.78963,7.423 4.28987,7.34607c1.49226,-0.07653 4.68777,-7.80645 4.68777,-7.80645" fill="none" stroke="#fff8b1" stroke-width="2.5" stroke-linecap="round"/><path d="M239.36752,188.65056l6.5048,0.14141" fill="none" stroke="#ffea00" stroke-width="2.5" stroke-linecap="round"/><path d="M242.47851,188.79197l-4.66649,15.55496l2.96958,4.24226l4.52508,-4.24226l-2.68677,-13.71665" fill="url(#color-11)" stroke="#ffea00" stroke-width="2.5" stroke-linecap="round"/></g></g></svg>