<svg version="1.1" xmlns="http://www.w3.org/2000/svg" xmlns:xlink="http://www.w3.org/1999/xlink" width="921.90788" height="541.29533" viewBox="0,0,921.90788,541.29533"><g transform="translate(140.95394,90.64766)"><g stroke-miterlimit="10"><path d="M-139.95394,449.64768v-539.29533h919.90788v539.29533z" fill="#ffffff" stroke="#000000" stroke-width="2" stroke-linecap="butt"/><path d="M68.3894,320.74953l3.7209,-44.50332l47.00518,4.17417c0,0 -2.81622,28.06098 -3.51795,36.43303c-0.2011,2.39946 -0.73253,7.70803 -1.57783,8.76852c-1.35701,1.70237 -3.78691,2.34724 -5.34135,2.59056c-0.60152,0.09414 -5.97884,1.41878 -9.19712,1.50425c-0.98236,0.02609 -7.988,-0.056 -11.51782,-0.46346c-0.78406,-0.09051 -6.76151,-0.71509 -10.05735,-1.86537c-0.98664,-0.34435 -4.47898,-2.4761 -5.69746,-3.00922c-1.76553,-0.77244 -3.65105,-2.92089 -3.65105,-2.92089" fill="#ffffff" stroke="#000000" stroke-width="2.5" stroke-linecap="round"/><path d="M112.60054,304.33862l0.85521,-9.63033" fill="none" stroke="#000000" stroke-width="2.5" stroke-linecap="round"/><path d="M120.71717,280.79371c-0.44983,5.06541 -12.07882,8.17144 -25.97408,6.93751c-13.89527,-1.23393 -24.79494,-6.34058 -24.34511,-11.40596c0.44983,-5.06541 12.07882,-8.17144 25.97408,-6.93752c13.89527,1.23394 24.79495,6.34055 24.34513,11.40598z" fill="#000000" stroke="none" stroke-width="0" stroke-linecap="butt"/><path d="M111.73778,315.07694c-0.48979,0.037 -0.91596,-0.31823 -0.95184,-0.79343c-0.0359,-0.47522 0.33204,-0.89045 0.82183,-0.92744c0.48979,-0.037 0.91596,0.31823 0.95185,0.79343c0.0359,0.47522 -0.33205,0.89045 -0.82183,0.92744z" fill="#ff0000" stroke="#000000" stroke-width="1" stroke-linecap="butt"/><path d="M81.76859,328.29038l-8.18072,18.12102" fill="none" stroke="#000000" stroke-width="2.5" stroke-linecap="round"/><path d="M117.42478,307.89124l8.88265,14.85492" fill="none" stroke="#000000" stroke-width="2.5" stroke-linecap="round"/><path d="M59.27309,318.22301l10.46788,-15.25412" fill="none" stroke="#000000" stroke-width="2.5" stroke-linecap="round"/><path d="M102.83776,350.93059l-0.28532,-19.87999" fill="none" stroke="#000000" stroke-width="2.5" stroke-linecap="round"/><path d="M118.77976,284.64237c-0.42857,5.06279 -11.66766,8.12493 -25.10323,6.83947c-13.43557,-1.28545 -23.97983,-6.43172 -23.55127,-11.4945c0.42857,-5.06279 11.66767,-8.12493 25.10324,-6.83948c13.43557,1.28544 23.97983,6.43171 23.55127,11.49451z" fill-opacity="0.50196" fill="#000000" stroke="none" stroke-width="0" stroke-linecap="butt"/><path d="M118.53484,287.76433c-0.41672,5.06191 -11.48705,8.11151 -24.72628,6.81148c-13.23923,-1.30004 -23.63393,-6.45742 -23.21721,-11.51932c0.41672,-5.06191 11.48706,-8.11152 24.72629,-6.81148c13.23923,1.30003 23.63392,6.4574 23.21721,11.51933z" fill-opacity="0.50196" fill="#000000" stroke="none" stroke-width="0" stroke-linecap="butt"/></g></g></svg>