<svg version="1.1" xmlns="http://www.w3.org/2000/svg" xmlns:xlink="http://www.w3.org/1999/xlink" width="516.39211" height="500.52499" viewBox="0,0,516.39211,500.52499"><g transform="translate(-52.10789,7.02499)"><g stroke-miterlimit="10"><path d="M79.5,493.5v-144h489v144z" fill="#000000" stroke="none" stroke-width="NaN"/><path d="M527.45828,292.34131c0,21.81525 -16.56547,39.5 -37,39.5c-20.43453,0 -37,-17.68475 -37,-39.5c0,-21.81525 16.56547,-39.5 37,-39.5c20.43453,0 37,17.68475 37,39.5z" fill="#000000" stroke="none" stroke-width="0"/><path d="M256.01163,282.52045v-29.34976h130v29.34976z" fill="#000000" stroke="none" stroke-width="0"/><path d="M72.78427,253.97479v-25h130v25z" fill="#000000" stroke="none" stroke-width="0"/><path d="M258.75607,202.61334v-53.70096h30v53.70096z" fill="#000000" stroke="#000000" stroke-width="0.5"/><path d="M57.90622,126.7486l-5.47659,-17.85229l135.33267,-24.23309l5.47659,17.85229z" fill="#000000" stroke="#000000" stroke-width="0.5"/><path d="M283.20645,178.22501v-29h238v29z" fill="#000000" stroke="#000000" stroke-width="0.5"/><path d="M340.20645,155.22501v-32h24v32z" fill="#000000" stroke="#000000" stroke-width="0.5"/><path d="M428.20645,150.22501v-30h19v30z" fill="#000000" stroke="#000000" stroke-width="0.5"/><path d="M494.20645,154.22501v-161h27v161z" fill="#000000" stroke="#000000" stroke-width="0.5"/><path d="M209.20645,60.89168v-23.66667h236v23.66667z" fill="#000000" stroke="#000000" stroke-width="0.5"/><text transform="translate(259.5,169.25) scale(0.48323,0.5)" font-size="40" xml:space="preserve" fill="#ffffff" stroke="none" stroke-width="1" font-family="Sans Serif" font-weight="normal" text-anchor="start"><tspan x="0" dy="0">press p to teleport to spawn</tspan></text><text transform="translate(222.42063,54.54901) scale(0.5,0.5)" font-size="40" xml:space="preserve" fill="#ffffff" stroke="none" stroke-width="1" font-family="Sans Serif" font-weight="normal" text-anchor="start"><tspan x="0" dy="0">and use q to toggle ui</tspan></text></g></g></svg>