<svg version="1.1" xmlns="http://www.w3.org/2000/svg" xmlns:xlink="http://www.w3.org/1999/xlink" width="43.62499" height="24.26034" viewBox="0,0,43.62499,24.26034"><defs><radialGradient cx="340.07526" cy="190.96256" r="18.69754" gradientUnits="userSpaceOnUse" id="color-1"><stop offset="0" stop-color="#ffea00"/><stop offset="1" stop-color="#ffffff"/></radialGradient><radialGradient cx="340.14585" cy="179.44676" r="18.38607" gradientUnits="userSpaceOnUse" id="color-2"><stop offset="0" stop-color="#ffffff"/><stop offset="1" stop-color="#ffea00"/></radialGradient><radialGradient cx="321.75001" cy="179.38426" r="9.125" gradientUnits="userSpaceOnUse" id="color-3"><stop offset="0" stop-color="#ffea00"/><stop offset="1" stop-color="#ffffff"/></radialGradient><radialGradient cx="358.75" cy="179.30787" r="9.1875" gradientUnits="userSpaceOnUse" id="color-4"><stop offset="0" stop-color="#ffffff"/><stop offset="1" stop-color="#fff58c"/></radialGradient><radialGradient cx="358.6875" cy="179.37037" r="8.75" gradientUnits="userSpaceOnUse" id="color-5"><stop offset="0" stop-color="#ffea00"/><stop offset="1" stop-color="#ffffff"/></radialGradient></defs><g transform="translate(-319.06251,-170.12037)"><g stroke="none" stroke-miterlimit="10"><path d="M358.7728,188.3547l-4.78723,5.21572h-29.09722l-3.51064,-5.16253z" fill="url(#color-1)" stroke-width="0"/><path d="M358.53192,170.30165v18.29022h-36.77214v-18.29022z" fill="url(#color-2)" stroke-width="0"/><path d="M321.75001,188.50926c-1.48427,0 -2.6875,-4.0854 -2.6875,-9.125c0,-5.0396 1.20324,-9.125 2.6875,-9.125c1.48426,0 2.6875,4.0854 2.6875,9.125c0,5.0396 -1.20324,9.125 -2.6875,9.125z" fill="url(#color-3)" stroke-width="0"/><path d="M358.75,188.49537c-2.17462,0 -3.9375,-4.11338 -3.9375,-9.1875c0,-5.07412 1.76288,-9.1875 3.9375,-9.1875c2.17462,0 3.9375,4.11338 3.9375,9.1875c0,5.07412 -1.76288,9.1875 -3.9375,9.1875z" fill="url(#color-4)" stroke-width="0"/><text transform="translate(324.47916,190.70453) scale(0.07939,-0.08451)" font-size="40" xml:space="preserve" fill="#ffffff" stroke-width="1" font-family="Sans Serif" font-weight="normal" text-anchor="start"><tspan x="0" dy="0">marshmallow thing</tspan><tspan x="0" dy="46.150000000000006px"> </tspan></text><text transform="translate(324.38323,187.05132) scale(0.08752,-0.08817)" font-size="40" xml:space="preserve" fill="#ffffff" stroke-width="1" font-family="Sans Serif" font-weight="normal" text-anchor="start"><tspan x="0" dy="0">launcher </tspan></text><text transform="translate(340.31928,186.41131) scale(0.16282,-0.11439)" font-size="40" xml:space="preserve" fill="#ffffff" stroke-width="1" font-family="Sans Serif" font-weight="normal" text-anchor="start"><tspan x="0" dy="0">4000</tspan></text><text transform="translate(324.12742,182.82973) scale(0.11858,-0.12247)" font-size="40" xml:space="preserve" fill="#ffffff" stroke-width="1" font-family="Sans Serif" font-weight="normal" text-anchor="start"><tspan x="0" dy="0">yippee yeah</tspan></text><path d="M358.6875,188.12037c-1.79492,0 -3.25,-3.91751 -3.25,-8.75c0,-4.83249 1.45508,-8.75 3.25,-8.75c1.79492,0 3.25,3.91751 3.25,8.75c0,4.83249 -1.45508,8.75 -3.25,8.75z" fill="url(#color-5)" stroke-width="0"/><text transform="translate(324.01404,177.81936) scale(0.05738,-0.11412)" font-size="40" xml:space="preserve" fill="#ffffff" stroke-width="1" font-family="Sans Serif" font-weight="normal" text-anchor="start"><tspan x="0" dy="0">lorem ipsum dolor sit amet, </tspan><tspan x="0" dy="46.150000000000006px">consectetur adipiscing elit</tspan></text></g></g></svg>