<svg version="1.1" xmlns="http://www.w3.org/2000/svg" xmlns:xlink="http://www.w3.org/1999/xlink" width="973.08452" height="434.3506" viewBox="0,0,973.08452,434.3506"><g transform="translate(24.15165,51.6479)"><g stroke="none" stroke-miterlimit="10"><path d="M-24.15165,208.11186v-216.21622h28.52853v216.21622z" fill="#000000" stroke-width="0"/><path d="M220.59309,125.52928v-28.52853h19.51952v28.52853z" fill="#ff0000" stroke-width="0"/><path d="M-16.06618,8.41216v-42.04204h385.88589v42.04204z" fill="#ff0000" stroke-width="0"/><path d="M545.49538,307.21096v-33.03303h82.58258v33.03303z" fill="#ff0000" stroke-width="0"/><path d="M399.84974,311.71546v-31.53153h57.05706v31.53153z" fill="#ff0000" stroke-width="0"/><path d="M-2.16517,382.7027v-33.03303h714.23724v33.03303z" fill="#000000" stroke-width="0"/><text transform="translate(320.44294,342.37988) scale(0.5,0.5)" font-size="40" xml:space="preserve" fill="#000000" stroke-width="1" font-family="Sans Serif" font-weight="normal" text-anchor="start"><tspan x="0" dy="0">WOWOWOW BIG NOW AYHYUFGWIUFYAFWHGFWAHBFWUAJIFWA</tspan></text><path d="M287.63514,358.8964v-57.05706h25.52553v57.05706z" fill="#000000" stroke-width="0"/><path d="M287.63514,324.36186v-22.52252h408.40841v22.52252z" fill="#000000" stroke-width="0"/><path d="M380.38646,308.71246v-52.55255h24.02402v52.55255z" fill="#000000" stroke-width="0"/><path d="M517.0231,307.21096v-51.05105h31.53153v51.05105z" fill="#000000" stroke-width="0"/><path d="M619.06895,307.21096v-354.35435h40.54054v354.35435z" fill="#000000" stroke-width="0"/><path d="M365.3152,9.91366v-61.56156h262.76276v61.56156z" fill="#000000" stroke-width="0"/><path d="M221.17106,151.0548v-31.53153h168.16817v31.53153z" fill="#000000" stroke-width="0"/><path d="M67.43994,235.13889v-34.53453h123.12312v34.53453z" fill="#000000" stroke-width="0"/></g></g></svg>