<svg version="1.1" xmlns="http://www.w3.org/2000/svg" xmlns:xlink="http://www.w3.org/1999/xlink" width="933.43093" height="531.02853" viewBox="0,0,933.43093,531.02853"><defs><radialGradient cx="137.05891" cy="238.96195" r="11.86165" gradientUnits="userSpaceOnUse" id="color-1"><stop offset="0" stop-color="#fdfdfd"/><stop offset="1" stop-color="#fff9b9"/></radialGradient><radialGradient cx="137.05891" cy="238.96195" r="11.86165" gradientUnits="userSpaceOnUse" id="color-2"><stop offset="0" stop-color="#ffffff"/><stop offset="1" stop-color="#ffea00"/></radialGradient><radialGradient cx="137.04272" cy="227.20652" r="11.65614" gradientUnits="userSpaceOnUse" id="color-3"><stop offset="0" stop-color="#ffffff"/><stop offset="1" stop-color="#ffea00"/></radialGradient><radialGradient cx="136.77891" cy="227.02096" r="13.91878" gradientUnits="userSpaceOnUse" id="color-4"><stop offset="0" stop-color="#ffffff"/><stop offset="1" stop-color="#ffea00"/></radialGradient><radialGradient cx="136.90414" cy="220.03934" r="8.78046" gradientUnits="userSpaceOnUse" id="color-5"><stop offset="0" stop-color="#fdfdfd"/><stop offset="1" stop-color="#fff9b9"/></radialGradient><radialGradient cx="136.90414" cy="220.03934" r="8.78046" gradientUnits="userSpaceOnUse" id="color-6"><stop offset="0" stop-color="#ffffff"/><stop offset="1" stop-color="#ffea00"/></radialGradient><radialGradient cx="136.89215" cy="211.33751" r="8.62833" gradientUnits="userSpaceOnUse" id="color-7"><stop offset="0" stop-color="#ffffff"/><stop offset="1" stop-color="#ffea00"/></radialGradient><radialGradient cx="136.95572" cy="222.01531" r="7.79851" gradientUnits="userSpaceOnUse" id="color-8"><stop offset="0" stop-color="#ffffff"/><stop offset="1" stop-color="#ffea00"/></radialGradient><radialGradient cx="132.73817" cy="244.68184" r="6.17641" gradientUnits="userSpaceOnUse" id="color-9"><stop offset="0" stop-color="#ffffff"/><stop offset="1" stop-color="#ffea00"/></radialGradient><radialGradient cx="142.49273" cy="246.01036" r="4.81402" gradientUnits="userSpaceOnUse" id="color-10"><stop offset="0" stop-color="#ffffff"/><stop offset="1" stop-color="#ffea00"/></radialGradient><radialGradient cx="137.82815" cy="246.42925" r="4.56793" gradientUnits="userSpaceOnUse" id="color-11"><stop offset="0" stop-color="#ffffff"/><stop offset="1" stop-color="#ffea00"/></radialGradient><radialGradient cx="536.59737" cy="235.03887" r="11.86165" gradientUnits="userSpaceOnUse" id="color-12"><stop offset="0" stop-color="#fdfdfd"/><stop offset="1" stop-color="#fff9b9"/></radialGradient><radialGradient cx="536.59737" cy="235.03887" r="11.86165" gradientUnits="userSpaceOnUse" id="color-13"><stop offset="0" stop-color="#ffffff"/><stop offset="1" stop-color="#ffea00"/></radialGradient><radialGradient cx="536.58118" cy="223.28344" r="11.65614" gradientUnits="userSpaceOnUse" id="color-14"><stop offset="0" stop-color="#ffffff"/><stop offset="1" stop-color="#ffea00"/></radialGradient><radialGradient cx="536.31737" cy="223.09788" r="13.91878" gradientUnits="userSpaceOnUse" id="color-15"><stop offset="0" stop-color="#ffffff"/><stop offset="1" stop-color="#ffea00"/></radialGradient><radialGradient cx="536.4426" cy="216.11626" r="8.78046" gradientUnits="userSpaceOnUse" id="color-16"><stop offset="0" stop-color="#fdfdfd"/><stop offset="1" stop-color="#fff9b9"/></radialGradient><radialGradient cx="536.4426" cy="216.11626" r="8.78046" gradientUnits="userSpaceOnUse" id="color-17"><stop offset="0" stop-color="#ffffff"/><stop offset="1" stop-color="#ffea00"/></radialGradient><radialGradient cx="536.43061" cy="207.41443" r="8.62833" gradientUnits="userSpaceOnUse" id="color-18"><stop offset="0" stop-color="#ffffff"/><stop offset="1" stop-color="#ffea00"/></radialGradient><radialGradient cx="536.49418" cy="218.09223" r="7.79851" gradientUnits="userSpaceOnUse" id="color-19"><stop offset="0" stop-color="#ffffff"/><stop offset="1" stop-color="#ffea00"/></radialGradient><radialGradient cx="532.27663" cy="240.75876" r="6.17641" gradientUnits="userSpaceOnUse" id="color-20"><stop offset="0" stop-color="#ffffff"/><stop offset="1" stop-color="#ffea00"/></radialGradient><radialGradient cx="542.03119" cy="242.08728" r="4.81402" gradientUnits="userSpaceOnUse" id="color-21"><stop offset="0" stop-color="#ffffff"/><stop offset="1" stop-color="#ffea00"/></radialGradient><radialGradient cx="537.36661" cy="242.50617" r="4.56793" gradientUnits="userSpaceOnUse" id="color-22"><stop offset="0" stop-color="#ffffff"/><stop offset="1" stop-color="#ffea00"/></radialGradient></defs><g transform="translate(236.98574,74.38814)"><g stroke-miterlimit="10"><path d="M-235.73573,455.39039v-528.52853h930.93093v528.52853z" fill="#2d2d2d" stroke="#ffea00" stroke-width="2.5" stroke-linecap="butt"/><path d="M61.07358,276.71171v-100.23231h91.59159v100.23231z" fill="#ffffff" stroke="#b76600" stroke-width="5" stroke-linecap="butt"/><g stroke-width="1.5"><path d="M126.27667,247.70872l-0.10623,-20.60842h21.77695c0,0 -0.14909,13.01356 -0.1299,16.89053c0.0055,1.11116 -0.02208,3.573 -0.36735,4.09497c-0.55428,0.83791 -1.64489,1.23352 -2.34948,1.40881c-0.27265,0.06783 -2.69034,0.89622 -4.16617,1.06686c-0.45049,0.05209 -3.67408,0.30031 -5.31323,0.25711c-0.3641,-0.00959 -3.1372,-0.0527 -4.69914,-0.44692c-0.46757,-0.11801 -2.15989,-0.95535 -2.74174,-1.15066c-0.84308,-0.283 -1.79748,-1.19359 -1.79748,-1.19359" fill="url(#color-1)" stroke="url(#color-2)" stroke-linecap="round"/><path d="M145.92903,238.36057v-4.46162" fill="none" stroke="#ffea00" stroke-linecap="round"/><path d="M148.69886,227.20652c0,2.34675 -5.21863,4.24916 -11.65614,4.24916c-6.43751,0 -11.65614,-1.90241 -11.65614,-4.24916c0,-2.34675 5.21863,-4.24916 11.65614,-4.24916c6.43751,0 11.65614,1.90241 11.65614,4.24916z" fill="url(#color-3)" stroke="none" stroke-linecap="butt"/><path d="M150.69768,227.02096c0,2.80229 -6.23165,5.07398 -13.91878,5.07398c-7.68713,0 -13.91878,-2.2717 -13.91878,-5.07398c0,-2.80229 6.23165,-5.07399 13.91878,-5.07399c7.68712,0 13.91878,2.2717 13.91878,5.07399z" fill="url(#color-4)" stroke="none" stroke-linecap="butt"/><path d="M128.9227,226.51404l-0.07863,-15.25516h16.12015c0,0 -0.11036,9.63314 -0.09615,12.50303c0.00407,0.82252 -0.01635,2.64488 -0.27193,3.03125c-0.4103,0.62026 -1.21761,0.9131 -1.73918,1.04286c-0.20182,0.05021 -1.99149,0.66341 -3.08396,0.78973c-0.33347,0.03856 -2.7197,0.2223 -3.93306,0.19032c-0.26952,-0.0071 -2.32228,-0.03901 -3.47849,-0.33082c-0.34611,-0.08736 -1.59883,-0.70719 -2.02954,-0.85176c-0.62408,-0.20949 -1.33056,-0.88354 -1.33056,-0.88354" fill="url(#color-5)" stroke="url(#color-6)" stroke-linecap="round"/><path d="M143.47015,216.29151v3.30266" fill="none" stroke="#ffea00" stroke-linecap="round"/><path d="M145.52048,211.33751c0,1.73715 -3.86303,3.14539 -8.62833,3.14539c-4.7653,0 -8.62833,-1.40824 -8.62833,-3.14539c0,-1.73716 3.86303,-3.14539 8.62833,-3.14539c4.7653,0 8.62833,1.40824 8.62833,3.14539z" fill="url(#color-7)" stroke="none" stroke-linecap="butt"/><path d="M129.15721,224.28732v-4.54401c0,0 5.04622,0.98249 7.6143,0.98249c2.62948,0 7.98273,-0.98249 7.98273,-0.98249v4.54401c0,0 -5.27073,1.22811 -7.85991,1.22811c-2.60966,0 -7.73711,-1.22811 -7.73711,-1.22811z" fill="url(#color-8)" stroke="none" stroke-linecap="butt"/><path d="M137.59548,226.55216c-0.3461,0 -0.3461,-0.3461 -0.3461,-0.3461v-0.20569c0,-0.46941 -0.03035,-0.93062 -0.05808,-1.3936c-0.32103,0.02134 -0.69298,-0.01773 -1.11962,-0.12188l-0.26364,-0.19388c0,0 -0.24473,-0.24473 0,-0.48947c0.24473,-0.24473 0.48947,0 0.48947,0l-0.05794,0.01181c0.37178,0.09563 0.67306,0.13712 0.9173,0.12507c-0.00637,-0.16873 -0.01033,-0.33832 -0.01033,-0.50923c0,-0.77997 -0.09699,-1.52875 -0.2271,-2.26897c-0.14443,-0.06545 -0.2986,-0.12484 -0.46475,-0.18053c-0.56204,-0.1884 -1.07108,-0.05883 -1.42302,-0.67108c-0.6411,-1.11528 0.21969,-2.14048 1.28117,-2.62555c-0.06037,-0.65321 -0.0194,-1.22331 -0.18444,-1.88345c0,0 -0.08394,-0.33577 0.25183,-0.41971c0.33577,-0.08394 0.41971,0.25183 0.41971,0.25183c0.15924,0.63695 0.1424,1.20352 0.18846,1.82306c0.35574,-0.07887 0.70406,-0.09008 0.99957,-0.01795c0,0 0.33577,0.08394 0.25183,0.41971c-0.08394,0.33577 -0.41971,0.25183 -0.41971,0.25183c-0.20184,-0.05192 -0.47173,-0.03679 -0.75579,0.03218c0.11694,0.84883 0.29804,1.67149 0.45571,2.4988c0.0063,0.00296 0.01248,0.00596 0.01852,0.009c0.61639,0.30967 0.96291,0.77943 1.31383,1.34353c0.03601,1.24069 -0.25632,2.09802 -0.97874,2.4464c0.02983,0.5192 0.06797,1.03462 0.06797,1.56208v0.20569c0,0 0,0.3461 -0.3461,0.3461zM137.83874,223.42919c0,0.06807 0.00063,0.13591 0.00179,0.20355c0.23297,-0.28483 0.31716,-0.76638 0.34933,-1.44027c-0.15837,-0.21144 -0.32078,-0.38905 -0.49527,-0.54128c0.08631,0.58094 0.14415,1.17016 0.14415,1.778zM135.63402,219.96756c0.15587,0.27679 0.67206,0.38378 1.15153,0.47936c-0.13363,-0.6801 -0.27795,-1.3591 -0.3828,-2.05478c-0.64469,0.34065 -1.13592,0.92337 -0.76873,1.57543z" fill="#ffea00" stroke="#ffea00" stroke-linecap="butt"/><path d="M126.45614,237.79433l13.23416,12.83714" fill="none" stroke="#ffea00" stroke-linecap="round"/><path d="M137.17582,248.51401l10.85201,-8.07284" fill="none" stroke="#ffea00" stroke-linecap="round"/><path d="M126.56177,247.7263l0.2964,-8.78954l12.05641,10.9229l-7.34407,0.56726z" fill="url(#color-9)" stroke="#ffea00" stroke-linecap="butt"/><path d="M137.67871,248.53277l9.62804,-6.70134l-0.1465,6.7465l-8.25766,1.61135z" fill="url(#color-10)" stroke="#ffd100" stroke-linecap="butt"/><path d="M147.56225,241.55328c0,0 -1.47464,3.56714 -2.16328,3.60246c-0.69232,0.0355 -1.97966,-3.39001 -1.97966,-3.39001" fill="none" stroke="#ffea00" stroke-linecap="round"/><path d="M139.78584,240.94773l-3.00178,-0.06526" fill="none" stroke="#ffea00" stroke-linecap="round"/><path d="M138.28494,241.79606l1.23987,6.32985l-2.0882,1.95768l-1.37038,-1.95768l2.15346,-7.17818" fill="url(#color-11)" stroke="#ffea00" stroke-linecap="round"/></g><text transform="translate(64.613,190.70987) scale(0.30525,0.30525)" font-size="40" xml:space="preserve" fill="#000000" stroke="#fbff00" stroke-width="1" stroke-linecap="butt" font-family="Sans Serif" font-weight="normal" text-anchor="start"><tspan x="0" dy="0">vote </tspan><tspan x="0" dy="46.15px">richmallow</tspan><tspan x="0" dy="46.15px">for         </tspan><tspan x="0" dy="46.15px">mayor</tspan></text><text transform="translate(64.613,266.63259) scale(0.10803,0.10803)" font-size="40" xml:space="preserve" fill="#000000" stroke="#fbff00" stroke-width="1" stroke-linecap="butt" font-family="Sans Serif" font-weight="normal" text-anchor="start"><tspan x="0" dy="0">or else i will come to </tspan><tspan x="0" dy="46.15px">your house and abduct u</tspan></text><path d="M460.61204,272.78863v-100.23231h91.59159v100.23231z" fill="#ffffff" stroke="#b76600" stroke-width="5" stroke-linecap="butt"/><g stroke-width="1.5"><path d="M525.81513,243.78564l-0.10623,-20.60842h21.77695c0,0 -0.14909,13.01356 -0.1299,16.89053c0.0055,1.11116 -0.02208,3.573 -0.36735,4.09497c-0.55428,0.83791 -1.64489,1.23352 -2.34948,1.40881c-0.27265,0.06783 -2.69034,0.89622 -4.16617,1.06686c-0.45049,0.05209 -3.67408,0.30031 -5.31323,0.25711c-0.3641,-0.00959 -3.1372,-0.0527 -4.69914,-0.44692c-0.46757,-0.11801 -2.15989,-0.95535 -2.74174,-1.15066c-0.84308,-0.283 -1.79748,-1.19359 -1.79748,-1.19359" fill="url(#color-12)" stroke="url(#color-13)" stroke-linecap="round"/><path d="M545.46749,234.43749v-4.46162" fill="none" stroke="#ffea00" stroke-linecap="round"/><path d="M548.23732,223.28344c0,2.34675 -5.21863,4.24916 -11.65614,4.24916c-6.43751,0 -11.65614,-1.90241 -11.65614,-4.24916c0,-2.34675 5.21863,-4.24916 11.65614,-4.24916c6.43751,0 11.65614,1.90241 11.65614,4.24916z" fill="url(#color-14)" stroke="none" stroke-linecap="butt"/><path d="M550.23614,223.09788c0,2.80229 -6.23165,5.07398 -13.91878,5.07398c-7.68713,0 -13.91878,-2.2717 -13.91878,-5.07398c0,-2.80229 6.23165,-5.07399 13.91878,-5.07399c7.68712,0 13.91878,2.2717 13.91878,5.07399z" fill="url(#color-15)" stroke="none" stroke-linecap="butt"/><path d="M528.46116,222.59096l-0.07863,-15.25516h16.12015c0,0 -0.11036,9.63314 -0.09615,12.50303c0.00407,0.82252 -0.01635,2.64488 -0.27193,3.03125c-0.4103,0.62026 -1.21761,0.9131 -1.73918,1.04286c-0.20182,0.05021 -1.99149,0.66341 -3.08396,0.78973c-0.33347,0.03856 -2.7197,0.2223 -3.93306,0.19032c-0.26952,-0.0071 -2.32228,-0.03901 -3.47849,-0.33082c-0.34611,-0.08736 -1.59883,-0.70719 -2.02954,-0.85176c-0.62408,-0.20949 -1.33056,-0.88354 -1.33056,-0.88354" fill="url(#color-16)" stroke="url(#color-17)" stroke-linecap="round"/><path d="M543.00861,212.36843v3.30266" fill="none" stroke="#ffea00" stroke-linecap="round"/><path d="M545.05894,207.41443c0,1.73715 -3.86303,3.14539 -8.62833,3.14539c-4.7653,0 -8.62833,-1.40824 -8.62833,-3.14539c0,-1.73716 3.86303,-3.14539 8.62833,-3.14539c4.7653,0 8.62833,1.40824 8.62833,3.14539z" fill="url(#color-18)" stroke="none" stroke-linecap="butt"/><path d="M528.69567,220.36424v-4.54401c0,0 5.04622,0.98249 7.6143,0.98249c2.62948,0 7.98273,-0.98249 7.98273,-0.98249v4.54401c0,0 -5.27073,1.22811 -7.85991,1.22811c-2.60966,0 -7.73711,-1.22811 -7.73711,-1.22811z" fill="url(#color-19)" stroke="none" stroke-linecap="butt"/><path d="M537.13394,222.62908c-0.3461,0 -0.3461,-0.3461 -0.3461,-0.3461v-0.20569c0,-0.46941 -0.03035,-0.93062 -0.05808,-1.3936c-0.32103,0.02134 -0.69298,-0.01773 -1.11962,-0.12188l-0.26364,-0.19388c0,0 -0.24473,-0.24473 0,-0.48947c0.24473,-0.24473 0.48947,0 0.48947,0l-0.05794,0.01181c0.37178,0.09563 0.67306,0.13712 0.9173,0.12507c-0.00637,-0.16873 -0.01033,-0.33832 -0.01033,-0.50923c0,-0.77997 -0.09699,-1.52875 -0.2271,-2.26897c-0.14443,-0.06545 -0.2986,-0.12484 -0.46475,-0.18053c-0.56204,-0.1884 -1.07108,-0.05883 -1.42302,-0.67108c-0.6411,-1.11528 0.21969,-2.14048 1.28117,-2.62555c-0.06037,-0.65321 -0.0194,-1.22331 -0.18444,-1.88345c0,0 -0.08394,-0.33577 0.25183,-0.41971c0.33577,-0.08394 0.41971,0.25183 0.41971,0.25183c0.15924,0.63695 0.1424,1.20352 0.18846,1.82306c0.35574,-0.07887 0.70406,-0.09008 0.99957,-0.01795c0,0 0.33577,0.08394 0.25183,0.41971c-0.08394,0.33577 -0.41971,0.25183 -0.41971,0.25183c-0.20184,-0.05192 -0.47173,-0.03679 -0.75579,0.03218c0.11694,0.84883 0.29804,1.67149 0.45571,2.4988c0.0063,0.00296 0.01248,0.00596 0.01852,0.009c0.61639,0.30967 0.96291,0.77943 1.31383,1.34353c0.03601,1.24069 -0.25632,2.09802 -0.97874,2.4464c0.02983,0.5192 0.06797,1.03462 0.06797,1.56208v0.20569c0,0 0,0.3461 -0.3461,0.3461zM537.3772,219.50611c0,0.06807 0.00063,0.13591 0.00179,0.20355c0.23297,-0.28483 0.31716,-0.76638 0.34933,-1.44027c-0.15837,-0.21144 -0.32078,-0.38905 -0.49527,-0.54128c0.08631,0.58094 0.14415,1.17016 0.14415,1.778zM535.17248,216.04448c0.15587,0.27679 0.67206,0.38378 1.15153,0.47936c-0.13363,-0.6801 -0.27795,-1.3591 -0.3828,-2.05478c-0.64469,0.34065 -1.13592,0.92337 -0.76873,1.57543z" fill="#ffea00" stroke="#ffea00" stroke-linecap="butt"/><path d="M525.9946,233.87125l13.23416,12.83714" fill="none" stroke="#ffea00" stroke-linecap="round"/><path d="M536.71428,244.59093l10.85201,-8.07284" fill="none" stroke="#ffea00" stroke-linecap="round"/><path d="M526.10023,243.80322l0.2964,-8.78954l12.05641,10.9229l-7.34407,0.56726z" fill="url(#color-20)" stroke="#ffea00" stroke-linecap="butt"/><path d="M537.21717,244.60969l9.62804,-6.70134l-0.1465,6.7465l-8.25766,1.61135z" fill="url(#color-21)" stroke="#ffd100" stroke-linecap="butt"/><path d="M547.10071,237.6302c0,0 -1.47464,3.56714 -2.16328,3.60246c-0.69232,0.0355 -1.97966,-3.39001 -1.97966,-3.39001" fill="none" stroke="#ffea00" stroke-linecap="round"/><path d="M539.3243,237.02465l-3.00178,-0.06526" fill="none" stroke="#ffea00" stroke-linecap="round"/><path d="M537.8234,237.87298l1.23987,6.32985l-2.0882,1.95768l-1.37038,-1.95768l2.15346,-7.17818" fill="url(#color-22)" stroke="#ffea00" stroke-linecap="round"/></g><text transform="translate(464.15146,186.78679) scale(0.30525,0.30525)" font-size="40" xml:space="preserve" fill="#000000" stroke="#fbff00" stroke-width="1" stroke-linecap="butt" font-family="Sans Serif" font-weight="normal" text-anchor="start"><tspan x="0" dy="0">vote </tspan><tspan x="0" dy="46.15px">richmallow</tspan><tspan x="0" dy="46.15px">for         </tspan><tspan x="0" dy="46.15px">mayor</tspan></text><text transform="translate(464.15146,262.70952) scale(0.10803,0.10803)" font-size="40" xml:space="preserve" fill="#000000" stroke="#fbff00" stroke-width="1" stroke-linecap="butt" font-family="Sans Serif" font-weight="normal" text-anchor="start"><tspan x="0" dy="0">or else i will come to </tspan><tspan x="0" dy="46.15px">your house and abduct u</tspan></text></g></g></svg>