<svg version="1.1" xmlns="http://www.w3.org/2000/svg" xmlns:xlink="http://www.w3.org/1999/xlink" width="921.90788" height="541.29533" viewBox="0,0,921.90788,541.29533"><g transform="translate(140.95394,90.64766)"><g stroke-miterlimit="10"><path d="M-139.95394,449.64768v-539.29533h919.90788v539.29533z" fill="#ffffff" stroke="#000000" stroke-width="2" stroke-linecap="butt"/><path d="M73.31361,316.1502l10.32686,-43.44819l45.85428,11.14878c0,0 -6.97626,27.32548 -8.92069,35.49878c-0.55726,2.3425 -1.8757,7.51213 -2.86994,8.43445c-1.59608,1.48055 -4.09505,1.75523 -5.66839,1.76363c-0.60884,0.00323 -6.1237,0.50975 -9.31863,0.11354c-0.97524,-0.12095 -7.89002,-1.24859 -11.31936,-2.17874c-0.76174,-0.20663 -6.57883,-1.71708 -9.66587,-3.34676c-0.92413,-0.48786 -4.05886,-3.11737 -5.18403,-3.82652c-1.63033,-1.02751 -3.17378,-3.4335 -3.17378,-3.4335" fill="#ffffff" stroke="#000000" stroke-width="2.5" stroke-linecap="round"/><path d="M121.76426,297.13298l-2.28416,9.39454" fill="none" stroke="#000000" stroke-width="2.5" stroke-linecap="round"/><path d="M131.02271,284.45917c-1.20144,4.94137 -13.1639,6.27547 -26.71895,2.97978c-13.55506,-3.2957 -23.56962,-9.97321 -22.36821,-14.91456c1.20144,-4.94137 13.1639,-6.27547 26.71895,-2.97979c13.55506,3.29571 23.56965,9.97319 22.36821,14.91458z" fill="#000000" stroke="none" stroke-width="0" stroke-linecap="butt"/><path d="M117.02298,317.01647c-0.48982,-0.03658 -0.85814,-0.45149 -0.82264,-0.92672c0.03549,-0.47525 0.46132,-0.83086 0.95115,-0.79428c0.48982,0.03658 0.85814,0.45149 0.82265,0.92672c-0.03549,0.47525 -0.46133,0.83086 -0.95115,0.79428z" fill="#ff0000" stroke="#000000" stroke-width="1" stroke-linecap="butt"/><path d="M85.6057,326.07496l-16.53194,11.04493" fill="none" stroke="#000000" stroke-width="2.5" stroke-linecap="round"/><path d="M123.71955,310.7609l6.56403,16.0151" fill="none" stroke="#000000" stroke-width="2.5" stroke-linecap="round"/><path d="M64.67697,312.29028l12.62902,-13.51933" fill="none" stroke="#000000" stroke-width="2.5" stroke-linecap="round"/><path d="M102.86716,351.13841l2.68746,-19.69957" fill="none" stroke="#000000" stroke-width="2.5" stroke-linecap="round"/><path d="M128.9067,287.32204c-1.1289,4.9539 -12.68475,6.42229 -25.81073,3.27974c-13.12598,-3.14255 -22.85154,-9.70601 -21.72264,-14.65991c1.1289,-4.9539 12.68476,-6.42229 25.81074,-3.27974c13.12598,3.14254 22.85154,9.70601 21.72264,14.65992z" fill-opacity="0.50196" fill="#000000" stroke="none" stroke-width="0" stroke-linecap="butt"/><path d="M128.22973,290.37954c-1.11705,4.95468 -12.50403,6.43414 -25.43355,3.30446c-12.92952,-3.12968 -22.50542,-9.68333 -21.38838,-14.638c1.11705,-4.95468 12.50405,-6.43414 25.43357,-3.30446c12.92952,3.12966 22.50542,9.68332 21.38837,14.63801z" fill-opacity="0.50196" fill="#000000" stroke="none" stroke-width="0" stroke-linecap="butt"/></g></g></svg>