<svg version="1.1" xmlns="http://www.w3.org/2000/svg" xmlns:xlink="http://www.w3.org/1999/xlink" width="921.90788" height="541.29533" viewBox="0,0,921.90788,541.29533"><g transform="translate(140.95394,90.64766)"><g stroke-miterlimit="10"><path d="M-139.95394,449.64768v-539.29533h919.90788v539.29533z" fill="#ffffff" stroke="#000000" stroke-width="2" stroke-linecap="butt"/><path d="M68.35146,326.42621l-0.40482,-44.65676l47.18979,-0.18453c0,0 -0.21279,28.20115 -0.13837,36.60222c0.02134,2.40778 -0.01757,7.74275 -0.76133,8.87676c-1.194,1.82041 -3.55396,2.68692 -5.07929,3.07275c-0.59026,0.14928 -5.82227,1.96485 -9.0189,2.34716c-0.97576,0.1167 -7.95904,0.68192 -11.5114,0.60217c-0.78907,-0.01772 -6.79865,-0.08762 -10.18664,-0.92862c-1.01422,-0.25176 -4.68851,-2.05189 -5.95101,-2.47021c-1.82932,-0.6061 -3.90519,-2.57124 -3.90519,-2.57124" fill="#ffffff" stroke="#000000" stroke-width="2.5" stroke-linecap="round"/><path d="M110.82036,296.33444l0.03779,9.66815" fill="none" stroke="#000000" stroke-width="2.5" stroke-linecap="round"/><path d="M116.76576,281.80872c0.01987,5.08531 -11.27258,9.25199 -25.22241,9.30653c-13.94984,0.05456 -25.27453,-4.02371 -25.29441,-9.10898c-0.01987,-5.08531 11.27258,-9.25199 25.22241,-9.30654c13.94985,-0.05455 25.27454,4.02367 25.29442,9.109z" fill="#000000" stroke="none" stroke-width="0" stroke-linecap="butt"/><path d="M110.99075,316.77468c-0.48428,0.08207 -0.94144,-0.23228 -1.02105,-0.70214c-0.07963,-0.46988 0.24839,-0.91731 0.73267,-0.99937c0.48428,-0.08207 0.94144,0.23228 1.02106,0.70214c0.07963,0.46988 -0.2484,0.91732 -0.73267,0.99937z" fill="#ff0000" stroke="#000000" stroke-width="1" stroke-linecap="butt"/><path d="M83.0672,333.57266l-3.33224,19.60081" fill="none" stroke="#000000" stroke-width="2.5" stroke-linecap="round"/><path d="M116.09007,310.659l7.7076,15.4972" fill="none" stroke="#000000" stroke-width="2.5" stroke-linecap="round"/><path d="M59.04079,324.75235l9.01445,-16.15563" fill="none" stroke="#000000" stroke-width="2.5" stroke-linecap="round"/><path d="M103.3198,333.52835l2.12,19.76869" fill="none" stroke="#000000" stroke-width="2.5" stroke-linecap="round"/><path d="M116.11051,284.70211c0.10291,5.07986 -10.7546,9.29985 -24.25094,9.42563c-13.49634,0.12577 -24.52071,-3.89029 -24.62361,-8.97015c-0.10291,-5.07986 10.75461,-9.29986 24.25095,-9.42563c13.49634,-0.12579 24.52071,3.89029 24.62362,8.97015z" fill-opacity="0.50196" fill="#000000" stroke="none" stroke-width="0" stroke-linecap="butt"/><path d="M116.19322,287.83257c0.11459,5.07774 -10.57639,9.26763 -23.87898,9.35838c-13.3026,0.09075 -24.17938,-3.952 -24.29398,-9.02974c-0.1146,-5.07774 10.57639,-9.26764 23.87899,-9.35838c13.3026,-0.09076 24.17938,3.95199 24.29398,9.02975z" fill-opacity="0.50196" fill="#000000" stroke="none" stroke-width="0" stroke-linecap="butt"/></g></g></svg>