<svg version="1.1" xmlns="http://www.w3.org/2000/svg" xmlns:xlink="http://www.w3.org/1999/xlink" width="490" height="455.6" viewBox="0,0,490,455.6"><g transform="translate(1.5,-37.9)"><g stroke-miterlimit="10"><path d="M-1.5,493.5v-144h490v144z" fill="#ff0000" stroke="none" stroke-width="NaN"/><path d="M48.22281,370.5v-35h34v35z" fill="#000000" stroke="#001026" stroke-width="1.2"/><path d="M140.22281,337.5v-18h18v18z" fill="#000000" stroke="#001026" stroke-width="1.2"/><path d="M212.22281,353.5v-18h18v18z" fill="#000000" stroke="#001026" stroke-width="1.2"/><path d="M289.22281,337.5v-18h18v18z" fill="#000000" stroke="#001026" stroke-width="1.2"/><path d="M290.22281,245.5v-18h18v18z" fill="#000000" stroke="#001026" stroke-width="1.2"/><path d="M291.22281,148.5v-18c0,0 8.23534,0 11.52719,0c2.46675,0 6.47281,0 6.47281,0v18z" fill="#000000" stroke="#001026" stroke-width="1.2"/><path d="M66.22281,64.5c0,0 222,-3.97631 222,-7.25c0,-2.53579 1,-18.75 1,-18.75h18v18z" fill="#000000" stroke="#001026" stroke-width="1.2"/><path d="M185.22281,165.5v-18c0,0 8.23534,0 11.52719,0c2.46675,0 6.47281,0 6.47281,0v18z" fill="#000000" stroke="#001026" stroke-width="1.2"/><path d="M92.22281,158.5v-18c0,0 8.23534,0 11.52719,0c2.46675,0 6.47281,0 6.47281,0v18z" fill="#000000" stroke="#001026" stroke-width="1.2"/><path d="M28.22281,138.5v-18c0,0 8.23534,0 11.52719,0c2.46675,0 6.47281,0 6.47281,0v18z" fill="#000000" stroke="#001026" stroke-width="1.2"/></g></g></svg>