<svg version="1.1" xmlns="http://www.w3.org/2000/svg" xmlns:xlink="http://www.w3.org/1999/xlink" width="921.90788" height="541.29533" viewBox="0,0,921.90788,541.29533"><g transform="translate(140.95394,90.64766)"><g stroke-miterlimit="10"><path d="M-139.95394,449.64768v-539.29533h919.90788v539.29533z" fill="#ffffff" stroke="#000000" stroke-width="2" stroke-linecap="butt"/><path d="M64.9605,329.13172l-11.16175,-43.24125l45.75265,-11.55879c0,0 6.59412,27.4202 8.69225,35.5554c0.60134,2.33158 1.85009,7.51849 1.40174,8.79838c-0.71978,2.05461 -2.80113,3.46467 -4.1884,4.20693c-0.53683,0.28722 -5.17662,3.3109 -8.18673,4.45278c-0.91882,0.34855 -7.55971,2.58109 -11.02646,3.36035c-0.77006,0.17309 -6.61914,1.55445 -10.10995,1.55526c-1.045,0.00025 -5.04494,-0.86072 -6.37106,-0.96224c-1.92149,-0.14708 -4.40999,-1.55363 -4.40999,-1.55363" fill="#ffffff" stroke="#000000" stroke-width="2.5" stroke-linecap="round"/><path d="M98.91952,289.68674l2.36813,9.37372" fill="none" stroke="#000000" stroke-width="2.5" stroke-linecap="round"/><path d="M101.18662,274.15599c1.2456,4.93044 -8.70881,11.6973 -22.23381,15.1142c-13.52501,3.41692 -25.49894,2.18993 -26.74454,-2.74048c-1.2456,-4.93044 8.70881,-11.6973 22.23381,-15.11421c13.52501,-3.41691 25.49895,-2.18996 26.74455,2.7405z" fill="#000000" stroke="none" stroke-width="0" stroke-linecap="butt"/><path d="M104.014,309.48267c-0.4502,0.19644 -0.96967,0.0016 -1.16024,-0.43519c-0.19059,-0.4368 0.01985,-0.95013 0.47005,-1.14656c0.4502,-0.19644 0.96967,-0.0016 1.16025,0.43519c0.19059,0.4368 -0.01986,0.95013 -0.47005,1.14656z" fill="#ff0000" stroke="#000000" stroke-width="1" stroke-linecap="butt"/><path d="M75.21065,350.61731l6.43186,-18.81294" fill="none" stroke="#000000" stroke-width="2.5" stroke-linecap="round"/><path d="M107.977,301.07162l13.66412,10.62366" fill="none" stroke="#000000" stroke-width="2.5" stroke-linecap="round"/><path d="M47.25197,325.58047l11.11782,-14.78712" fill="none" stroke="#000000" stroke-width="2.5" stroke-linecap="round"/><path d="M107.2943,346.28753l-6.8246,-18.67405" fill="none" stroke="#000000" stroke-width="2.5" stroke-linecap="round"/><path d="M101.06357,277.85224c1.5506,4.83851 -7.64773,11.98587 -20.54504,15.96408c-12.89732,3.97821 -24.60967,3.2808 -26.16027,-1.5577c-1.5506,-4.83851 7.64773,-11.98587 20.54505,-15.96408c12.89731,-3.97822 24.60967,-3.28081 26.16027,1.55771z" fill-opacity="0.50196" fill="#000000" stroke="none" stroke-width="0" stroke-linecap="butt"/><path d="M102.03761,280.82846c1.56119,4.83315 -7.48615,11.90405 -20.20782,15.79332c-12.72168,3.88926 -24.30023,3.12411 -25.86142,-1.70903c-0.98937,-3.06291 0.37702,-9.16738 6.14384,-12.64841c3.333,-2.01189 9.40442,-1.72039 14.06399,-3.14492c12.72167,-3.88928 24.30022,-3.12411 25.86142,1.70904z" fill-opacity="0.50196" fill="#000000" stroke="none" stroke-width="0" stroke-linecap="butt"/></g></g></svg>