<svg version="1.1" xmlns="http://www.w3.org/2000/svg" xmlns:xlink="http://www.w3.org/1999/xlink" width="588.8847" height="577.76344" viewBox="0,0,588.8847,577.76344"><g transform="translate(-51.1153,61.1)"><g stroke-miterlimit="10"><path d="M314.20645,99.63907v-7h181v7z" fill="#ff0000" stroke="#000000" stroke-width="0.5"/><path d="M80.18997,382.87295v-43h490v43z" fill="#ff0000" stroke="#000000" stroke-width="0.5"/><path d="M78.5,493.5v-144h490v144z" fill="#000000" stroke="none" stroke-width="NaN"/><path d="M51.7153,157.5v-218h34v218z" fill="#000000" stroke="#001026" stroke-width="1.2"/><path d="M213.18997,252.87295c0,7.1797 -15.67003,13 -35,13c-19.32997,0 -35,-5.8203 -35,-13c0,-7.1797 15.67003,-13 35,-13c19.32997,0 35,5.8203 35,13z" fill="#000000" stroke="#000000" stroke-width="0.5"/><path d="M337.18997,263.37295c0,8.56041 -14.7746,15.5 -33,15.5c-18.2254,0 -33,-6.93959 -33,-15.5c0,-8.56041 14.7746,-15.5 33,-15.5c18.2254,0 33,6.93959 33,15.5z" fill="#000000" stroke="#000000" stroke-width="0.5"/><path d="M414.18997,252.37295c0,6.35127 -5.14873,11.5 -11.5,11.5c-6.35127,0 -11.5,-5.14873 -11.5,-11.5c0,-6.35127 5.14873,-11.5 11.5,-11.5c6.35127,0 11.5,5.14873 11.5,11.5z" fill="#000000" stroke="#000000" stroke-width="0.5"/><path d="M505.18997,316.37295c0,2.48528 -19.0279,4.5 -42.5,4.5c-23.4721,0 -42.5,-2.01472 -42.5,-4.5c0,-2.48528 19.0279,-4.5 42.5,-4.5c23.4721,0 42.5,2.01472 42.5,4.5z" fill="#000000" stroke="#000000" stroke-width="0.5"/><path d="M500.18997,311.87295v-109h12v109z" fill="#000000" stroke="#000000" stroke-width="0.5"/><path d="M510.18997,209.87295v-8h53v8z" fill="#000000" stroke="#000000" stroke-width="0.5"/><path d="M494.20645,99.38446v-133h11v133z" fill="#000000" stroke="#000000" stroke-width="0.5"/><path d="M66.20645,156.38446v-6h437v6z" fill="#000000" stroke="#000000" stroke-width="0.5"/><path d="M242.20645,153.63907v-115h10v115z" fill="#000000" stroke="#000000" stroke-width="0.5"/><path d="M314.20645,99.63907v-5h189v5z" fill="#000000" stroke="#000000" stroke-width="0.5"/><path d="M250.20645,41.63907v-2h199v2z" fill="#000000" stroke="#000000" stroke-width="0.5"/><path d="M150.20645,87.63907v-57h6v57z" fill="#ff0000" stroke="#000000" stroke-width="0.5"/><text transform="translate(194.20645,173.13907) scale(0.5,0.5)" font-size="40" xml:space="preserve" fill="#000000" stroke="none" stroke-width="1" font-family="Sans Serif" font-weight="normal" text-anchor="start"><tspan x="0" dy="0">move to the side</tspan></text><path d="M100.45645,359.63907v-24h78.33333v24z" fill="#000000" stroke="#000000" stroke-width="0.5"/><path d="M563.42342,516.66344v-531.53153h76.57658v531.53153z" fill="#000000" stroke="none" stroke-width="0"/></g></g></svg>