<svg version="1.1" xmlns="http://www.w3.org/2000/svg" xmlns:xlink="http://www.w3.org/1999/xlink" width="921.90788" height="541.29533" viewBox="0,0,921.90788,541.29533"><g transform="translate(140.95394,90.64766)"><g stroke-miterlimit="10"><path d="M-139.95394,449.64768v-539.29533h919.90788v539.29533z" fill="#ffffff" stroke="#000000" stroke-width="2" stroke-linecap="butt"/><path d="M71.48061,319.15565l5.65722,-44.29882l46.77855,6.21914c0,0 -4.0367,27.91155 -5.1027,36.24506c-0.30549,2.38842 -1.06781,7.66878 -1.95855,8.69141c-1.42993,1.64158 -3.88563,2.17994 -5.4492,2.35528c-0.60506,0.06783 -6.03501,1.1568 -9.25394,1.10192c-0.98257,-0.01676 -7.97798,-0.40414 -11.48666,-0.96506c-0.77937,-0.12462 -6.72391,-1.00915 -9.96648,-2.30199c-0.97069,-0.38702 -4.36679,-2.66898 -5.56087,-3.25471c-1.73017,-0.84868 -3.52027,-3.07726 -3.52027,-3.07726" fill="#ffffff" stroke="#000000" stroke-width="2.5" stroke-linecap="round"/><path d="M116.36506,304.68748l1.27419,-9.58391" fill="none" stroke="#000000" stroke-width="2.5" stroke-linecap="round"/><path d="M125.50028,281.51874c-0.67021,5.04097 -12.42351,7.63716 -26.25178,5.79873c-13.82829,-1.83844 -24.49498,-7.41535 -23.82481,-12.4563c0.67021,-5.04097 12.42351,-7.63716 26.25178,-5.79874c13.82829,1.83845 24.49501,7.41533 23.82481,12.45632z" fill="#000000" stroke="none" stroke-width="0" stroke-linecap="butt"/><path d="M115.03505,315.37798c-0.49093,0.01561 -0.90121,-0.35786 -0.91635,-0.83418c-0.01515,-0.47633 0.37053,-0.87513 0.86148,-0.89074c0.49093,-0.01561 0.90121,0.35786 0.91636,0.83418c0.01515,0.47633 -0.37054,0.87513 -0.86148,0.89074z" fill="#ff0000" stroke="#000000" stroke-width="1" stroke-linecap="butt"/><path d="M73.60236,344.46773l10.47127,-16.90112" fill="none" stroke="#000000" stroke-width="2.5" stroke-linecap="round"/><path d="M121.34317,308.58907l8.73225,14.94382" fill="none" stroke="#000000" stroke-width="2.5" stroke-linecap="round"/><path d="M73.44742,300.92022l-8.54148,16.41059" fill="none" stroke="#000000" stroke-width="2.5" stroke-linecap="round"/><path d="M104.58066,350.80961l0.5815,-19.87353" fill="none" stroke="#000000" stroke-width="2.5" stroke-linecap="round"/><path d="M123.65373,285.01834c-0.80157,5.01727 -12.23624,7.24038 -25.54006,4.96546c-13.30382,-2.27492 -23.4389,-8.18641 -22.63733,-13.20367c0.80157,-5.01727 12.23625,-7.24039 25.54007,-4.96546c13.30382,2.27491 23.4389,8.1864 22.63733,13.20368z" fill-opacity="0.50196" fill="#000000" stroke="none" stroke-width="0" stroke-linecap="butt"/><path d="M123.17875,288.11366c-0.78969,5.01727 -12.05513,7.24035 -25.16207,4.9654c-13.10694,-2.27496 -23.09205,-8.18647 -22.30236,-13.20373c0.78969,-5.01727 12.05514,-7.24036 25.16209,-4.9654c13.10695,2.27495 23.09204,8.18646 22.30235,13.20374z" fill-opacity="0.50196" fill="#000000" stroke="none" stroke-width="0" stroke-linecap="butt"/></g></g></svg>