<svg version="1.1" xmlns="http://www.w3.org/2000/svg" xmlns:xlink="http://www.w3.org/1999/xlink" width="921.90788" height="541.29533" viewBox="0,0,921.90788,541.29533"><g transform="translate(140.95394,90.64766)"><g stroke-miterlimit="10"><path d="M-139.95394,449.64768v-539.29533h919.90788v539.29533z" fill="#ffffff" stroke="#000000" stroke-width="2" stroke-linecap="butt"/><path d="M72.37487,317.9826l7.54387,-44.01681l46.47028,8.21117c0,0 -5.225,27.7137 -6.64591,35.99408c-0.40721,2.37319 -1.39434,7.61618 -2.32794,8.59984c-1.49873,1.57902 -3.97518,2.01201 -5.54481,2.12042c-0.6074,0.04193 -6.07891,0.89802 -9.29256,0.70572c-0.98096,-0.05871 -7.95344,-0.74448 -11.43497,-1.45473c-0.77334,-0.15779 -6.67468,-1.29538 -9.85908,-2.72551c-0.95328,-0.42812 -4.24883,-2.85303 -5.4168,-3.48922c-1.69235,-0.92179 -3.38564,-3.22479 -3.38564,-3.22479" fill="#ffffff" stroke="#000000" stroke-width="2.5" stroke-linecap="round"/><path d="M117.83624,305.44446l1.68231,-9.52075" fill="none" stroke="#000000" stroke-width="2.5" stroke-linecap="round"/><path d="M127.95257,282.68697c-0.88488,5.00775 -12.73833,7.09964 -26.47547,4.67234c-13.73716,-2.42731 -24.15596,-8.45466 -23.27112,-13.46239c0.88488,-5.00775 12.73833,-7.09964 26.47547,-4.67235c13.73716,2.42732 24.15599,8.45464 23.27112,13.46241z" fill="#000000" stroke="none" stroke-width="0" stroke-linecap="butt"/><path d="M116.0509,316.06841c-0.49115,-0.00537 -0.88511,-0.39602 -0.87989,-0.87255c0.00521,-0.47654 0.40757,-0.85851 0.89873,-0.85314c0.49115,0.00537 0.88511,0.39602 0.8799,0.87255c-0.00521,0.47654 -0.40758,0.85851 -0.89873,0.85314z" fill="#ff0000" stroke="#000000" stroke-width="1" stroke-linecap="butt"/><path d="M70.16996,339.99195l14.40981,-13.69865" fill="none" stroke="#000000" stroke-width="2.5" stroke-linecap="round"/><path d="M132.7477,323.86821l-10.98969,-13.37148" fill="none" stroke="#000000" stroke-width="2.5" stroke-linecap="round"/><path d="M74.65186,300.75876l-9.12383,16.09411" fill="none" stroke="#000000" stroke-width="2.5" stroke-linecap="round"/><path d="M105.5226,331.19067l-1.42968,19.83057" fill="none" stroke="#000000" stroke-width="2.5" stroke-linecap="round"/><path d="M126.40849,286.09138c-0.96813,4.98781 -12.47046,6.82909 -25.69118,4.11261c-13.22073,-2.71648 -23.15343,-8.96204 -22.18531,-13.94984c0.96813,-4.98781 12.47046,-6.82909 25.6912,-4.11261c13.22073,2.71647 23.15343,8.96203 22.1853,13.94985z" fill-opacity="0.50196" fill="#000000" stroke="none" stroke-width="0" stroke-linecap="butt"/><path d="M125.83074,289.16918c-0.95626,4.98821 -12.28945,6.83509 -25.3134,4.12513c-13.02396,-2.70997 -22.80677,-8.95056 -21.85051,-13.93875c0.95626,-4.98821 12.28946,-6.83509 25.31342,-4.12512c13.02396,2.70995 22.80676,8.95054 21.8505,13.93876z" fill-opacity="0.50196" fill="#000000" stroke="none" stroke-width="0" stroke-linecap="butt"/></g></g></svg>