<svg version="1.1" xmlns="http://www.w3.org/2000/svg" xmlns:xlink="http://www.w3.org/1999/xlink" width="921.90788" height="541.29533" viewBox="0,0,921.90788,541.29533"><g transform="translate(140.95394,90.64766)"><g stroke-miterlimit="10"><path d="M-139.95394,449.64768v-539.29533h919.90788v539.29533z" fill="#ffffff" stroke="#000000" stroke-width="2" stroke-linecap="butt"/><path d="M93.39501,341.06661l-44.2866,5.75205l-5.83681,-46.82779c0,0 28.02351,-3.1674 36.35517,-4.2478c2.38789,-0.30965 7.6891,-0.91019 8.90403,-0.30763c1.95035,0.9673 3.09337,3.20645 3.65915,4.67458c0.21894,0.5681 2.64825,5.54492 3.41077,8.67273c0.23274,0.95474 1.63053,7.82001 1.97697,11.35633c0.07695,0.78551 0.72754,6.76017 0.29848,10.22452c-0.12843,1.03707 -1.47541,4.90055 -1.73945,6.20408c-0.38257,1.88876 -2.08485,4.1851 -2.08485,4.1851" fill="#ffffff" stroke="#000000" stroke-width="2.5" stroke-linecap="round"/><path d="M68.02596,301.31296l-9.59399,1.19583" fill="none" stroke="#000000" stroke-width="2.5" stroke-linecap="round"/><path d="M43.29859,298.34646c5.0463,-0.62899 10.53587,10.08294 12.26129,23.92575c1.72543,13.84283 -0.96667,25.57455 -6.01296,26.20353c-5.0463,0.62899 -10.53587,-10.08294 -12.2613,-23.92576c-1.72543,-13.84283 0.96666,-25.57455 6.01297,-26.20354z" fill="#000000" stroke="none" stroke-width="0" stroke-linecap="butt"/><path d="M78.70458,299.89074c0.13951,0.47096 -0.11782,0.96248 -0.57475,1.09783c-0.45694,0.13535 -0.94045,-0.13671 -1.07996,-0.60767c-0.13951,-0.47096 0.11782,-0.96248 0.57475,-1.09783c0.45694,-0.13535 0.94045,0.13671 1.07996,0.60767z" fill="#ff0000" stroke="#000000" stroke-width="1" stroke-linecap="butt"/><path d="M111.20158,308.66521l-16.02097,-5.2586" fill="none" stroke="#000000" stroke-width="2.5" stroke-linecap="round"/><path d="M116.29635,328.82788l-17.87773,-8.69954" fill="none" stroke="#000000" stroke-width="2.5" stroke-linecap="round"/><path d="M79.85622,287.78682l-14.32124,9.69707" fill="none" stroke="#000000" stroke-width="2.5" stroke-linecap="round"/><path d="M85.29234,349.73155l-17.40012,-6.28496" fill="none" stroke="#000000" stroke-width="2.5" stroke-linecap="round"/><path d="M46.32367,298.31649c5.03344,-0.69283 10.48717,9.60041 12.18125,22.99059c1.69408,13.39019 -1.013,24.80672 -6.04643,25.49954c-5.03344,0.69283 -10.48718,-9.60042 -12.18126,-22.99061c-1.69409,-13.39018 1.01299,-24.80672 6.04644,-25.49954z" fill-opacity="0.50196" fill="#000000" stroke="none" stroke-width="0" stroke-linecap="butt"/><path d="M49.42328,297.87037c5.02998,-0.70419 10.43445,9.42715 12.07122,22.62898c1.63677,13.20183 -1.11397,24.47489 -6.14395,25.17907c-5.02998,0.70419 -10.43446,-9.42716 -12.07122,-22.62899c-1.63678,-13.20183 1.11396,-24.47488 6.14396,-25.17907z" fill-opacity="0.50196" fill="#000000" stroke="none" stroke-width="0" stroke-linecap="butt"/></g></g></svg>