<svg version="1.1" xmlns="http://www.w3.org/2000/svg" xmlns:xlink="http://www.w3.org/1999/xlink" width="42.80251" height="35.23577" viewBox="0,0,42.80251,35.23577"><g transform="translate(-218.59874,-162.38211)"><g data-paper-data="{&quot;isPaintingLayer&quot;:true}" fill-rule="nonzero" stroke="none" stroke-width="0.5" stroke-linecap="butt" stroke-linejoin="miter" stroke-miterlimit="10" stroke-dasharray="" stroke-dashoffset="0" style="mix-blend-mode: normal"><path d="" fill="#000000"/><g><g><g><g><path d="M239.9233,167.04084c-0.06113,0.67288 -0.33181,1.86701 -0.54454,2.48971c-0.1355,0.39663 -0.36976,0.73774 -0.48039,1.1462c-0.00712,0.90115 -0.34162,1.27691 -0.51349,2.14227c-0.08101,0.40791 0.05582,0.84587 0.00219,1.26074c-0.02862,0.22133 -0.14437,0.41624 -0.17044,0.63806c-0.10704,0.91093 -0.08331,2.1697 0.00661,3.07175c0.0561,0.56288 0.2777,1.08692 0.33426,1.64974c0.09163,0.91177 -0.10423,1.87822 0.00231,2.78515c0.12246,1.04257 0.17363,1.97377 0.17363,3.04259c0,0 0,0.17098 -0.0777,0.31903c0.62243,0 1.24484,0 1.86727,0c1.00585,0 2.23621,-0.2553 3.21823,0.04227c0.27314,0.08277 0.50792,0.31671 0.78233,0.39268c0.38336,0.10616 0.79144,-0.08925 1.17803,-0.00327c0.52257,0.11624 1.02915,0.33691 1.55469,0.43007c1.21672,0.41187 2.46876,0.83356 3.7166,1.0566c0.46682,0.08344 0.94331,0.09331 1.40356,0.22145c0.47522,0.13229 0.90019,0.47041 1.36789,0.63933c0.14907,0.05384 0.31189,-0.03803 0.46547,-0.01025c0.25483,0.0461 0.49641,0.17007 0.74111,0.27551c-0.2679,0.21809 -0.53632,0.43215 -0.81856,0.62266c-1.20776,0.8152 -2.62075,1.25087 -3.78784,2.18994c-0.85649,0.68915 -1.66752,1.68629 -2.39579,2.47669c-0.08713,0.26136 -0.11961,0.54785 -0.26136,0.78409c-0.12679,0.2113 -0.41178,0.3027 -0.52273,0.52273c-0.46418,0.92058 -0.5863,1.29923 -0.62323,1.80428c-1.71244,-0.23795 -3.43297,-0.17232 -5.16627,-0.17232c-0.84661,0 -1.79166,0.16081 -2.62478,-0.00687c-0.17736,-0.03569 -0.33427,-0.17451 -0.51131,-0.21269c-0.93238,-0.20109 -2.04823,0.00686 -2.99957,0.00686c-2.32927,0 -4.65856,0 -6.98781,0c-0.52944,0 -1.33215,0.14593 -1.82782,-0.02281c-0.19761,-0.06728 -0.31519,-0.35156 -0.51131,-0.42537c-0.38074,-0.1433 -0.8179,0.16467 -1.19305,0c-0.80909,-0.35515 -0.99612,-1.14401 -1.29279,-2.00693c-0.16162,-0.47008 -0.26922,-0.97414 -0.48011,-1.41276c-0.09391,-0.19533 -0.30488,-0.28964 -0.37208,-0.50145c-0.07444,-0.23466 0.0074,-0.50766 -0.02693,-0.75637c-0.09011,-0.65288 -0.43306,-1.25579 -0.51131,-1.91419c-0.05561,-0.46786 -0.03001,-0.95892 -0.15406,-1.40584c0,0 -0.13474,-0.50442 0.26948,-0.67258c0.01932,-0.00804 0.03805,-0.01455 0.05617,-0.01965c0.02178,-0.11549 0.06491,-0.19624 0.06491,-0.19624l0.39411,-0.7191c1.23427,-1.04019 2.60007,-1.00649 4.05085,-1.00649c2.15884,0 4.31768,0 6.47651,0c0.91641,0 1.83281,0 2.74922,0c-0.26234,-1.49329 -0.63445,-3.0036 -0.7861,-4.5084c-0.09779,-0.97034 -0.00313,-2.06296 -0.00313,-3.04202c0,-0.92166 0,-1.8433 0,-2.76494c0,-0.10815 -0.00222,-1.32391 0.00769,-1.37668c0.06545,-0.34876 0.24837,-0.65107 0.3183,-0.99847c0.10553,-0.52427 0.09827,-1.07715 0.2023,-1.6019c0.16302,-0.5893 0.24475,-1.23961 0.32938,-1.8507c0.05805,-0.41917 -0.05587,-0.8565 0,-1.27613c0.14399,-1.08147 0.54218,-2.10959 0.68174,-3.19033c0.06365,-0.49294 0.10275,-0.98295 0.12679,-1.47471c0.38717,0.39347 0.97106,0.69016 1.85167,0.69016c0.491,0 0.88977,-0.09225 1.21362,-0.24208c0.0889,1.02463 0.13004,2.07221 0.03749,3.09095z" fill="#784600"/><path d="M261.40126,190.79694c0,0.08745 -0.01692,0.16997 -0.0469,0.24274c-0.00886,-0.01086 -0.01783,-0.02174 -0.0269,-0.03263c-0.04039,-0.04847 -0.08099,-0.09479 -0.12173,-0.13907c0.06502,-0.03264 0.12999,-0.06563 0.19494,-0.09898c0.00038,0.00925 0.00058,0.01855 0.00058,0.02792z" fill="#784600"/><path d="M237.19403,164.72149c-0.0589,0.44232 -0.28158,0.8339 -0.34087,1.27613c-0.05626,0.41953 0.05587,0.8565 0,1.27613c-0.08735,0.65601 -0.42677,1.26096 -0.5113,1.91419c-0.02631,0.20332 0.02619,0.41408 0.00231,0.61786c-0.06064,0.51736 -0.27302,0.99354 -0.34317,1.50903c-0.08324,0.61167 0.06092,1.2849 -0.00001,1.90372c-0.15219,1.54576 -0.16492,3.03804 -0.16492,4.60443c-0.00401,0.40283 0.12033,0.79195 0.16494,1.19095c0.0055,0.04921 0.00701,1.6877 0.0055,1.78668c-0.00646,0.42244 0.07915,0.868 -0.03243,1.26692c-0.25752,0.92067 -1.13769,1.02141 -1.9189,1.00219c0.52253,-0.49823 0.85128,-0.90694 1.00625,-1.26029c0.06736,-0.04403 0.11809,-0.09455 0.12536,-0.14886c0.17075,-1.27522 -0.19337,-2.58939 -0.20287,-3.83758c0,-1.60142 0.00805,-3.13128 0.16934,-4.71255c0.06561,-0.6433 -0.07766,-1.32532 0.00661,-1.96596c0.06612,-0.50267 0.28231,-0.96408 0.33856,-1.46861c0.02424,-0.21733 -0.02735,-0.44199 0.00231,-0.65827c0.08994,-0.65605 0.4237,-1.26087 0.51131,-1.91419c0.05626,-0.41953 -0.05587,-0.8565 0,-1.27613c0.0589,-0.44232 0.28158,-0.8339 0.34087,-1.27613c0.06188,-0.46147 -0.0055,-0.93577 -0.0055,-1.40364c0,-0.00851 0,-0.01701 0,-0.02553c0.04757,-0.0175 0.0973,-0.0292 0.14796,-0.0383c0.16816,0.27427 0.40105,0.5366 0.72362,0.73712c0.0106,0.30221 0.01463,0.60379 -0.02492,0.9007z" fill="#000000"/><path d="" fill="#000000"/><path d="" fill="#000000"/><path d="M240.60272,164.55112c0.20033,0.74998 0.08419,1.39311 0.17275,2.14709c0.0722,0.61459 0.23474,1.23606 0.16812,1.85165c-0.07739,0.7152 -0.41605,1.41603 -0.51131,2.12688c-0.03115,0.23248 0.04829,0.48392 -0.01279,0.70698c-0.11755,0.42919 -0.54041,0.93724 -0.70678,1.35565c-0.07987,0.20083 -0.09009,0.43754 -0.17044,0.63806c-0.23014,0.5744 -0.40152,0.53541 -0.47349,1.12769c-0.02833,0.23304 0.04611,0.48301 -0.01279,0.70698c-0.06386,0.24288 -0.27169,0.39746 -0.34087,0.63806c-0.10124,0.35212 0.01828,0.74795 0.01828,1.12204c0,0.63806 0,1.27613 0,1.91419c-0.00401,0.40283 0.11558,0.79282 0.16494,1.19095c0.02127,0.17158 -0.07927,0.35891 -0.02693,0.51975c0.05216,0.16028 0.24141,0.19676 0.30893,0.34764c-0.43301,0.48107 -0.43301,1.15463 -0.43301,1.15463l0.27534,0.30288c-0.10239,-0.00834 -0.19927,-0.03568 -0.28275,-0.10686c-0.19092,-0.16277 -0.15997,-0.54616 -0.28375,-0.78987c-0.09772,-0.19241 -0.30488,-0.28964 -0.37208,-0.50145c-0.07444,-0.23466 0.00825,-0.50786 -0.02693,-0.75637c-0.06406,-0.45262 -0.17245,-0.90169 -0.17594,-1.3613c0,-0.85035 -0.01086,-1.70203 0,-2.55227c0.00338,-0.26413 -0.04503,-0.54008 0.01828,-0.79214c0.06125,-0.24393 0.27508,-0.39598 0.34087,-0.63807c0.04885,-0.17974 -0.03972,-0.38236 -0.01279,-0.56915c0.07478,-0.51861 0.36029,-0.95326 0.54913,-1.42457c0.08035,-0.20051 0.08965,-0.43781 0.17044,-0.63806c0.1742,-0.4318 0.53809,-0.73638 0.6567,-1.1966c0.04656,-0.18068 -0.0377,-0.38193 -0.01279,-0.56915c0.09504,-0.71403 0.42368,-1.41356 0.51131,-2.12688c0.06339,-0.51606 -0.11496,-1.03428 -0.17275,-1.55136c-0.08536,-0.76392 0.03314,-1.35316 -0.16812,-2.10669c-0.00182,-0.23895 -0.00312,-0.4779 -0.00404,-0.71685c0.36345,-0.14238 0.64048,-0.35425 0.85162,-0.59452c-0.00077,0.38036 -0.00261,0.76072 -0.00639,1.14103z" fill="#000000"/><path d="" fill="#000000"/></g><path d="M236.97334,163.4079c0,0 0,0.09139 -0.03418,0.20579c0.07566,0.06615 0.15783,0.12865 0.24707,0.18635c0.95583,0.00238 1.26529,0.03981 2.13936,-0.40252c0,-0.23136 0,-0.4627 0,-0.69403c0.16141,-0.00871 0.31657,-0.04093 0.46213,-0.09326l0.45282,-0.15094c0.12302,-0.05264 0.25638,-0.0684 0.39184,-0.07718c0,0.3337 0,0.6674 0,1.00111c0.11039,-0.12968 0.20213,-0.26705 0.27836,-0.40582c0.02734,0.61794 0.06899,1.27369 -0.02543,1.84197c-0.09031,0.54355 -0.43179,1.02472 -0.52273,1.56816c-0.20461,1.22281 0.01181,2.6769 0,3.92041c-0.33431,0.97563 -0.2047,1.07132 -1.0148,1.70744c-0.18414,0.14458 -0.49062,0.13213 -0.62224,0.32573c-0.09034,0.13286 0.06748,0.31541 0.07732,0.47578c0.016,0.26087 0,0.52273 0,0.78409c0,0.78409 0,1.56816 0,2.35224c0,1.52591 0.24161,3.30423 -0.00843,4.80915c-0.08476,0.51007 -0.51757,0.94644 -0.51429,1.4635c0.00137,0.21526 0.17316,0.39531 0.2353,0.6014c0.09844,0.32643 0.30102,1.97332 0.72641,2.2202c0.13896,0.08065 0.31541,-0.06748 0.47578,-0.07732c0.26087,-0.016 0.52273,0 0.78409,0c0.94561,0.00898 1.56389,0.38624 2.45691,0.53116c0.27295,0.04429 0.56363,-0.0669 0.82954,0.00903c0.86572,0.24725 1.64956,0.88839 2.56815,1.0364c0.25804,0.04157 0.52647,-0.04418 0.78409,0c0.54306,0.09314 1.02472,0.43179 1.56816,0.52273c0.76005,0.12717 1.58737,-0.12336 2.35224,0c1.37414,0.22163 2.68027,0.62318 4.02236,1.07054c0,0 0.00534,0.00177 0.01486,0.0055c0.12836,0.0412 0.28097,0.12585 0.36612,0.29986c0.06195,0.10624 0.09565,0.24412 0.05973,0.41956c-0.02139,0.17779 -0.09697,0.29795 -0.18934,0.37914c-0.13579,0.13815 -0.30734,0.17021 -0.44214,0.16869c-0.01022,0.00053 -0.01584,0.00053 -0.01584,0.00053c-1.36564,-0.01696 -1.96498,0.86666 -2.98344,1.68142c-1.2889,1.03112 -2.72485,1.6839 -3.87263,2.83168c-0.28978,0.28978 -0.75416,0.45195 -0.9038,0.83346c-0.16055,0.40932 0.04974,0.87844 0.04974,1.31812v0.26136c0,0 0,0.35488 -0.26154,0.54157c-0.01245,0.63454 -0.65321,0.63454 -0.65321,0.63454c-3.48481,0 -7.49233,0 -10.97713,0c-1.53761,0 -3.29313,0.23607 -4.80915,-0.00843c-0.63668,-0.10269 -1.2694,-0.26978 -1.91421,-0.28095c-0.26136,-0.17424 -0.48842,-0.41665 -0.78409,-0.52273c-0.92722,-0.33267 -2.24596,0.36225 -3.19703,-0.02171c-0.30617,-0.1236 -0.49525,-0.43702 -0.73469,-0.66436c-0.96884,-0.9198 -1.31534,-1.89835 -1.726,-3.13037c-0.15842,-0.47528 -0.19608,-1.00461 -0.45867,-1.43127c-0.12916,-0.20986 -0.40151,-0.30818 -0.52273,-0.52273c-0.1773,-0.31382 -0.28878,-0.66782 -0.35052,-1.02294c-0.11532,-0.66343 0.01821,-1.43166 0.35052,-2.01633c0.10543,-0.1855 0.39711,-0.23055 0.47487,-0.42926c0.05615,-0.14345 0.00645,-0.30852 -0.02045,-0.46802c0.78192,-0.34446 1.50276,-0.79897 2.06076,-1.47264c0.04278,-0.05165 0.08384,-0.10444 0.12333,-0.15826c0.10984,-0.03219 0.21834,-0.06511 0.32427,-0.10043c2.48998,-0.82843 5.18226,-0.57126 7.78607,-0.55626c0.83769,0.00483 1.5015,-0.25707 2.35224,-0.26136c0.12925,-0.00066 0.26206,-0.02167 0.39313,-0.03234c-0.07131,-0.30493 0.00172,-0.70604 -0.00109,-0.88242c-0.00541,-0.33922 -0.02465,-0.67016 -0.05041,-0.99712c0.7675,-0.88453 0.76457,-1.45253 0.15993,-1.99187c-0.08143,-0.21466 -0.20689,-0.40764 -0.36538,-0.56791c-0.00357,-0.12018 -0.00553,-0.24129 -0.00553,-0.3635c0.00898,-0.94561 0.38624,-1.56389 0.53117,-2.45691c0.04429,-0.27295 -0.0664,-0.56351 0.00903,-0.82954c0.10631,-0.37483 0.42457,-0.6684 0.52273,-1.04544c0.0752,-0.28887 -0.0148,-0.59683 -0.01747,-0.89532c-0.01218,-1.35229 -0.21329,-2.95198 0.00843,-4.28643c0.09031,-0.54355 0.44612,-1.02252 0.52273,-1.56816c0.10992,-0.78301 -0.00843,-1.7137 -0.00843,-2.50894c0,-0.69071 0,-1.38144 0,-2.07216c-0.13913,-0.0994 -0.2042,-0.24641 -0.23464,-0.36217c0.03101,-0.00823 0.06182,-0.01736 0.09241,-0.02752c0.20651,-0.06861 0.31045,-0.31641 0.50523,-0.41343c0.20048,-0.09987 0.45194,-0.06204 0.65188,-0.16297c0.01614,-0.00815 0.03147,-0.01743 0.04611,-0.02763c-0.00909,0.16063 -0.01557,0.31319 -0.01557,0.45227zM232.71563,191.79902c0.61988,-0.20662 0.82649,0.41324 0.82649,0.41324l0.26883,0.80802c0.0879,0.46751 0.39717,0.94593 0.26371,1.40253c-0.14002,0.47909 -0.63187,0.7774 -0.99953,1.11497c-0.28821,0.26464 -0.62294,0.53072 -0.96891,0.78686c1.0616,0.00289 2.17547,-0.11603 3.16826,-0.11603c1.95651,0 3.91303,0 5.86954,0l-0.06488,-0.03353c-0.59365,-0.19828 -1.23229,-0.26413 -1.80558,-0.51525c-0.43998,-0.19273 -1.10413,-0.27708 -1.23731,-0.73859c-0.11631,-0.40303 0.90561,-1.34386 1.21934,-1.65759c0.50282,-0.50282 1.08489,-1.29131 1.68667,-1.66194c0.55884,-0.34419 1.5755,-0.54836 1.78678,-1.36043c0.04428,-0.17019 -0.38707,-0.61448 -0.47997,-0.66426c-0.5421,-0.29046 -1.64541,-0.21012 -2.00103,-0.67643c-0.74465,-0.97642 0.22437,-1.86061 0.80829,-2.57724c-0.17161,-0.03096 -0.35371,-0.04894 -0.55462,-0.04645c-0.2932,0 -1.71882,0.01845 -1.87646,-0.07732c-0.94157,-0.57199 -1.10971,-2.07287 -1.36448,-3.007c-0.08845,-0.32434 -0.28871,-0.63058 -0.28743,-0.96677c0.00231,-0.60649 0.43439,-1.09452 0.53117,-1.67283c0.23892,-1.42783 -0.00843,-3.15016 -0.00843,-4.59983c0,-1.04216 -0.0429,-2.09516 0,-3.13632c0.01503,-0.36473 -0.10217,-0.77452 0.07732,-1.0924c0.52965,-0.93797 1.17566,-0.60126 1.49929,-1.62588c-0.01547,-1.2463 -0.20405,-2.69232 0,-3.92041c0.08455,-0.50881 0.38918,-0.96297 0.50234,-1.46471c-0.84207,0.3573 -1.3523,0.39096 -2.34031,0.39312c0,0.56632 0,1.13265 0,1.69897c0,0.25397 0.00191,1.8627 -0.00843,1.93419c-0.07898,0.54531 -0.43179,1.02472 -0.52273,1.56816c-0.28312,1.69193 0.39396,3.60079 -0.00903,5.27266c-0.0913,0.37877 -0.41492,0.67104 -0.52273,1.04544c-0.06812,0.23661 0.05049,0.49591 0.00903,0.73862c-0.1453,0.85098 -0.52518,1.36987 -0.51429,2.24758c0,0.48785 -0.09151,0.98278 -0.00843,1.4635c0.04692,0.27147 0.21749,0.51209 0.26136,0.78409c0.11476,0.71156 -0.18346,1.57724 -0.01959,2.26757c0.10518,0.44314 0.69142,0.88183 0.47345,1.28174c-0.36704,0.6734 -2.20152,0.22913 -2.82367,0.33666c-0.27147,0.04692 -0.51209,0.21749 -0.78409,0.26136c-0.57859,0.09331 -1.16783,0.11688 -1.76215,0.10691c-0.11354,0.09162 -0.22676,0.12936 -0.22676,0.12936c-0.40849,0.13264 -1.06183,0.06543 -1.19871,0.47253c-0.10638,0.31642 0.06612,0.66485 0.07732,0.99849c0.02336,0.69657 0.0404,1.39509 0,2.09088c-0.02234,0.38464 0.13862,0.85804 -0.11233,1.15039c-0.22004,0.25633 -2.77475,1.4465 -3.30478,1.31505c-0.39972,-0.09914 -0.68796,-0.4808 -0.92841,-0.81512c-0.11755,-0.16344 0.05701,-0.45748 -0.08759,-0.59753c-0.10069,-0.09753 -0.26801,0.08222 -0.40204,0.12332l-0.23052,0.19238c0,0 -0.58443,0.2922 -0.87662,-0.2922c-0.2922,-0.58443 0.2922,-0.87662 0.2922,-0.87662l0.81493,-0.33034c0.38871,0.04111 0.84338,-0.09717 1.16614,0.12332c0.29276,0.20002 0.28702,0.64849 0.43513,0.97063c0.03597,0.07823 0.03092,0.23037 0.11703,0.23031c0.3719,-0.00023 0.63568,-0.39738 0.98612,-0.52186c0.30472,-0.10825 0.68567,-0.04964 0.93631,-0.25397c0.11176,-0.09113 -0.09892,-0.27419 -0.11233,-0.41776c-0.06487,-0.69394 -0.01844,-1.39417 0,-2.09088c0.01426,-0.5388 -0.15436,-1.12846 0.07732,-1.61511c0.02059,-0.04327 0.04457,-0.08478 0.07153,-0.12462c-0.77207,-0.04256 -1.53961,-0.0566 -2.29057,0.03601c-0.45149,0.05567 -1.25295,0.34386 -1.70273,0.49409c-0.24022,0.08007 -1.59994,0.31762 -1.69384,0.67561c-0.06631,0.25282 0.09863,0.54204 0,0.78409c-0.31671,0.77724 -0.89399,0.75285 -0.74278,1.73618c0.06454,0.41978 0.4798,0.70174 0.69493,1.06795c0.0546,0.09294 0.52926,1.53251 0.58678,1.70506c0.3607,1.08207 0.63238,1.77682 1.41031,2.61955c0.11117,0.12044 0.15815,0.32124 0.31075,0.38108c0.40932,0.16055 0.87844,-0.04974 1.31812,-0.04974c1.08474,0 1.6159,-0.06637 2.54159,0.55075c0.40496,-0.00826 0.80621,0.06234 1.20609,0.13976c0.04143,-0.03792 0.07165,-0.05807 0.07165,-0.05807c0.72188,-0.47749 1.33677,-1.02314 2.03908,-1.5298c0.19656,-0.14181 0.50519,-0.21927 0.56864,-0.45318c0.06418,-0.23659 -0.17267,-0.45889 -0.25901,-0.68835l-0.25388,-0.76014c0,0 -0.20662,-0.61988 0.41324,-0.82649zM242.39292,196.10878c-0.01831,0.03663 -0.03777,0.0698 -0.05817,0.09984c1.13138,0 2.26277,0 3.39415,0h0.13068v-0.13068c0,-0.26517 -0.01255,-1.6639 0.04974,-1.81821c0.1236,-0.30617 0.4377,-0.49461 0.66436,-0.73469c0.47487,-0.50301 1.10222,-1.3034 1.68667,-1.66196c0.25287,-0.15512 0.57411,-0.16199 0.84052,-0.2925c0.45598,-0.22338 0.78313,-0.64659 1.17963,-0.96378c0.80068,-0.64056 1.54851,-1.34365 2.38797,-1.8407c-0.59648,-0.16127 -1.19685,-0.29954 -1.81703,-0.40672c-0.75857,-0.13111 -1.58861,0.12687 -2.35224,0c-0.54355,-0.09031 -1.02418,-0.43506 -1.56816,-0.52273c-0.25804,-0.04157 -0.52647,0.04418 -0.78409,0c-0.97008,-0.16637 -1.75042,-0.79474 -2.65905,-1.05449c-0.23674,-0.06767 -0.49591,0.05048 -0.73862,0.00903c-0.12818,-0.02188 -0.24884,-0.0491 -0.36433,-0.07949c-0.01857,0.037 -0.03279,0.05834 -0.03279,0.05834c-0.18703,0.27863 -0.34752,0.57704 -0.56108,0.83589c-0.11785,0.14283 -0.29051,0.23056 -0.42436,0.35852c-0.03829,0.03662 -0.13982,0.11815 -0.08864,0.13193c0.22983,0.06184 0.48079,-0.01558 0.71311,0.03612c0.99982,0.22252 2.19825,1.05053 2.03311,2.28224c-0.05738,0.42796 -0.39722,0.77291 -0.66504,1.1116c-0.27363,0.34603 -0.58212,0.67605 -0.94588,0.92565c-0.22716,0.15586 -0.54586,0.12298 -0.78409,0.26136c-0.64291,0.37347 -1.03637,1.25192 -1.61942,1.75707c0.48098,0.11858 1.18411,0.36565 1.48253,0.46493l0.60831,0.2968c0,0 0.58443,0.2922 0.2922,0.87662z" fill="#000000"/><path d="" fill="#000000"/><path d="" fill="#000000"/></g><path d="M234.22176,180.71412c0.01507,-0.41614 0.0439,-0.83277 0.0439,-1.22228c0,-1.87794 -0.01656,-3.75683 0.0109,-5.63462c0.27564,-0.55127 0.38028,-1.00545 0.48327,-1.60136c0.06814,-0.39424 -0.11812,-0.6147 0.01223,-1.03063c0.05858,-0.1869 0.26337,-0.30331 0.32595,-0.48892c0.0477,-0.14151 -0.04535,-0.30276 -0.01013,-0.44789c0.06455,-0.26608 0.24428,-0.4959 0.30394,-0.76312c0.0546,-0.24457 -0.03573,-0.51035 0.03411,-0.75101c0.05401,-0.18605 0.25848,-0.30019 0.32396,-0.48253c0.115,-0.32024 -0.01747,-1.00466 -0.01747,-1.34868c0,-0.59573 0.10642,-1.30504 0.00527,-1.89039c-0.02925,-0.16929 -0.13562,-0.31931 -0.16297,-0.48892c-0.00995,-0.0617 -0.0054,-0.60967 -0.00217,-0.91342l-0.07689,0.02563c-0.18487,0.10492 -0.42759,0.07944 -0.60834,0.19129c-0.18795,0.11631 -0.28466,0.34489 -0.46488,0.47285c-0.09707,0.06892 -1.19735,0.59357 -1.33748,0.67375c-0.51114,0.2924 -1.12219,0.56288 -1.5759,0.94051c-0.19474,0.1621 -0.327,0.40176 -0.54648,0.52837c-0.19401,0.11192 -0.45722,0.05219 -0.65188,0.16297c-0.18774,0.10684 -0.27569,0.33929 -0.45143,0.46488c-0.58452,0.41778 -1.30764,0.61961 -1.91946,0.96937c-0.15366,0.08785 -0.24181,0.2659 -0.39446,0.35545c-0.05335,0.0313 -0.10969,0.05826 -0.16791,0.08082c0.31897,0.06999 0.65523,0.23837 0.90572,0.32186c0.67884,0.22628 1.5282,0.27307 1.40848,1.29497c-0.02629,0.22443 -0.28338,0.35233 -0.43438,0.52043c-0.56488,0.62882 -1.41408,0.95807 -1.92866,1.59991c-0.15572,0.19424 -0.41707,0.37715 -0.40746,0.62591c0.00208,0.05365 0.09483,0.05054 0.14361,0.07297c0.20088,0.09235 0.5044,0.07457 0.60524,0.27133c0.41176,0.80346 -0.06767,1.25673 -0.51165,1.80894c-0.08278,0.10297 -0.19422,0.17929 -0.28717,0.27319c-0.04432,0.04479 -0.16437,0.09399 -0.12417,0.14249c0.11355,0.13695 0.39177,0.10278 0.46275,0.26592c0.11135,0.25591 0.12021,0.57769 0.0172,0.83708c-0.16623,0.41856 -0.81812,0.78808 -1.17523,1.02494c-0.32525,0.11071 -0.67028,0.17278 -0.97783,0.32595c-0.19446,0.09685 -0.34397,0.28054 -0.54985,0.34988c-0.15444,0.05202 -0.33334,-0.04855 -0.48892,0c-0.42235,0.13182 -0.68469,0.56789 -1.06977,0.78579c-0.2908,0.16455 -0.66811,0.13658 -0.95272,0.31163c-0.13519,0.08314 -0.19716,0.26352 -0.33939,0.3339c-0.2286,0.11312 -0.49407,0.12741 -0.73872,0.19961c-0.1387,0.04094 -0.29718,0.10841 -0.46239,0.17857c0.76803,-0.00124 1.53609,0.00067 2.30412,0.00067c0.35216,0.00334 0.69371,0.12374 1.04308,0.16822c0.40953,0.05216 0.82567,-0.00527 1.23851,-0.00527c1.11255,0 2.3691,-0.15127 3.47216,0.00305c0.71749,0.10039 1.42523,0.37479 2.13154,0.49071c0.40822,0.067 0.82738,-0.00485 1.24108,-0.00485c0.77306,0 1.54611,0 2.31918,0zM234.22218,181.52897c-0.77319,0 -1.5464,0 -2.3196,0c-0.07664,0 -1.32629,0.00147 -1.36645,-0.00485c-0.69842,-0.11002 -1.3984,-0.38367 -2.1057,-0.48711c-1.06344,-0.15551 -2.29893,0.00305 -3.3726,0.00305c-0.23105,0 -1.31829,0.00098 -1.36902,-0.00527c-0.3064,-0.03765 -0.6039,-0.16154 -0.91256,-0.1577c-0.65188,0 -1.30377,0 -1.95564,0c-0.39687,0 -0.81056,0.11135 -1.19058,-0.00305c-0.34961,-0.10526 -0.86046,-0.11907 -0.99475,-0.45859c-0.28811,-0.7285 1.21159,-1.0286 1.56757,-1.14716c0.3506,-0.11675 0.73922,-0.12704 1.06889,-0.29396c0.13257,-0.06712 0.18435,-0.24271 0.31247,-0.31798c0.30439,-0.1788 0.6973,-0.16356 1.00294,-0.34026c0.355,-0.20523 0.80687,-0.70216 1.21182,-0.84391c0.15382,-0.05383 0.33412,0.05098 0.48892,0c0.16583,-0.05462 0.27194,-0.22367 0.42798,-0.30199c0.06065,-0.03044 0.86402,-0.289 0.97783,-0.32595c0.0738,-0.04955 0.97976,-0.55281 0.7976,-0.74551c-0.14738,-0.15591 -0.46175,-0.17815 -0.51507,-0.38596c-0.07118,-0.27748 0.08064,-0.57575 0.20176,-0.83534c0.1666,-0.35702 0.57629,-0.55221 0.77491,-0.89247c0.04878,-0.08356 0.12199,-0.21406 0.05598,-0.28481c-0.08561,-0.09179 -0.27068,0.01867 -0.37259,-0.05462c-0.64242,-0.46204 -0.61093,-0.64995 -0.31477,-1.34043c0.34898,-0.81359 1.09806,-1.0924 1.7374,-1.60282c0.22969,-0.18338 0.39722,-0.43563 0.6221,-0.6249c0.06481,-0.05455 0.16974,-0.06149 0.2175,-0.13145c0.07912,-0.11585 -0.24903,-0.1342 -0.38419,-0.17175c-0.16551,-0.046 -0.32595,-0.10864 -0.48892,-0.16297c-0.48249,-0.16083 -1.75219,-0.43336 -1.90303,-0.97314c-0.08067,-0.28864 0.29067,-0.5378 0.51391,-0.73778c0.1303,-0.11672 0.34632,-0.07946 0.49722,-0.16797c0.14591,-0.08559 0.22709,-0.25914 0.37398,-0.34305c0.24459,-0.13971 0.53163,-0.19073 0.78301,-0.31783c0.37389,-0.18904 0.75125,-0.37842 1.09224,-0.62182c0.1994,-0.14234 0.31389,-0.39103 0.52639,-0.51294c0.19429,-0.11145 0.4569,-0.05274 0.65188,-0.16297c0.3681,-0.20811 0.6078,-0.60139 0.97406,-0.81269c0.76287,-0.44012 1.70052,-0.77132 2.41083,-1.2819c0.19483,-0.14003 0.30727,-0.38141 0.51294,-0.50497c0.21623,-0.12989 0.49148,-0.21314 0.77905,-0.27117l0.76401,-0.25467c0.04306,-0.01547 0.08948,-0.02392 0.13786,-0.02392c0.22502,0 0.40743,0.18242 0.40743,0.40743c0,0.04839 -0.00843,0.0948 -0.02392,0.13786l-0.14409,0.43228c0.00771,0.49803 0.08487,0.83737 0.16276,1.32023c0.10248,0.63547 0.00527,1.37629 0.00527,2.0209c0,0.44737 0.11479,1.16271 -0.01747,1.5848c-0.05921,0.18894 -0.27238,0.30524 -0.32793,0.49529c-0.06261,0.21418 0.03567,0.45144 -0.01252,0.66932c-0.05817,0.26308 -0.23761,0.48823 -0.30131,0.75002c-0.04177,0.17167 0.04521,0.36214 -0.01013,0.52993c-0.06135,0.18602 -0.2598,0.30455 -0.32595,0.48892c-0.10413,0.29025 0.06132,0.62059 0.01223,0.92502c-0.09768,0.60563 -0.21634,1.10163 -0.49455,1.65805c0.03543,1.81487 0.0109,3.63222 0.0109,5.44738c0,0.38496 -0.03484,0.80587 -0.05171,1.22413c0.0939,0.0093 0.37766,0.06557 0.37766,0.40559c0,0.33412 -0.274,0.39423 -0.37261,0.40506c0.00874,0.11762 0.0221,0.2328 0.04141,0.34453c0.02925,0.16929 0.13562,0.31931 0.16297,0.48892c0.07266,0.45053 0.00527,0.91268 0.00527,1.36902c0,0 0,0.40743 -0.40743,0.40743c-0.40743,0 -0.40743,-0.40743 -0.40743,-0.40743c0,-0.41284 0.07557,-0.8317 0.00527,-1.23851c-0.02925,-0.16929 -0.13562,-0.31931 -0.16297,-0.48892c-0.02474,-0.15341 -0.04008,-0.31155 -0.04874,-0.47269z" fill="#000000"/><path d="M231.90587,180.72158c-0.4137,0 -0.83382,0.07222 -1.24205,0.0052c-0.70629,-0.11593 -1.41594,-0.38999 -2.13344,-0.49039c-1.10305,-0.15433 -2.36293,-0.00358 -3.47547,-0.00358c-0.41284,0 -0.82992,0.05697 -1.23945,0.00483c-0.34937,-0.04449 -0.69165,-0.16533 -1.04382,-0.16867c-0.76803,0 -1.53719,-0.0028 -2.30522,-0.00156c0.16522,-0.07015 0.33495,-0.1494 0.47365,-0.19034c0.24465,-0.0722 0.50986,-0.0867 0.73847,-0.19983c0.14224,-0.07039 0.20419,-0.25079 0.33938,-0.33392c0.28461,-0.17504 0.66153,-0.14738 0.95233,-0.31193c0.38508,-0.2179 0.64706,-0.65421 1.06943,-0.78604c0.15556,-0.04855 0.33408,0.05177 0.48851,-0.00025c0.20587,-0.06935 0.35507,-0.25322 0.54953,-0.35007c0.30755,-0.15315 0.65166,-0.21566 0.97691,-0.32636c0.35712,-0.23685 1.00772,-0.60676 1.17395,-1.02531c0.10301,-0.25938 0.09043,-0.56531 -0.02094,-0.82122c-0.07099,-0.16313 -0.35033,-0.12935 -0.46387,-0.26631c-0.04021,-0.0485 0.08613,-0.11275 0.13044,-0.15754c0.09293,-0.0939 0.20396,-0.17039 0.28675,-0.27335c0.44396,-0.55219 0.91739,-0.99034 0.50562,-1.79381c-0.10083,-0.19676 -0.40766,-0.18169 -0.60853,-0.27404c-0.04878,-0.02244 -0.14198,-0.02002 -0.14406,-0.07368c-0.0096,-0.24877 0.25071,-0.43512 0.40644,-0.62935c0.51458,-0.64186 1.37669,-0.97822 1.94158,-1.60706c0.151,-0.16809 0.39839,-0.28291 0.42468,-0.50734c0.11972,-1.02192 -0.7251,-1.06707 -1.40394,-1.29335c-0.25048,-0.0835 -0.58477,-0.25205 -0.90373,-0.32202c0.05822,-0.02256 0.11166,-0.06557 0.16501,-0.09687c0.15266,-0.08958 0.24168,-0.2677 0.39534,-0.35554c0.61183,-0.34975 1.33796,-0.55117 1.92248,-0.96894c0.17573,-0.1256 0.26405,-0.35793 0.45177,-0.46477c0.19467,-0.11077 0.45851,-0.05076 0.65251,-0.16268c0.21947,-0.12663 0.352,-0.36614 0.54674,-0.52823c0.4537,-0.37764 1.06551,-0.64764 1.57666,-0.94005c0.14013,-0.08017 1.24088,-0.60448 1.33796,-0.6734c0.18022,-0.12796 0.27697,-0.35651 0.46492,-0.47283c0.18075,-0.11185 0.42366,-0.08619 0.60854,-0.19113l0.0769,-0.02562c-0.00323,0.30375 -0.00743,0.85204 0.00252,0.91374c0.02736,0.1696 0.13397,0.31989 0.16322,0.48918c0.10116,0.58535 -0.00451,1.2956 -0.00451,1.89132c0,0.344 0.13303,1.02936 0.01802,1.34958c-0.06549,0.18232 -0.26982,0.29674 -0.32383,0.48279c-0.06986,0.24067 0.02077,0.50708 -0.03384,0.75166c-0.05966,0.26723 -0.23917,0.49769 -0.30373,0.76377c-0.03521,0.14512 0.05795,0.30688 0.01025,0.44838c-0.06257,0.1856 -0.26728,0.30249 -0.32586,0.4894c-0.13035,0.41593 0.05598,0.63763 -0.01214,1.03188c-0.10299,0.59591 -0.20791,1.05214 -0.48355,1.60341c-0.02744,1.87777 -0.01352,3.76077 -0.01352,5.63871c0,0.38951 -0.02934,0.80654 -0.04439,1.22267c-0.77306,0 -1.54756,0.00082 -2.32062,0.00082z" data-paper-data="{&quot;noHover&quot;:false,&quot;origItem&quot;:[&quot;Path&quot;,{&quot;applyMatrix&quot;:true,&quot;segments&quot;:[[[223.85069,181.99591],[-2.16058,0],[0.04209,-1.16301]],[[223.97338,178.57982],[0,1.08864],[0,-5.24858]],[[224.00384,162.83193],[-0.07673,5.24808],[0.77036,-1.54071]],[[225.35452,158.35637],[-0.28783,1.66547],[0.19042,-1.10185]],[[225.38868,155.47592],[-0.36428,1.16245],[0.1637,-0.52237]],[[226.29963,154.10948],[-0.17487,0.51873],[0.13333,-0.3955]],[[226.27132,152.85769],[-0.09841,0.4056],[0.18043,-0.74368]],[[227.12081,150.72487],[-0.16675,0.74687],[0.15262,-0.68355]],[[227.21615,148.62591],[-0.19524,0.67261],[0.15094,-0.51998]],[[228.12155,147.27731],[-0.183,0.50958],[0.32141,-0.89499]],[[228.07269,143.50798],[0,0.96144],[0,-1.66499]],[[228.08739,138.22463],[0.28273,1.63595],[-0.08176,-0.4731]],[[227.63191,136.8582],[0.07645,0.47399],[-0.02781,-0.17245]],[[227.62583,134.3053],[-0.00899,0.84893],[0,0]],[[227.41095,134.37693],[0,0],[-0.51668,0.29325]],[[225.71073,134.91156],[0.50519,-0.31263],[-0.52531,0.32508]],[[224.41145,136.23312],[0.50371,-0.35764],[-0.2713,0.19262]],[[220.67336,138.11615],[0.39166,-0.22406],[-1.42855,0.81722]],[[216.26895,140.74475],[1.26804,-1.05544],[-0.54429,0.45303]],[[214.74163,142.22148],[0.6134,-0.35388],[-0.54223,0.31282]],[[212.91971,142.67696],[0.54407,-0.30961],[-0.52468,0.29858]],[[211.65805,143.97626],[0.49113,-0.35104],[-1.63364,1.16765]],[[206.29341,146.6855],[1.70997,-0.97752],[-0.42946,0.2455]],[[205.19095,147.67894],[0.42666,-0.25033],[-0.14911,0.08748]],[[204.72167,147.90486],[0.16272,-0.06306],[0.89145,0.19558]],[[207.25303,148.80441],[-0.70007,-0.23336],[1.89725,0.63242]],[[211.18952,152.42369],[0.33461,-2.85611],[-0.07349,0.62724]],[[209.97551,153.87821],[0.42204,-0.4698],[-1.57878,1.75747]],[[204.58519,158.34973],[1.43818,-1.79387],[-0.43522,0.54286]],[[203.44639,160.09906],[-0.02685,-0.69527],[0.00579,0.14996]],[[203.84776,160.30301],[-0.13635,-0.06269],[0.56142,0.25812]],[[205.5393,161.06131],[-0.28181,-0.54991],[1.15081,2.24558]],[[204.10934,166.11702],[1.24081,-1.5433],[-0.23137,0.28777]],[[203.30679,166.88055],[0.25972,-0.26247],[-0.12385,0.12516]],[[202.95974,167.27879],[-0.11238,-0.13556],[0.31734,0.38279]],[[204.25307,168.02199],[-0.19839,-0.45593],[0.31122,0.71522]],[[204.30113,170.36149],[0.2879,-0.72492],[-0.46459,1.16981]],[[201.01653,173.22603],[0.99808,-0.66196],[-0.90902,0.30941]],[[198.28365,174.13699],[0.85954,-0.42806],[-0.5435,0.27067]],[[196.74691,175.11488],[0.5754,-0.19381],[-0.43165,0.14539]],[[195.38047,175.11488],[0.43479,-0.1357],[-1.18043,0.36843]],[[192.39062,177.31106],[1.07623,-0.60901],[-0.81274,0.45991]],[[189.72792,178.18202],[0.79544,-0.48922],[-0.37782,0.23237]],[[188.77935,179.11524],[0.39754,-0.19673],[-0.63892,0.31618]],[[186.71477,179.67311],[0.68372,-0.20179],[-0.38765,0.11441]],[[185.42246,180.17215],[0.46175,-0.19605],[2.14654,-0.00345]],[[191.86215,180.174],[-2.14653,0],[0.98427,0.00934]],[[194.77742,180.64418],[-0.97643,-0.12434],[1.14458,0.14575]],[[198.23885,180.62948],[-1.15382,0],[3.10943,0]],[[207.94302,180.63801],[-3.08289,-0.43134],[2.00528,0.28056]],[[213.90034,182.00948],[-1.97399,-0.32401],[1.14094,0.18727]],[[217.36894,181.99591],[-1.15621,0],[2.16058,0]]],&quot;closed&quot;:true}]}" fill="#ffffff"/><path d="M238.33992,182.58829c0,-0.40743 0.40743,-0.40743 0.40743,-0.40743h0.13026c0.00486,-0.67941 -0.04878,-1.3752 -0.04878,-2.03713c0,-1.55404 -0.18444,-3.24768 0.00527,-4.79141c0.07838,-0.63786 0.32881,-1.23558 0.32068,-1.89039c0.00583,-0.20233 -0.04305,-0.41382 0.01747,-0.60698c0.05858,-0.1869 0.26938,-0.30139 0.32595,-0.48892c0.12314,-0.40828 -0.10652,-0.86474 -0.00659,-1.27931c0.05693,-0.23618 0.26474,-0.41677 0.32595,-0.65188c0.10163,-0.39038 -0.0109,-0.80675 -0.0109,-1.21015c0,-0.92351 0,-1.84701 0,-2.7705c0,-0.24292 -0.00625,-1.17835 0.03101,-1.29671c0.04614,-0.14656 0.2671,-0.18401 0.32595,-0.32595c0.05095,-0.12289 -0.04688,-0.26692 -0.02574,-0.39825c0.0213,-0.13248 0.38184,-1.14534 0.44001,-1.20065c0.49506,-0.47068 1.41663,-0.26636 1.99305,-0.20541c0.10896,0.25139 0.25949,0.48861 0.32691,0.75418c0.12643,0.49802 0.00527,1.17873 0.00527,1.69496c0,0.21729 0.01103,0.43486 0,0.65188c-0.00509,0.10005 -0.09848,0.21002 -0.04821,0.29667c0.16521,0.28468 1.22987,0.38359 1.43531,0.47153c0.16523,0.07073 0.27294,0.24801 0.44215,0.30859c0.29032,0.10396 0.62082,-0.06277 0.92502,-0.01223c0.0947,0.01573 1.11126,0.36711 1.15986,0.40432c0.15551,0.11908 0.1764,0.36241 0.32595,0.48892c0.24245,0.20512 0.62496,0.14272 0.90952,0.28373c0.17549,0.08697 0.31385,0.2381 0.48892,0.32595c0.4541,0.22786 0.77331,0.08943 1.01226,0.699c0.09835,0.25087 0.02068,0.53852 0.03101,0.8078c0,0.48466 0.07173,1.05463 -0.00527,1.532c-0.02736,0.1696 -0.13418,0.31956 -0.16297,0.48892c-0.03026,0.17806 0.04619,0.3708 -0.01223,0.54171c-0.07608,0.22265 -0.2273,0.41522 -0.37689,0.59684c-0.06833,0.08295 -0.29635,0.08009 -0.26543,0.18301c0.03449,0.11472 0.2494,0.02229 0.3477,0.09076c0.1694,0.118 0.34176,0.26067 0.42686,0.44877c0.13637,0.30142 0.27649,1.15775 0.20612,1.56002c-0.13765,0.78683 -0.84138,1.37558 -1.50164,1.75513c-0.19908,0.11444 -0.42625,0.17796 -0.61816,0.30408c-0.09815,0.06449 -0.14779,0.19029 -0.23992,0.26036c0.40453,0.03746 0.80572,0.21 1.19227,0.3085c0.89086,0 1.6063,0.34613 2.46004,0.49111c0.34419,0.05846 0.68643,-0.10426 1.03063,0.01223c0.23554,0.07971 0.4317,0.24968 0.62915,0.4008c0.34046,0.26055 0.66701,0.55789 0.90313,0.91573c0.20807,0.31532 0.1373,0.96874 0.5195,1.17138c0.74473,0.39486 2.20813,-0.04814 1.79553,1.47132c-0.08229,0.30306 -0.46445,0.44019 -0.75086,0.56897c-0.16474,0.07407 -0.36365,-0.01804 -0.54171,0.01223c-0.16936,0.02879 -0.31877,0.13924 -0.48892,0.16297c-0.04629,0.00645 -1.04653,0.00527 -1.20605,0.00527c-0.07714,0 -1.00212,0.00154 -1.04308,-0.00527c-0.33894,-0.05632 -0.63895,-0.26924 -0.97783,-0.32595c-0.94736,-0.15853 -2.0704,0.00527 -3.03118,0.00527c-2.57485,0 -5.15011,0.01362 -7.72488,-0.00527c-0.16161,-0.05387 -0.32874,-0.09747 -0.49796,-0.1251c-0.00323,0.03295 -0.00662,0.06583 -0.01022,0.09865c-0.06264,0.57223 -0.15992,0.99758 -0.15992,1.57993c0,0 0,0.40743 -0.40743,0.40743c-0.40743,0 -0.40743,-0.40743 -0.40743,-0.40743c0,-0.60531 0.09922,-1.08766 0.16603,-1.67948c0.00119,-0.01056 0.00236,-0.02112 0.00349,-0.03171h-0.08804c0,0 -0.40743,0 -0.40743,-0.40743zM239.69748,182.2145c0.1979,0.02739 0.3935,0.07179 0.58187,0.13458c2.53115,-0.02271 5.0631,-0.00527 7.59434,-0.00527c1.0071,0 2.16699,-0.16002 3.1617,0.00527c0.33894,0.05632 0.63895,0.26924 0.97783,0.32595c0.30003,0.05021 0.60837,-0.00527 0.91256,-0.00527c0.35852,0 0.72082,0.05729 1.07553,0.00527c0.16997,-0.02493 0.31935,-0.13534 0.48892,-0.16297c0.05039,-0.00822 0.55773,0.07468 0.66306,-0.07069c0.03655,-0.05045 0.02589,-0.16566 -0.03369,-0.18382c-0.10014,-0.03053 -0.19943,0.09288 -0.30344,0.08103c-0.05577,-0.00637 -1.09366,-0.36034 -1.12675,-0.38153c-0.63652,-0.40761 -0.43043,-0.91281 -0.78426,-1.43615c-0.15366,-0.22725 -0.78066,-0.86942 -1.07525,-0.96504c-0.2933,-0.09522 -0.62073,0.06218 -0.92502,0.01223c-0.84869,-0.13933 -1.54673,-0.4867 -2.42907,-0.4867c-0.53937,-0.13271 -1.92751,-0.36585 -2.14507,-0.99099c-0.08868,-0.25479 0.27425,-0.46643 0.44001,-0.6793c0.53679,-0.68932 1.57214,-0.78629 2.06013,-1.55581c0.2155,-0.33982 0.11611,-1.06267 -0.01264,-1.38623c-0.14135,-0.35521 -0.78753,-0.38796 -0.85515,-0.76422c-0.11204,-0.62353 0.51548,-0.72189 0.66145,-1.17579c0.04452,-0.13844 -0.03562,-0.29258 -0.01223,-0.43612c0.02764,-0.16955 0.13372,-0.31963 0.16297,-0.48892c0.0743,-0.42993 -0.00527,-0.96456 -0.00527,-1.40147c0.01033,-0.16532 0.06509,-0.33387 0.03101,-0.49596c-0.04647,-0.22099 -0.4153,-0.17815 -0.61745,-0.27882c-0.31007,-0.15443 -0.6009,-0.3534 -0.92766,-0.46839c-0.20374,-0.07171 -0.43588,-0.0944 -0.60737,-0.22571c-0.15551,-0.11908 -0.1764,-0.36241 -0.32595,-0.48892c-0.49009,-0.41462 -1.29324,-0.09145 -1.8264,-0.25978c-0.20223,-0.06384 -0.34077,-0.25966 -0.53566,-0.34329c-0.59971,-0.2573 -1.42143,-0.16938 -1.8241,-0.83224c-0.11817,-0.19455 -0.03999,-0.45368 -0.04821,-0.68115c-0.02934,-0.81117 0.00272,-1.62833 0.00623,-2.43999c-0.22085,0.06775 -0.80186,-0.03809 -0.94042,0.12054c-0.257,0.29425 -0.11626,1.02208 -0.23762,1.33456c-0.05563,0.14323 -0.27404,0.18132 -0.32595,0.32595c-0.11094,0.30915 0.03101,0.65643 0.03101,0.98488c0,0.92351 0,1.84701 0,2.7705c0,0.10968 0.00317,1.33898 -0.0109,1.39738c-0.05693,0.23618 -0.26474,0.41677 -0.32595,0.65188c-0.11155,0.42846 0.10995,0.90108 -0.00659,1.32822c-0.05155,0.18895 -0.2598,0.30455 -0.32595,0.48892c-0.04179,0.11648 0.01167,0.24723 0.01747,0.37085c-0.00672,0.70808 -0.24373,1.33399 -0.3312,2.0209c-0.15656,1.22949 0.00527,2.607 0.00527,3.84603c0,0.94099 0.0756,1.92711 0.0538,2.88564z" fill="#000000"/><path d="M239.63732,179.33395c0,-1.23903 -0.16325,-2.61928 -0.00669,-3.84878c0.08746,-0.68693 0.32415,-1.31485 0.33087,-2.02293c-0.00583,-0.12361 -0.05927,-0.25478 -0.01749,-0.37125c0.06615,-0.18435 0.27442,-0.30052 0.32597,-0.48948c0.11653,-0.42714 -0.10471,-0.90122 0.00685,-1.32968c0.06121,-0.2351 0.26926,-0.41647 0.32619,-0.65265c0.01408,-0.05839 0.0115,-1.28893 0.0115,-1.39861c0,-0.92351 0.00126,-1.84863 0.00126,-2.77213c0,-0.32846 -0.14155,-0.67609 -0.03062,-0.98525c0.05189,-0.14462 0.27059,-0.18295 0.32621,-0.32618c0.12137,-0.31247 -0.01879,-1.04073 0.23823,-1.335c0.13855,-0.15863 0.72803,-0.03889 0.94888,-0.10662c-0.00352,0.81164 -0.03464,1.62821 -0.00531,2.43937c0.00823,0.22747 -0.08002,0.4738 0.03815,0.66833c0.40266,0.66286 1.22528,0.57428 1.825,0.83159c0.1949,0.08362 0.33375,0.27925 0.53601,0.3431c0.53317,0.16834 1.33856,-0.15567 1.82865,0.25894c0.14954,0.12651 0.17081,0.36977 0.32632,0.48884c0.17149,0.13129 0.40472,0.15391 0.60846,0.2256c0.32676,0.115 0.61953,0.31414 0.92959,0.46856c0.20215,0.10069 0.57237,0.05825 0.61882,0.27925c0.03408,0.1621 -0.02031,0.33081 -0.03066,0.49613c0,0.43691 0.0815,0.97281 0.0072,1.40275c-0.02925,0.16929 -0.13464,0.32006 -0.16227,0.48962c-0.02339,0.14353 0.05786,0.29925 0.01332,0.4377c-0.14598,0.4539 -0.77456,0.56141 -0.66249,1.18495c0.06762,0.37626 0.71376,0.40908 0.8551,0.76428c0.12874,0.32357 0.22595,1.04817 0.01045,1.38798c-0.48799,0.76953 -1.52842,0.8674 -2.0652,1.55674c-0.16576,0.21286 -0.52584,0.40846 -0.43716,0.66326c0.21756,0.62516 1.60249,0.85824 2.14186,0.99096c0.88234,0 1.57794,0.34826 2.42662,0.48758c0.30429,0.04995 0.631,-0.10698 0.92429,-0.01176c0.29459,0.09563 0.93119,0.75096 1.08484,0.97822c0.35384,0.52333 0.13807,1.01542 0.77459,1.42303c0.0331,0.0212 1.07061,0.37547 1.12638,0.38182c0.10402,0.01185 0.20315,-0.11144 0.30328,-0.0809c0.0596,0.01817 0.08078,0.14582 0.04424,0.19626c-0.10534,0.14538 -0.61298,0.06273 -0.66338,0.07093c-0.16955,0.02764 -0.31922,0.13826 -0.48919,0.16318c-0.35472,0.05202 -0.71756,-0.00491 -1.07608,-0.00491c-0.30419,0 -0.61307,0.05576 -0.9131,0.00555c-0.33886,-0.0567 -0.63945,-0.26938 -0.97838,-0.3257c-0.99472,-0.16527 -2.15719,-0.00469 -3.16428,-0.00469c-2.53126,0 -5.06863,-0.01914 -7.59979,0.00357c-0.18837,-0.06279 -0.38424,-0.10743 -0.58215,-0.13481c0.02179,-0.95852 -0.0549,-1.94578 -0.0549,-2.88677z" data-paper-data="{&quot;noHover&quot;:false,&quot;origItem&quot;:[&quot;Path&quot;,{&quot;applyMatrix&quot;:true,&quot;segments&quot;:[[[239.15453,186.18927],[0.06091,-2.67895],[0.55311,0.07654]],[[240.78075,186.5654],[-0.52648,-0.17549],[7.0742,-0.06344]],[[262.00584,186.5507],[-7.07449,0],[2.8147,0]],[[270.84233,186.5654],[-2.78006,-0.46192],[0.94725,0.15739]],[[273.5752,187.47636],[-0.94707,-0.15848],[0.83851,0.14031]],[[276.12568,187.46166],[-0.85017,0],[1.002,0]],[[279.13163,187.47636],[-0.99139,0.14537],[0.47504,-0.06966]],[[280.49806,187.02088],[-0.47387,0.07723],[0.14083,-0.02295]],[[282.35125,186.82331],[-0.2944,0.40632],[0.10216,-0.14099]],[[282.25709,186.30953],[0.16654,0.05078],[-0.27987,-0.08534]],[[281.40902,186.53599],[0.29071,0.03315],[-0.15586,-0.01777]],[[278.2599,185.46968],[0.0925,0.05923],[-1.77897,-1.13919]],[[276.068,181.45586],[0.98893,1.46263],[-0.42944,-0.63514]],[[273.06283,178.7587],[0.82333,0.2673],[-0.81972,-0.26613]],[[270.47753,178.79286],[0.85046,0.13961],[-2.37197,-0.38938]],[[263.68863,177.4326],[2.46603,0],[-1.50747,-0.37089]],[[257.6935,174.66292],[0.60804,1.74719],[-0.24783,-0.71212]],[[258.92327,172.76438],[-0.46326,0.59491],[1.50023,-1.92657]],[[264.68104,168.41613],[-1.36388,2.15068],[0.60229,-0.94974]],[[264.64571,164.54181],[0.35983,0.90431],[-0.39501,-0.99275]],[[262.25569,162.40591],[0.18898,1.0516],[-0.31317,-1.7427]],[[264.10435,159.11975],[-0.40798,1.2686],[0.12444,-0.38693]],[[264.0702,157.90089],[-0.06538,0.40115],[0.07723,-0.47387]],[[264.52568,156.53445],[-0.08176,0.4731],[0.20766,-1.20159]],[[264.51097,152.61755],[0,1.22112],[0.02889,-0.46205]],[[264.59765,151.23139],[0.09525,0.45305],[-0.12985,-0.61765]],[[262.87199,150.45211],[0.56496,0.28139],[-0.8666,-0.43162]],[[260.27932,149.14302],[0.91324,0.32139],[-0.56942,-0.20039]],[[258.58179,148.51221],[0.47929,0.36698],[-0.43464,-0.33279]],[[257.67083,147.14578],[0.41792,0.35356],[-1.36974,-1.15881]],[[252.56629,146.41973],[1.49011,0.47048],[-0.56522,-0.17846]],[[251.06917,145.46029],[0.54471,0.23371],[-1.67612,-0.71914]],[[245.97109,143.13432],[1.12539,1.85257],[-0.33029,-0.54371]],[[245.83635,141.23058],[0.02299,0.63575],[-0.08199,-2.26712]],[[245.85376,134.41121],[-0.00982,2.26844],[-0.61723,0.18935]],[[243.22544,134.74811],[0.38722,-0.44335],[-0.71828,0.82241]],[[242.56133,138.47799],[0.33919,-0.87332],[-0.15547,0.4003]],[[241.65037,139.38895],[0.14504,-0.40419],[-0.31005,0.86404]],[[241.73705,142.14154],[0,-0.91798],[0,2.58105]],[[241.73705,149.88468],[0,-2.58105],[0,0.30654]],[[241.70658,153.79012],[0.03934,-0.1632],[-0.15911,0.66008]],[[240.79563,155.61204],[0.17106,-0.65709],[-0.31175,1.1975]],[[240.77723,159.32422],[0.32567,-1.19379],[-0.14407,0.52812]],[[239.86627,160.69066],[0.18486,-0.51526],[-0.1168,0.32555]],[[239.91513,161.72712],[-0.01629,-0.34549],[-0.01879,1.97897]],[[238.98947,167.37526],[0.24447,-1.91986],[-0.43757,3.43625]],[[239.00417,178.12434],[0,-3.46291],[0,2.62994]]],&quot;closed&quot;:true}]}" fill="#ffffff"/></g><path d="M235.69362,185.86707c-0.09301,0.01112 -0.18045,0.03019 -0.26154,0.05875zM236.11717,185.86269c-0.02838,0.22232 -0.16792,0.76884 -0.85401,0.76884c-0.86124,0 -0.86124,-0.86124 -0.86124,-0.86124l0.69234,-1.5335c1.59604,-0.21918 2.45188,0.69016 4.13395,0.3445c0,0 0.84452,-0.16891 1.01342,0.6756c0.16891,0.84452 -0.6756,1.01342 -0.6756,1.01342c-1.10822,0.21663 -2.46541,-0.33424 -3.44885,-0.40763z" fill="#000000"/></g></g></g></svg>