<svg version="1.1" xmlns="http://www.w3.org/2000/svg" xmlns:xlink="http://www.w3.org/1999/xlink" width="758.6979" height="437.69144" viewBox="0,0,758.6979,437.69144"><g transform="translate(46.62581,2.44107)"><g stroke-miterlimit="10"><path d="M-14.91659,435.25037v-349.84985h130.63063v349.84985z" fill="#ff0000" stroke="none" stroke-width="0"/><path d="M78.76083,77.89302v-21.02102h10.51051v21.02102z" fill="#ff0000" stroke="none" stroke-width="0"/><path d="M459.11849,79.39452v-31.18503h13.51351v31.18503z" fill="#ff0000" stroke="none" stroke-width="0"/><path d="M312.99507,82.39752v-34.53453h16.51652v34.53454z" fill="#ff0000" stroke="none" stroke-width="0"/><path d="M183.86594,82.39752v-28.52852h19.51952v28.52853z" fill="#ff0000" stroke="none" stroke-width="0"/><path d="M-25.16514,382.7027v-25.52552h737.23724v25.52552z" fill="#ff0000" stroke="none" stroke-width="0"/><path d="M114.73726,370.68581v-22.52252h60.06006v22.52252z" fill="#000000" stroke="none" stroke-width="0"/><path d="M216.83935,373.68881v-57.05705h31.53153v57.05705z" fill="#000000" stroke="#000000" stroke-width="2.5"/><path d="M297.92043,306.12125v-60.06006h30.03003v60.06006z" fill="#000000" stroke="#000000" stroke-width="2.5"/><path d="M415.26279,361.6768v-27.02703h100.6006v27.02703z" fill="#000000" stroke="#000000" stroke-width="2.5"/><path d="M529.3769,315.13025v-87.08708h27.02702v87.08709z" fill="#000000" stroke="#000000" stroke-width="2.5"/><path d="M627.47,203.01314v-204.2042h27.02702v204.20421z" fill="#000000" stroke="#000000" stroke-width="2.5"/><path d="M-45.3758,88.40353v-15.01502h606.60661v15.01502z" fill="#000000" stroke="#000000" stroke-width="2.5"/></g></g></svg>