<svg version="1.1" xmlns="http://www.w3.org/2000/svg" xmlns:xlink="http://www.w3.org/1999/xlink" width="50.5172" height="61.63552" viewBox="0,0,50.5172,61.63552"><g transform="translate(-294.6694,-149.80724)"><g stroke-miterlimit="10"><path d="M296.59821,203.44288l-0.23019,-44.658h47.19016c0,0 -0.32307,28.20009 -0.28148,36.6014c0.01192,2.40786 -0.04784,7.74262 -0.79605,8.8737c-1.20111,1.81574 -3.56444,2.67301 -5.09128,3.05287c-0.59082,0.14699 -5.8299,1.94208 -9.02799,2.31187c-0.9762,0.11288 -7.96165,0.65077 -11.51366,0.55716c-0.789,-0.02079 -6.79824,-0.11419 -10.18293,-0.96846c-1.01322,-0.25573 -4.68043,-2.07022 -5.94129,-2.49345c-1.82694,-0.61325 -3.89509,-2.58649 -3.89509,-2.58649" fill="#ffffff" stroke="#000000" stroke-width="2.5" stroke-linecap="round"/><path d="M339.18445,183.18565v-9.66823" fill="none" stroke="#000000" stroke-width="2.5" stroke-linecap="round"/><path d="M333.88995,193.08406l8.97764,-0.46039" fill="none" stroke="#000000" stroke-width="2.5" stroke-linecap="round"/><path d="M345.18661,159.01508c0,5.08535 -11.30866,9.20783 -25.2586,9.20783c-13.94995,0 -25.2586,-4.12249 -25.2586,-9.20783c0,-5.08535 11.30866,-9.20784 25.2586,-9.20784c13.94994,0 25.2586,4.12249 25.2586,9.20784z" fill="#000000" stroke="none" stroke-width="0" stroke-linecap="butt"/></g></g></svg>