<svg version="1.1" xmlns="http://www.w3.org/2000/svg" xmlns:xlink="http://www.w3.org/1999/xlink" width="60.32336" height="93.63148" viewBox="0,0,60.32336,93.63148"><defs><radialGradient cx="239.96317" cy="184.48882" r="25.70394" gradientUnits="userSpaceOnUse" id="color-1"><stop offset="0" stop-color="#fdfdfd"/><stop offset="1" stop-color="#fff9b9"/></radialGradient><radialGradient cx="239.96317" cy="184.48882" r="25.70394" gradientUnits="userSpaceOnUse" id="color-2"><stop offset="0" stop-color="#ffffff"/><stop offset="1" stop-color="#ffea00"/></radialGradient><radialGradient cx="239.92807" cy="159.01508" r="25.2586" gradientUnits="userSpaceOnUse" id="color-3"><stop offset="0" stop-color="#ffffff"/><stop offset="1" stop-color="#ffea00"/></radialGradient><radialGradient cx="239.3564" cy="158.61296" r="30.16168" gradientUnits="userSpaceOnUse" id="color-4"><stop offset="0" stop-color="#ffffff"/><stop offset="1" stop-color="#ffea00"/></radialGradient><radialGradient cx="239.62775" cy="143.48394" r="19.02706" gradientUnits="userSpaceOnUse" id="color-5"><stop offset="0" stop-color="#fdfdfd"/><stop offset="1" stop-color="#fff9b9"/></radialGradient><radialGradient cx="239.62775" cy="143.48394" r="19.02706" gradientUnits="userSpaceOnUse" id="color-6"><stop offset="0" stop-color="#ffffff"/><stop offset="1" stop-color="#ffea00"/></radialGradient><radialGradient cx="239.60178" cy="124.62728" r="18.6974" gradientUnits="userSpaceOnUse" id="color-7"><stop offset="0" stop-color="#ffffff"/><stop offset="1" stop-color="#ffea00"/></radialGradient><radialGradient cx="239.73955" cy="147.76584" r="16.8992" gradientUnits="userSpaceOnUse" id="color-8"><stop offset="0" stop-color="#ffffff"/><stop offset="1" stop-color="#ffea00"/></radialGradient></defs><g transform="translate(-209.19468,-117.81128)"><g stroke-miterlimit="10"><path d="M216.59828,203.44288l-0.23019,-44.658h47.19016c0,0 -0.32307,28.20009 -0.28148,36.6014c0.01192,2.40786 -0.04784,7.74262 -0.79605,8.8737c-1.20111,1.81574 -3.56444,2.67301 -5.09128,3.05287c-0.59082,0.14699 -5.8299,1.94208 -9.02799,2.31187c-0.9762,0.11288 -7.96165,0.65077 -11.51366,0.55716c-0.789,-0.02079 -6.79824,-0.11419 -10.18293,-0.96846c-1.01322,-0.25573 -4.68043,-2.07022 -5.94129,-2.49345c-1.82694,-0.61325 -3.89509,-2.58649 -3.89509,-2.58649" fill="url(#color-1)" stroke="url(#color-2)" stroke-width="2.5" stroke-linecap="round"/><path d="M259.18451,183.18565v-9.66823" fill="none" stroke="#ffea00" stroke-width="2.5" stroke-linecap="round"/><path d="M265.18665,159.01508c0,5.08535 -11.30866,9.20783 -25.2586,9.20783c-13.94995,0 -25.2586,-4.12249 -25.2586,-9.20783c0,-5.08535 11.30866,-9.20784 25.2586,-9.20784c13.94994,0 25.2586,4.12249 25.2586,9.20784z" fill="url(#color-3)" stroke="none" stroke-width="0" stroke-linecap="butt"/><path d="M269.51804,158.61297c0,6.0725 -13.50385,10.99521 -30.16168,10.99521c-16.65785,0 -30.16168,-4.92273 -30.16168,-10.99521c0,-6.0725 13.50385,-10.99522 30.16168,-10.99522c16.65783,0 30.16168,4.92272 30.16168,10.99522z" fill="url(#color-4)" stroke="none" stroke-width="0" stroke-linecap="butt"/><path d="M222.33217,157.51447l-0.1704,-33.05759h34.932c0,0 -0.23915,20.87481 -0.20836,27.09378c0.00883,1.78239 -0.03542,5.73139 -0.58927,6.56866c-0.88911,1.34408 -2.63854,1.97867 -3.76877,2.25986c-0.43735,0.10881 -4.31552,1.4376 -6.68287,1.71133c-0.72262,0.08355 -5.89352,0.48173 -8.52286,0.41243c-0.58405,-0.01539 -5.03233,-0.08453 -7.53781,-0.71689c-0.75002,-0.1893 -3.46463,-1.53246 -4.39797,-1.84575c-1.35237,-0.45396 -2.8833,-1.91462 -2.8833,-1.91462" fill="url(#color-5)" stroke="url(#color-6)" stroke-width="2.5" stroke-linecap="round"/><path d="M258.29918,124.62728c0,3.76437 -8.37111,6.816 -18.6974,6.816c-10.32629,0 -18.6974,-3.05163 -18.6974,-6.816c0,-3.76438 8.37111,-6.816 18.6974,-6.816c10.32629,0 18.6974,3.05163 18.6974,6.816z" fill="url(#color-7)" stroke="none" stroke-width="0" stroke-linecap="butt"/><path d="M222.84032,152.68923v-9.84677c0,0 10.93504,2.12903 16.50001,2.12903c5.69802,0 17.2984,-2.12903 17.2984,-2.12903v9.84677c0,0 -11.42155,2.66129 -17.03226,2.66129c-5.65507,0 -16.76614,-2.66129 -16.76614,-2.66129z" fill="url(#color-8)" stroke="none" stroke-width="0" stroke-linecap="butt"/><path d="M262.72364,192.62368c0,0 -2.91269,2.51643 -4.40495,2.59296c-1.50024,0.07693 -4.57269,-2.13258 -4.57269,-2.13258" fill="none" stroke="#ffea00" stroke-width="2.5" stroke-linecap="round"/></g></g></svg>