<svg version="1.1" xmlns="http://www.w3.org/2000/svg" xmlns:xlink="http://www.w3.org/1999/xlink" width="530.50003" height="463.32597" viewBox="0,0,530.50003,463.32597"><g transform="translate(11.42432,59.90848)"><g stroke="none" stroke-width="0" stroke-miterlimit="10"><path d="M290.01307,233.8079v-74h43v74z" fill="#ff0000"/><path d="M314.25585,55.84281v-9.33333h20.66667v9.33333z" fill="#ff0000"/><path d="M-11.42432,403.41749v-51.99323h527.96133v51.99323z" fill="#000000"/><path d="M95.14003,364.41749c-2.89949,0 -5.25,-6.49187 -5.25,-14.5c0,-8.00813 2.35051,-14.5 5.25,-14.5c2.89949,0 5.25,6.49187 5.25,14.5c0,8.00813 -2.35051,14.5 -5.25,14.5z" fill="#000000"/><path d="M100.88552,250.931c0,14.63555 -2.79822,31.0045 -6.25,31.0045c-3.45178,0 -6.25,-16.36895 -6.25,-31.0045c0,-14.63555 2.79822,-14.48799 6.25,-14.48799c3.45178,0 6.25,-0.14756 6.25,14.48799z" fill="#ff0000"/><path d="M177.14002,363.41749c-2.89949,0 -5.25,-6.49187 -5.25,-14.5c0,-8.00813 2.35051,-14.5 5.25,-14.5c2.89949,0 5.25,6.49187 5.25,14.5c0,8.00813 -2.35051,14.5 -5.25,14.5z" fill="#000000"/><path d="M182.88553,249.931c0,14.63555 -2.79822,31.0045 -6.25,31.0045c-3.45178,0 -6.25,-16.36895 -6.25,-31.0045c0,-14.63555 2.79822,-14.48799 6.25,-14.48799c3.45178,0 6.25,-0.14756 6.25,14.48799z" fill="#ff0000"/><path d="M267.14003,360.41749c-2.89949,0 -5.25,-6.49187 -5.25,-14.5c0,-8.00813 2.35051,-14.5 5.25,-14.5c2.89949,0 5.25,6.49187 5.25,14.5c0,8.00813 -2.35051,14.5 -5.25,14.5z" fill="#000000"/><path d="M272.88553,246.931c0,14.63555 -2.79822,31.0045 -6.25,31.0045c-3.45178,0 -6.25,-16.36895 -6.25,-31.0045c0,-14.63555 2.79822,-14.48799 6.25,-14.48799c3.45178,0 6.25,-0.14756 6.25,14.48799z" fill="#ff0000"/><path d="M357.14005,357.41749c-2.89949,0 -5.25,-6.49187 -5.25,-14.5c0,-8.00813 2.35051,-14.5 5.25,-14.5c2.89949,0 5.25,6.49187 5.25,14.5c0,8.00813 -2.35051,14.5 -5.25,14.5z" fill="#000000"/><path d="M362.88555,255.94301c0,14.63555 -2.79822,18.99249 -6.25,18.99249c-3.45178,0 -6.25,-4.35694 -6.25,-18.99249c0,-14.63555 2.79822,-26.5 6.25,-26.5c3.45178,0 6.25,11.86445 6.25,26.5z" fill="#ff0000"/><path d="M449.07571,364.95874v-371h70v371z" fill="#000000"/><path d="M-3.92432,251.95574v-45.98498h399v45.98498z" fill="#000000"/><path d="M386.07571,164.97075v-20l67,-12.01201v20z" fill="#000000"/><path d="M312.07569,212.97075v-93h34v93z" fill="#000000"/><path d="M312.32569,76.22075v-22h96v22z" fill="#000000"/><path d="M312.07569,126.97075v-69h34v69z" fill="#000000"/><path d="M213.72718,130.09152v-190h39v190z" fill="#000000"/><path d="M191.55778,196.13998c0,8.97463 -11.19288,16.25 -25,16.25c-13.80712,0 -25,-7.27537 -25,-16.25c0,-8.97463 11.19288,-16.25 25,-16.25c13.80712,0 25,7.27537 25,16.25z" fill="#000000"/><path d="M127.55777,150.38998c0,11.32184 -9.51395,20.5 -21.25,20.5c-11.73605,0 -21.25,-9.17816 -21.25,-20.5c0,-11.32184 9.51395,-20.5 21.25,-20.5c11.73605,0 21.25,9.17816 21.25,20.5z" fill="#000000"/><path d="M69.55778,96.88998c0,11.32183 -9.51395,20.5 -21.25,20.5c-11.73605,0 -21.25,-9.17817 -21.25,-20.5c0,-11.32183 9.51395,-20.5 21.25,-20.5c11.73605,0 21.25,9.17817 21.25,20.5z" fill="#000000"/></g></g></svg>