<svg version="1.1" xmlns="http://www.w3.org/2000/svg" xmlns:xlink="http://www.w3.org/1999/xlink" width="517.5045" height="455.88476" viewBox="0,0,517.5045,455.88476"><g transform="translate(26.7545,51.88476)"><g stroke-miterlimit="10"><path d="M209.22523,183.08596v-32.03904h12.01201v32.03904z" fill="#ff0000" stroke="#000000" stroke-width="0.5"/><path d="M129.13213,183.08596v-31.03904h12.01201v31.03904z" fill="#ff0000" stroke="#000000" stroke-width="0.5"/><path d="M118.97147,377.75v-28h371.52853v28z" fill="#ff0000" stroke="#000000" stroke-width="0.5"/><path d="M252.5,388.30882v-86.55882h43v86.55882z" fill="#ff0000" stroke="none" stroke-width="0"/><path d="M206.5,359.30882v-31.55882h37v31.55882z" fill="#ff0000" stroke="none" stroke-width="0"/><path d="M0.5,373.75v-25h75v25z" fill="#ff0000" stroke="#000000" stroke-width="0.5"/><path d="M182.5,365.75v-50h27v50z" fill="#000000" stroke="#000000" stroke-width="0.5"/><path d="M241.5,360.75v-68h12v68z" fill="#000000" stroke="#000000" stroke-width="0.5"/><path d="M293.5,403.75v-140h12v140z" fill="#000000" stroke="#000000" stroke-width="0.5"/><path d="M27.95346,392.75901v-46h119.54354v46z" fill="#000000" stroke="#000000" stroke-width="0.5"/><path d="M462.22831,280.61728c0,4.78647 -4.6264,8.66667 -10.33334,8.66667c-5.70694,0 -10.33333,-3.8802 -10.33333,-8.66667c0,-4.78647 4.62639,-8.66667 10.33333,-8.66667c5.70694,0 10.33334,3.8802 10.33334,8.66667z" fill="#ff0000" stroke="#000000" stroke-width="0.5"/><path d="M374.3964,181.84873c0,3.73165 -15.12551,6.75675 -33.78378,6.75675c-18.65827,0 -33.78379,-3.0251 -33.78379,-6.75675c0,-3.73165 15.12552,-6.75676 33.78379,-6.75676c18.65827,0 33.78378,3.02511 33.78378,6.75676z" fill="#ff0000" stroke="#000000" stroke-width="0.5"/><path d="M484.00603,45.96284c0,53.90167 -11.7643,97.5976 -26.27628,97.5976c-14.51199,0 -26.27628,-43.69593 -26.27628,-97.5976c0,-53.90166 11.76429,-97.5976 26.27627,-97.5976c14.51198,0 26.27627,43.69594 26.27627,97.5976z" fill="#ff0000" stroke="#000000" stroke-width="0.5"/><path d="M453.97598,3.9208c0,18.24364 -64.19941,33.03304 -143.39339,33.03304c-79.19398,0 -143.39339,-14.7894 -143.39339,-33.03304c0,-18.24364 64.19941,-33.03303 143.3934,-33.03303c79.19399,0 143.39339,14.78939 143.39339,33.03303z" fill="#ff0000" stroke="#000000" stroke-width="0.5"/><path d="M380.4024,46.71359c0,21.14604 -19.15899,38.28828 -42.79279,38.28828c-23.6338,0 -42.79279,-17.14224 -42.79279,-38.28828c0,-21.14604 19.15899,-38.28829 42.79279,-38.28829c23.6338,0 42.79279,17.14225 42.79279,38.28829z" fill="#ff0000" stroke="#000000" stroke-width="0.5"/><path d="M-26.5045,184.10098v-19.51952h334.83483v19.51952z" fill="#000000" stroke="#000000" stroke-width="0.5"/><path d="M18.04204,176.09497v-103.0991h44.29204v103.0991z" fill="#000000" stroke="#000000" stroke-width="0.5"/><path d="M377.5,316v-20h41v20z" fill="#000000" stroke="#000000" stroke-width="0.5"/><path d="M444.5,275v-76h14v76z" fill="#000000" stroke="#000000" stroke-width="0.5"/><path d="M430.5,201v-56h17v56z" fill="#000000" stroke="#000000" stroke-width="0.5"/><path d="M414.5,150v-86h19v86z" fill="#000000" stroke="#000000" stroke-width="0.5"/><path d="M254.5,78v-12h163v12z" fill="#000000" stroke="#000000" stroke-width="0.5"/><path d="M319.62961,168.9413l43.07887,0.36283l-0.33809,13.75458l-43.07887,-0.36283z" fill="#000000" stroke="#000000" stroke-width="0.5"/></g></g></svg>