<svg version="1.1" xmlns="http://www.w3.org/2000/svg" xmlns:xlink="http://www.w3.org/1999/xlink" width="921.90788" height="541.29533" viewBox="0,0,921.90788,541.29533"><g transform="translate(140.95394,90.64766)"><g stroke-miterlimit="10"><path d="M-139.95394,449.64768v-539.29533h919.90788v539.29533z" fill="#ffffff" stroke="#000000" stroke-width="2" stroke-linecap="butt"/><path d="M69.83985,316.8904l9.91947,-43.54301l45.95669,10.71881c0,0 -6.72002,27.38962 -8.58781,35.58077c-0.5353,2.34762 -1.80526,7.52937 -2.79081,8.46096c-1.58214,1.49544 -4.07843,1.79351 -5.65162,1.81664c-0.60878,0.00893 -6.11865,0.56709 -9.31716,0.20081c-0.97633,-0.11181 -7.90136,-1.17463 -11.33927,-2.07263c-0.76364,-0.19948 -6.59463,-1.65538 -9.69679,-3.25608c-0.92866,-0.47919 -4.08788,-3.07922 -5.21964,-3.7778c-1.63988,-1.01219 -3.2058,-3.40362 -3.2058,-3.40362" fill="#ffffff" stroke="#000000" stroke-width="2.5" stroke-linecap="round"/><path d="M115.91419,306.83572l2.19607,-9.41552" fill="none" stroke="#000000" stroke-width="2.5" stroke-linecap="round"/><path d="M127.2496,284.66024c-1.1551,4.95241 -13.10455,6.39849 -26.68987,3.2299c-13.58533,-3.1686 -23.662,-9.75201 -22.50692,-14.7044c1.1551,-4.95241 13.10455,-6.39849 26.68987,-3.22991c13.58533,3.16861 23.66202,9.75199 22.50692,14.70442z" fill="#000000" stroke="none" stroke-width="0" stroke-linecap="butt"/><path d="M113.55542,317.34722c-0.49014,-0.03199 -0.86234,-0.44343 -0.83128,-0.91897c0.03104,-0.47556 0.45352,-0.83515 0.94367,-0.80315c0.49014,0.03199 0.86234,0.44343 0.83129,0.91897c-0.03104,0.47556 -0.45353,0.83515 -0.94367,0.80315z" fill="#ff0000" stroke="#000000" stroke-width="1" stroke-linecap="butt"/><path d="M82.22436,326.6996l-16.42776,11.19929" fill="none" stroke="#000000" stroke-width="2.5" stroke-linecap="round"/><path d="M126.90684,326.98213l-6.71374,-15.95292" fill="none" stroke="#000000" stroke-width="2.5" stroke-linecap="round"/><path d="M61.16744,313.11152l12.50185,-13.63702" fill="none" stroke="#000000" stroke-width="2.5" stroke-linecap="round"/><path d="M102.22264,331.87638l-2.50284,19.72388" fill="none" stroke="#000000" stroke-width="2.5" stroke-linecap="round"/><path d="M124.43567,288.75058c-1.32448,4.90523 -12.92948,5.91417 -25.9205,2.25352c-12.99102,-3.66064 -22.44863,-10.60465 -21.12415,-15.50987c1.32448,-4.90523 12.92948,-5.91417 25.92051,-2.25353c12.99102,3.66063 22.44863,10.60464 21.12415,15.50988z" fill-opacity="0.50196" fill="#000000" stroke="none" stroke-width="0" stroke-linecap="butt"/><path d="M123.63798,291.77884c-1.31267,4.90648 -12.74937,5.93317 -25.54459,2.29319c-12.79523,-3.63999 -22.10369,-10.56826 -20.79102,-15.47473c1.31267,-4.90648 12.74938,-5.93318 25.54461,-2.29319c12.79523,3.63997 22.10368,10.56824 20.79101,15.47473z" fill-opacity="0.50196" fill="#000000" stroke="none" stroke-width="0" stroke-linecap="butt"/></g></g></svg>