<svg version="1.1" xmlns="http://www.w3.org/2000/svg" xmlns:xlink="http://www.w3.org/1999/xlink" width="491" height="448.6344" viewBox="0,0,491,448.6344"><g transform="translate(-77.5,-44.8656)"><g fill="#000000" stroke="none" stroke-miterlimit="10"><path d="M207.95258,217.05258v-85h169v85z" stroke-width="0"/><path d="M226.04377,394.96207l-16.78016,-19.39492l128.5615,-111.22923l16.78016,19.39492z" stroke-width="0"/><path d="M227.90022,369.27825l-16.78016,-19.39492l128.5615,-111.22923l16.78016,19.39492z" stroke-width="0"/><path d="M233.48069,342.28836l-16.78016,-19.39492l128.5615,-111.22923l16.78016,19.39492z" stroke-width="0"/><path d="M236.80547,314.89253l-16.78016,-19.39492l128.5615,-111.22923l16.78016,19.39492z" stroke-width="0"/><path d="M238.20864,285.78622l-16.78016,-19.39492l128.5615,-111.22923l16.78016,19.39492z" stroke-width="0"/><path d="M239.22162,251.14357l-16.78016,-19.39492l128.5615,-111.22923l16.78016,19.39492z" stroke-width="0"/><path d="M146.0231,111.46794c0,13.61317 -9.67028,24.64882 -21.59918,24.64882c-11.9289,0 -21.59918,-11.03565 -21.59918,-24.64882c0,-13.61316 9.67028,-24.64882 21.59918,-24.64882c11.9289,0 21.59918,11.03566 21.59918,24.64882z" stroke-width="0"/><path d="M310.40244,69.51442c0,13.61316 -9.67028,24.64882 -21.59918,24.64882c-11.9289,0 -21.59918,-11.03566 -21.59918,-24.64882c0,-13.61317 9.67028,-24.64882 21.59918,-24.64882c11.9289,0 21.59918,11.03565 21.59918,24.64882z" stroke-width="0"/><path d="M162.12577,241.17803c0,13.61316 -9.67028,24.64882 -21.59918,24.64882c-11.9289,0 -21.59918,-11.03566 -21.59918,-24.64882c0,-13.61317 9.67028,-24.64882 21.59918,-24.64882c11.9289,0 21.59918,11.03566 21.59918,24.64882z" stroke-width="0"/><path d="M77.5,493.5v-144h491v144z" stroke-width="NaN"/><path d="M218.30563,471.55256l-16.78016,-19.39492l128.5615,-111.22923l16.78016,19.39492z" stroke-width="0"/><path d="M220.16207,445.86875l-16.78016,-19.39492l128.5615,-111.22923l16.78016,19.39492z" stroke-width="0"/><path d="M225.74254,418.87886l-16.78016,-19.39492l128.5615,-111.22923l16.78016,19.39492z" stroke-width="0"/></g></g></svg>