<svg version="1.1" xmlns="http://www.w3.org/2000/svg" xmlns:xlink="http://www.w3.org/1999/xlink" width="43.62499" height="35.49646" viewBox="0,0,43.62499,35.49646"><defs><radialGradient cx="357.33751" cy="191.63944" r="18.69754" gradientUnits="userSpaceOnUse" id="color-1"><stop offset="0" stop-color="#ffea00"/><stop offset="1" stop-color="#ffffff"/></radialGradient><radialGradient cx="357.4081" cy="180.12364" r="18.38607" gradientUnits="userSpaceOnUse" id="color-2"><stop offset="0" stop-color="#ffffff"/><stop offset="1" stop-color="#ffea00"/></radialGradient><radialGradient cx="339.01226" cy="180.06114" r="9.125" gradientUnits="userSpaceOnUse" id="color-3"><stop offset="0" stop-color="#ffea00"/><stop offset="1" stop-color="#ffffff"/></radialGradient><radialGradient cx="339.38726" cy="166.31114" r="6.5" gradientUnits="userSpaceOnUse" id="color-4"><stop offset="0" stop-color="#ffea00"/><stop offset="1" stop-color="#ffffff"/></radialGradient><radialGradient cx="339.38726" cy="166.31114" r="6.5" gradientUnits="userSpaceOnUse" id="color-5"><stop offset="0" stop-color="#ffea00"/><stop offset="1" stop-color="#ffea00"/></radialGradient><radialGradient cx="341.51226" cy="165.62364" r="5.6875" gradientUnits="userSpaceOnUse" id="color-6"><stop offset="0" stop-color="#ffea00"/><stop offset="1" stop-color="#ffffff"/></radialGradient><radialGradient cx="341.51226" cy="165.62364" r="5.6875" gradientUnits="userSpaceOnUse" id="color-7"><stop offset="0" stop-color="#ffea00"/><stop offset="1" stop-color="#ffea00"/></radialGradient><radialGradient cx="342.51226" cy="169.12364" r="1.9375" gradientUnits="userSpaceOnUse" id="color-8"><stop offset="0" stop-color="#ffea00"/><stop offset="1" stop-color="#ffffff"/></radialGradient><radialGradient cx="342.51226" cy="169.12364" r="1.9375" gradientUnits="userSpaceOnUse" id="color-9"><stop offset="0" stop-color="#ffea00"/><stop offset="1" stop-color="#ffea00"/></radialGradient><radialGradient cx="376.01225" cy="179.98475" r="9.1875" gradientUnits="userSpaceOnUse" id="color-10"><stop offset="0" stop-color="#ffffff"/><stop offset="1" stop-color="#fff58c"/></radialGradient><radialGradient cx="343.26226" cy="168.93614" r="0.6875" gradientUnits="userSpaceOnUse" id="color-11"><stop offset="0" stop-color="#ffea00"/><stop offset="1" stop-color="#ffffff"/></radialGradient><radialGradient cx="343.26226" cy="168.93614" r="0.6875" gradientUnits="userSpaceOnUse" id="color-12"><stop offset="0" stop-color="#ffea00"/><stop offset="1" stop-color="#ffea00"/></radialGradient><radialGradient cx="344.76226" cy="169.37364" r="1.8125" gradientUnits="userSpaceOnUse" id="color-13"><stop offset="0" stop-color="#ffea00"/><stop offset="1" stop-color="#ffffff"/></radialGradient><radialGradient cx="344.76226" cy="169.37364" r="1.8125" gradientUnits="userSpaceOnUse" id="color-14"><stop offset="0" stop-color="#ffea00"/><stop offset="1" stop-color="#ffea00"/></radialGradient><radialGradient cx="339.32476" cy="165.62364" r="5.4375" gradientUnits="userSpaceOnUse" id="color-15"><stop offset="0" stop-color="#ffea00"/><stop offset="1" stop-color="#ffffff"/></radialGradient><radialGradient cx="339.32476" cy="165.62364" r="5.4375" gradientUnits="userSpaceOnUse" id="color-16"><stop offset="0" stop-color="#ffea00"/><stop offset="1" stop-color="#ffea00"/></radialGradient><radialGradient cx="340.94976" cy="166.31114" r="4.625" gradientUnits="userSpaceOnUse" id="color-17"><stop offset="0" stop-color="#ffea00"/><stop offset="1" stop-color="#ffffff"/></radialGradient><radialGradient cx="340.94976" cy="166.31114" r="4.625" gradientUnits="userSpaceOnUse" id="color-18"><stop offset="0" stop-color="#ffea00"/><stop offset="1" stop-color="#ffea00"/></radialGradient><radialGradient cx="340.87084" cy="162.25851" r="2.1882" gradientUnits="userSpaceOnUse" id="color-19"><stop offset="0" stop-color="#ffea00"/><stop offset="1" stop-color="#ffffff"/></radialGradient><radialGradient cx="340.87084" cy="162.25851" r="2.1882" gradientUnits="userSpaceOnUse" id="color-20"><stop offset="0" stop-color="#ffea00"/><stop offset="1" stop-color="#ffea00"/></radialGradient><radialGradient cx="343.00242" cy="168.31114" r="1.10526" gradientUnits="userSpaceOnUse" id="color-21"><stop offset="0" stop-color="#ffea00"/><stop offset="1" stop-color="#ffffff"/></radialGradient><radialGradient cx="343.00242" cy="168.31114" r="1.10526" gradientUnits="userSpaceOnUse" id="color-22"><stop offset="0" stop-color="#ffea00"/><stop offset="1" stop-color="#ffea00"/></radialGradient><radialGradient cx="344.71294" cy="169.62693" r="1.57895" gradientUnits="userSpaceOnUse" id="color-23"><stop offset="0" stop-color="#ffea00"/><stop offset="1" stop-color="#ffffff"/></radialGradient><radialGradient cx="344.71294" cy="169.62693" r="1.57895" gradientUnits="userSpaceOnUse" id="color-24"><stop offset="0" stop-color="#ffea00"/><stop offset="1" stop-color="#ffea00"/></radialGradient><radialGradient cx="345.07719" cy="167.71433" r="0.34073" gradientUnits="userSpaceOnUse" id="color-25"><stop offset="0" stop-color="#ffea00"/><stop offset="1" stop-color="#ffffff"/></radialGradient><radialGradient cx="345.07719" cy="167.71433" r="0.34073" gradientUnits="userSpaceOnUse" id="color-26"><stop offset="0" stop-color="#ffea00"/><stop offset="1" stop-color="#ffea00"/></radialGradient><radialGradient cx="343.20389" cy="170.64502" r="0.76563" gradientUnits="userSpaceOnUse" id="color-27"><stop offset="0" stop-color="#ffea00"/><stop offset="1" stop-color="#ffffff"/></radialGradient><radialGradient cx="343.20389" cy="170.64502" r="0.76563" gradientUnits="userSpaceOnUse" id="color-28"><stop offset="0" stop-color="#ffea00"/><stop offset="1" stop-color="#ffea00"/></radialGradient><radialGradient cx="375.94975" cy="180.04725" r="8.75" gradientUnits="userSpaceOnUse" id="color-29"><stop offset="0" stop-color="#ffea00"/><stop offset="1" stop-color="#ffffff"/></radialGradient></defs><g transform="translate(-336.32476,-159.56114)"><g stroke-miterlimit="10"><path d="M376.03505,189.03158l-4.78723,5.21572h-29.09722l-3.51064,-5.16253z" fill="url(#color-1)" stroke="none" stroke-width="0" stroke-linecap="butt"/><path d="M375.79417,170.97853v18.29022h-36.77214v-18.29022z" fill="url(#color-2)" stroke="none" stroke-width="0" stroke-linecap="butt"/><path d="M339.01226,189.18614c-1.48427,0 -2.6875,-4.0854 -2.6875,-9.125c0,-5.0396 1.20324,-9.125 2.6875,-9.125c1.48426,0 2.6875,4.0854 2.6875,9.125c0,5.0396 -1.20324,9.125 -2.6875,9.125z" fill="url(#color-3)" stroke="none" stroke-width="0" stroke-linecap="butt"/><path d="M338.57476,172.81114l-0.125,-13h1.875l-0.25,11.125" fill="url(#color-4)" stroke="url(#color-5)" stroke-width="0.5" stroke-linecap="round"/><path d="M340.57476,159.93614l1.875,1.5l-0.375,9.875" fill="url(#color-6)" stroke="url(#color-7)" stroke-width="0.5" stroke-linecap="round"/><path d="M340.57476,167.56114h3.875l-0.125,3.125" fill="url(#color-8)" stroke="url(#color-9)" stroke-width="0.5" stroke-linecap="round"/><path d="M376.01225,189.17225c-2.17462,0 -3.9375,-4.11338 -3.9375,-9.1875c0,-5.07412 1.76288,-9.1875 3.9375,-9.1875c2.17462,0 3.9375,4.11338 3.9375,9.1875c0,5.07412 -1.76288,9.1875 -3.9375,9.1875z" fill="url(#color-10)" stroke="none" stroke-width="0" stroke-linecap="butt"/><path d="M343.94976,168.93614h-1.375" fill="url(#color-11)" stroke="url(#color-12)" stroke-width="0.5" stroke-linecap="round"/><path d="M344.07476,167.56114l1.375,0.25l-0.125,3.375" fill="url(#color-13)" stroke="url(#color-14)" stroke-width="0.5" stroke-linecap="round"/><path d="M340.19976,160.18614v10.875h-1.75v-10.875z" fill="url(#color-15)" stroke="url(#color-16)" stroke-width="0.5" stroke-linecap="butt"/><path d="M342.19976,161.68614v9.25h-2.5v-9.25z" fill="url(#color-17)" stroke="url(#color-18)" stroke-width="0.5" stroke-linecap="butt"/><path d="M342.37525,161.49572l-0.91758,2.95099l-2.09125,-1.42541l0.91758,-2.95099z" fill="url(#color-19)" stroke="url(#color-20)" stroke-width="0.5" stroke-linecap="butt"/><path d="M344.10768,167.83746v0.94736h-2.21053v-0.94736z" fill="url(#color-21)" stroke="url(#color-22)" stroke-width="0.5" stroke-linecap="butt"/><path d="M345.21294,168.04798v3.1579h-1v-3.1579z" fill="url(#color-23)" stroke="url(#color-24)" stroke-width="0.5" stroke-linecap="butt"/><path d="M345.41792,167.76387l-0.01221,0.05354l-0.66926,-0.15261l0.01221,-0.05354z" fill="url(#color-25)" stroke="url(#color-26)" stroke-width="0.5" stroke-linecap="butt"/><path d="M343.04764,171.41065l0.09375,-1.5l0.21875,-0.03125l-0.03125,1.1875" fill="url(#color-27)" stroke="url(#color-28)" stroke-width="0.5" stroke-linecap="round"/><text transform="translate(341.74141,191.38141) scale(0.07939,-0.08451)" font-size="40" xml:space="preserve" fill="#ffffff" stroke="none" stroke-width="1" stroke-linecap="butt" font-family="Sans Serif" font-weight="normal" text-anchor="start"><tspan x="0" dy="0">marshmallow thing</tspan><tspan x="0" dy="46.15px"> </tspan></text><text transform="translate(341.64548,187.7282) scale(0.08752,-0.08817)" font-size="40" xml:space="preserve" fill="#ffffff" stroke="none" stroke-width="1" stroke-linecap="butt" font-family="Sans Serif" font-weight="normal" text-anchor="start"><tspan x="0" dy="0">launcher </tspan></text><text transform="translate(357.58153,187.08819) scale(0.16282,-0.11439)" font-size="40" xml:space="preserve" fill="#ffffff" stroke="none" stroke-width="1" stroke-linecap="butt" font-family="Sans Serif" font-weight="normal" text-anchor="start"><tspan x="0" dy="0">4000</tspan></text><text transform="translate(341.38967,183.50661) scale(0.11858,-0.12247)" font-size="40" xml:space="preserve" fill="#ffffff" stroke="none" stroke-width="1" stroke-linecap="butt" font-family="Sans Serif" font-weight="normal" text-anchor="start"><tspan x="0" dy="0">yippee yeah</tspan></text><path d="M375.94975,188.79725c-1.79492,0 -3.25,-3.91751 -3.25,-8.75c0,-4.83249 1.45508,-8.75 3.25,-8.75c1.79492,0 3.25,3.91751 3.25,8.75c0,4.83249 -1.45508,8.75 -3.25,8.75z" fill="url(#color-29)" stroke="none" stroke-width="0" stroke-linecap="butt"/><text transform="translate(341.27629,178.49624) scale(0.05738,-0.11412)" font-size="40" xml:space="preserve" fill="#ffffff" stroke="none" stroke-width="1" stroke-linecap="butt" font-family="Sans Serif" font-weight="normal" text-anchor="start"><tspan x="0" dy="0">lorem ipsum dolor sit amet, </tspan><tspan x="0" dy="46.15px">consectetur adipiscing elit</tspan></text></g></g></svg>