<svg version="1.1" xmlns="http://www.w3.org/2000/svg" xmlns:xlink="http://www.w3.org/1999/xlink" width="902.05467" height="862.7011" viewBox="0,0,902.05467,862.7011"><g transform="translate(130.92217,207.59946)"><g stroke="none" stroke-miterlimit="10" font-family="Sans Serif" font-weight="400" font-size="40"><text transform="translate(70.5,360.49869) scale(0.5,0.5)" font-size="40" xml:space="preserve" fill="#000000"><tspan x="0" dy="0">floorfloorfloorfloorfloorfloorfloorfloorfloorfloorfloorfloorfloor</tspan></text><text transform="translate(558.68923,486.1584) rotate(-90.07792) scale(0.5,0.5)" font-size="40" xml:space="preserve" fill="#000000"><tspan x="0" dy="0">wallwallwallwallwallwallwallwallwallwallwallwallwallwallwallwallwallwall</tspan></text><text transform="translate(90.71627,654.82206) rotate(-90.07792) scale(0.5,0.5)" font-size="40" xml:space="preserve" fill="#000000"><tspan x="0" dy="0">wallwallwallwallwallwallwallwallwallwallwallwallwallwallwallwallwallwall</tspan></text><text transform="translate(-130.65609,270.60382) scale(0.53216,0.5)" font-size="40" xml:space="preserve" fill="#000000"><tspan x="0" dy="0">floorfloorfloorfloorfloorfloorfloorfloorfloorfloorfloorfloorfloor</tspan></text><text transform="translate(146.57658,168.3095) scale(0.50973,0.5)" font-size="40" xml:space="preserve" fill="#000000"><tspan x="0" dy="0">floorfloorfloorfloorfloorfloorfloorfloorfloorfloorfloorfloorfloor</tspan></text><text transform="translate(-117.2027,96.21941) scale(0.51693,0.5)" font-size="40" xml:space="preserve" fill="#000000"><tspan x="0" dy="0">floorfloorfloorfloorfloorfloorfloorfloorfloorfloorfloorfloorfloor</tspan></text><text transform="translate(408.65247,350.75262) scale(0.32639,0.40355)" font-size="40" xml:space="preserve" fill="#ff0000"><tspan x="0" dy="0">lava</tspan></text><text transform="translate(164.15391,251.42643) scale(0.35174,0.22901)" font-size="40" xml:space="preserve" fill="#ff0000"><tspan x="0" dy="0">lava</tspan></text><text transform="translate(271.00983,349.74661) scale(0.3264,0.40355)" font-size="40" xml:space="preserve" fill="#ff0000"><tspan x="0" dy="0">lava</tspan></text><text transform="translate(190.81785,253.21819) scale(0.5,0.36582)" font-size="40" xml:space="preserve" fill="#000000"><tspan x="0" dy="0">floor</tspan></text><text transform="translate(265.81784,253.59319) scale(0.5,0.33457)" font-size="40" xml:space="preserve" fill="#000000"><tspan x="0" dy="0">floor</tspan></text><text transform="translate(399.81785,252.71819) scale(0.5,0.32415)" font-size="40" xml:space="preserve" fill="#000000"><tspan x="0" dy="0">floor</tspan></text><text transform="translate(334.31784,253.46819) scale(0.5,0.34498)" font-size="40" xml:space="preserve" fill="#000000"><tspan x="0" dy="0">floor</tspan></text><text transform="translate(119.81785,252.34319) scale(0.5,0.39707)" font-size="40" xml:space="preserve" fill="#000000"><tspan x="0" dy="0">floor</tspan></text><text transform="translate(218.92191,167.66928) rotate(-75.46443) scale(0.30293,0.30293)" font-size="40" xml:space="preserve" fill="#ff0000"><tspan x="0" dy="0">lava</tspan></text><text transform="translate(281.85417,169.18198) rotate(-72.82656) scale(0.30293,0.30293)" font-size="40" xml:space="preserve" fill="#ff0000"><tspan x="0" dy="0">lava</tspan></text><text transform="translate(355.11605,167.1181) rotate(-78.69674) scale(0.30293,0.30293)" font-size="40" xml:space="preserve" fill="#ff0000"><tspan x="0" dy="0">lava</tspan></text><text transform="translate(424.56468,168.18032) rotate(-73.80403) scale(0.30293,0.30293)" font-size="40" xml:space="preserve" fill="#ff0000"><tspan x="0" dy="0">lava</tspan></text><text transform="translate(498.61073,167.15925) rotate(-76.34198) scale(0.30293,0.30293)" font-size="40" xml:space="preserve" fill="#ff0000"><tspan x="0" dy="0">lava</tspan></text><text transform="translate(147.65593,171.19805) scale(0.5,0.11532)" font-size="40" xml:space="preserve" fill="#ff0000"><tspan x="0" dy="0">lavalavalavalavalavalavalavalavalavalavalavalavalavalavalavalava</tspan></text><text transform="translate(237.82096,251.52164) scale(0.35174,0.22901)" font-size="40" xml:space="preserve" fill="#ff0000"><tspan x="0" dy="0">lava</tspan></text><text transform="translate(309.46839,253.05944) scale(0.35174,0.22901)" font-size="40" xml:space="preserve" fill="#ff0000"><tspan x="0" dy="0">lava</tspan></text><text transform="translate(375.92252,253.73168) scale(0.35174,0.22901)" font-size="40" xml:space="preserve" fill="#ff0000"><tspan x="0" dy="0">lava</tspan></text></g></g></svg>