<svg version="1.1" xmlns="http://www.w3.org/2000/svg" xmlns:xlink="http://www.w3.org/1999/xlink" width="50.5172" height="61.63552" viewBox="0,0,50.5172,61.63552"><defs><radialGradient cx="239.96318" cy="184.48882" r="25.70394" gradientUnits="userSpaceOnUse" id="color-1"><stop offset="0" stop-color="#fdfdfd"/><stop offset="1" stop-color="#fff9b9"/></radialGradient><radialGradient cx="239.96318" cy="184.48882" r="25.70394" gradientUnits="userSpaceOnUse" id="color-2"><stop offset="0" stop-color="#ffffff"/><stop offset="1" stop-color="#ffea00"/></radialGradient><radialGradient cx="239.92808" cy="159.01508" r="25.2586" gradientUnits="userSpaceOnUse" id="color-3"><stop offset="0" stop-color="#ffffff"/><stop offset="1" stop-color="#ffea00"/></radialGradient></defs><g transform="translate(-214.66945,-149.80724)"><g stroke-miterlimit="10"><path d="M216.59829,203.44288l-0.23019,-44.658h47.19016c0,0 -0.32307,28.20009 -0.28148,36.6014c0.01192,2.40786 -0.04784,7.74262 -0.79605,8.8737c-1.20111,1.81574 -3.56444,2.67301 -5.09128,3.05287c-0.59082,0.14699 -5.8299,1.94208 -9.02799,2.31187c-0.9762,0.11288 -7.96165,0.65077 -11.51366,0.55716c-0.789,-0.02079 -6.79824,-0.11419 -10.18293,-0.96846c-1.01322,-0.25573 -4.68043,-2.07022 -5.94129,-2.49345c-1.82694,-0.61325 -3.89509,-2.58649 -3.89509,-2.58649" fill="url(#color-1)" stroke="url(#color-2)" stroke-width="2.5" stroke-linecap="round"/><path d="M259.18451,173.51742v9.66823" fill="none" stroke="#ffea00" stroke-width="2.5" stroke-linecap="round"/><path d="M265.18665,159.01508c0,5.08535 -11.30866,9.20783 -25.2586,9.20783c-13.94995,0 -25.2586,-4.12249 -25.2586,-9.20783c0,-5.08535 11.30866,-9.20784 25.2586,-9.20784c13.94994,0 25.2586,4.12249 25.2586,9.20784z" fill="url(#color-3)" stroke="none" stroke-width="0" stroke-linecap="butt"/><path d="M261.02674,192.76509c0,0 3.30929,-0.18896 1.81703,-0.11243c-1.50024,0.07693 -9.09777,0.4314 -9.09777,0.4314" fill="none" stroke="#ffea00" stroke-width="2.5" stroke-linecap="round"/></g></g></svg>