<svg version="1.1" xmlns="http://www.w3.org/2000/svg" xmlns:xlink="http://www.w3.org/1999/xlink" width="755.81534" height="590.81119" viewBox="0,0,755.81534,590.81119"><g transform="translate(35.3342,165.31119)"><g stroke-miterlimit="10"><path d="M620.48114,352.68881v-361h100v361z" fill="#ff0000" stroke="none" stroke-width="0"/><path d="M341.48114,368.68881v-23h307v23z" fill="#ff0000" stroke="none" stroke-width="0"/><path d="M241.92856,268.57169v-164.68168h19.51952v164.68168z" fill="#ff0000" stroke="none" stroke-width="0"/><path d="M228.92856,268.57169v-181.68168h19.51952v181.68168z" fill="#ff0000" stroke="none" stroke-width="0"/><path d="M-3.003,386.18881v-33.03303h717.71772v33.03303z" fill="#000000" stroke="#000000" stroke-width="2.5"/><path d="M-0.62587,358.29008v-219.58069h122.04822v219.58069z" fill="#000000" stroke="#000000" stroke-width="2.5"/><path d="M169.03904,359.65728v-223.72372h15.76577v223.72372z" fill="#000000" stroke="#000000" stroke-width="2.5"/><path d="M-33.8342,87.39001v-13.51351h276.27628v13.51351z" fill="#000000" stroke="#000000" stroke-width="2.5"/><path d="M240.94057,267.57019v-193.69369h15.01502v193.69369z" fill="#000000" stroke="#000000" stroke-width="2.5"/><path d="M629.78496,363.68881v-529h55v529z" fill="#000000" stroke="none" stroke-width="0"/><path d="M346.78496,325.18881c0,-20.71068 -6.04416,-37.5 -13.5,-37.5c-7.45584,0 -13.5,16.78932 -13.5,37.5c0,20.71068 6.04416,37.5 13.5,37.5c7.45584,0 13.5,-16.78932 13.5,-37.5z" fill="#000000" stroke="none" stroke-width="0"/><path d="M472.78496,281.18881c0,9.66498 -24.17662,17.5 -54,17.5c-29.82338,0 -54,-7.83502 -54,-17.5c0,-9.66498 24.17662,-17.5 54,-17.5c29.82338,0 54,7.83502 54,17.5z" fill="#000000" stroke="none" stroke-width="0"/><path d="M518.78496,205.18881c0,-31.75637 -6.93959,-57.5 -15.5,-57.5c-8.56041,0 -15.5,25.74363 -15.5,57.5c0,31.75637 6.93959,57.5 15.5,57.5c8.56041,0 15.5,-25.74363 15.5,-57.5z" fill="#000000" stroke="none" stroke-width="0"/><path d="M307.36269,141.5c0,8.28427 25.74363,15 57.5,15c31.75637,0 57.5,-6.71573 57.5,-15c0,-8.28427 -25.74363,-15 -57.5,-15c-31.75637,0 -57.5,6.71573 -57.5,15z" fill="#000000" stroke="none" stroke-width="0"/><path d="M-22.3342,5.5v-31h666v31z" fill="#ff0000" stroke="none" stroke-width="0"/><path d="M-35.3342,425.5v-442h43v442z" fill="#ff0000" stroke="none" stroke-width="0"/></g></g></svg>