<svg version="1.1" xmlns="http://www.w3.org/2000/svg" xmlns:xlink="http://www.w3.org/1999/xlink" width="31.75" height="29.75" viewBox="0,0,31.75,29.75"><g transform="translate(-255.84353,-170.62062)"><g stroke-miterlimit="10"><path d="M258.5408,188.95323v-18.29022h24.48047v18.29022z" fill="#000000" stroke="none" stroke-width="0" stroke-linecap="butt"/><path d="M287.59353,179.80812c0,5.07412 -1.76288,9.1875 -3.9375,9.1875c-2.17462,0 -3.9375,-4.11338 -3.9375,-9.1875c0,-5.07412 1.76288,-9.1875 3.9375,-9.1875c2.17462,0 3.9375,4.11338 3.9375,9.1875z" fill="#737373" stroke="none" stroke-width="0" stroke-linecap="butt"/><path d="M286.84353,179.74562c0,4.83249 -1.45508,8.75 -3.25,8.75c-1.79492,0 -3.25,-3.91751 -3.25,-8.75c0,-4.83249 1.45508,-8.75 3.25,-8.75c1.79492,0 3.25,3.91751 3.25,8.75z" fill="#000000" stroke="none" stroke-width="0" stroke-linecap="butt"/><path d="M261.21853,179.87062c0,5.0396 -1.20324,9.125 -2.6875,9.125c-1.48426,0 -2.6875,-4.0854 -2.6875,-9.125c0,-5.0396 1.20323,-9.125 2.6875,-9.125c1.48426,0 2.6875,4.0854 2.6875,9.125z" fill="#000000" stroke="none" stroke-width="0" stroke-linecap="butt"/><path d="M259.59353,188.99562l0.25,11.125h-1.875l0.125,-13" fill="none" stroke="#000000" stroke-width="0.5" stroke-linecap="round"/><path d="M261.59353,188.62062l0.375,9.875l-1.875,1.5" fill="none" stroke="#000000" stroke-width="0.5" stroke-linecap="round"/><path d="M263.84353,189.24562l0.125,3.125h-3.875" fill="none" stroke="#000000" stroke-width="0.5" stroke-linecap="round"/><path d="M263.46853,190.99562h-1.375" fill="none" stroke="#000000" stroke-width="0.5" stroke-linecap="round"/><path d="M264.84353,188.74562l0.125,3.375l-1.375,0.25" fill="none" stroke="#000000" stroke-width="0.5" stroke-linecap="round"/><path d="M257.96853,199.74562v-10.875h1.75v10.875z" fill="#000000" stroke="#000000" stroke-width="0.5" stroke-linecap="butt"/><path d="M259.21853,198.24562v-9.25h2.5v9.25z" fill="#000000" stroke="#000000" stroke-width="0.5" stroke-linecap="butt"/><path d="M259.80277,199.86145l-0.91758,-2.95099l2.09125,-1.42541l0.91758,2.95099z" fill="#000000" stroke="#000000" stroke-width="0.5" stroke-linecap="butt"/><path d="M261.41592,192.0943v-0.94736h2.21053v0.94736z" fill="#000000" stroke="#000000" stroke-width="0.5" stroke-linecap="butt"/><path d="M263.73171,191.88378v-3.1579h1v3.1579z" fill="#000000" stroke="#000000" stroke-width="0.5" stroke-linecap="butt"/><path d="M264.26743,192.3205l-0.01221,-0.05354l0.66926,-0.15261l0.01221,0.05354z" fill="#000000" stroke="#000000" stroke-width="0.5" stroke-linecap="butt"/><path d="M262.84766,188.86486l0.03125,1.1875l-0.21875,-0.03125l-0.09375,-1.5" fill="none" stroke="#000000" stroke-width="0.5" stroke-linecap="round"/><text transform="translate(258.06251,174.30616) scale(0.08429,0.08451)" font-size="40" xml:space="preserve" fill="#ffffff" stroke="none" stroke-width="1" stroke-linecap="butt" font-family="Sans Serif" font-weight="normal" text-anchor="start"><tspan x="0" dy="0">marshmallow</tspan><tspan x="0" dy="46.150000000000006px"> </tspan></text><text transform="translate(256.68751,179.22391) scale(0.1047,0.12814)" font-size="40" xml:space="preserve" fill="#ffffff" stroke="none" stroke-width="1" stroke-linecap="butt" font-family="Sans Serif" font-weight="normal" text-anchor="start"><tspan x="0" dy="0">launcher </tspan></text><text transform="translate(275.93751,177.32031) scale(0.112,0.07408)" font-size="40" xml:space="preserve" fill="#ffffff" stroke="none" stroke-width="1" stroke-linecap="butt" font-family="Sans Serif" font-weight="normal" text-anchor="start"><tspan x="0" dy="0">3</tspan><tspan x="0" dy="46.150000000000006px">0</tspan><tspan x="0" dy="46.150000000000006px">0</tspan><tspan x="0" dy="46.150000000000006px">0</tspan></text><text transform="translate(257.18751,185.21875) scale(0.19393,0.19393)" font-size="40" xml:space="preserve" fill="#ffffff" stroke="none" stroke-width="1" stroke-linecap="butt" font-family="Sans Serif" font-weight="normal" text-anchor="start"><tspan x="0" dy="0">yeah</tspan></text></g></g></svg>