<svg version="1.1" xmlns="http://www.w3.org/2000/svg" xmlns:xlink="http://www.w3.org/1999/xlink" width="852.98383" height="719.46963" viewBox="0,0,852.98383,719.46963"><g transform="translate(125.77738,-30.38907)"><g stroke="none" stroke-miterlimit="10"><path d="M51.45645,457.63907v-103h524v103z" fill="#ff0000" stroke-width="0"/><path d="M316.77738,677.63719l-124.57951,72.22151l-317.97525,-548.49589l124.57951,-72.22151z" fill="#000000" stroke-width="NaN"/><path d="M549.20645,329.63907v-171h178v171z" fill="#000000" stroke-width="0"/><path d="M-75.79355,238.26828v-155.62921h162v155.62921z" fill="#000000" stroke-width="0"/><path d="M161.85098,351.07547l13.72301,-10.72471l184.32126,235.85189l-13.72301,10.72471z" fill="#000000" stroke-width="0"/><path d="M238.85098,345.07548l13.72301,-10.72471l184.32126,235.85189l-13.72301,10.72471z" fill="#000000" stroke-width="0"/><path d="M333.85098,348.07548l13.72301,-10.72471l184.32126,235.85189l-13.72301,10.72471z" fill="#000000" stroke-width="0"/><path d="M421.85098,345.07548l13.72301,-10.72471l184.32126,235.85189l-13.72301,10.72471z" fill="#000000" stroke-width="0"/><path d="M467.20645,441.50986v-100.87079h85v100.87079z" fill="#000000" stroke-width="0"/><path d="M119.20645,367.13907v-18h60v18z" fill="#000000" stroke-width="0"/><path d="M433.33704,144.50454l11.59902,-9.51119l62.1398,75.78024l-11.59902,9.51119z" fill="#000000" stroke-width="0"/><path d="M305.33704,183.50455l11.59902,-9.5112l62.1398,75.78025l-11.59901,9.51119z" fill="#000000" stroke-width="0"/><path d="M194.33704,125.50455l11.59902,-9.5112l62.1398,75.78025l-11.59901,9.51119z" fill="#000000" stroke-width="0"/><text transform="translate(465.20645,52.13907) scale(0.5,0.5)" font-size="40" xml:space="preserve" fill="#000000" stroke-width="1" font-family="Sans Serif" font-weight="normal" text-anchor="start"><tspan x="0" dy="0">red = bad</tspan></text><text transform="translate(144.94265,56.88913) rotate(51.72873) scale(0.5,0.5)" font-size="40" xml:space="preserve" fill="#000000" stroke-width="1" font-family="Sans Serif" font-weight="normal" text-anchor="start"><tspan x="0" dy="0">wowowowowowowow</tspan></text></g></g></svg>