<svg version="1.1" xmlns="http://www.w3.org/2000/svg" xmlns:xlink="http://www.w3.org/1999/xlink" width="43.62499" height="24.26034" viewBox="0,0,43.62499,24.26034"><defs><radialGradient cx="356.85631" cy="168.29233" r="18.69754" gradientUnits="userSpaceOnUse" id="color-1"><stop offset="0" stop-color="#ffea00"/><stop offset="1" stop-color="#ffffff"/></radialGradient><radialGradient cx="356.92691" cy="179.80813" r="18.38607" gradientUnits="userSpaceOnUse" id="color-2"><stop offset="0" stop-color="#ffffff"/><stop offset="1" stop-color="#ffea00"/></radialGradient><radialGradient cx="338.53107" cy="179.87063" r="9.125" gradientUnits="userSpaceOnUse" id="color-3"><stop offset="0" stop-color="#ffea00"/><stop offset="1" stop-color="#ffffff"/></radialGradient><radialGradient cx="375.53106" cy="179.94702" r="9.1875" gradientUnits="userSpaceOnUse" id="color-4"><stop offset="0" stop-color="#ffffff"/><stop offset="1" stop-color="#fff58c"/></radialGradient><radialGradient cx="375.46856" cy="179.88452" r="8.75" gradientUnits="userSpaceOnUse" id="color-5"><stop offset="0" stop-color="#ffea00"/><stop offset="1" stop-color="#ffffff"/></radialGradient></defs><g transform="translate(-335.84356,-164.87417)"><g stroke="none" stroke-miterlimit="10"><path d="M338.15876,170.847l3.51064,-5.16253h29.09722l4.78723,5.21572z" fill="url(#color-1)" stroke-width="0"/><path d="M338.54084,188.95324v-18.29022h36.77214v18.29022z" fill="url(#color-2)" stroke-width="0"/><path d="M341.21857,179.87063c0,5.0396 -1.20324,9.125 -2.6875,9.125c-1.48426,0 -2.6875,-4.0854 -2.6875,-9.125c0,-5.0396 1.20323,-9.125 2.6875,-9.125c1.48426,0 2.6875,4.0854 2.6875,9.125z" fill="url(#color-3)" stroke-width="0"/><path d="M379.46856,179.94702c0,5.07412 -1.76288,9.1875 -3.9375,9.1875c-2.17462,0 -3.9375,-4.11338 -3.9375,-9.1875c0,-5.07412 1.76288,-9.1875 3.9375,-9.1875c2.17462,0 3.9375,4.11338 3.9375,9.1875z" fill="url(#color-4)" stroke-width="0"/><text transform="translate(341.26021,168.55036) scale(0.07939,0.08451)" font-size="40" xml:space="preserve" fill="#ffffff" stroke-width="1" font-family="Sans Serif" font-weight="normal" text-anchor="start"><tspan x="0" dy="0">marshmallow thing</tspan><tspan x="0" dy="46.150000000000006px"> </tspan></text><text transform="translate(341.16429,172.20357) scale(0.08752,0.08817)" font-size="40" xml:space="preserve" fill="#ffffff" stroke-width="1" font-family="Sans Serif" font-weight="normal" text-anchor="start"><tspan x="0" dy="0">launcher </tspan></text><text transform="translate(357.10034,172.84358) scale(0.16282,0.11439)" font-size="40" xml:space="preserve" fill="#ffffff" stroke-width="1" font-family="Sans Serif" font-weight="normal" text-anchor="start"><tspan x="0" dy="0">4000</tspan></text><text transform="translate(340.90848,176.42516) scale(0.11858,0.12247)" font-size="40" xml:space="preserve" fill="#ffffff" stroke-width="1" font-family="Sans Serif" font-weight="normal" text-anchor="start"><tspan x="0" dy="0">yippee yeah</tspan></text><path d="M378.71856,179.88452c0,4.83249 -1.45508,8.75 -3.25,8.75c-1.79492,0 -3.25,-3.91751 -3.25,-8.75c0,-4.83249 1.45508,-8.75 3.25,-8.75c1.79492,0 3.25,3.91751 3.25,8.75z" fill="url(#color-5)" stroke-width="0"/><text transform="translate(340.7951,181.43553) scale(0.05738,0.11412)" font-size="40" xml:space="preserve" fill="#ffffff" stroke-width="1" font-family="Sans Serif" font-weight="normal" text-anchor="start"><tspan x="0" dy="0">lorem ipsum dolor sit amet, </tspan><tspan x="0" dy="46.150000000000006px">consectetur adipiscing elit</tspan></text></g></g></svg>