<svg version="1.1" xmlns="http://www.w3.org/2000/svg" xmlns:xlink="http://www.w3.org/1999/xlink" width="527.11207" height="423.66821" viewBox="0,0,527.11207,423.66821"><g transform="translate(-50.79379,39.6174)"><g stroke-width="11" stroke-linecap="round" stroke-miterlimit="10"><path d="M382.01041,103.71878l2.59854,-136.02971l175.40146,51.50279l-14.29197,310.89215" fill="none" stroke="#000000"/><path d="M572.01041,376.53771l-499,2l-12,-22c0,0 38.31668,6.26901 82.66207,3.81278c27.28772,-1.51143 56.8582,-11.29746 81.18837,-13.12377c31.41795,-2.35834 61.88887,-5.11897 85.68171,-8.22853c84.74568,-11.07567 255.46785,-48.46048 255.46785,-48.46048z" fill="#ff0000" stroke="#000000"/><path d="M440.01041,201.68905l-180,-38l-46,45l-26,30l-48,7l-73,-80l4,-65.5l2,-30l126,-1" fill="none" stroke="#000000"/><path d="M463.01041,74.68905l-24,137" fill="none" stroke="#ff0000"/><path d="M381.6412,103.49042l-102.63079,-31.30137l0.90179,-99" fill="none" stroke="#ff0000"/><path d="M71.01041,70.18905l7,101" fill="none" stroke="#000000"/><path d="M195.78819,77.74461l-121.77778,-0.55556" fill="none" stroke="#000000"/><path d="M200.7882,82.74461c0,0 -42.91903,-0.17552 -62.77037,-0.26609c-20.70528,-0.09446 -59.00741,-0.28947 -59.00741,-0.28947" fill="none" stroke="#000000"/><path d="M205.7882,87.74461l-121.77778,-0.55556" fill="none" stroke="#000000"/><path d="M71.7882,88.85572l139,3.88889" fill="none" stroke="#000000"/></g></g></svg>