<svg version="1.1" xmlns="http://www.w3.org/2000/svg" xmlns:xlink="http://www.w3.org/1999/xlink" width="43.62499" height="35.49645" viewBox="0,0,43.62499,35.49645"><g transform="translate(-335.94976,-164.56006)"><g stroke-miterlimit="10"><path d="M338.26496,170.53289l3.51064,-5.16253h29.09722l4.78723,5.21572z" fill="#333333" stroke="#000000" stroke-width="0" stroke-linecap="butt"/><path d="M338.64703,188.63913v-18.29022h36.77214v18.29022z" fill="#000000" stroke="#000000" stroke-width="0" stroke-linecap="butt"/><path d="M341.32476,179.55652c0,5.0396 -1.20324,9.125 -2.6875,9.125c-1.48426,0 -2.6875,-4.0854 -2.6875,-9.125c0,-5.0396 1.20323,-9.125 2.6875,-9.125c1.48426,0 2.6875,4.0854 2.6875,9.125z" fill="#000000" stroke="#000000" stroke-width="0" stroke-linecap="butt"/><path d="M339.69976,188.68152l0.25,11.125h-1.875l0.125,-13" fill="#000000" stroke="#000000" stroke-width="0.5" stroke-linecap="round"/><path d="M341.69976,188.30652l0.375,9.875l-1.875,1.5" fill="#000000" stroke="#000000" stroke-width="0.5" stroke-linecap="round"/><path d="M343.94976,188.93152l0.125,3.125h-3.875" fill="#000000" stroke="#000000" stroke-width="0.5" stroke-linecap="round"/><path d="M379.57475,179.63291c0,5.07412 -1.76288,9.1875 -3.9375,9.1875c-2.17462,0 -3.9375,-4.11338 -3.9375,-9.1875c0,-5.07412 1.76288,-9.1875 3.9375,-9.1875c2.17462,0 3.9375,4.11338 3.9375,9.1875z" fill="#00679c" stroke="#000000" stroke-width="0" stroke-linecap="butt"/><path d="M342.19976,190.68152h1.375" fill="#000000" stroke="#000000" stroke-width="0.5" stroke-linecap="round"/><path d="M344.94976,188.43152l0.125,3.375l-1.375,0.25" fill="#000000" stroke="#000000" stroke-width="0.5" stroke-linecap="round"/><path d="M338.07476,199.43152v-10.875h1.75v10.875z" fill="#000000" stroke="#000000" stroke-width="0.5" stroke-linecap="butt"/><path d="M339.32476,197.93152v-9.25h2.5v9.25z" fill="#000000" stroke="#000000" stroke-width="0.5" stroke-linecap="butt"/><path d="M339.909,199.54735l-0.91758,-2.95099l2.09125,-1.42541l0.91758,2.95099z" fill="#000000" stroke="#000000" stroke-width="0.5" stroke-linecap="butt"/><path d="M341.52215,191.7802v-0.94736h2.21053v0.94736z" fill="#000000" stroke="#000000" stroke-width="0.5" stroke-linecap="butt"/><path d="M343.83794,191.56968v-3.1579h1v3.1579z" fill="#000000" stroke="#000000" stroke-width="0.5" stroke-linecap="butt"/><path d="M344.37366,192.0064l-0.01221,-0.05354l0.66926,-0.15261l0.01221,0.05354z" fill="#000000" stroke="#000000" stroke-width="0.5" stroke-linecap="butt"/><path d="M342.95389,188.55076l0.03125,1.1875l-0.21875,-0.03125l-0.09375,-1.5" fill="#000000" stroke="#000000" stroke-width="0.5" stroke-linecap="round"/><text transform="translate(341.36641,168.23625) scale(0.07939,0.08451)" font-size="40" xml:space="preserve" fill="#ffffff" stroke="none" stroke-width="1" stroke-linecap="butt" font-family="Sans Serif" font-weight="normal" text-anchor="start"><tspan x="0" dy="0">marshmallow thing</tspan><tspan x="0" dy="46.150000000000006px"> </tspan></text><text transform="translate(341.27048,171.88946) scale(0.08752,0.08817)" font-size="40" xml:space="preserve" fill="#ffffff" stroke="none" stroke-width="1" stroke-linecap="butt" font-family="Sans Serif" font-weight="normal" text-anchor="start"><tspan x="0" dy="0">launcher </tspan></text><text transform="translate(357.20653,172.52947) scale(0.16282,0.11439)" font-size="40" xml:space="preserve" fill="#ffffff" stroke="none" stroke-width="1" stroke-linecap="butt" font-family="Sans Serif" font-weight="normal" text-anchor="start"><tspan x="0" dy="0">4000</tspan></text><text transform="translate(341.01467,176.11105) scale(0.11858,0.12247)" font-size="40" xml:space="preserve" fill="#ffffff" stroke="none" stroke-width="1" stroke-linecap="butt" font-family="Sans Serif" font-weight="normal" text-anchor="start"><tspan x="0" dy="0">yippee yeah</tspan></text><path d="M378.82475,179.57041c0,4.83249 -1.45508,8.75 -3.25,8.75c-1.79492,0 -3.25,-3.91751 -3.25,-8.75c0,-4.83249 1.45508,-8.75 3.25,-8.75c1.79492,0 3.25,3.91751 3.25,8.75z" fill="#000000" stroke="#000000" stroke-width="0" stroke-linecap="butt"/><text transform="translate(340.90129,181.12142) scale(0.05738,0.11412)" font-size="40" xml:space="preserve" fill="#ffffff" stroke="none" stroke-width="1" stroke-linecap="butt" font-family="Sans Serif" font-weight="normal" text-anchor="start"><tspan x="0" dy="0">lorem ipsum dolor sit amet, </tspan><tspan x="0" dy="46.150000000000006px">consectetur adipiscing elit</tspan></text></g></g></svg>