<svg version="1.1" xmlns="http://www.w3.org/2000/svg" xmlns:xlink="http://www.w3.org/1999/xlink" width="556.84214" height="355.14931" viewBox="0,0,556.84214,355.14931"><g transform="translate(3.54012,-31.60833)"><g fill="#000000" stroke="none" stroke-width="0.5" stroke-miterlimit="10"><path d="M477.98799,117.43994c2.5,0 2.5,2.5 2.5,2.5c0,11.38117 0,25.76534 0,37.14651c0.00001,6.59407 -0.32757,13.28882 0.00575,19.87363c0.38268,7.56001 1.84166,14.847 2.97852,22.25397c0.13828,0.90095 -0.27198,1.85049 -0.04815,2.73408c0.2513,0.99201 1.08151,1.77046 1.42019,2.7288c1.03054,-4.10025 2.03026,-8.20395 3.12981,-12.23561c3.0697,-11.25558 6.13941,-22.51116 9.20911,-33.76673c1.72635,-6.32994 4.07031,-12.70958 4.92143,-19.22141c-1.14255,-1.14223 -0.99536,-3.06521 -0.35879,-5.03612l-0.3097,-0.0717l1.11645,-4.8221c0.23734,-1.13371 1.2427,-1.98514 2.44693,-1.98514c1.23682,0 2.26386,0.89815 2.4645,2.07781c1.86877,-5.30159 5.32077,-10.59564 7.56451,-15.29683c3.80089,-7.96376 7.66969,-15.88905 11.44637,-23.85315c-0.67833,-1.43612 -0.72774,-3.17287 -1.16338,-4.72208c-0.08087,-0.28759 -2.66187,-9.75419 -2.68524,-9.89435c-0.81722,-4.90232 -0.67128,-10.2569 -0.98993,-15.22009c-0.21326,-3.32173 -0.44047,-6.64259 -0.63983,-9.96519c-0.92627,2.33518 -1.83031,4.61058 -2.79438,7.00322c-0.58614,1.45468 -0.78965,3.14625 -1.62592,4.44777c0.85577,0.39693 1.44928,1.26372 1.44928,2.26914c0,0.41989 -0.10352,0.81561 -0.28642,1.16302l-2.21358,4.42715c-0.38305,1.70657 -1.2308,3.48475 -2.4707,4.87061c0.27575,0.36168 0.46619,0.86124 0.46619,1.55124c0,2.5 -2.5,2.5 -2.5,2.5c-1.07927,0 -2.16018,-0.00756 -3.24208,-0.01858c-0.36138,0.38831 -0.76028,0.73034 -1.22539,0.9906c-0.14474,0.08099 -0.29218,0.15491 -0.44198,0.22258l0.02149,0.04297l-2.95802,1.47901c-0.34741,0.18291 -0.74312,0.28642 -1.16302,0.28642c-1.38071,0 -2.5,-1.11929 -2.5,-2.5c0,-0.2087 0.02557,-0.41143 0.07376,-0.60522c-2.16118,-0.00479 -4.32013,0.01781 -6.47188,0.10038c-8.23596,0.31606 -16.37625,1.50167 -24.6304,1.50334c-4.83984,0.00098 -9.67968,0 -14.51952,0c-2.41545,0 -6.10899,-0.68113 -8.43463,-0.06688c-1.08205,0.28579 -1.90435,1.2883 -3.003,1.5015c-1.6621,0.32255 -3.38592,0.04459 -5.07889,0.06688c-4.32099,-0.03 -7.20782,1.55466 -11.21192,2.87152c-3.22929,1.06204 -6.76124,0.79306 -10.08997,1.48287c-1.32052,0.27365 -2.40141,1.29909 -3.71609,1.59956c-0.29274,0.06691 -5.94861,0.05206 -6.51355,0.05206c-4.5045,0 -9.00901,0 -13.51351,0c-2.31115,0 -4.6986,-0.65707 -6.93313,-0.06688c-1.08205,0.28579 -1.91434,1.24203 -3.003,1.5015c-5.31182,1.26603 -11.37232,-1.0648 -16.69044,0.0346c-2.62951,0.54359 -5.22297,1.50832 -7.90796,1.53378c-2.55716,0 -5.13765,-0.36688 -7.67146,-0.02208c-2.9438,0.40059 -5.81178,1.44729 -8.78176,1.52278c-2.83181,0.07198 -5.72397,-0.64007 -8.49793,-0.06608c-1.09594,0.22677 -1.90435,1.2883 -3.003,1.5015c-4.21516,0.818 -9.39661,-1.08737 -13.51351,0c-1.08205,0.28579 -1.91434,1.24203 -3.003,1.5015c-2.69594,0.64255 -5.55849,-0.24209 -8.31419,0.05298c-3.35763,0.35952 -6.64592,1.33714 -10.01882,1.4999c-5.56084,0.26833 -11.2069,0.01549 -16.7759,0.01549c-4.50621,0 -9.01243,0 -13.51864,0c0.03795,0.03039 0.0603,0.04828 0.06537,0.05233c0,0 1.95217,1.56174 0.39043,3.51391c-1.56174,1.95217 -3.51391,0.39043 -3.51391,0.39043c-1.61537,-1.2923 -3.15451,-2.6887 -4.76665,-3.9851c-0.54906,-0.07964 -1.64415,-0.38242 -2.03495,-1.53349c-0.16257,-0.113 -0.32638,-0.22431 -0.49155,-0.33375c-2.3882,-1.58244 -5.07534,-2.70657 -7.36964,-4.42232c-3.13347,-2.34331 -5.81763,-5.48058 -9.14688,-7.58969c-7.7758,-4.92606 -16.9037,-8.01358 -25.21883,-11.84476c-2.69011,-1.23946 -4.976,-3.23749 -7.62519,-4.56216c-1.46813,-0.73411 -3.25521,-0.74202 -4.66046,-1.59031c-1.10339,-0.66607 -1.49819,-2.23251 -2.64538,-2.81993c-0.77841,-0.39859 -1.74712,0.08228 -2.62068,0.12342c-2.59698,-1.24653 -5.44826,-1.91559 -8.0315,-3.19034c-1.54919,-0.76448 -2.82974,-1.98968 -4.32198,-2.86009c-5.53921,-3.23099 -11.5592,-5.80738 -17.2658,-8.73805l-3.01641,-0.16594c0,0 -2.49372,-0.17704 -2.31669,-2.67076c0.07019,-0.98866 0.50451,-1.55753 1.00321,-1.88407c-1.31976,-0.02684 -2.64125,-0.06981 -3.9707,-0.1337l-3.81406,-3.54493c0,0 -1.76777,-1.76777 0,-3.53553c1.76777,-1.76777 3.53553,0 3.53553,0l2.19194,2.46107c2.55761,-0.23785 5.08498,-0.18986 7.65184,-0.15802c1.23577,-0.4205 5.09181,-1.54761 6.44619,-2.56339c1.28153,-0.96115 2.05569,-2.60878 3.50807,-3.2846c1.19807,-0.55749 2.63878,-0.1542 3.95971,-0.1903c2.99678,-0.08191 6.01098,0 9.00901,0c2.87473,0 6.80354,-0.59568 9.58339,0.06688c1.08866,0.25947 1.92096,1.21571 3.003,1.5015c1.93562,0.51125 4.05855,-0.46416 6.00601,0c1.08866,0.25947 1.92096,1.21571 3.003,1.5015c2.35177,0.62116 4.88122,-0.3231 7.29713,-0.04024c4.47792,0.52429 8.55578,2.97921 12.60471,4.66816c2.92146,1.21864 6.00729,1.99817 9.00901,3.003c3.54345,1.76385 7.8127,4.91617 11.62969,5.88258c1.94076,0.49138 4.06278,-0.48156 6.00601,0c2.62967,0.65167 7.71266,3.27795 9.8964,4.90952c2.26811,1.69461 3.74409,4.30314 6.00601,6.00601c1.83679,1.38282 4.19644,1.90763 6.15799,3.10693c1.25561,0.76768 2.24205,2.00497 3.6152,2.53445c0.88739,0.34217 1.93631,-0.29405 2.85292,-0.04039c1.39183,0.38517 2.71893,1.06199 3.8904,1.90652c1.02002,0.73535 1.45543,2.18578 2.57642,2.7555c0.92745,0.47136 2.15314,-0.25055 3.11799,0.13857c4.84586,1.95432 4.86555,4.20842 9.93472,4.20842c2.01874,0.96681 3.82892,2.4831 6.00601,3.003c0.97362,0.23251 2.03189,-0.24278 3.003,0c1.08574,0.27143 1.91726,1.23007 3.003,1.5015c0.97111,0.24278 2.03189,-0.24278 3.003,0c1.08574,0.27143 1.92096,1.21571 3.003,1.5015c1.75064,0.46239 3.62095,-0.06688 5.43162,-0.06688c4.004,0 8.00801,0 12.01201,0c3.003,0 6.00601,0 9.00901,0c1.81068,0 3.67633,0.51129 5.43162,0.06688c2.16984,-0.54937 3.83937,-2.44112 6.00601,-3.003c1.68904,-0.43803 3.56941,-0.29356 5.11861,-1.09648c1.001,-1.001 1.86623,-2.15935 3.003,-3.003c3.54225,-2.62888 8.50401,-3.36256 12.01201,-6.00601c2.26115,-1.70388 3.74631,-4.30019 6.00601,-6.00601c2.84781,-2.14978 6.15379,-3.86459 9.00901,-6.00601c3.14879,-2.36159 5.84906,-5.16235 9.00901,-7.50751c0.31839,-0.23629 6.6073,-3.33382 6.8934,-3.40802c0.96895,-0.25128 2.02938,0.23251 3.003,0c2.17709,-0.5199 3.83937,-2.44112 6.00601,-3.003c0.96895,-0.25128 2.02938,0.23251 3.003,0c2.17709,-0.5199 3.98727,-2.03619 6.00601,-3.003c5.69618,-0.10649 11.3938,-0.06688 17.0909,-0.06688c0.44157,0 6.19107,-0.00949 6.40646,0.03228c1.55377,0.30136 2.95252,1.1911 4.5045,1.5015c0.98156,0.19631 2.02144,-0.19631 3.003,0c1.55199,0.3104 2.99625,1.02174 4.5045,1.5015c0.4233,0.13465 0.96684,0.64774 1.28822,0.34109c0.80969,-0.7726 0.50762,-2.48851 1.5015,-3.003c4.4779,-2.31802 4.47903,0.29284 7.89472,1.19501c2.89642,0.76501 3.01176,-1.5225 6.38833,0.12342c1.95289,0.95194 5.56449,5.61053 6.881,7.35413c0.23509,0.31135 0.49636,0.61148 0.75746,0.91256c0.17312,-0.2174 0.37469,-0.41326 0.61143,-0.5825c6.30832,-4.50978 11.83951,4.56828 14.12406,8.59803c0.55926,0.9865 0.53347,2.32558 1.33264,3.13011c0.05235,0.0527 0.10224,0.06634 0.15028,0.05116c2.09351,-5.76763 4.49829,-11.63387 8.92217,-15.38602c1.8149,-1.53932 3.39529,-4.54592 5.75359,-4.22688c4.14067,0.56016 3.84863,8.65004 4.0036,10.9269c0.55066,8.09032 0.24056,16.70576 1.57283,24.69773c0.30122,1.80692 0.73686,3.69792 1.23982,5.59459c3.85231,-9.98559 7.47128,-19.95383 12.6147,-29.36147c1.59904,-2.92475 2.68685,-6.19398 4.79713,-8.77425l2.37425,-4.34266c0.4171,-0.79943 1.25376,-1.34519 2.21788,-1.34519c1.38071,0 2.5,1.11929 2.5,2.5c0,0.34173 -0.06856,0.66744 -0.19268,0.96413c-1.822,4.65621 -5.4452,13.91551 -7.2672,18.57173c-1.95301,4.99102 -4.01744,9.93273 -6.16053,14.83975c1.63092,-1.23004 3.34486,-2.40438 5.05067,-3.62281l2.3495,-1.67822c0.41378,-0.3034 0.92435,-0.48258 1.47677,-0.48258c1.38071,0 2.5,1.11929 2.5,2.5c0,0.18573 -0.02025,0.36673 -0.05867,0.54091l-0.97046,4.85228l-0.26317,-0.05263c-0.26832,2.28763 -0.89015,4.33099 -2.24497,7.73781l-1.12442,2.81106c-0.22406,0.60006 -0.67205,1.09094 -1.24232,1.37097l-0.0703,0.24605c0.0129,1.55652 -0.85199,2.99246 -1.29602,4.48622l-0.2413,3.67747c-0.0749,1.31342 -1.16371,2.3554 -2.49589,2.3554c-1.1246,0 -2.07576,-0.74256 -2.38994,-1.76412l-1.27701,-3.83104c-0.5237,-0.40514 -1.20206,-0.69668 -1.76467,-0.47773c-1.46435,0.56988 -2.02013,3.27976 -3.57739,3.06988c-0.71197,-0.09596 -1.36922,-0.38124 -1.97571,-0.78509c-4.18737,8.80189 -8.4795,17.55832 -12.67902,26.35734c-2.11283,4.42689 -3.94657,9.32822 -6.46094,13.53722c-1.20441,2.01615 -1.67581,5.52907 -3.94182,5.89538c-0.94711,6.63305 -3.20559,13.07541 -4.97751,19.57243c-3.0697,11.25558 -6.13941,22.51116 -9.20911,33.76673c-2.58874,9.49205 -4.63022,19.38466 -7.80543,28.70031c0,2.36411 0,4.72821 0,7.09232c0,0 0,2.5 -2.5,2.5c-0.51713,0 -0.9273,-0.10697 -1.25262,-0.27666c-3.28594,7.19505 -7.2351,14.26649 -10.51758,21.26911c-2.08616,4.45047 -3.89796,9.33408 -6.36651,13.58188c-1.19355,2.05382 -1.6999,5.17966 -3.95416,5.92866c-1.32393,0.43989 -2.32439,-1.10193 -3.40917,-2.27772c-3.04423,17.59759 -5.86097,35.11619 -10.46269,52.38652c-2.60572,9.77931 -5.18895,19.56487 -7.84261,29.33129l-0.30008,0.24013l0.13322,0.08182l-1.92228,3.13007c-0.4351,0.73595 -1.23669,1.22953 -2.15357,1.22953c-1.38071,0 -2.5,-1.11929 -2.5,-2.5c0,-0.41989 0.10352,-0.81561 0.28642,-1.16302l1.104,-2.208c-0.03245,-6.45984 -0.46344,-12.98799 0.1196,-19.35771c0.2775,-3.03175 1.2082,-5.97874 1.5015,-9.00901c1.14644,-11.84475 0.95699,-23.56522 4.61618,-35.09418c1.58188,-4.984 6.03673,-9.11021 8.38581,-13.83333c0.27925,-0.55849 3.91368,-8.11975 4.69168,-8.54847c0.07891,-0.04348 0.15927,-0.08466 0.24094,-0.12356c1.67481,-8.69586 4.01705,-17.7083 4.58399,-26.42988c0.41771,-6.42588 -1.44713,-12.73784 -2.15046,-19.05824c-0.54979,-4.97776 -1.01388,-9.51358 -2.39035,-14.33483c-0.43638,-1.52848 -0.77493,-3.0877 -1.29973,-4.58812c-0.46766,-1.33704 -1.65197,-2.49049 -1.67156,-3.90682c-0.01808,-1.30643 1.32739,-2.30822 1.56781,-3.59247c1.55917,-8.32857 -1.62165,-16.74304 -1.56781,-24.93855c0.01112,-1.69307 -0.26448,-3.41852 0.06688,-5.07889c0.24325,-1.21886 3.04993,-5.3988 2.91103,-6.80735c-0.13281,-1.34675 -1.44462,-2.30149 -1.97941,-3.54462c-0.45013,-1.04633 -0.00371,-2.6566 -0.95671,-3.28047c-0.69114,-0.45244 -1.5245,0.70078 -2.13664,1.25545c-3.02655,2.74242 -5.55363,6.83853 -8.16685,9.98564c-22.35912,26.92712 -44.71825,53.85423 -67.07737,80.78135c-13.84136,16.66917 -27.68272,33.33833 -41.52409,50.0075c-6.35957,7.65884 -12.31584,15.91348 -19.49711,22.80459l0.33215,0.2758l-3.18174,3.83177c-0.45846,0.56028 -1.15537,0.91788 -1.93579,0.91788c-0.34186,0 -0.6677,-0.06862 -0.96448,-0.19283c-1.06025,1.50196 -2.09216,3.06802 -3.76453,3.18573c-2.98444,0.21007 -3.24904,-5.06855 -4.54626,-6.72814c-1.73781,-2.22325 -5.16923,1.03438 -6.69645,0.54193c-1.46929,-0.47377 -1.59865,-2.65338 -2.5729,-3.85093c-2.50428,-3.07828 -5.13052,-5.83969 -7.50751,-9.00901c-1.3605,-1.814 -1.24794,-3.93824 -3.43311,-5.15808c-2.12706,-1.1874 -4.72798,2.0582 -7.12518,1.62493c-1.3427,-0.24268 -1.63412,-2.29221 -2.82006,-2.96696c-0.34838,-0.19821 -0.42523,0.71667 -0.76699,0.92608c-1.40081,0.85834 -2.95039,1.44845 -4.39252,2.23539c-6.72881,3.67173 -13.06153,8.4994 -20.24399,11.21698c-4.20187,1.5757 -9.14049,4.66309 -13.81849,3.60353c-0.91701,-0.2077 -1.48875,-1.4087 -2.42862,-1.43462c-0.80981,-0.02234 -1.29885,0.99877 -2.04629,1.3112c-1.63797,0.68466 -3.32195,1.30141 -5.06076,1.65952c-0.92371,0.19024 -1.91447,-0.26464 -2.82908,-0.0346c-2.31065,0.58118 -4.63308,1.94211 -6.98084,1.5361c-1.55957,-0.26971 -2.94347,-1.24038 -4.5045,-1.5015c-1.53815,-0.2573 -3.14919,0.27121 -4.67843,-0.0346c-1.09743,-0.21946 -1.91065,-1.25807 -3.003,-1.5015c-3.78456,-0.84339 -8.2041,0.94365 -12.01201,0c-2.38379,-0.59073 -5.16283,-3.81871 -7.86024,-3.003c-2.71505,0.82104 -5.55333,2.8502 -8.12162,4.09949c-7.06833,7.18798 -14.6052,17.37052 -24.91142,19.92454c-2.74911,0.68127 -6.73242,0.06688 -9.58339,0.06688c-0.64307,0 -6.23502,0.01871 -6.58039,-0.06688c-5.32212,-1.31889 -9.74413,-6.17299 -15.01502,-7.50751c-2.24371,-0.56808 -5.50617,0.06482 -7.86024,0c-10.62724,5.60583 -19.37319,15.39672 -27.77158,23.79511c-0.27709,0.27709 -0.55418,0.55418 -0.83126,0.83126c6.21106,-0.11876 12.40221,0.16559 17.91841,2.00432c2.05985,-0.02555 4.12028,-0.00391 6.17993,0.0346l3.54665,1.69856c0,0 2.23607,1.11803 1.11803,3.3541c-0.69851,1.39702 -1.83342,1.48482 -2.58679,1.35402c0.16996,0.33266 0.31749,0.68253 0.46299,1.03395h1.38923c1.38071,0 2.5,1.11929 2.5,2.5c0,0.54186 -0.17239,1.04345 -0.46531,1.45293c0.27528,0.36159 0.46531,0.86082 0.46531,1.55008c0,2.5 -2.5,2.5 -2.5,2.5c-0.36803,0 -0.73508,-0.00162 -1.10123,-0.00478c-0.37816,0.08184 -0.71563,0.06471 -1.01243,-0.0126c-4.27043,-0.0692 -8.43011,-0.33686 -12.6234,-0.65433c-0.7385,0.6717 -1.77946,0.6717 -1.77946,0.6717c-3.51207,0 -7.35495,0.53662 -10.81597,-0.01873c-1.90993,-0.30647 -3.79986,-0.79495 -5.70559,-1.12982c-3.29826,0.67576 -6.73985,1.19947 -10.04156,2.02359c-0.44993,0.22131 -0.91014,0.41638 -1.39103,0.55959c-0.3205,0.09544 -0.65169,0.11401 -0.98759,0.10106c-0.83366,0.25833 -1.6533,0.54423 -2.454,0.86556c-4.46101,4.46101 -8.92203,8.92203 -13.38304,13.38304c0,0 -1.76777,1.76777 -3.53553,0c-1.76777,-1.76777 0,-3.53553 0,-3.53553c2.68645,-2.68645 5.3729,-5.3729 8.05935,-8.05935c-0.766,-0.4272 -1.28407,-1.24555 -1.28407,-2.1849c0,-0.99801 0.58479,-1.85943 1.43041,-2.26029l2.95456,-1.47728l0.0118,0.02359c0.04941,-0.03295 0.09925,-0.06537 0.14953,-0.09722c0.54574,-0.3458 1.13422,-0.61228 1.74587,-0.82862c-0.39281,-0.14635 -0.78802,-0.28451 -1.18961,-0.39997c-1.41698,-0.40741 -3.75764,0.25001 -4.54225,-0.78662c-1.73205,-0.23761 -3.46617,-0.45597 -5.2052,-0.63428c-0.18928,-0.01941 -0.37861,-0.03834 -0.56801,-0.05677c-5.15562,-0.50175 -10.62985,0.00845 -15.8006,0.00845c-1.66667,0 -3.33333,0 -5,0h-3.01802c-0.11685,0 -0.23182,-0.00802 -0.34441,-0.02353c-1.69768,0.03476 -5.15436,0.02353 -5.6616,0.02353c-1.00922,0 -2.01843,0 -3.02765,0c1.48094,0.53811 2.97963,1.03793 4.52915,1.00601h1.5015c0,0 2.5,0 2.5,2.5c0,2.5 -2.5,2.5 -2.5,2.5h-1.5015c-3.19682,-0.04692 -5.72542,-1.16586 -8.48804,-2.06903c-0.18145,-1.333 -0.4034,-2.65783 -0.66361,-3.97197c-0.45322,-2.28889 0.34365,-4.69211 0,-7c-0.28365,-1.90496 -1.42073,-3.60276 -1.88697,-5.46629c19.85069,-0.01607 39.70142,-0.00622 59.55212,-0.00622c2.49438,0 5.08512,-0.10125 7.72007,-0.21206c1.54176,-1.54176 3.08351,-3.08351 4.62527,-4.62527c9.0648,-9.0648 18.47499,-19.47656 30.15835,-25.12582c2.94777,-0.05511 7.28319,-0.71236 10.15777,0c5.32212,1.31889 9.74413,6.17299 15.01502,7.50751c1.75529,0.44442 3.62095,-0.06688 5.43162,-0.06688c2.44101,0 6.07773,0.66361 8.43463,0.06688c9.43246,-2.38817 16.56692,-12.63543 23.13663,-19.1145c2.86972,-1.46581 6.75045,-4.21541 9.8964,-4.90952c4.66514,-1.0293 6.21814,2.00554 10.15777,3.003c3.71493,0.94057 8.2068,-0.78667 12.01201,0c1.09598,0.22658 1.90559,1.28199 3.003,1.5015c1.41553,0.28314 2.9065,-0.27104 4.33058,-0.0346c1.56135,0.25923 2.9638,1.13922 4.5045,1.5015c1.70051,0.39986 3.33587,-1.04552 5.03117,-1.46691c2.34764,-0.58353 4.86675,-0.51123 7.12518,-1.37808c1.34001,-0.51433 2.52458,-1.6683 3.95971,-1.6918c1.30185,-0.02132 2.32269,1.22049 3.57739,1.56838c3.00776,0.83397 8.26731,-2.42639 10.9141,-3.41893c6.94667,-2.57794 13.10953,-7.38022 19.60461,-10.92441c0.25599,-0.13968 7.32427,-3.94653 8.33738,-3.71072c1.42945,0.33271 1.75372,2.71852 3.18595,3.03905c1.25217,0.28023 2.26566,-1.31532 3.52967,-1.5361c1.43265,-0.25023 3.04664,-0.4663 4.36017,0.15802c2.66001,1.2643 3.80879,4.49778 5.5759,6.85393c0.84938,1.1325 2.15363,1.8705 3.003,3.003c0.67149,0.89532 0.83001,2.10768 1.5015,3.003c0.84938,1.1325 2.21864,1.82454 3.003,3.003c0.40587,0.60981 -0.29779,2.07282 0.4301,2.15508c1.35425,0.15304 2.36503,-1.77411 3.72502,-1.68551c1.6981,0.11063 3.32611,1.09193 4.59355,2.22745c0.9788,0.87691 1.54317,2.18088 1.91299,3.45229c0.10949,-0.39237 0.2207,-0.78436 0.32225,-1.17852l1.48705,-1.98273c0.45492,-0.62044 1.18914,-1.02328 2.01746,-1.02328c0.39717,0 0.7727,0.09262 1.10619,0.25743l0.16461,-0.19824l0.3402,0.28249c1.2711,-3.03686 3.7276,-5.18134 6.04812,-7.97595c3.19416,-3.84673 6.38832,-7.69346 9.58248,-11.54019c14.90608,-17.95141 29.81216,-35.90282 44.71825,-53.85423c22.35912,-26.92712 44.71825,-53.85423 67.07737,-80.78135c2.12944,-2.56449 4.23244,-5.15116 6.38832,-7.69346c0.92122,-1.08634 1.53612,-2.57419 2.80294,-3.2253c2.10227,-1.08051 4.66064,-2.58139 6.87237,-1.74756c0.82001,0.30915 5.92156,9.92633 6.00816,11.06346c0.22454,2.94838 -2.4488,5.43796 -3.03024,8.33714c-0.96449,4.80913 1.22698,9.51434 1.55621,14.19429c0.32505,4.62051 0.79605,11.27968 -0.05414,15.8183c-0.17393,0.92847 -1.41363,1.49919 -1.4352,2.44357c-0.01892,0.82839 1.0304,1.3272 1.33144,2.09919c0.63353,1.62463 0.96812,3.35052 1.44748,5.02712c1.4559,5.09217 1.97242,9.90745 2.55251,15.15952c0.72589,6.6248 2.60659,13.16809 2.17148,19.91024c-0.55597,8.61506 -2.79081,17.49306 -4.47772,26.09592c0.93409,0.47731 0.49335,2.97463 1.55066,2.82161c1.03566,-0.14989 -0.02442,-2.12788 0.29018,-3.12593c1.4447,-4.58334 4.32474,-9.22611 6.36651,-13.58188c2.82956,-6.03639 5.65912,-12.07279 8.48868,-18.10918c1.71103,-3.65021 3.93329,-7.38469 5.30881,-11.19513c0,-2.36033 0,-4.72065 0,-7.08098c0,-2.41545 0.68113,-6.10899 0.06688,-8.43463c-0.28579,-1.08205 -1.23318,-1.91649 -1.5015,-3.003c-0.26152,-1.05895 0.11924,-2.19409 -0.04815,-3.27193c-1.1677,-7.51902 -2.62119,-14.93683 -3.00959,-22.61216c-0.33749,-6.66931 -0.01213,-13.44778 -0.01214,-20.12636c0,-11.38117 0,-22.76235 0,-34.14352v-3.003c0,0 0,-2.5 2.5,-2.5zM185.29805,51.94418c1.38672,0.80971 2.55839,1.97652 3.99852,2.68691c2.25096,1.11036 4.76201,1.64749 6.98351,2.81567c1.12844,0.04114 2.37156,-0.37392 3.38533,0.12342c1.38583,0.67988 2.03496,2.39527 3.36062,3.18607c1.30889,0.7808 2.98535,0.73113 4.34855,1.41269c2.57139,1.28562 4.77454,3.25304 7.38982,4.44685c8.53614,3.89654 17.86512,7.12678 25.83222,12.17927c3.47436,2.20334 6.29768,5.42983 9.55965,7.88433c2.15458,1.62124 4.71113,2.63527 6.95687,4.12769c0.04681,0.0311 0.60455,0.47307 1.40088,1.10734c5.95382,0 14.17094,0 19.77426,0c5.49498,0 11.06023,0.2425 16.54792,-0.01029c3.27387,-0.15081 6.4609,-1.1359 9.72041,-1.47731c2.55005,-0.2671 5.21283,0.70775 7.69182,0.05298c1.08205,-0.28579 1.91434,-1.24203 3.003,-1.5015c4.30074,-1.02504 9.22389,0.88762 13.51351,0c1.09594,-0.22677 1.90435,-1.2883 3.003,-1.5015c4.17323,-0.80986 8.67178,0.53259 12.8786,-0.22263c1.66106,-0.2982 3.21359,-1.10331 4.88676,-1.32366c0.19915,-0.02623 7.00896,-0.02208 8.33455,-0.02208c2.41892,0.03 4.7322,-1.00861 7.10705,-1.46922c5.17734,-1.00417 11.2951,1.36776 16.34259,0.0346c1.08205,-0.28579 1.91434,-1.24203 3.003,-1.5015c2.62065,-0.62461 5.38783,-0.06688 8.08189,-0.06688c4.5045,0 9.00901,0 13.51351,0c1.8329,0 3.72013,0.496 5.49846,0.05206c1.27645,-0.31865 2.3291,-1.31251 3.61763,-1.57811c3.16582,-0.65256 6.54138,-0.30976 9.60333,-1.34547c4.47321,-1.51308 7.97469,-3.1071 12.8121,-3.13449c4.13622,0.07038 6.42785,-1.46001 10.51051,-1.5015c8.46339,-0.08601 16.9724,0.31229 25.42966,0.00184c6.5211,-0.23938 13.01356,-1.25126 19.53453,-1.5015c2.86999,-0.11014 5.75248,-0.11555 8.63612,-0.09113c0.98406,-2.44702 1.97743,-4.89032 2.98088,-7.32944c0.37336,-0.90752 0.7332,-1.8476 1.08841,-2.80875c-1.63113,-1.0867 -5.50242,-7.55127 -6.61658,-9.05426c-0.64742,-0.87337 -1.21507,-1.86805 -2.02869,-2.57689c0.01464,0.10946 0.0222,0.22116 0.0222,0.33462c0,1.38071 -1.11929,2.5 -2.5,2.5h-3.003v-0.18348c-0.35795,0.03329 -0.71865,0.01742 -1.08297,-0.06326c-1.98133,-0.43876 -2.68886,-3.0408 -3.99268,-4.59586c-1.63427,-1.94918 -2.63684,-4.67791 -4.89007,-5.85821c-1.66093,-0.87004 -3.79976,0.55814 -5.62368,0.12342c-1.08866,-0.25947 -1.97829,-1.05153 -3.003,-1.5015c-0.35272,-0.15489 -0.84607,-0.583 -1.11429,-0.3065c-0.77925,0.80329 -0.51581,2.473 -1.5015,3.003c-1.38868,0.74669 -3.15342,0.53793 -4.71779,0.34109c-1.57034,-0.19759 -2.95252,-1.1911 -4.5045,-1.5015c-0.98156,-0.19631 -2.02144,0.19631 -3.003,0c-1.55199,-0.3104 -2.95456,-1.18109 -4.5045,-1.5015c-1.82986,-0.37828 -3.737,0.03228 -5.60555,0.03228c-5.31216,0 -10.63175,0.07936 -15.94213,-0.06688c-1.10349,0.58529 -5.17341,2.78708 -6.00601,3.003c-0.96895,0.25128 -2.02938,-0.23251 -3.003,0c-2.17709,0.5199 -3.83937,2.44112 -6.00601,3.003c-0.96895,0.25128 -2.02938,-0.23251 -3.003,0c-3.43981,0.82145 -5.5066,3.63973 -8.12162,5.60099c-0.89532,0.67149 -2.10768,0.83001 -3.003,1.5015c-1.1325,0.84938 -1.8705,2.15363 -3.003,3.003c-2.85944,2.14458 -6.14136,3.87078 -9.00901,6.00601c-2.27089,1.69088 -3.7379,4.3114 -6.00601,6.00601c-3.53176,2.63874 -8.51517,3.35259 -12.01201,6.00601c-1.12772,0.85572 -2.002,2.002 -3.003,3.003c-1.2968,0.63551 -2.4985,1.52156 -3.8904,1.90652c-0.96478,0.26683 -2.02938,-0.23251 -3.003,0c-2.17709,0.5199 -3.83342,2.46461 -6.00601,3.003c-0.34537,0.08559 -5.93731,0.06688 -6.58039,0.06688c-4.004,0 -8.00801,0 -12.01201,0c-4.76592,0 -10.96517,1.03527 -15.5894,-0.06688c-1.08866,-0.25947 -1.91726,-1.23007 -3.003,-1.5015c-0.97111,-0.24278 -2.03189,0.24278 -3.003,0c-1.08574,-0.27143 -1.91726,-1.23007 -3.003,-1.5015c-0.97111,-0.24278 -2.03405,0.25128 -3.003,0c-0.83259,-0.21592 -4.90252,-2.41771 -6.00601,-3.003c-1.001,0 -2.03542,0.25647 -3.003,0c-2.76295,-0.73236 -4.73767,-3.28803 -7.39479,-4.34159c-1.11268,-0.44118 -2.51011,0.22311 -3.57653,-0.32043c-2.80539,-1.42987 -2.63667,-3.71939 -5.5452,-4.34699c-1.02747,-0.22171 -2.17331,0.34024 -3.15308,-0.04039c-1.73596,-0.67441 -3.10116,-2.06646 -4.7053,-3.01255c-2.11147,-1.24529 -4.57929,-1.89017 -6.54252,-3.35808c-2.26751,-1.69542 -3.74485,-4.30212 -6.00601,-6.00601c-1.82907,-1.37829 -5.90052,-3.53714 -8.12162,-4.09949c-1.94076,-0.49138 -4.06278,0.48156 -6.00601,0c-4.12011,-1.02102 -8.5903,-4.218 -12.39434,-6.12943c-0.42082,-0.13963 -8.79394,-2.91362 -9.00901,-3.003c-3.64698,-1.51576 -7.37313,-3.89394 -11.41931,-4.34085c-0.35467,-0.03917 -7.0626,0.11594 -7.71788,-0.04024c-1.08866,-0.25947 -1.92096,-1.21571 -3.003,-1.5015c-1.93562,-0.51125 -4.05855,0.46416 -6.00601,0c-1.08866,-0.25947 -1.92096,-1.21571 -3.003,-1.5015c-1.75064,-0.46239 -3.62095,0.06688 -5.43162,0.06688c-3.003,0 -6.00601,0 -9.00901,0c-1.68429,0 -3.57786,-1.00988 -5.0493,-0.1903c-1.07573,0.59917 -1.51286,1.98261 -2.49794,2.72141c-2.17535,1.63152 -6.2072,2.66819 -8.56883,3.44262c-0.15958,0.00151 -0.31905,0.00291 -0.4784,0.00417c6.05374,2.9521 12.38488,5.71714 18.19882,9.11193zM450.21394,280.18726c-0.04268,0.07562 -0.08579,0.15102 -0.12935,0.22616c-1.69322,2.92098 -4.765,5.12152 -5.75283,8.46053c-2.65426,8.97188 -3.85422,18.53771 -4.38688,27.87597c-0.20622,3.61543 -0.10634,6.7531 -0.71095,10.38076c-0.32839,1.97034 -0.52295,3.91572 -0.6373,5.85703c1.03367,-3.87133 2.07006,-7.74193 3.10171,-11.61371c3.62391,-13.60059 6.12697,-27.35846 8.51561,-41.18674zM532.06492,90.40437c1.17165,-0.45286 1.14809,-2.82327 2.40574,-2.92758c2.99249,-0.24819 4.74165,-0.13467 5.72188,0.30616c0.16154,-0.38235 0.32951,-0.76233 0.50324,-1.13997l-0.41915,-0.11976l1.35842,-4.75448c0.23432,-0.89699 0.95436,-1.59765 1.86227,-1.80412c0.52362,-1.484 0.91454,-2.78746 1.47483,-4.03816c-1.79208,1.18114 -3.58631,2.35923 -5.19268,3.7748c-1.98536,1.74955 -2.67207,4.80163 -4.87806,6.26319c-0.11157,0.07392 -0.22447,0.14529 -0.33859,0.21429l0.0232,0.0348l-0.81511,0.54341c-0.56574,1.21709 -1.13458,2.43282 -1.706,3.64743z"/><path d=""/><path d="M-3.22706,57.26034c1.11803,-2.23607 3.3541,-1.11803 3.3541,-1.11803l3.003,1.5015c7.36608,3.74446 13.50146,10.46431 20.29042,15.31356c1.47962,1.07669 3.17343,1.90823 4.43885,3.23006c2.10703,2.20097 3.22365,5.33964 5.64451,7.18986c6.03583,4.61309 14.39046,5.75371 21.01421,9.0269c1.54417,0.76307 2.82789,1.97248 4.30815,2.85315c5.28523,3.1444 11.12624,5.49961 16.57459,8.35546c4.39426,2.30333 8.64224,4.97046 13.10554,7.13562c5.99342,2.90743 12.1578,5.41458 18.13509,8.3878c14.77209,7.34794 29.57197,15.25439 45.05565,21.03474c16.83254,6.28391 34.42407,9.33147 51.7763,13.66846c4.74035,1.18691 9.21096,2.88071 13.89505,4.22479c4.96952,1.42598 10.10671,1.88831 15.0245,3.62763c3.12051,1.10366 5.98773,2.86077 9.12474,3.91665c4.34492,1.46245 9.13233,1.67311 13.52262,3.00596c8.29369,2.51788 61.15554,19.35144 69.22155,22.57785c0,0 -42.72385,-11.08354 -43.65233,-8.76234c-0.92848,2.32119 -3.24967,1.39272 -3.24967,1.39272c-7.95224,-3.18089 -15.69345,-7.99603 -23.87154,-10.45518c-4.39108,-1.3204 -9.1552,-1.54242 -13.50441,-3.00005c-2.2694,-0.76059 -6.93519,-3.14015 -9.25816,-3.96174c-4.78492,-1.69233 -9.80042,-2.12824 -14.64065,-3.50899c-4.66464,-1.33066 -9.10685,-3.02907 -13.82439,-4.20657c-17.53449,-4.38471 -35.30218,-7.48473 -52.31234,-13.83495c-15.64796,-5.84168 -30.6049,-13.81631 -45.53376,-21.24223c-5.96291,-2.96607 -12.11118,-5.46531 -18.09056,-8.36593c-4.51059,-2.1881 -8.8038,-4.87805 -13.24452,-7.20574c-5.51531,-2.89095 -11.42075,-5.27895 -16.77053,-8.46383c-1.3842,-0.82406 -2.57026,-1.9759 -4.01235,-2.69386c-6.86183,-3.41623 -15.47328,-4.61141 -21.71634,-9.45012c-2.65797,-2.06007 -4.06023,-5.3787 -6.3675,-7.82515c-1.03163,-1.09386 -2.46566,-1.72154 -3.69849,-2.58232c-3.61029,-2.57878 -7.0204,-5.07497 -10.43032,-7.91602c-3.07937,-2.56565 -5.60707,-5.23918 -9.18998,-6.99407l-3.003,-1.5015c0,0 -2.23607,-1.11803 -1.11803,-3.3541z"/></g></g></svg>