<svg version="1.1" xmlns="http://www.w3.org/2000/svg" xmlns:xlink="http://www.w3.org/1999/xlink" width="87.58278" height="106.94173" viewBox="0,0,87.58278,106.94173"><defs><radialGradient cx="320.06083" cy="187.78238" r="44.56349" gradientUnits="userSpaceOnUse" id="color-1"><stop offset="0" stop-color="#00fffa"/><stop offset="1" stop-color="#515151"/></radialGradient><linearGradient x1="320" y1="127.65414" x2="320" y2="159.5818" gradientUnits="userSpaceOnUse" id="color-2"><stop offset="0" stop-color="#00fffa"/><stop offset="1" stop-color="#515151"/></linearGradient></defs><g transform="translate(-276.2086,-127.65414)"><g stroke-miterlimit="10"><path d="M279.55261,220.64344l-0.39909,-77.42456h81.81462c0,0 -0.56011,48.89112 -0.48801,63.45666c0.02067,4.17456 -0.08294,13.42355 -1.38013,15.38453c-2.08239,3.14799 -6.17975,4.63426 -8.82686,5.29283c-1.02432,0.25484 -10.10743,3.36703 -15.65203,4.00814c-1.69246,0.1957 -13.80329,1.12825 -19.96149,0.96596c-1.36791,-0.03604 -11.78626,-0.19797 -17.65437,-1.67904c-1.75664,-0.44336 -8.11456,-3.58919 -10.30055,-4.32295c-3.16741,-1.06321 -6.753,-4.48425 -6.753,-4.48425" fill="#919191" stroke="url(#color-1)" stroke-width="4.5" stroke-linecap="round"/><path d="M353.38532,185.52303v-16.76202" fill="none" stroke="#00fffa" stroke-width="4.5" stroke-linecap="round"/><path d="M344.20612,202.68412l15.56473,-0.79819" fill="none" stroke="#00fffa" stroke-width="4.5" stroke-linecap="round"/><path d="M363.79139,143.61798c0,8.81658 -19.60607,15.96382 -43.79139,15.96382c-24.18534,0 -43.79139,-7.14725 -43.79139,-15.96382c0,-8.81658 19.60607,-15.96384 43.79139,-15.96384c24.18532,0 43.79139,7.14725 43.79139,15.96384z" fill="url(#color-2)" stroke="none" stroke-width="0" stroke-linecap="butt"/></g></g></svg>