<svg version="1.1" xmlns="http://www.w3.org/2000/svg" xmlns:xlink="http://www.w3.org/1999/xlink" width="43.62499" height="35.49645" viewBox="0,0,43.62499,35.49645"><g transform="translate(-336.32476,-159.56114)"><g stroke-miterlimit="10"><path d="M376.03505,189.03158l-4.78723,5.21572h-29.09722l-3.51064,-5.16253z" fill="#333333" stroke="#000000" stroke-width="0" stroke-linecap="butt"/><path d="M375.79417,170.97853v18.29022h-36.77214v-18.29022z" fill="#000000" stroke="#000000" stroke-width="0" stroke-linecap="butt"/><path d="M339.01226,189.18614c-1.48427,0 -2.6875,-4.0854 -2.6875,-9.125c0,-5.0396 1.20324,-9.125 2.6875,-9.125c1.48426,0 2.6875,4.0854 2.6875,9.125c0,5.0396 -1.20324,9.125 -2.6875,9.125z" fill="#000000" stroke="#000000" stroke-width="0" stroke-linecap="butt"/><path d="M338.57476,172.81114l-0.125,-13h1.875l-0.25,11.125" fill="#000000" stroke="#000000" stroke-width="0.5" stroke-linecap="round"/><path d="M340.57476,159.93614l1.875,1.5l-0.375,9.875" fill="#000000" stroke="#000000" stroke-width="0.5" stroke-linecap="round"/><path d="M340.57476,167.56114h3.875l-0.125,3.125" fill="#000000" stroke="#000000" stroke-width="0.5" stroke-linecap="round"/><path d="M376.01225,189.17225c-2.17462,0 -3.9375,-4.11338 -3.9375,-9.1875c0,-5.07412 1.76288,-9.1875 3.9375,-9.1875c2.17462,0 3.9375,4.11338 3.9375,9.1875c0,5.07412 -1.76288,9.1875 -3.9375,9.1875z" fill="#9c0000" stroke="#000000" stroke-width="0" stroke-linecap="butt"/><path d="M343.94976,168.93614h-1.375" fill="#000000" stroke="#000000" stroke-width="0.5" stroke-linecap="round"/><path d="M344.07476,167.56114l1.375,0.25l-0.125,3.375" fill="#000000" stroke="#000000" stroke-width="0.5" stroke-linecap="round"/><path d="M340.19976,160.18614v10.875h-1.75v-10.875z" fill="#000000" stroke="#000000" stroke-width="0.5" stroke-linecap="butt"/><path d="M342.19976,161.68614v9.25h-2.5v-9.25z" fill="#000000" stroke="#000000" stroke-width="0.5" stroke-linecap="butt"/><path d="M342.37525,161.49572l-0.91758,2.95099l-2.09125,-1.42541l0.91758,-2.95099z" fill="#000000" stroke="#000000" stroke-width="0.5" stroke-linecap="butt"/><path d="M344.10768,167.83746v0.94736h-2.21053v-0.94736z" fill="#000000" stroke="#000000" stroke-width="0.5" stroke-linecap="butt"/><path d="M345.21294,168.04798v3.1579h-1v-3.1579z" fill="#000000" stroke="#000000" stroke-width="0.5" stroke-linecap="butt"/><path d="M345.41792,167.76387l-0.01221,0.05354l-0.66926,-0.15261l0.01221,-0.05354z" fill="#000000" stroke="#000000" stroke-width="0.5" stroke-linecap="butt"/><path d="M343.04764,171.41065l0.09375,-1.5l0.21875,-0.03125l-0.03125,1.1875" fill="#000000" stroke="#000000" stroke-width="0.5" stroke-linecap="round"/><text transform="translate(341.74141,191.38141) scale(0.07939,-0.08451)" font-size="40" xml:space="preserve" fill="#ffffff" stroke="none" stroke-width="1" stroke-linecap="butt" font-family="Sans Serif" font-weight="normal" text-anchor="start"><tspan x="0" dy="0">marshmallow thing</tspan><tspan x="0" dy="46.15px"> </tspan></text><text transform="translate(341.64548,187.7282) scale(0.08752,-0.08817)" font-size="40" xml:space="preserve" fill="#ffffff" stroke="none" stroke-width="1" stroke-linecap="butt" font-family="Sans Serif" font-weight="normal" text-anchor="start"><tspan x="0" dy="0">launcher </tspan></text><text transform="translate(357.58153,187.08819) scale(0.16282,-0.11439)" font-size="40" xml:space="preserve" fill="#ffffff" stroke="none" stroke-width="1" stroke-linecap="butt" font-family="Sans Serif" font-weight="normal" text-anchor="start"><tspan x="0" dy="0">4000</tspan></text><text transform="translate(341.38967,183.50661) scale(0.11858,-0.12247)" font-size="40" xml:space="preserve" fill="#ffffff" stroke="none" stroke-width="1" stroke-linecap="butt" font-family="Sans Serif" font-weight="normal" text-anchor="start"><tspan x="0" dy="0">yippee yeah</tspan></text><path d="M375.94975,188.79725c-1.79492,0 -3.25,-3.91751 -3.25,-8.75c0,-4.83249 1.45508,-8.75 3.25,-8.75c1.79492,0 3.25,3.91751 3.25,8.75c0,4.83249 -1.45508,8.75 -3.25,8.75z" fill="#000000" stroke="#000000" stroke-width="0" stroke-linecap="butt"/><text transform="translate(341.27629,178.49624) scale(0.05738,-0.11412)" font-size="40" xml:space="preserve" fill="#ffffff" stroke="none" stroke-width="1" stroke-linecap="butt" font-family="Sans Serif" font-weight="normal" text-anchor="start"><tspan x="0" dy="0">lorem ipsum dolor sit amet, </tspan><tspan x="0" dy="46.15px">consectetur adipiscing elit</tspan></text></g></g></svg>