<svg version="1.1" xmlns="http://www.w3.org/2000/svg" xmlns:xlink="http://www.w3.org/1999/xlink" width="135.78074" height="74.57966" viewBox="0,0,135.78074,74.57966"><g transform="translate(-147.50738,123.85613)"><g stroke-miterlimit="10"><path d="M189.86383,-92.32797v-12.65996c0,0 -7.11521,-0.27425 -15.6738,-0.34035c-4.08101,-0.03152 -8.71231,0.87271 -12.6417,0.21593c-6.22744,-1.04089 -12.89932,1.74523 -12.75599,-3.96588c0.08741,-3.48306 -0.02125,-13.51866 -0.02125,-13.51866l133.24695,0.97126c0,0 -0.07812,4.86557 -0.33017,9.0285c-0.14367,2.373 0.71983,6.52995 -0.72784,7.41497c-2.00829,1.22775 -16.35611,-0.0353 -20.78206,0.41833c-8.75128,0.89695 -18.59659,0.06336 -18.59659,0.06336l0.57493,32.21526c0,0 1.37832,1.33252 3.55709,1.56846c3.0137,0.32636 7.55888,-0.39518 12.1062,-0.20726c6.44813,0.26647 21.23707,-0.79441 23.33333,1.78872c1.50024,1.84868 0.41628,5.15461 0.59843,7.60928c0.37702,5.08091 -0.06136,9.63466 -0.06136,9.63466l-131.5433,1.55385c0,0 -3.71043,-12.36212 2.17291,-18.06798c3.01123,-2.92039 10.41019,-1.78737 17.85381,-2.1697c5.03988,-0.25887 9.81278,0.67364 13.54556,0.24344c3.54169,-0.40818 6.17571,-2.1865 6.17571,-2.1865z" fill="#000000" stroke="#000000" stroke-width="2.5" stroke-linecap="round"/><text transform="translate(190.25361,-106.21284) scale(0.25472,0.29645)" font-size="40" xml:space="preserve" fill="#ffffff" stroke="none" stroke-width="1" stroke-linecap="butt" font-family="Sans Serif" font-weight="normal" text-anchor="start"><tspan x="0" dy="0">very heavy</tspan><tspan x="0" dy="48px">item that </tspan><tspan x="0" dy="48px">falls from</tspan><tspan x="0" dy="48px">somewhere</tspan></text></g></g></svg>