<svg version="1.1" xmlns="http://www.w3.org/2000/svg" xmlns:xlink="http://www.w3.org/1999/xlink" width="921.90788" height="541.29533" viewBox="0,0,921.90788,541.29533"><g transform="translate(140.95394,90.64766)"><g stroke-miterlimit="10"><path d="M-139.95394,449.64768v-539.29533h919.90788v539.29533z" fill="#ffffff" stroke="#000000" stroke-width="2" stroke-linecap="butt"/><path d="M68.60671,318.3576l6.30113,-44.21183l46.68312,6.89905c0,0 -4.44236,27.84987 -5.62948,36.16698c-0.34022,2.38372 -1.17928,7.65243 -2.08479,8.66199c-1.45366,1.62062 -3.91693,2.12318 -5.48288,2.27574c-0.60597,0.05902 -6.05119,1.06889 -9.269,0.96717c-0.98222,-0.03105 -7.97124,-0.52017 -11.47141,-1.13209c-0.77747,-0.13593 -6.70852,-1.10686 -9.93193,-2.44675c-0.96496,-0.40111 -4.3275,-2.73223 -5.51293,-3.33527c-1.71765,-0.87375 -3.47512,-3.12815 -3.47512,-3.12815" fill="#ffffff" stroke="#000000" stroke-width="2.5" stroke-linecap="round"/><path d="M115.11039,294.97965l-1.41348,9.56435" fill="none" stroke="#000000" stroke-width="2.5" stroke-linecap="round"/><path d="M123.16825,281.51061c-0.74347,5.0307 -12.53332,7.45561 -26.33338,5.41617c-13.80007,-2.03943 -24.38451,-7.77094 -23.64105,-12.80161c0.74347,-5.0307 12.53332,-7.45561 26.33338,-5.41618c13.80007,2.03944 24.38453,7.77091 23.64106,12.80163z" fill="#000000" stroke="none" stroke-width="0" stroke-linecap="butt"/><path d="M112.2115,315.21401c-0.49111,0.00847 -0.89592,-0.37093 -0.90412,-0.84741c-0.00822,-0.4765 0.38323,-0.86965 0.87434,-0.87811c0.49111,-0.00847 0.89592,0.37093 0.90413,0.84741c0.00822,0.4765 -0.38324,0.86965 -0.87434,0.87811z" fill="#ff0000" stroke="#000000" stroke-width="1" stroke-linecap="butt"/><path d="M81.40412,327.18183l-12.60163,15.37837" fill="none" stroke="#000000" stroke-width="2.5" stroke-linecap="round"/><path d="M118.30652,308.37098l8.00427,15.34607" fill="none" stroke="#000000" stroke-width="2.5" stroke-linecap="round"/><path d="M59.65265,315.30552l11.33675,-14.61994" fill="none" stroke="#000000" stroke-width="2.5" stroke-linecap="round"/><path d="M102.1133,330.62681l-0.87058,19.86297" fill="none" stroke="#000000" stroke-width="2.5" stroke-linecap="round"/><path d="M121.70548,285.16106c-0.87721,5.0046 -12.34413,7.05487 -25.6121,4.57941c-13.26797,-2.47546 -23.31267,-8.53925 -22.43547,-13.54384c0.87721,-5.0046 12.34414,-7.05487 25.61211,-4.57941c13.26797,2.47545 23.31267,8.53924 22.43547,13.54385z" fill-opacity="0.50196" fill="#000000" stroke="none" stroke-width="0" stroke-linecap="butt"/><path d="M121.18383,288.24886c-0.86533,5.00478 -12.16304,7.05758 -25.23415,4.58505c-13.07111,-2.47253 -22.96586,-8.53408 -22.10053,-13.53885c0.86533,-5.00478 12.16305,-7.05758 25.23417,-4.58505c13.07112,2.47252 22.96585,8.53407 22.10052,13.53886z" fill-opacity="0.50196" fill="#000000" stroke="none" stroke-width="0" stroke-linecap="butt"/></g></g></svg>