<svg version="1.1" xmlns="http://www.w3.org/2000/svg" xmlns:xlink="http://www.w3.org/1999/xlink" width="532.02703" height="220.88091" viewBox="0,0,532.02703,220.88091"><g transform="translate(-20.02252,-153.81128)"><g stroke-miterlimit="10"><path d="M55.38332,290.6228l-0.36796,-71.38657h75.43427c0,0 -0.51643,45.07832 -0.44995,58.50796c0.01905,3.849 -0.07647,12.37671 -1.2725,14.18476c-1.91999,2.90249 -5.69782,4.27285 -8.1385,4.88006c-0.94444,0.23497 -9.31919,3.10445 -14.43139,3.69556c-1.56047,0.18044 -12.72683,1.04027 -18.40478,0.89063c-1.26123,-0.03323 -10.8671,-0.18253 -16.27759,-1.5481c-1.61965,-0.40879 -7.48175,-3.30928 -9.49725,-3.98582c-2.92039,-0.98029 -6.22637,-4.13455 -6.22637,-4.13455" fill="#ffffff" stroke="#000000" stroke-width="2.5" stroke-linecap="round"/><path d="M123.45813,246.04532v15.45483" fill="none" stroke="#000000" stroke-width="4" stroke-linecap="round"/><path d="M129.1155,273.32811l-14.35091,0.73594" fill="none" stroke="#000000" stroke-width="4" stroke-linecap="round"/><path d="M133.05269,219.60421c0,8.12902 -18.07708,14.71887 -40.3763,14.71887c-22.29923,0 -40.3763,-6.58987 -40.3763,-14.71887c0,-8.12902 18.07708,-14.71889 40.3763,-14.71889c22.29922,0 40.3763,6.58987 40.3763,14.71889z" fill="#000000" stroke="none" stroke-width="0" stroke-linecap="butt"/><path d="M524.32859,291.64916c0,0 -3.30239,3.15084 -6.21962,4.13007c-2.01332,0.67581 -7.86906,3.57315 -9.48696,3.9815c-5.40462,1.36408 -15.00007,1.51322 -16.25994,1.54642c-5.67179,0.14947 -16.82604,-0.70942 -18.38483,-0.88966c-5.10666,-0.59047 -13.47234,-3.45685 -14.41575,-3.69156c-2.43803,-0.60655 -6.21176,-1.97543 -8.12967,-4.87477c-1.19473,-1.80609 -1.29015,-10.32455 -1.27112,-14.16938c0.06641,-13.41508 -0.44946,-58.44452 -0.44946,-58.44452h75.35248l-0.36756,71.30917" fill="#000000" stroke="#000000" stroke-width="2.5" stroke-linecap="round"/><path d="M487.4435,204.90191c22.27504,0 40.33252,6.58272 40.33252,14.70293c0,8.12019 -18.05747,14.70291 -40.33252,14.70291c-22.27504,0 -40.33252,-6.58271 -40.33252,-14.70291c0,-8.1202 18.05748,-14.70293 40.33252,-14.70293z" fill="#000000" stroke="#000000" stroke-width="0" stroke-linecap="butt"/><path d="M488.3564,201.40577c26.59895,0 48.16168,7.86052 48.16168,17.55699c0,9.69644 -21.5627,17.55697 -48.16168,17.55697c-26.59895,0 -48.16168,-7.8605 -48.16168,-17.55697c0,-9.69647 21.56273,-17.55699 48.16168,-17.55699z" fill="#000000" stroke="#000000" stroke-width="0" stroke-linecap="butt"/><path d="M515.26834,218.02498c0,0 -2.44456,2.33236 -4.60401,3.05723c-1.49034,0.50026 -5.82499,2.64499 -7.02261,2.94726c-4.00071,1.00974 -11.10365,1.12014 -12.03625,1.14472c-4.19849,0.11066 -12.4553,-0.52515 -13.60916,-0.65856c-3.78015,-0.43709 -9.97274,-2.55888 -10.6711,-2.73262c-1.80473,-0.449 -4.59819,-1.4623 -6.01791,-3.60851c-0.88438,-1.33694 -0.95504,-7.64264 -0.94094,-10.48873c0.04916,-9.93035 -0.33271,-43.26291 -0.33271,-43.26291h55.77885l-0.27209,52.78582" fill="#000000" stroke="#000000" stroke-width="2.5" stroke-linecap="round"/><path d="M465.20336,181.83675v11.42786" fill="#000000" stroke="#000000" stroke-width="2.5" stroke-linecap="round"/><path d="M487.96455,153.81128c16.48885,0 29.8557,4.87278 29.8557,10.88368c0,6.01088 -13.36685,10.88368 -29.8557,10.88368c-16.48885,0 -29.8557,-4.87279 -29.8557,-10.88368c0,-6.01088 13.36685,-10.88368 29.8557,-10.88368z" fill="#000000" stroke="#000000" stroke-width="0" stroke-linecap="butt"/><path d="M514.72894,209.50382c0,0 -17.74198,4.2495 -26.7719,4.2495c-8.95909,0 -27.19684,-4.2495 -27.19684,-4.2495v-15.72316c0,0 18.5233,3.3996 27.6218,3.3996c8.88605,0 26.34695,-3.3996 26.34695,-3.3996v15.72316z" fill="#000000" stroke="#000000" stroke-width="0" stroke-linecap="butt"/><path d="M484.3333,216.14303v-0.71173c0,-1.82511 0.13196,-3.60857 0.23517,-5.4051c-2.4997,-1.20546 -3.51122,-4.172 -3.38662,-8.46503c1.21423,-1.95191 2.41327,-3.57739 4.54609,-4.64889c0.02092,-0.01052 0.0423,-0.02089 0.06409,-0.03114c0.54559,-2.86267 1.17223,-5.70924 1.57686,-8.64634c-0.98288,-0.23864 -1.91675,-0.291 -2.61516,-0.11134c0,0 -1.16184,0.29047 -1.45229,-0.87136c-0.29045,-1.16182 0.87138,-1.45227 0.87138,-1.45227c1.0225,-0.24959 2.22775,-0.21079 3.4587,0.0621c0.15937,-2.14371 0.10112,-4.10418 0.65211,-6.30814c0,0 0.29045,-1.16182 1.45229,-0.87136c1.16182,0.29045 0.87136,1.45227 0.87136,1.45227c-0.57106,2.28423 -0.4293,4.25688 -0.6382,6.51711c3.67291,1.67844 6.65142,5.22583 4.43309,9.08492c-1.21777,2.1185 -2.97917,1.67019 -4.92392,2.32207c-0.57491,0.19272 -1.10836,0.39821 -1.60812,0.62468c-0.4502,2.56129 -0.78579,5.15221 -0.78579,7.85107c0,0.5914 -0.0137,1.17822 -0.03574,1.76205c0.84511,0.04169 1.88761,-0.10187 3.17402,-0.43278l-0.20049,-0.04088c0,0 0.84682,-0.84682 1.69364,0c0.84682,0.84682 0,1.69364 0,1.69364l-0.91224,0.67087c-1.47626,0.36036 -2.76327,0.49556 -3.8741,0.42173c-0.09593,1.60201 -0.20096,3.19788 -0.20096,4.82213v0.71173c0,0 0,1.19759 -1.19759,1.19759c-1.19759,0 -1.19759,-1.19759 -1.19759,-1.19759zM484.68918,206.53449c0,-2.10324 0.20016,-4.14206 0.4988,-6.15222c-0.60374,0.52676 -1.16573,1.14132 -1.71372,1.87295c0.11131,2.3318 0.40261,3.99803 1.20873,4.98361c0.00401,-0.23406 0.00618,-0.4688 0.00618,-0.70433zM492.3179,194.55662c1.27054,-2.25624 -0.4292,-4.27258 -2.65995,-5.45129c-0.36277,2.40718 -0.86215,4.75668 -1.32455,7.10995c1.65904,-0.33073 3.44517,-0.70092 3.9845,-1.65868z" fill="#000000" stroke="#000000" stroke-width="1.5" stroke-linecap="butt"/><path d="M478.28234,300.65974l45.79279,-44.41901" fill="#000000" stroke="#000000" stroke-width="1.5" stroke-linecap="round"/><path d="M486.98299,293.33289l-37.55008,-27.93361" fill="#000000" stroke="#000000" stroke-width="1.5" stroke-linecap="round"/><path d="M506.37846,299.95193l-25.41192,-1.96281l41.71752,-37.79536l1.02561,30.41351z" fill="#000000" stroke="#000000" stroke-width="1.5" stroke-linecap="butt"/><path d="M481.00798,299.12968l-28.5731,-5.5756l-0.50691,-23.34421l33.31488,23.18793z" fill="#000000" stroke="#000000" stroke-width="1.5" stroke-linecap="butt"/><path d="M477.95181,267.15209l10.38676,-0.2258" fill="#000000" stroke="#000000" stroke-width="2.5" stroke-linecap="round"/><path d="M483.37098,267.15209l7.45138,24.83791l-4.74178,6.77397l-7.22557,-6.77397l4.29019,-21.90252" fill="#000000" stroke="#000000" stroke-width="2.5" stroke-linecap="round"/><path d="M22.52252,372.19219v-88.58859h527.02703v88.58859z" fill="#ffffff" stroke="#000000" stroke-width="5" stroke-linecap="butt"/><text transform="translate(39,311.69219) scale(0.5,0.5)" font-size="40" xml:space="preserve" fill="#00e4fe" stroke="none" stroke-width="1" stroke-linecap="butt" font-family="Sans Serif" font-weight="normal" text-anchor="start"><tspan x="0" dy="0">*</tspan></text><path d="M458.36193,244.48914l0.59381,12.22323" fill="#000000" stroke="#000000" stroke-width="4" stroke-linecap="round"/><path d="M451.25883,264.40076l16.4,0.6l-14.2,1.95321" fill="#000000" stroke="#000000" stroke-width="4" stroke-linecap="round"/></g></g></svg>