<svg version="1.1" xmlns="http://www.w3.org/2000/svg" xmlns:xlink="http://www.w3.org/1999/xlink" width="648.5" height="486.75" viewBox="0,0,648.5,486.75"><g transform="translate(34.5,74)"><g stroke-miterlimit="10"><path d="M126.33259,271.32372c0,4.8325 -4.92486,8.75 -11,8.75c-6.07514,0 -11,-3.9175 -11,-8.75c0,-4.8325 5.17486,-12.25 11.25,-12.25c6.07514,0 10.75,7.4175 10.75,12.25z" fill="#000000" stroke="none" stroke-width="0" stroke-linecap="butt"/><path d="M173.89441,275.90252c-8.19222,0 -14.83333,-2.42513 -14.83333,-5.41667c0,-2.99154 6.8911,-13.41666 15.08333,-13.41666c8.19222,0 14.58333,10.42512 14.58333,13.41666c0,2.99154 -6.6411,5.41667 -14.83333,5.41667z" fill="#000000" stroke="none" stroke-width="0" stroke-linecap="butt"/><path d="M240.56108,276.65251c-8.19223,0 -14.83334,-2.53706 -14.83334,-5.66667c0,-2.13884 -3.42134,-7.75763 1.15756,-10.27482c2.12108,-1.16604 11.08228,-0.64185 13.67578,-0.64185c3.78586,0 12.45899,-0.29392 15.07998,1.80395c3.05056,2.4417 -0.24665,7.4294 -0.24665,9.11272c0,3.12961 -6.6411,5.66667 -14.83333,5.66667z" fill="#000000" stroke="none" stroke-width="0" stroke-linecap="butt"/><path d="M299.97774,274.56918c-8.19222,0 -14.83333,-2.53706 -14.83333,-5.66667c0,-1.71772 -1.58715,-4.56155 1.57246,-5.60075c2.5971,-0.85419 9.565,-0.06592 13.26087,-0.06592c3.61529,0 10.19007,-0.48438 12.76373,0.3367c3.25824,1.03947 2.0696,3.58148 2.0696,5.32997c0,3.12963 -6.64111,5.66667 -14.83333,5.66667z" fill="#000000" stroke="none" stroke-width="0" stroke-linecap="butt"/><path d="M340.5,276.84761v-10.35714h107v10.35714z" fill="#000000" stroke="none" stroke-width="0" stroke-linecap="butt"/><path d="M69,279.22663v-4.61344h424v4.61344z" fill="#ff0000" stroke="none" stroke-width="0" stroke-linecap="butt"/><path d="M112.5,358.75c0,29.27109 -32.68321,53 -73,53c-40.31679,0 -73,-23.72891 -73,-53c0,-29.27109 32.68321,-53 73,-53c40.31679,0 73,23.72891 73,53z" fill="#000000" stroke="#000000" stroke-width="2" stroke-linecap="butt"/><path d="M85,377v-26h483v26z" fill="#000000" stroke="#000000" stroke-width="2" stroke-linecap="butt"/><path d="M76,323v-396h9v396z" fill="#000000" stroke="#000000" stroke-width="2" stroke-linecap="butt"/><path d="M241,363v-34h19v34z" fill="#000000" stroke="none" stroke-width="0" stroke-linecap="butt"/><path d="M315,363v-33h20v33z" fill="#000000" stroke="none" stroke-width="0" stroke-linecap="butt"/><path d="M394,352v-22h13v22z" fill="#000000" stroke="none" stroke-width="0" stroke-linecap="butt"/><path d="M550,353.45475v-165h57v165z" fill="#000000" stroke="none" stroke-width="0" stroke-linecap="butt"/><path d="M46,5.45475v-21h568v21z" fill="#000000" stroke="none" stroke-width="0" stroke-linecap="butt"/><path d="M83.00784,102.05482l157,-38l-155,63z" fill="#000000" stroke="#000000" stroke-width="5" stroke-linecap="round"/><path d="M122.38533,171.8749v-5.55556h180.33333v5.55556z" fill="#000000" stroke="none" stroke-width="0" stroke-linecap="butt"/><path d="M335.25284,200.45475v-11h223.24716v11z" fill="#000000" stroke="none" stroke-width="0" stroke-linecap="butt"/><path d="M332.31831,204.45482v-19h4.16404v19z" fill="#ff0000" stroke="none" stroke-width="0" stroke-linecap="butt"/><path d="M295.36966,174.81318l6.66618,-9.00283l36.44023,24.63797l-6.66618,9.00283z" fill="#ff0000" stroke="none" stroke-width="0" stroke-linecap="butt"/><path d="M238.98301,67.41302v-5h32v5z" fill="#ff0000" stroke="none" stroke-width="0" stroke-linecap="butt"/><path d="M507.67663,126.74053c0,10.58546 -9.7005,19.16667 -21.66667,19.16667c-11.96617,0 -21.66667,-8.58121 -21.66667,-19.16667c0,-10.58546 9.7005,-19.16667 21.66667,-19.16667c11.96617,0 21.66667,8.58121 21.66667,19.16667z" fill="#000000" stroke="none" stroke-width="0" stroke-linecap="butt"/><path d="M451.78361,103.48309c0,9.38884 -8.87969,17 -19.83333,17c-10.95365,0 -19.83333,-7.61116 -19.83333,-17c0,-9.38884 8.87969,-17 19.83333,-17c10.95365,0 19.83333,7.61116 19.83333,17z" fill="#000000" stroke="none" stroke-width="0" stroke-linecap="butt"/><path d="M392.60241,74.42966c0,10.30932 -8.50659,18.66667 -19,18.66667c-10.49341,0 -19,-8.35735 -19,-18.66667c0,-10.30932 8.50659,-18.66667 19,-18.66667c10.49341,0 19,8.35735 19,18.66667z" fill="#000000" stroke="none" stroke-width="0" stroke-linecap="butt"/></g></g></svg>