<svg version="1.1" xmlns="http://www.w3.org/2000/svg" xmlns:xlink="http://www.w3.org/1999/xlink" width="43.62499" height="24.26034" viewBox="0,0,43.62499,24.26034"><defs><radialGradient cx="341.10632" cy="168.54234" r="18.69754" gradientUnits="userSpaceOnUse" id="color-1"><stop offset="0" stop-color="#ffea00"/><stop offset="1" stop-color="#ffffff"/></radialGradient><radialGradient cx="341.17692" cy="180.05814" r="18.38607" gradientUnits="userSpaceOnUse" id="color-2"><stop offset="0" stop-color="#ffffff"/><stop offset="1" stop-color="#ffea00"/></radialGradient><radialGradient cx="322.78108" cy="180.12064" r="9.125" gradientUnits="userSpaceOnUse" id="color-3"><stop offset="0" stop-color="#ffea00"/><stop offset="1" stop-color="#ffffff"/></radialGradient><radialGradient cx="359.78107" cy="180.19703" r="9.1875" gradientUnits="userSpaceOnUse" id="color-4"><stop offset="0" stop-color="#ffffff"/><stop offset="1" stop-color="#fff58c"/></radialGradient><radialGradient cx="359.71857" cy="180.13453" r="8.75" gradientUnits="userSpaceOnUse" id="color-5"><stop offset="0" stop-color="#ffea00"/><stop offset="1" stop-color="#ffffff"/></radialGradient></defs><g transform="translate(-320.09357,-165.12418)"><g stroke="none" stroke-miterlimit="10"><path d="M322.40876,171.09701l3.51064,-5.16253h29.09722l4.78723,5.21572z" fill="url(#color-1)" stroke-width="0"/><path d="M322.79085,189.20325v-18.29022h36.77214v18.29022z" fill="url(#color-2)" stroke-width="0"/><path d="M325.46858,180.12064c0,5.0396 -1.20324,9.125 -2.6875,9.125c-1.48426,0 -2.6875,-4.0854 -2.6875,-9.125c0,-5.0396 1.20323,-9.125 2.6875,-9.125c1.48426,0 2.6875,4.0854 2.6875,9.125z" fill="url(#color-3)" stroke-width="0"/><path d="M363.71857,180.19703c0,5.07412 -1.76288,9.1875 -3.9375,9.1875c-2.17462,0 -3.9375,-4.11338 -3.9375,-9.1875c0,-5.07412 1.76288,-9.1875 3.9375,-9.1875c2.17462,0 3.9375,4.11338 3.9375,9.1875z" fill="url(#color-4)" stroke-width="0"/><text transform="translate(325.51021,168.80037) scale(0.07939,0.08451)" font-size="40" xml:space="preserve" fill="#ffffff" stroke-width="1" font-family="Sans Serif" font-weight="normal" text-anchor="start"><tspan x="0" dy="0">marshmallow thing</tspan><tspan x="0" dy="46.150000000000006px"> </tspan></text><text transform="translate(325.4143,172.45358) scale(0.08752,0.08817)" font-size="40" xml:space="preserve" fill="#ffffff" stroke-width="1" font-family="Sans Serif" font-weight="normal" text-anchor="start"><tspan x="0" dy="0">launcher </tspan></text><text transform="translate(341.35035,173.09359) scale(0.16282,0.11439)" font-size="40" xml:space="preserve" fill="#ffffff" stroke-width="1" font-family="Sans Serif" font-weight="normal" text-anchor="start"><tspan x="0" dy="0">4000</tspan></text><text transform="translate(325.15849,176.67517) scale(0.11858,0.12247)" font-size="40" xml:space="preserve" fill="#ffffff" stroke-width="1" font-family="Sans Serif" font-weight="normal" text-anchor="start"><tspan x="0" dy="0">yippee yeah</tspan></text><path d="M362.96857,180.13453c0,4.83249 -1.45508,8.75 -3.25,8.75c-1.79492,0 -3.25,-3.91751 -3.25,-8.75c0,-4.83249 1.45508,-8.75 3.25,-8.75c1.79492,0 3.25,3.91751 3.25,8.75z" fill="url(#color-5)" stroke-width="0"/><text transform="translate(325.0451,181.68554) scale(0.05738,0.11412)" font-size="40" xml:space="preserve" fill="#ffffff" stroke-width="1" font-family="Sans Serif" font-weight="normal" text-anchor="start"><tspan x="0" dy="0">lorem ipsum dolor sit amet, </tspan><tspan x="0" dy="46.150000000000006px">consectetur adipiscing elit</tspan></text></g></g></svg>