<svg version="1.1" xmlns="http://www.w3.org/2000/svg" xmlns:xlink="http://www.w3.org/1999/xlink" width="921.90788" height="541.29533" viewBox="0,0,921.90788,541.29533"><g transform="translate(140.95394,90.64766)"><g stroke-miterlimit="10"><path d="M-139.95394,449.64768v-539.29533h919.90788v539.29533z" fill="#ffffff" stroke="#000000" stroke-width="2" stroke-linecap="butt"/><path d="M68.56147,333.31575l-21.02413,-39.40021l41.74764,-22.00102c0,0 12.86165,25.09836 16.8153,32.51134c1.13314,2.12459 3.56744,6.87197 3.43287,8.22142c-0.21606,2.16629 -1.90713,4.02655 -3.08077,5.07443c-0.45416,0.40548 -4.25209,4.43612 -6.90895,6.25429c-0.81099,0.55498 -6.74,4.28761 -9.92601,5.86081c-0.7077,0.34945 -6.06744,3.06846 -9.46003,3.89073c-1.01559,0.24616 -5.10581,0.35066 -6.41858,0.56407c-1.90214,0.30923 -4.65175,-0.47221 -4.65175,-0.47221" fill="#ffffff" stroke="#000000" stroke-width="2.5" stroke-linecap="round"/><path d="M96.79183,295.54024l-4.50752,-8.55318" fill="none" stroke="#000000" stroke-width="2.5" stroke-linecap="round"/><path d="M90.83293,271.35895c2.37089,4.49885 -5.71154,13.41822 -18.05261,19.92196c-12.34108,6.50376 -24.26748,8.12903 -26.63836,3.6302c-2.37089,-4.49885 5.71154,-13.41822 18.05261,-19.92197c12.34108,-6.50375 24.26748,-8.12906 26.63837,-3.63019z" fill="#000000" stroke="none" stroke-width="0" stroke-linecap="butt"/><path d="M101.89424,305.02817c-0.39133,0.29687 -0.94206,0.22974 -1.23007,-0.14993c-0.28803,-0.37968 -0.2043,-0.92812 0.18703,-1.22498c0.39133,-0.29687 0.94206,-0.22974 1.23008,0.14993c0.28803,0.37968 0.20429,0.92812 -0.18703,1.22498z" fill="#ff0000" stroke="#000000" stroke-width="1" stroke-linecap="butt"/><path d="M85.40393,331.98762l-1.82403,19.79819" fill="none" stroke="#000000" stroke-width="2.5" stroke-linecap="round"/><path d="M102.07106,293.1278l15.78042,7.10976" fill="none" stroke="#000000" stroke-width="2.5" stroke-linecap="round"/><path d="M56.28669,313.63363l-7.32578,16.98817" fill="none" stroke="#000000" stroke-width="2.5" stroke-linecap="round"/><path d="M103.67179,322.92121l9.11618,17.66892" fill="none" stroke="#000000" stroke-width="2.5" stroke-linecap="round"/><path d="M90.95896,274.5714c2.3563,4.50149 -5.48213,13.1185 -17.50763,19.24665c-12.02551,6.12815 -23.68426,7.44682 -26.04056,2.94535c-2.3563,-4.50149 5.48213,-13.11851 17.50764,-19.24666c12.0255,-6.12816 23.68426,-7.44683 26.04057,-2.94534z" fill-opacity="0.50196" fill="#000000" stroke="none" stroke-width="0" stroke-linecap="butt"/><path d="M92.4283,277.33684c2.36582,4.49438 -5.33695,13.01022 -17.20463,19.02067c-11.86769,6.01044 -23.40623,7.23946 -25.77205,2.74508c-2.36582,-4.49438 5.33696,-13.01023 17.20464,-19.02067c11.86768,-6.01045 23.40622,-7.23946 25.77205,-2.74507z" fill-opacity="0.50196" fill="#000000" stroke="none" stroke-width="0" stroke-linecap="butt"/></g></g></svg>