<svg version="1.1" xmlns="http://www.w3.org/2000/svg" xmlns:xlink="http://www.w3.org/1999/xlink" width="1309.30931" height="422.33859" viewBox="0,0,1309.30931,422.33859"><g transform="translate(9.497,45.64189)"><g stroke="none" stroke-miterlimit="10"><path d="M13.43754,112.41877v-6.51652h126.12613v6.51652z" fill="#fa0000" stroke-width="0"/><path d="M5.03003,17.42117v-18.01802h392.44745v18.01802z" fill="#fa0000" stroke-width="0"/><path d="M8.03303,352.25601v-393.39339h6.00601v393.39339z" fill="#fa0000" stroke-width="0"/><path d="M572.45077,364.26802v-178.67868h67.56757v178.67868z" fill="#fa0000" stroke-width="0"/><path d="M441.82014,350.7545v-127.62763h94.59459v127.62763z" fill="#fa0000" stroke-width="0"/><path d="M326.20453,352.25601v-73.57357h93.09309v73.57357z" fill="#fa0000" stroke-width="0"/><path d="M218.09642,353.75751v-37.53754h82.58258v37.53754z" fill="#fa0000" stroke-width="0"/><path d="M0,376.6967v-28.52853h662.16216v28.52853z" fill="#f5fa00" stroke-width="1.2"/><path d="M187.67375,355.36486v-57.33333h42v57.33333z" fill="#f5fa00" stroke-width="0"/><path d="M289.67375,352.36487v-91.33333h42v91.33333z" fill="#f5fa00" stroke-width="0"/><path d="M402.46602,350.6967v-155.5h52v155.5z" fill="#f5fa00" stroke-width="0"/><path d="M523.9188,348.2823v-193h54v193z" fill="#f5fa00" stroke-width="0"/><path d="M628.11562,352.25601v-397.8979h33.03303v397.8979z" fill="#f5fa00" stroke-width="0"/><path d="M-9.497,364.26802v-388.88889h21.02102v388.88889z" fill="#f5fa00" stroke-width="0"/><path d="M-0.48799,11.41517v-48.04805h1300.3003v48.04805z" fill="#f5fa00" stroke-width="0"/><path d="M281.30631,106.00976v-24.02402h142.64264v24.02402z" fill="#f5fa00" stroke-width="0"/><path d="M199.21923,149.13209v-11.0953h58.55856v11.0953z" fill="#f5fa00" stroke-width="0"/><path d="M-2.98798,108.50225v-27.02702h142.64264v27.02702z" fill="#f5fa00" stroke-width="0"/><text transform="translate(43.04348,357.60963) scale(0.3082,0.22152)" font-size="40" xml:space="preserve" fill="#000000" stroke-width="1" font-family="Sans Serif" font-weight="normal" text-anchor="start"><tspan x="0" dy="0">property of richmallow</tspan></text></g></g></svg>