<svg version="1.1" xmlns="http://www.w3.org/2000/svg" xmlns:xlink="http://www.w3.org/1999/xlink" width="492.50038" height="455.71172" viewBox="0,0,492.50038,455.71172"><g transform="translate(9.08521,63.75)"><g stroke-miterlimit="10"><path d="M291.101,314.29356v-14.5h39.5v14.5z" fill="#ff0000" stroke="none" stroke-width="0" stroke-linecap="butt"/><path d="M411.74313,316.43466c-23.4472,10.47641 -45.92509,11.20262 -50.20577,1.62205c-4.28069,-9.58058 11.25684,-25.83997 34.70404,-36.31638c23.4472,-10.47641 45.92509,-11.20262 50.20577,-1.62205c4.28069,9.58058 -11.25684,25.83997 -34.70404,36.31638z" fill="#000000" stroke="#000000" stroke-width="0.5" stroke-linecap="butt"/><path d="M375.49227,328.71172c0,11.32184 -7.61116,20.5 -17,20.5c-9.38884,0 -17,-9.17816 -17,-20.5c0,-11.32184 7.61116,-20.5 17,-20.5c9.38884,0 17,9.17816 17,20.5z" fill="#000000" stroke="#000000" stroke-width="0.5" stroke-linecap="butt"/><path d="M98.10812,366.18619c0,14.09736 -14.11715,25.52553 -31.53153,25.52553c-17.41438,0 -31.53153,-11.42817 -31.53153,-25.52553c0,-14.09736 14.11715,-25.52553 31.53153,-25.52553c17.41438,0 31.53153,11.42817 31.53153,25.52553z" fill="#000000" stroke="#000000" stroke-width="0.5" stroke-linecap="butt"/><path d="M0.45346,378.1982v-27.02703h482.71171v27.02703z" fill="#ff0000" stroke="#000000" stroke-width="0.5" stroke-linecap="butt"/><path d="M171.68169,335.40541c0,10.3657 -8.40306,18.76877 -18.76877,18.76877c-10.3657,0 -18.76877,-8.40306 -18.76877,-18.76877c0,-10.3657 8.40306,-18.76877 18.76877,-18.76877c10.3657,0 18.76877,8.40306 18.76877,18.76877z" fill="#000000" stroke="#000000" stroke-width="0.5" stroke-linecap="butt"/><path d="M284.47278,313.71172c0,6.90356 -16.11775,12.5 -36,12.5c-19.88225,0 -36,-5.59644 -36,-12.5c0,-6.90356 16.11775,-12.5 36,-12.5c19.88225,0 36,5.59644 36,12.5z" fill="#000000" stroke="#000000" stroke-width="0.5" stroke-linecap="butt"/><path d="M283.37975,328.3391c-5.52285,0 -10,-13.9911 -10,-31.25c0,-17.2589 4.47715,-31.25 10,-31.25c5.52285,0 10,13.9911 10,31.25c0,17.2589 -4.47715,31.25 -10,31.25z" fill="#000000" stroke="#000000" stroke-width="0.5" stroke-linecap="butt"/><path d="M355.37975,313.3391c0,4.97056 -14.88653,9 -33.25,9c-18.36347,0 -33.25,-4.02944 -33.25,-9c0,-4.97056 14.88653,-9 33.25,-9c18.36347,0 33.25,4.02944 33.25,9z" fill="#000000" stroke="#000000" stroke-width="0.5" stroke-linecap="butt"/><path d="M440.43655,289.62673c-4.41828,0 -8,-20.03526 -8,-44.75c0,-24.71474 3.58172,-44.75 8,-44.75c4.41828,0 8,20.03526 8,44.75c0,24.71474 -3.58172,44.75 -8,44.75z" fill="#000000" stroke="#000000" stroke-width="0.5" stroke-linecap="butt"/><path d="M353.07152,157.30725c28.58074,0 51.75,3.35786 51.75,7.5c0,4.14214 -23.16926,7.5 -51.75,7.5c-28.58074,0 -51.75,-3.35786 -51.75,-7.5c0,-4.14214 23.16926,-7.5 51.75,-7.5z" fill="#000000" stroke="#000000" stroke-width="0.5" stroke-linecap="butt"/><path d="M224.4105,151.11576c-5.93706,0 -10.75,-15.44618 -10.75,-34.5c0,-19.05382 4.81294,-34.5 10.75,-34.5c5.93706,0 10.75,15.44618 10.75,34.5c0,19.05382 -4.81294,34.5 -10.75,34.5z" fill="#000000" stroke="#000000" stroke-width="0.5" stroke-linecap="butt"/><path d="M-3.96595,81.0879c4.14503,-3.62431 140.29245,111.52665 147.78609,111.52665c4.59486,0 8.73782,4.37385 12.1449,7.38531c5.90946,5.22327 9.6051,10.36469 9.6051,10.36469c0,0 -8.68552,3.75 -21.25,3.75c-6.16805,0 -146.26278,20.90852 -150.36063,18.32436c-4.24958,-2.67984 -2.38937,-41.92723 -2.38937,-46.07436c0,-3.28768 1.65903,-102.82414 4.46391,-105.27665z" fill="#000000" stroke="#000000" stroke-width="0.5" stroke-linecap="butt"/><path d="M162.20941,65.5l-106,-128" fill="none" stroke="#ff0000" stroke-width="2.5" stroke-linecap="round"/></g></g></svg>