<svg version="1.1" xmlns="http://www.w3.org/2000/svg" xmlns:xlink="http://www.w3.org/1999/xlink" width="573.57357" height="426.8431" viewBox="0,0,573.57357,426.8431"><g transform="translate(-41.47147,23.11938)"><g fill="#000000" stroke="none" stroke-miterlimit="10"><path d="M41.47147,403.72372v-57.05706h573.57357v57.05706z" stroke-width="0"/><path d="M54.89505,121v-41h208.5v41z" stroke-width="0"/><path d="M345.52552,329.73348c0,19.0729 -6.72245,34.53453 -15.01502,34.53453c-8.29256,0 -15.01502,-15.46164 -15.01502,-34.53453c0,-19.0729 6.72245,-34.53453 15.01502,-34.53453c8.29256,0 15.01502,15.46164 15.01502,34.53453z" stroke-width="0"/><path d="M375.55556,212.61636c9.12182,0 16.51652,17.14225 16.51652,38.28829c0,21.14604 -7.3947,38.28829 -16.51652,38.28829c-9.12182,0 -16.51652,-17.14225 -16.51652,-38.28829c0,-21.14604 7.3947,-38.28829 16.51652,-38.28829z" stroke-width="0"/><path d="M510.69069,222.37612c0,9.53645 -23.8647,17.26727 -53.3033,17.26727c-29.4386,0 -53.3033,-7.73082 -53.3033,-17.26727c0,-9.53645 23.8647,-17.26727 53.3033,-17.26727c29.4386,0 53.3033,7.73082 53.3033,17.26727z" stroke-width="0"/><path d="M480.66066,221.62537v-231.23123h45.04505v231.23123z" stroke-width="0"/><path d="M43.72372,2.40615v-25.52553h469.96997v25.52553z" stroke-width="0"/><text transform="translate(397.88202,253.30244) scale(0.39056,0.39056)" font-size="40" xml:space="preserve" fill="#000000" stroke-width="1" font-family="Sans Serif" font-weight="normal" text-anchor="start"><tspan x="0" dy="0">use anvil to anvil </tspan><tspan x="0" dy="46.150000000000006px">button for the anvil</tspan><tspan x="0" dy="46.150000000000006px">to anvil</tspan></text><text transform="translate(395.38202,312.03473) scale(0.5,0.5)" font-size="40" xml:space="preserve" fill="#000000" stroke-width="1" font-family="Sans Serif" font-weight="normal" text-anchor="start"><tspan x="0" dy="0">press cool 1 key</tspan><tspan x="0" dy="48px">on keyboard</tspan></text></g></g></svg>