<svg version="1.1" xmlns="http://www.w3.org/2000/svg" xmlns:xlink="http://www.w3.org/1999/xlink" width="516.39211" height="500.52499" viewBox="0,0,516.39211,500.52499"><g transform="translate(27.89211,7.02499)"><g fill="#000000" stroke-miterlimit="10"><path d="M-0.5,493.5v-144h489v144z" stroke="none" stroke-width="NaN"/><path d="M447.45828,292.34131c0,21.81525 -16.56547,39.5 -37,39.5c-20.43453,0 -37,-17.68475 -37,-39.5c0,-21.81525 16.56547,-39.5 37,-39.5c20.43453,0 37,17.68475 37,39.5z" stroke="none" stroke-width="0"/><path d="M176.01163,282.52045v-29.34976h130v29.34976z" stroke="none" stroke-width="0"/><path d="M-7.21573,253.97479v-25h130v25z" stroke="none" stroke-width="0"/><path d="M178.75607,202.61334v-53.70096h30v53.70096z" stroke="#000000" stroke-width="0.5"/><path d="M-22.09378,126.7486l-5.47659,-17.85229l135.33267,-24.23309l5.47659,17.85229z" stroke="#000000" stroke-width="0.5"/><path d="M203.20645,178.22501v-29h238v29z" stroke="#000000" stroke-width="0.5"/><path d="M260.20645,155.22501v-32h24v32z" stroke="#000000" stroke-width="0.5"/><path d="M348.20645,150.22501v-30h19v30z" stroke="#000000" stroke-width="0.5"/><path d="M414.20645,154.22501v-161h27v161z" stroke="#000000" stroke-width="0.5"/><path d="M129.20645,54.22501v-17h236v17z" stroke="#000000" stroke-width="0.5"/></g></g></svg>