<svg version="1.1" xmlns="http://www.w3.org/2000/svg" xmlns:xlink="http://www.w3.org/1999/xlink" width="77.5" height="46.37526" viewBox="0,0,77.5,46.37526"><g transform="translate(-281.25,-155.51906)"><g stroke-miterlimit="10"><path d="M282,201.14432v-41.91364h76v41.91364z" fill="#ffffff" stroke="#000000" stroke-width="1.5" stroke-linecap="butt"/><text transform="translate(282.5625,174.58951) scale(0.4384,0.4384)" font-size="40" xml:space="preserve" fill="#000000" stroke="#00ffff" stroke-width="1" stroke-linecap="butt" font-family="Sans Serif" font-weight="normal" text-anchor="start"><tspan x="0" dy="0">update</tspan></text><text transform="translate(322.6875,195.21451) scale(0.4384,0.4384)" font-size="40" xml:space="preserve" fill="#000000" stroke="#00ffff" stroke-width="1" stroke-linecap="butt" font-family="Sans Serif" font-weight="normal" text-anchor="start"><tspan x="0" dy="0">logs</tspan></text><path d="M333.40835,197.16048c0,0 -1.30842,0.31095 -2.19614,0.12661c-0.61267,-0.12723 -2.53305,-0.2602 -3.00537,-0.39671c-1.57777,-0.45604 -4.04128,-1.84392 -4.36675,-2.02267c-1.46526,-0.80477 -4.17558,-2.68076 -4.54539,-2.95824c-1.21153,-0.90905 -2.91406,-2.88142 -3.11921,-3.08132c-0.53017,-0.5166 -1.2869,-1.42564 -1.34404,-2.44829c-0.0356,-0.63705 1.2059,-2.81854 1.78207,-3.79395c2.01029,-3.40329 8.57014,-14.93665 8.57014,-14.93665l19.17169,11.19691l-10.68961,18.08835" fill="none" stroke="#000000" stroke-width="1" stroke-linecap="round"/><path d="M321.17093,178.60019l2.294,-3.92786" fill="none" stroke="#000000" stroke-width="1" stroke-linecap="round"/><path d="M317.43523,181.56062l3.53806,2.31719" fill="none" stroke="#000000" stroke-width="1" stroke-linecap="round"/><path d="M336.9139,169.60875c5.66736,3.30993 9.28352,7.66799 8.07691,9.73398c-1.20661,2.066 -6.77907,1.05759 -12.44644,-2.25235c-5.66736,-3.30993 -9.28352,-7.66799 -8.07691,-9.73398c1.20661,-2.066 6.77907,-1.05759 12.44644,2.25235z" fill="#000000" stroke="none" stroke-width="1" stroke-linecap="butt"/><path d="M303.1693,163.90788l8.65348,8.02479" fill="none" stroke="#000000" stroke-width="1.5" stroke-linecap="round"/><path d="M305.01928,174.42916l11.24803,1.36782" fill="none" stroke="#000000" stroke-width="1.5" stroke-linecap="round"/><path d="M316.32524,175.8489l-3.01418,-10.37108" fill="none" stroke="#000000" stroke-width="1.5" stroke-linecap="round"/><path d="M320.4375,169.375l-8,12.5" fill="none" stroke="#000000" stroke-width="1.5" stroke-linecap="round"/></g></g></svg>