<svg version="1.1" xmlns="http://www.w3.org/2000/svg" xmlns:xlink="http://www.w3.org/1999/xlink" width="43.62499" height="24.26034" viewBox="0,0,43.62499,24.26034"><defs><radialGradient cx="342.687" cy="191.63944" r="18.69754" gradientUnits="userSpaceOnUse" id="color-1"><stop offset="0" stop-color="#ffea00"/><stop offset="1" stop-color="#ffffff"/></radialGradient><radialGradient cx="342.61641" cy="180.12364" r="18.38607" gradientUnits="userSpaceOnUse" id="color-2"><stop offset="0" stop-color="#ffffff"/><stop offset="1" stop-color="#ffea00"/></radialGradient><radialGradient cx="361.01225" cy="180.06114" r="9.125" gradientUnits="userSpaceOnUse" id="color-3"><stop offset="0" stop-color="#ffea00"/><stop offset="1" stop-color="#ffffff"/></radialGradient><radialGradient cx="324.01226" cy="179.98475" r="9.1875" gradientUnits="userSpaceOnUse" id="color-4"><stop offset="0" stop-color="#ffffff"/><stop offset="1" stop-color="#fff58c"/></radialGradient><radialGradient cx="324.07476" cy="180.04725" r="8.75" gradientUnits="userSpaceOnUse" id="color-5"><stop offset="0" stop-color="#ffea00"/><stop offset="1" stop-color="#ffffff"/></radialGradient></defs><g transform="translate(-320.07476,-170.79725)"><g stroke="none" stroke-miterlimit="10"><path d="M361.38455,189.08477l-3.51064,5.16253h-29.09722l-4.78723,-5.21572z" fill="url(#color-1)" stroke-width="0"/><path d="M361.00248,170.97853v18.29022h-36.77214v-18.29022z" fill="url(#color-2)" stroke-width="0"/><path d="M358.32475,180.06114c0,-5.0396 1.20324,-9.125 2.6875,-9.125c1.48426,0 2.6875,4.0854 2.6875,9.125c0,5.0396 -1.20323,9.125 -2.6875,9.125c-1.48426,0 -2.6875,-4.0854 -2.6875,-9.125z" fill="url(#color-3)" stroke-width="0"/><path d="M320.07476,179.98475c0,-5.07412 1.76288,-9.1875 3.9375,-9.1875c2.17462,0 3.9375,4.11338 3.9375,9.1875c0,5.07412 -1.76288,9.1875 -3.9375,9.1875c-2.17462,0 -3.9375,-4.11338 -3.9375,-9.1875z" fill="url(#color-4)" stroke-width="0"/><text transform="translate(358.2831,191.38141) rotate(-180) scale(0.07939,0.08451)" font-size="40" xml:space="preserve" fill="#ffffff" stroke-width="1" font-family="Sans Serif" font-weight="normal" text-anchor="start"><tspan x="0" dy="0">marshmallow thing</tspan><tspan x="0" dy="46.150000000000006px"> </tspan></text><text transform="translate(358.37903,187.7282) rotate(-180) scale(0.08752,0.08817) skewX(0)" font-size="40" xml:space="preserve" fill="#ffffff" stroke-width="1" font-family="Sans Serif" font-weight="normal" text-anchor="start"><tspan x="0" dy="0">launcher </tspan></text><text transform="translate(342.44298,187.08819) rotate(-180) scale(0.16282,0.11439) skewX(0)" font-size="40" xml:space="preserve" fill="#ffffff" stroke-width="1" font-family="Sans Serif" font-weight="normal" text-anchor="start"><tspan x="0" dy="0">4000</tspan></text><text transform="translate(358.63484,183.50661) rotate(-180) scale(0.11858,0.12247)" font-size="40" xml:space="preserve" fill="#ffffff" stroke-width="1" font-family="Sans Serif" font-weight="normal" text-anchor="start"><tspan x="0" dy="0">yippee yeah</tspan></text><path d="M320.82476,180.04725c0,-4.83249 1.45508,-8.75 3.25,-8.75c1.79492,0 3.25,3.91751 3.25,8.75c0,4.83249 -1.45508,8.75 -3.25,8.75c-1.79492,0 -3.25,-3.91751 -3.25,-8.75z" fill="url(#color-5)" stroke-width="0"/><text transform="translate(358.74822,178.49624) rotate(-180) scale(0.05738,0.11412) skewX(0)" font-size="40" xml:space="preserve" fill="#ffffff" stroke-width="1" font-family="Sans Serif" font-weight="normal" text-anchor="start"><tspan x="0" dy="0">lorem ipsum dolor sit amet, </tspan><tspan x="0" dy="46.150000000000006px">consectetur adipiscing elit</tspan></text></g></g></svg>