<svg version="1.1" xmlns="http://www.w3.org/2000/svg" xmlns:xlink="http://www.w3.org/1999/xlink" width="597.5976" height="433.93394" viewBox="0,0,597.5976,433.93394"><g transform="translate(-21.93994,19.46322)"><g stroke-miterlimit="10"><path d="M185.03754,72.59455v-61h34v61z" fill="#ff0000" stroke="none" stroke-width="0" stroke-linecap="butt"/><path d="M169.5,375v-18h335v18z" fill="#ff0000" stroke="none" stroke-width="0" stroke-linecap="butt"/><path d="M56.47447,414.47072v-57.05706h60.06006v57.05706z" fill="#ff0000" stroke="none" stroke-width="0" stroke-linecap="butt"/><path d="M492.5,369v-177h79v177z" fill="#000000" stroke="none" stroke-width="0" stroke-linecap="butt"/><path d="M98.5,365v-17h75v17z" fill="#000000" stroke="none" stroke-width="0" stroke-linecap="butt"/><path d="M21.93994,375.43168v-379.87988h60.06006v379.87988z" fill="#ff0000" stroke="none" stroke-width="0" stroke-linecap="butt"/><path d="M236.65465,324.38063c0,8.29256 -7.05857,15.01502 -15.76577,15.01502c-8.70719,0 -15.76577,-6.72245 -15.76577,-15.01502c0,-8.29256 7.05857,-15.01502 15.76577,-15.01502c8.70719,0 15.76577,6.72245 15.76577,15.01502z" fill="#000000" stroke="none" stroke-width="0" stroke-linecap="butt"/><path d="M281.6997,286.84309c0,5.80479 -4.03347,10.51051 -9.00901,10.51051c-4.97554,0 -9.00901,-4.70572 -9.00901,-10.51051c0,-5.80479 4.03347,-10.51051 9.00901,-10.51051c4.97554,0 9.00901,4.70572 9.00901,10.51051z" fill="#000000" stroke="none" stroke-width="0" stroke-linecap="butt"/><path d="M374.79279,316.87312c0,6.63405 -11.76429,12.01201 -26.27628,12.01201c-14.51199,0 -26.27628,-5.37796 -26.27628,-12.01201c0,-6.63405 11.76429,-12.01201 26.27628,-12.01201c14.51199,0 26.27628,5.37796 26.27628,12.01201z" fill="#000000" stroke="none" stroke-width="0" stroke-linecap="butt"/><path d="M417.58558,286.8431c-9.53645,0 -17.26727,-20.8396 -17.26727,-46.54655c0,-25.70695 7.73082,-46.54655 17.26727,-46.54655c9.53645,0 17.26727,20.8396 17.26727,46.54655c0,25.70695 -7.73082,46.54655 -17.26727,46.54655z" fill="#000000" stroke="none" stroke-width="0" stroke-linecap="butt"/><path d="M619.53754,-2.19595c0,9.53645 -132.76841,17.26727 -296.54655,17.26727c-163.77814,0 -296.54655,-7.73082 -296.54655,-17.26727c0,-9.53645 132.76841,-17.26727 296.54655,-17.26727c163.77814,0 296.54655,7.73082 296.54655,17.26727z" fill="#000000" stroke="none" stroke-width="0" stroke-linecap="butt"/><path d="M360.03754,6.59455l221,120l-56,69" fill="none" stroke="#000000" stroke-width="2.5" stroke-linecap="round"/><path d="M580.03754,127.59455l-207,-114l194,-5z" fill="#ff0000" stroke="#000000" stroke-width="2.5" stroke-linecap="round"/><path d="M49.03754,164.59455v-29h231v29z" fill="#000000" stroke="#000000" stroke-width="2.5" stroke-linecap="butt"/><path d="M519.17333,93.48915l7.65313,-13.96554l50.34943,27.59153l-7.65313,13.96554z" fill="#000000" stroke="#000000" stroke-width="0.5" stroke-linecap="butt"/></g></g></svg>