<svg version="1.1" xmlns="http://www.w3.org/2000/svg" xmlns:xlink="http://www.w3.org/1999/xlink" width="489.04355" height="458.86093" viewBox="0,0,489.04355,458.86093"><g transform="translate(0.54355,-34.63907)"><g fill="#000000" stroke="none" stroke-miterlimit="10"><path d="M-0.5,493.5v-144h489v144z" stroke-width="NaN"/><path d="M487.34543,303.60233c0,4.63007 -33.26069,8.38348 -74.28983,8.38348c-41.02914,0 -74.28983,-3.75341 -74.28983,-8.38348c0,-4.63007 33.26069,-8.38348 74.28983,-8.38348c41.02914,0 74.28983,3.75341 74.28983,8.38348z" stroke-width="0"/><path d="M285.57474,266.02885c0,17.22503 -5.36945,31.18867 -11.99301,31.18867c-6.62356,0 -11.99301,-13.96365 -11.99301,-31.18867c0,-17.22503 5.36945,-31.18867 11.99301,-31.18867c6.62356,0 11.99301,13.96365 11.99301,31.18867z" stroke-width="0"/><path d="M227.38669,246.08372c0,2.85164 -17.42582,5.16335 -38.92166,5.16335c-21.49584,0 -38.92166,-2.31171 -38.92166,-5.16335c0,-2.85164 17.42582,-5.16335 38.92166,-5.16335c21.49584,0 38.92166,2.31171 38.92166,5.16335z" stroke-width="0"/><path d="M111.67557,262.50269c0,2.36103 -16.3569,4.27502 -36.53416,4.27502c-20.17726,0 -36.53416,-1.91399 -36.53416,-4.27502c0,-2.36103 16.3569,-4.27502 36.53416,-4.27502c20.17726,0 36.53416,1.91399 36.53416,4.27502z" stroke-width="0"/><path d="M20.84103,183.5793c0,41.73806 -3.50506,75.57344 -7.82877,75.57344c-4.32371,0 -7.82877,-33.83538 -7.82877,-75.57344c0,-41.73806 3.50506,-75.57344 7.82877,-75.57344c4.32371,0 7.82877,33.83538 7.82877,75.57344z" stroke-width="0"/><path d="M204.3673,129.32544c-108.71831,0 -196.85191,-4.72285 -196.85191,-10.54878c0,-5.82593 88.1336,-10.54878 196.85191,-10.54878c108.71831,0 196.85191,4.72285 196.85191,10.54878c0,5.82593 -88.1336,10.54878 -196.85191,10.54878z" stroke-width="0"/><text transform="translate(160.35275,86.6965) scale(0.5,0.5)" font-size="40" xml:space="preserve" fill="#000000" stroke-width="1" font-family="Sans Serif" font-weight="normal" text-anchor="start"><tspan x="0" dy="0">climb the roof</tspan></text><path d="M476.45645,175.13907c0,4.69442 -19.47561,8.5 -43.5,8.5c-24.02439,0 -43.5,-3.80558 -43.5,-8.5c0,-4.69442 19.47561,-8.5 43.5,-8.5c24.02439,0 43.5,3.80558 43.5,8.5z" stroke-width="0"/><path d="M478.45645,105.63907c0,39.21222 -4.70101,71 -10.5,71c-5.79899,0 -10.5,-31.78778 -10.5,-71c0,-39.21222 4.70101,-71 10.5,-71c5.79899,0 10.5,31.78778 10.5,71z" stroke-width="0"/><path d="M43.45645,123.63907c-24.30053,0 -44,-9.84974 -44,-22c0,-12.15026 19.69947,-22 44,-22c24.30053,0 44,9.84974 44,22c0,12.15026 -19.69947,22 -44,22z" stroke-width="0"/><text transform="translate(98.7255,103.57776) scale(0.5,0.5)" font-size="40" xml:space="preserve" fill="#000000" stroke-width="1" font-family="Sans Serif" font-weight="normal" text-anchor="start"><tspan x="0" dy="0">(hold right and spam jump)</tspan></text></g></g></svg>