<svg version="1.1" xmlns="http://www.w3.org/2000/svg" xmlns:xlink="http://www.w3.org/1999/xlink" width="488" height="459.85195" viewBox="0,0,488,459.85195"><g transform="translate(-80.5,-33.64805)"><g stroke-miterlimit="10"><path d="M80.5,493.5v-144h488v144z" fill="#000000" stroke="none" stroke-width="NaN" stroke-linecap="butt"/><path d="M264.62351,263.90043l-84.39502,47.85815" fill="none" stroke="#000000" stroke-width="2.5" stroke-linecap="round"/><path d="M382.20718,296.32913l-101.1629,-71.73163" fill="none" stroke="#000000" stroke-width="2.5" stroke-linecap="round"/><path d="M454.06741,215.62003l68.62653,5.10782" fill="none" stroke="#000000" stroke-width="2.5" stroke-linecap="round"/><path d="M210.61126,116.74022l3.8376,89.11263" fill="none" stroke="#000000" stroke-width="2.5" stroke-linecap="round"/><path d="M164.11276,219.04553l-71.95779,38.19772" fill="none" stroke="#000000" stroke-width="2.5" stroke-linecap="round"/><path d="M256.73685,94.79465l134.2547,-17.9884" fill="none" stroke="#000000" stroke-width="2.5" stroke-linecap="round"/><path d="M515.24038,139.31903l-42.64172,-48.41333" fill="none" stroke="#000000" stroke-width="2.5" stroke-linecap="round"/><path d="M155.20972,132.29518l27.02199,-97.39713" fill="none" stroke="#000000" stroke-width="2.5" stroke-linecap="round"/><path d="M501.0264,311.54166l-59.85382,-31.75748" fill="none" stroke="#000000" stroke-width="2.5" stroke-linecap="round"/><path d="M340.23184,129.10336l-11.10461,63.40363" fill="none" stroke="#000000" stroke-width="2.5" stroke-linecap="round"/><path d="M418.85245,67.0322l47.63873,-18.43259" fill="none" stroke="#000000" stroke-width="2.5" stroke-linecap="round"/><path d="M225.65973,48.7677l-46.76664,-13.13407" fill="none" stroke="#000000" stroke-width="2.5" stroke-linecap="round"/><path d="M382.18967,138.67014l35.64575,24.98395" fill="none" stroke="#000000" stroke-width="2.5" stroke-linecap="round"/></g></g></svg>