<svg version="1.1" xmlns="http://www.w3.org/2000/svg" xmlns:xlink="http://www.w3.org/1999/xlink" width="73.42489" height="73.19683" viewBox="0,0,73.42489,73.19683"><g transform="translate(-283.28756,-143.40159)"><g stroke="#000000" stroke-miterlimit="10"><path d="M284.53756,215.34842v-70.69683h70.92489v70.69683z" fill="#ffffff" stroke-width="2.5" stroke-linecap="butt"/><path d="M323.95345,150.23291l8.21696,2.48059l-0.65386,7.11053l5.34156,4.84467l6.95646,-3.35401l4.47201,7.45334l-5.59001,4.84467l0.62111,7.08068l6.95646,3.22978l-2.236,8.44712l-7.82601,-0.99378l-3.60245,5.09312l2.85712,7.08068l-7.57757,5.21734l-4.84467,-6.58379l-7.08068,0.74533l-2.98134,7.70179l-8.57135,-2.48445l1.49067,-7.32912l-5.96268,-4.59623l-7.08068,3.22978l-4.34778,-6.83223l5.96268,-5.09312l-0.74533,-7.45334l-7.08068,-2.98134l1.73911,-8.3229l7.70179,1.118l4.47201,-5.59001l-2.85712,-7.2049l7.2049,-4.22356l4.09934,5.09312l8.07446,-0.12422z" fill="#ffffff" stroke-width="1.5" stroke-linecap="round"/><path d="M329.31669,180c0,5.41989 -4.17122,9.81357 -9.31668,9.81357c-5.14546,0 -9.31668,-4.39369 -9.31668,-9.81357c0,-5.41989 4.17122,-9.81357 9.31668,-9.81357c5.14546,0 9.31668,4.39369 9.31668,9.81357z" fill="none" stroke-width="1.5" stroke-linecap="butt"/><path d="M301.70207,172.6947v10.70246" fill="none" stroke-width="1" stroke-linecap="round"/><path d="M307.56296,194.35443l-9.93801,-0.50966" fill="none" stroke-width="1" stroke-linecap="round"/></g></g></svg>