<svg version="1.1" xmlns="http://www.w3.org/2000/svg" xmlns:xlink="http://www.w3.org/1999/xlink" width="43.62499" height="35.49645" viewBox="0,0,43.62499,35.49645"><defs><radialGradient cx="356.85629" cy="168.29232" r="18.69754" gradientUnits="userSpaceOnUse" id="color-1"><stop offset="0" stop-color="#ffea00"/><stop offset="1" stop-color="#ffffff"/></radialGradient><radialGradient cx="356.92689" cy="179.80812" r="18.38607" gradientUnits="userSpaceOnUse" id="color-2"><stop offset="0" stop-color="#ffffff"/><stop offset="1" stop-color="#ffea00"/></radialGradient><radialGradient cx="338.53105" cy="179.87062" r="9.125" gradientUnits="userSpaceOnUse" id="color-3"><stop offset="0" stop-color="#ffea00"/><stop offset="1" stop-color="#ffffff"/></radialGradient><radialGradient cx="338.90605" cy="193.62062" r="6.5" gradientUnits="userSpaceOnUse" id="color-4"><stop offset="0" stop-color="#ffea00"/><stop offset="1" stop-color="#ffffff"/></radialGradient><radialGradient cx="338.90605" cy="193.62062" r="6.5" gradientUnits="userSpaceOnUse" id="color-5"><stop offset="0" stop-color="#ffea00"/><stop offset="1" stop-color="#ffea00"/></radialGradient><radialGradient cx="341.03105" cy="194.30812" r="5.6875" gradientUnits="userSpaceOnUse" id="color-6"><stop offset="0" stop-color="#ffea00"/><stop offset="1" stop-color="#ffffff"/></radialGradient><radialGradient cx="341.03105" cy="194.30812" r="5.6875" gradientUnits="userSpaceOnUse" id="color-7"><stop offset="0" stop-color="#ffea00"/><stop offset="1" stop-color="#ffea00"/></radialGradient><radialGradient cx="342.03105" cy="190.80812" r="1.9375" gradientUnits="userSpaceOnUse" id="color-8"><stop offset="0" stop-color="#ffea00"/><stop offset="1" stop-color="#ffffff"/></radialGradient><radialGradient cx="342.03105" cy="190.80812" r="1.9375" gradientUnits="userSpaceOnUse" id="color-9"><stop offset="0" stop-color="#ffea00"/><stop offset="1" stop-color="#ffea00"/></radialGradient><radialGradient cx="375.53104" cy="179.94701" r="9.1875" gradientUnits="userSpaceOnUse" id="color-10"><stop offset="0" stop-color="#ffffff"/><stop offset="1" stop-color="#fff58c"/></radialGradient><radialGradient cx="342.78105" cy="190.99562" r="0.6875" gradientUnits="userSpaceOnUse" id="color-11"><stop offset="0" stop-color="#ffea00"/><stop offset="1" stop-color="#ffffff"/></radialGradient><radialGradient cx="342.78105" cy="190.99562" r="0.6875" gradientUnits="userSpaceOnUse" id="color-12"><stop offset="0" stop-color="#ffea00"/><stop offset="1" stop-color="#ffea00"/></radialGradient><radialGradient cx="344.28105" cy="190.55812" r="1.8125" gradientUnits="userSpaceOnUse" id="color-13"><stop offset="0" stop-color="#ffea00"/><stop offset="1" stop-color="#ffffff"/></radialGradient><radialGradient cx="344.28105" cy="190.55812" r="1.8125" gradientUnits="userSpaceOnUse" id="color-14"><stop offset="0" stop-color="#ffea00"/><stop offset="1" stop-color="#ffea00"/></radialGradient><radialGradient cx="338.84355" cy="194.30812" r="5.4375" gradientUnits="userSpaceOnUse" id="color-15"><stop offset="0" stop-color="#ffea00"/><stop offset="1" stop-color="#ffffff"/></radialGradient><radialGradient cx="338.84355" cy="194.30812" r="5.4375" gradientUnits="userSpaceOnUse" id="color-16"><stop offset="0" stop-color="#ffea00"/><stop offset="1" stop-color="#ffea00"/></radialGradient><radialGradient cx="340.46855" cy="193.62062" r="4.625" gradientUnits="userSpaceOnUse" id="color-17"><stop offset="0" stop-color="#ffea00"/><stop offset="1" stop-color="#ffffff"/></radialGradient><radialGradient cx="340.46855" cy="193.62062" r="4.625" gradientUnits="userSpaceOnUse" id="color-18"><stop offset="0" stop-color="#ffea00"/><stop offset="1" stop-color="#ffea00"/></radialGradient><radialGradient cx="340.38962" cy="197.67325" r="2.1882" gradientUnits="userSpaceOnUse" id="color-19"><stop offset="0" stop-color="#ffea00"/><stop offset="1" stop-color="#ffffff"/></radialGradient><radialGradient cx="340.38962" cy="197.67325" r="2.1882" gradientUnits="userSpaceOnUse" id="color-20"><stop offset="0" stop-color="#ffea00"/><stop offset="1" stop-color="#ffea00"/></radialGradient><radialGradient cx="342.5212" cy="191.62062" r="1.10527" gradientUnits="userSpaceOnUse" id="color-21"><stop offset="0" stop-color="#ffea00"/><stop offset="1" stop-color="#ffffff"/></radialGradient><radialGradient cx="342.5212" cy="191.62062" r="1.10527" gradientUnits="userSpaceOnUse" id="color-22"><stop offset="0" stop-color="#ffea00"/><stop offset="1" stop-color="#ffea00"/></radialGradient><radialGradient cx="344.23173" cy="190.30483" r="1.57895" gradientUnits="userSpaceOnUse" id="color-23"><stop offset="0" stop-color="#ffea00"/><stop offset="1" stop-color="#ffffff"/></radialGradient><radialGradient cx="344.23173" cy="190.30483" r="1.57895" gradientUnits="userSpaceOnUse" id="color-24"><stop offset="0" stop-color="#ffea00"/><stop offset="1" stop-color="#ffea00"/></radialGradient><radialGradient cx="344.59597" cy="192.21743" r="0.34073" gradientUnits="userSpaceOnUse" id="color-25"><stop offset="0" stop-color="#ffea00"/><stop offset="1" stop-color="#ffffff"/></radialGradient><radialGradient cx="344.59597" cy="192.21743" r="0.34073" gradientUnits="userSpaceOnUse" id="color-26"><stop offset="0" stop-color="#ffea00"/><stop offset="1" stop-color="#ffea00"/></radialGradient><radialGradient cx="342.72268" cy="189.28674" r="0.76563" gradientUnits="userSpaceOnUse" id="color-27"><stop offset="0" stop-color="#ffea00"/><stop offset="1" stop-color="#ffffff"/></radialGradient><radialGradient cx="342.72268" cy="189.28674" r="0.76563" gradientUnits="userSpaceOnUse" id="color-28"><stop offset="0" stop-color="#ffea00"/><stop offset="1" stop-color="#ffea00"/></radialGradient><radialGradient cx="375.46854" cy="179.88451" r="8.75" gradientUnits="userSpaceOnUse" id="color-29"><stop offset="0" stop-color="#ffea00"/><stop offset="1" stop-color="#ffffff"/></radialGradient></defs><g transform="translate(-335.84354,-164.87416)"><g stroke-miterlimit="10"><path d="M338.15875,170.84699l3.51064,-5.16253h29.09722l4.78723,5.21572z" fill="url(#color-1)" stroke="none" stroke-width="0" stroke-linecap="butt"/><path d="M338.54082,188.95323v-18.29022h36.77214v18.29022z" fill="url(#color-2)" stroke="none" stroke-width="0" stroke-linecap="butt"/><path d="M341.21855,179.87062c0,5.0396 -1.20324,9.125 -2.6875,9.125c-1.48426,0 -2.6875,-4.0854 -2.6875,-9.125c0,-5.0396 1.20323,-9.125 2.6875,-9.125c1.48426,0 2.6875,4.0854 2.6875,9.125z" fill="url(#color-3)" stroke="none" stroke-width="0" stroke-linecap="butt"/><path d="M339.59355,188.99562l0.25,11.125h-1.875l0.125,-13" fill="url(#color-4)" stroke="url(#color-5)" stroke-width="0.5" stroke-linecap="round"/><path d="M341.59355,188.62062l0.375,9.875l-1.875,1.5" fill="url(#color-6)" stroke="url(#color-7)" stroke-width="0.5" stroke-linecap="round"/><path d="M343.84355,189.24562l0.125,3.125h-3.875" fill="url(#color-8)" stroke="url(#color-9)" stroke-width="0.5" stroke-linecap="round"/><path d="M379.46854,179.94701c0,5.07412 -1.76288,9.1875 -3.9375,9.1875c-2.17462,0 -3.9375,-4.11338 -3.9375,-9.1875c0,-5.07412 1.76288,-9.1875 3.9375,-9.1875c2.17462,0 3.9375,4.11338 3.9375,9.1875z" fill="url(#color-10)" stroke="none" stroke-width="0" stroke-linecap="butt"/><path d="M343.46855,190.99562h-1.375" fill="url(#color-11)" stroke="url(#color-12)" stroke-width="0.5" stroke-linecap="round"/><path d="M344.84355,188.74562l0.125,3.375l-1.375,0.25" fill="url(#color-13)" stroke="url(#color-14)" stroke-width="0.5" stroke-linecap="round"/><path d="M337.96855,199.74562v-10.875h1.75v10.875z" fill="url(#color-15)" stroke="url(#color-16)" stroke-width="0.5" stroke-linecap="butt"/><path d="M339.21855,198.24562v-9.25h2.5v9.25z" fill="url(#color-17)" stroke="url(#color-18)" stroke-width="0.5" stroke-linecap="butt"/><path d="M339.80279,199.86145l-0.91758,-2.95099l2.09125,-1.42541l0.91758,2.95099z" fill="url(#color-19)" stroke="url(#color-20)" stroke-width="0.5" stroke-linecap="butt"/><path d="M341.41594,192.0943v-0.94736h2.21053v0.94736z" fill="url(#color-21)" stroke="url(#color-22)" stroke-width="0.5" stroke-linecap="butt"/><path d="M343.73173,191.88378v-3.1579h1v3.1579z" fill="url(#color-23)" stroke="url(#color-24)" stroke-width="0.5" stroke-linecap="butt"/><path d="M344.26745,192.3205l-0.01221,-0.05354l0.66926,-0.15261l0.01221,0.05354z" fill="url(#color-25)" stroke="url(#color-26)" stroke-width="0.5" stroke-linecap="butt"/><path d="M342.84768,188.86486l0.03125,1.1875l-0.21875,-0.03125l-0.09375,-1.5" fill="url(#color-27)" stroke="url(#color-28)" stroke-width="0.5" stroke-linecap="round"/><text transform="translate(341.2602,168.55035) scale(0.07939,0.08451)" font-size="40" xml:space="preserve" fill="#ffffff" stroke="none" stroke-width="1" stroke-linecap="butt" font-family="Sans Serif" font-weight="normal" text-anchor="start"><tspan x="0" dy="0">marshmallow thing</tspan><tspan x="0" dy="46.15px"> </tspan></text><text transform="translate(341.16427,172.20356) scale(0.08752,0.08817)" font-size="40" xml:space="preserve" fill="#ffffff" stroke="none" stroke-width="1" stroke-linecap="butt" font-family="Sans Serif" font-weight="normal" text-anchor="start"><tspan x="0" dy="0">launcher </tspan></text><text transform="translate(357.10032,172.84357) scale(0.16282,0.11439)" font-size="40" xml:space="preserve" fill="#ffffff" stroke="none" stroke-width="1" stroke-linecap="butt" font-family="Sans Serif" font-weight="normal" text-anchor="start"><tspan x="0" dy="0">4000</tspan></text><text transform="translate(340.90846,176.42515) scale(0.11858,0.12247)" font-size="40" xml:space="preserve" fill="#ffffff" stroke="none" stroke-width="1" stroke-linecap="butt" font-family="Sans Serif" font-weight="normal" text-anchor="start"><tspan x="0" dy="0">yippee yeah</tspan></text><path d="M378.71854,179.88451c0,4.83249 -1.45508,8.75 -3.25,8.75c-1.79492,0 -3.25,-3.91751 -3.25,-8.75c0,-4.83249 1.45508,-8.75 3.25,-8.75c1.79492,0 3.25,3.91751 3.25,8.75z" fill="url(#color-29)" stroke="none" stroke-width="0" stroke-linecap="butt"/><text transform="translate(340.79508,181.43552) scale(0.05738,0.11412)" font-size="40" xml:space="preserve" fill="#ffffff" stroke="none" stroke-width="1" stroke-linecap="butt" font-family="Sans Serif" font-weight="normal" text-anchor="start"><tspan x="0" dy="0">lorem ipsum dolor sit amet, </tspan><tspan x="0" dy="46.15px">consectetur adipiscing elit</tspan></text></g></g></svg>