<svg version="1.1" xmlns="http://www.w3.org/2000/svg" xmlns:xlink="http://www.w3.org/1999/xlink" width="921.90788" height="541.29533" viewBox="0,0,921.90788,541.29533"><g transform="translate(140.95394,90.64766)"><g stroke-miterlimit="10"><path d="M-139.95394,449.64768v-539.29533h919.90788v539.29533z" fill="#ffffff" stroke="#000000" stroke-width="2" stroke-linecap="butt"/><path d="M63.98798,324.16749l-0.6406,-44.654l47.18816,-0.43368c0,0 -0.0639,28.20187 0.05488,36.60244c0.03405,2.40764 0.02331,7.74273 -0.71445,8.88065c-1.18437,1.82669 -3.53973,2.70566 -5.06299,3.09953c-0.58945,0.1524 -5.81181,1.99557 -9.00639,2.39475c-0.97513,0.12184 -7.95532,0.72393 -11.50805,0.66295c-0.78915,-0.01355 -6.79902,-0.05172 -10.1914,-0.87482c-1.01554,-0.2464 -4.69927,-2.0271 -5.96396,-2.43876c-1.83249,-0.59644 -3.91871,-2.55059 -3.91871,-2.55059" fill="#ffffff" stroke="#000000" stroke-width="2.5" stroke-linecap="round"/><path d="M106.38624,303.51973l-0.08884,-9.66782" fill="none" stroke="#000000" stroke-width="2.5" stroke-linecap="round"/><path d="M112.16602,279.29501c0.04672,5.08513 -11.22357,9.31137 -25.17292,9.43957c-13.94936,0.12821 -25.29542,-3.8902 -25.34215,-8.9753c-0.04672,-5.08513 11.22357,-9.31137 25.17292,-9.43958c13.94936,-0.1282 25.29544,3.89017 25.34216,8.97532z" fill="#000000" stroke="none" stroke-width="0" stroke-linecap="butt"/><path d="M106.57571,314.29098c-0.48384,0.08463 -0.94265,-0.22731 -1.02474,-0.69674c-0.08211,-0.46944 0.24354,-0.91861 0.72738,-1.00323c0.48384,-0.08463 0.94265,0.22731 1.02475,0.69674c0.08211,0.46944 -0.24355,0.91861 -0.72738,1.00323z" fill="#ff0000" stroke="#000000" stroke-width="1" stroke-linecap="butt"/><path d="M74.64174,352.08044l4.87078,-21.11598" fill="none" stroke="#000000" stroke-width="2.5" stroke-linecap="round"/><path d="M117.1317,321.77162l-6.02579,-16.22529" fill="none" stroke="#000000" stroke-width="2.5" stroke-linecap="round"/><path d="M63.59762,306.33983l-8.92902,16.203" fill="none" stroke="#000000" stroke-width="2.5" stroke-linecap="round"/><path d="M98.99333,331.08491l2.22434,19.75722" fill="none" stroke="#000000" stroke-width="2.5" stroke-linecap="round"/><path d="M110.63432,282.08306c0.10291,5.07986 -10.75461,9.29985 -24.25094,9.42563c-13.49634,0.12577 -24.52071,-3.8903 -24.62362,-8.97015c-0.10291,-5.07986 10.75461,-9.29986 24.25095,-9.42563c13.49634,-0.12578 24.52071,3.89029 24.62362,8.97016z" fill-opacity="0.50196" fill="#000000" stroke="none" stroke-width="0" stroke-linecap="butt"/><path d="M110.71703,285.21352c0.11459,5.07774 -10.57638,9.26764 -23.87898,9.35839c-13.3026,0.09075 -24.17939,-3.952 -24.29398,-9.02974c-0.11459,-5.07774 10.57639,-9.26764 23.87899,-9.35839c13.3026,-0.09076 24.17938,3.952 24.29398,9.02975z" fill-opacity="0.50196" fill="#000000" stroke="none" stroke-width="0" stroke-linecap="butt"/></g></g></svg>