<svg version="1.1" xmlns="http://www.w3.org/2000/svg" xmlns:xlink="http://www.w3.org/1999/xlink" width="88.73054" height="87.48782" viewBox="0,0,88.73054,87.48782"><g transform="translate(-275.63573,-135.50361)"><g stroke-miterlimit="10"><path d="M319.88143,138.26429l42.44712,83.2343l-84.6571,0.23713z" fill="#ffffff" stroke="#000000" stroke-width="2.5" stroke-linecap="round"/><path d="M323.84496,184.50853l7.57028,4.96576" fill="none" stroke="#000000" stroke-width="4.5" stroke-linecap="round"/><path d="M315.87989,197.0458l7.57028,4.96576" fill="none" stroke="#000000" stroke-width="4.5" stroke-linecap="round"/><path d="M347.77726,216.68869l-15.72853,0.1272l-0.04874,-16.62061c0,0 9.93255,0.08466 12.89148,0.06134c0.84805,-0.00668 2.72704,0.00885 3.12618,0.27121c0.64075,0.42116 0.94513,1.25265 1.0805,1.79002c0.05238,0.20794 0.69003,2.05131 0.82358,3.17731c0.04076,0.3437 0.23743,2.80346 0.20813,4.05459c-0.00651,0.27791 -0.0332,2.39449 -0.33058,3.58748c-0.08902,0.35713 -0.72431,1.65061 -0.87207,2.09513c-0.2141,0.64409 -0.90695,1.37454 -0.90695,1.37454" fill="#ffffff" stroke="#000000" stroke-width="1" stroke-linecap="round"/><path d="M332.07938,199.6215c1.79109,-0.00525 3.25472,3.97346 3.26913,8.88669c0.01441,4.91324 -1.42587,8.90046 -3.21695,8.90571c-1.79109,0.00525 -3.25473,-3.97345 -3.26913,-8.88669c-0.01441,-4.91324 1.42587,-8.90046 3.21695,-8.90571z" fill="#000000" stroke="none" stroke-width="0" stroke-linecap="butt"/><path d="M333.63842,200.25419l13.28838,16.43296" fill="#000000" stroke="#000000" stroke-width="1" stroke-linecap="round"/><path d="M348.19478,200.71066l-13.99844,16.07792" fill="#000000" stroke="#000000" stroke-width="1" stroke-linecap="round"/><path d="M307.50283,173.14623l7.57027,4.96576" fill="none" stroke="#000000" stroke-width="4.5" stroke-linecap="round"/><path d="M299.53776,185.6835l7.57028,4.96575" fill="none" stroke="#000000" stroke-width="4.5" stroke-linecap="round"/></g></g></svg>