<svg version="1.1" xmlns="http://www.w3.org/2000/svg" xmlns:xlink="http://www.w3.org/1999/xlink" width="680.77539" height="500.52499" viewBox="0,0,680.77539,500.52499"><g transform="translate(30.51394,7.02499)"><g stroke-miterlimit="10"><path d="M293.95196,40.41412v-7.5h11.5v7.5z" fill="#ff0000" stroke="none" stroke-width="0"/><path d="M435.24894,40.28072v-6.5h10v6.5z" fill="#ff0000" stroke="none" stroke-width="0"/><path d="M253.06336,285.83089v-8h185.5v8z" fill="#ff0000" stroke="none" stroke-width="0"/><path d="M405.36447,150.53446v-23.5h96.5v23.5z" fill="#ff0000" stroke="none" stroke-width="0"/><path d="M259.19801,207.19482v-6h43v6z" fill="#ff0000" stroke="none" stroke-width="0"/><path d="M356.18031,257.75981v-13h20.83333v13z" fill="#ff0000" stroke="none" stroke-width="0"/><path d="M-0.5,493.5v-144h650.76145v144z" fill="#000000" stroke="none" stroke-width="NaN"/><path d="M637.06789,292.34131c0,21.81525 -23.26771,39.5 -51.96986,39.5c-28.70215,0 -51.96986,-17.68475 -51.96986,-39.5c0,-21.81525 23.26771,-39.5 51.96986,-39.5c28.70215,0 51.96986,17.68475 51.96986,39.5z" fill="#000000" stroke="none" stroke-width="0"/><path d="M255.79644,282.52045v-29.34976h182.5968v29.34976z" fill="#000000" stroke="none" stroke-width="0"/><path d="M-1.56301,253.97479v-25h182.5968v25z" fill="#000000" stroke="none" stroke-width="0"/><path d="M259.65125,202.61334v-53.70096h42.13772v53.70096z" fill="#000000" stroke="#000000" stroke-width="0.5"/><path d="M-22.46058,126.7486l-7.69237,-17.85229l190.08701,-24.23309l7.69237,17.85229z" fill="#000000" stroke="#000000" stroke-width="0.5"/><path d="M293.99403,178.22501v-29h334.2926v29z" fill="#000000" stroke="#000000" stroke-width="0.5"/><path d="M374.0557,155.22501v-32h33.71018v32z" fill="#000000" stroke="#000000" stroke-width="0.5"/><path d="M497.65969,150.22501v-30h26.68722v30z" fill="#000000" stroke="#000000" stroke-width="0.5"/><path d="M590.36268,154.22501v-161h37.92395v161z" fill="#000000" stroke="#000000" stroke-width="0.5"/><path d="M190.05432,54.22501v-17h331.48341v17z" fill="#000000" stroke="#000000" stroke-width="0.5"/><text transform="translate(450.20577,169.51984) scale(0.5,0.5)" font-size="40" xml:space="preserve" fill="#ffffff" stroke="none" stroke-width="1" font-family="Sans Serif" font-weight="normal" text-anchor="start"><tspan x="0" dy="0">try wall jumping</tspan></text><path d="M-27.0648,285.89695v-17.5h283.27344v17.5z" fill="#ff0000" stroke="none" stroke-width="0"/><path d="M131.448,274.2415v-0.5h1.5v0.5z" fill="#ff0000" stroke="none" stroke-width="0"/></g></g></svg>