<svg version="1.1" xmlns="http://www.w3.org/2000/svg" xmlns:xlink="http://www.w3.org/1999/xlink" width="530.51502" height="354.08844" viewBox="0,0,530.51502,354.08844"><g transform="translate(30.51502,-27.91156)"><g stroke-miterlimit="10"><path d="M307.5,201.75c-8.28427,0 -15,-2.01472 -15,-4.5c0,-2.48528 6.71573,-4.5 15,-4.5c8.28427,0 15,2.01472 15,4.5c0,2.48528 -6.71573,4.5 -15,4.5z" fill="#ff0000" stroke="#000000" stroke-width="0.5" stroke-linecap="butt"/><path d="M206.5,201.75c-8.28427,0 -15,-2.01472 -15,-4.5c0,-2.48528 6.71573,-4.5 15,-4.5c8.28427,0 15,2.01472 15,4.5c0,2.48528 -6.71573,4.5 -15,4.5z" fill="#ff0000" stroke="#000000" stroke-width="0.5" stroke-linecap="butt"/><path d="M107.5,202.75c-8.28427,0 -15,-2.01472 -15,-4.5c0,-2.48528 6.71573,-4.5 15,-4.5c8.28427,0 15,2.01472 15,4.5c0,2.48528 -6.71573,4.5 -15,4.5z" fill="#ff0000" stroke="#000000" stroke-width="0.5" stroke-linecap="butt"/><path d="M-30.51502,216.26952v-18.01802h443.94294v18.01802z" fill="#ff0000" stroke="none" stroke-width="0" stroke-linecap="butt"/><path d="M0,381v-34h499v34z" fill="#000000" stroke="#000000" stroke-width="2" stroke-linecap="butt"/><path d="M476.88636,346.79892c-2.47488,-0.35351 -2.12137,-2.82839 -2.12137,-2.82839l0.19264,-1.34423c1.25212,-10.42895 -2.28359,-19.91235 -3.45481,-30.21938c-0.20492,-6.51484 -0.05172,-13.04007 0.53546,-19.53793c0.23634,-2.61544 1.48713,-5.19203 1.14105,-7.79521c-0.42674,-3.20992 -1.96344,-1.53901 -3.89347,-3.46036c-0.82536,-0.82164 -1.22378,-1.99169 -1.68151,-3.06258c-0.23101,-0.54046 0.16583,-1.47253 -0.36489,-1.72511c-0.61672,-0.29352 -1.31859,0.36739 -1.95223,0.62234c-1.06559,0.42874 -2.11258,0.90627 -3.13719,1.42539c-2.2895,1.15996 -7.56969,5.34296 -10.14679,5.65796c-0.89709,0.10965 -1.47531,-1.29854 -2.37908,-1.30046c-0.63781,-0.00135 -0.89492,0.9176 -1.41098,1.2924c-1.55731,1.13105 -2.9763,2.58821 -4.79589,3.21555c-1.28478,0.44295 -2.73406,0.06965 -4.07393,-0.15753c-0.68759,-0.11658 -1.21793,-0.95286 -1.90869,-0.85686c-0.89243,0.12402 -1.52502,0.96001 -2.28753,1.44002c-2.13907,1.50034 -5.99575,4.55787 -8.61839,4.25137c-1.05392,-0.12316 -0.52074,-2.10081 -1.10922,-2.98375c-0.13538,-0.20312 -0.43248,0.23198 -0.62381,0.38355c-0.5611,0.44448 -1.07779,0.94253 -1.62808,1.40031c-0.98865,0.82244 -7.43135,6.18315 -8.40038,6.53825c-2.1574,0.79057 -4.59938,1.27789 -6.84659,0.79894c-1.07475,-0.22906 -2.88817,-3.75456 -4.19564,-4.39782c-2.63693,-1.29735 -6.08088,3.45162 -8.15239,4.06699c-2.03195,0.60361 -4.26829,-0.86883 -6.34395,-0.43894c-2.25491,0.46701 -3.61997,2.84968 -5.36453,4.35276c-4.20803,3.62554 -8.20136,7.40415 -12.63795,10.7624c-1.63571,0.9692 -3.10822,2.29211 -4.90713,2.9076c-5.56197,1.90301 -9.88958,-2.49813 -15.35819,-2.18031c-6.67041,0.38766 -11.84202,3.9875 -18.62142,1.96705c-3.52793,-1.05142 -5.11015,-3.92988 -7.55789,-6.30311c-1.02819,-0.99689 -3.19046,-2.21721 -4.67486,-1.84544c-5.91034,1.48025 -9.27137,9.53763 -15.15776,10.86576c-4.04734,0.91318 -3.71499,-3.5466 -6.79531,-2.61372c-3.67766,2.09075 -8.06978,6.90721 -12.52652,7.22471c-5.41082,0.38547 -7.99896,-5.89702 -13.56328,-5.30205c-6.70175,0.71659 -12.5608,4.81119 -19.19878,5.87433c-3.22135,0.51594 -6.07143,-0.96226 -9.08872,-0.40168c-4.68573,0.87056 -8.48945,4.34949 -13.33339,5.22785c-1.93014,-0.05097 -4.1533,-0.26186 -6.09761,0.15899c-3.61365,0.78217 -6.79076,2.64661 -10.59744,2.64753c-4.01374,0.00097 -7.4875,-2.19405 -11.49852,-2.36969c-6.39801,-0.28016 -10.35057,3.57089 -16.24607,4.7099c-5.96822,1.15306 -12.13072,-0.3741 -18.13714,0.34095c-7.09031,0.84409 -13.49228,4.10721 -20.09415,6.54257c-1.21096,0.1583 -2.41165,0.46664 -3.63288,0.4749c-1.80468,0.0122 -3.5419,-1.12807 -5.33492,-0.92294c-1.64047,0.18767 -2.93734,1.50917 -4.41104,2.25386c-3.88964,1.96551 -7.75981,3.98424 -12.00938,5.0908c-1.51432,0.39432 -3.07061,0.642 -4.62947,0.77843c-6.57882,0.57576 -21.96664,-2.77058 -20.40782,8.57137c0.33653,2.44862 1.50098,4.89993 2.35671,7.13338c0,0 0.8918,2.33553 -1.44373,3.22733c-2.33553,0.8918 -3.22733,-1.44373 -3.22733,-1.44373c-1.00425,-2.63841 -2.30023,-5.39892 -2.64293,-8.26469c-0.16191,-1.354 -0.31763,-2.74455 -0.09467,-4.08984c2.35761,-14.22525 19.44418,-8.27799 28.85347,-10.75713c3.88721,-1.0242 7.4276,-2.90878 10.98891,-4.70791c0.9449,-0.47735 5.15841,-2.63954 5.98819,-2.74554c2.85181,-0.36431 5.48975,0.95576 8.43094,0.55183c6.78101,-2.59666 13.39034,-5.78413 20.70285,-6.65567c5.83096,-0.69495 11.89014,0.81747 17.66028,-0.25902c2.42956,-0.45326 4.48286,-2.09335 6.79385,-2.96945c4.48798,-1.7014 5.95934,-2.04712 10.78727,-1.85309c3.93053,0.15797 7.42283,2.36213 11.27012,2.36343c3.27445,0.0011 6.46788,-1.89835 9.60105,-2.55182c2.51182,-0.52388 4.15867,-0.31945 6.70145,-0.24103c4.64847,-0.81047 8.23856,-4.37513 12.86473,-5.17072c3.26102,-0.56082 5.86867,0.96565 9.10989,0.39812c6.74036,-1.18021 12.71789,-5.30831 19.59845,-5.92413c3.95657,-0.35412 6.94864,1.06122 10.12818,3.23328c0.57957,0.39592 2.32357,2.21977 3.50655,2.0633c1.12529,-0.14884 3.73978,-2.23854 4.34843,-2.66021c2.23501,-1.54841 4.5218,-3.03814 6.92327,-4.3132c1.34647,-0.14952 2.72307,-0.76882 4.03943,-0.44857c1.2117,0.29478 2.04962,1.42218 3.04584,2.17228c0.26013,0.19587 0.42824,0.80973 0.71841,0.66197c0.98604,-0.50214 1.6001,-1.52955 2.42766,-2.26409c3.05476,-2.71139 8.30133,-7.79069 12.42239,-8.55516c3.30633,-0.61334 6.55741,0.96849 8.91413,3.04172c1.95024,1.71564 3.13453,4.48561 5.84103,5.29541c5.61991,1.6815 11.08493,-1.96779 16.77604,-2.23241c4.12358,-0.19173 5.57091,0.61606 9.49391,1.92296c1.72159,0.57353 2.56126,1.28227 4.54573,0.4961c1.33164,-0.52754 2.42547,-1.52424 3.63821,-2.28636c4.29093,-3.24811 8.13509,-6.94127 12.21429,-10.44013c2.0519,-1.75997 4.76713,-4.75946 7.6345,-5.44607c1.90675,-0.45659 3.99633,1.18463 5.85513,0.56093c0.88558,-0.29715 1.4053,-1.24665 2.20482,-1.72969c3.04227,-1.83801 5.50971,-3.61318 9.24143,-2.20222c1.37669,0.52052 2.38623,1.74934 3.40282,2.81365c0.40934,0.42856 0.22182,1.46097 0.80083,1.58736c5.32888,1.16321 8.85776,-7.96249 13.52277,-8.86015c1.76995,-0.34058 3.78411,-0.26241 5.3757,0.5835c0.65294,0.34703 -0.77018,1.8841 -0.10922,2.21558c0.6047,0.30327 0.43924,-1.33281 0.91958,-1.80917c0.88377,-0.87644 2.04068,-1.42561 3.06103,-2.13842c1.50401,-0.71983 2.86455,-1.9026 4.51203,-2.15948c1.6977,-0.26471 3.45242,1.89655 5.01652,1.18531c2.83986,-1.29136 3.99254,-4.2516 7.39213,-4.6909c0.9082,-0.11736 1.50486,1.30168 2.42061,1.29927c1.52544,-0.00401 2.35039,-1.96722 3.66627,-2.73887c3.39549,-1.99115 9.79279,-6.32131 14.09507,-4.35354c1.95106,0.89237 1.54881,4.18672 3.1533,5.61099c0.737,0.65422 2.02508,0.52494 2.66952,1.27051c1.20668,1.39603 2.21295,3.07171 2.63623,4.86777c0.7029,2.98254 -0.80731,6.07692 -1.08254,9.12878c-0.56146,6.22571 -0.72205,12.48495 -0.52826,18.72741c1.21528,10.67143 4.73097,20.35013 3.43224,31.17613l-0.20726,1.45546c0,0 -0.35351,2.47488 -2.82839,2.12137z" fill="#000000" stroke="none" stroke-width="0.5" stroke-linecap="butt"/><path d="M196.69168,350.39307l2.64981,-27.5464" fill="none" stroke="#ff0000" stroke-width="2" stroke-linecap="round"/><path d="M253.01256,316.52249l-1.24991,34.22054" fill="none" stroke="#ff0000" stroke-width="2" stroke-linecap="round"/><path d="M306.93358,351.31795l-1.5499,-41.96953" fill="none" stroke="#ff0000" stroke-width="2" stroke-linecap="round"/><path d="M399.22682,348.36833l-0.79994,-61.04205" fill="none" stroke="#ff0000" stroke-width="2" stroke-linecap="round"/><path d="M460.73825,264.75423l2.89978,83.43913" fill="none" stroke="#ff0000" stroke-width="2" stroke-linecap="round"/><path d="M470.74133,280.47882v-251.56726h7.79944v251.56726z" fill="#000000" stroke="#000000" stroke-width="2" stroke-linecap="butt"/><path d="M-10.5,211.75v-14h423v14z" fill="#000000" stroke="#000000" stroke-width="2" stroke-linecap="butt"/><path d="M417.83334,126.29602l52.33333,18.66667" fill="none" stroke="#ff0000" stroke-width="2.5" stroke-linecap="round"/><path d="M-25.5,85.75v-13h203v13z" fill="#000000" stroke="none" stroke-width="0" stroke-linecap="butt"/><path d="M65.5,73.75v-21h10v21z" fill="#ff0000" stroke="none" stroke-width="0" stroke-linecap="butt"/><path d="M140.5,74.75v-23h6v23z" fill="#000000" stroke="#000000" stroke-width="0.5" stroke-linecap="butt"/><path d="M12.5,199.75v-116h20v116z" fill="#000000" stroke="#000000" stroke-width="0.5" stroke-linecap="butt"/><path d="M176.5,72.75v-6h17v6z" fill="#000000" stroke="#000000" stroke-width="0.5" stroke-linecap="butt"/><path d="M193.5,68.75v-6h26v6z" fill="#000000" stroke="#000000" stroke-width="0.5" stroke-linecap="butt"/><path d="M219.5,62.75v-6h27v6z" fill="#000000" stroke="#000000" stroke-width="0.5" stroke-linecap="butt"/><path d="M246.5,57.75v-6h26v6z" fill="#000000" stroke="#000000" stroke-width="0.5" stroke-linecap="butt"/><path d="M272.5,52.75v-7h25v7z" fill="#000000" stroke="#000000" stroke-width="0.5" stroke-linecap="butt"/><path d="M296.5,48.75v-8h39v8z" fill="#000000" stroke="#000000" stroke-width="0.5" stroke-linecap="butt"/><path d="M334.5,42.75v-8h39v8z" fill="#000000" stroke="#000000" stroke-width="0.5" stroke-linecap="butt"/></g></g></svg>