<svg version="1.1" xmlns="http://www.w3.org/2000/svg" xmlns:xlink="http://www.w3.org/1999/xlink" width="921.90788" height="541.29533" viewBox="0,0,921.90788,541.29533"><g transform="translate(140.95394,90.64766)"><g stroke-miterlimit="10"><path d="M-139.95394,449.64768v-539.29533h919.90788v539.29533z" fill="#ffffff" stroke="#000000" stroke-width="2" stroke-linecap="butt"/><path d="M87.72665,350.21358l-44.65576,0.50255l-0.2878,-47.18927c0,0 28.20154,0.15108 36.60244,0.05826c2.40774,-0.02661 7.74278,0.00062 8.8784,0.74191c1.82302,1.19001 2.69471,3.54807 3.08386,5.07256c0.15059,0.58991 1.9776,5.81794 2.36689,9.01374c0.11882,0.97549 0.69932,7.95752 0.62737,11.51004c-0.01599,0.78911 -0.07273,6.79882 -0.90633,10.18864c-0.24953,1.01476 -2.04163,4.69297 -2.45718,5.95639c-0.60209,1.83064 -2.56268,3.9108 -2.56268,3.9108" fill="#ffffff" stroke="#000000" stroke-width="2.5" stroke-linecap="round"/><path d="M67.21007,307.7517l-9.66805,0.05896" fill="none" stroke="#000000" stroke-width="2.5" stroke-linecap="round"/><path d="M43.00333,301.89705c5.08525,-0.03101 9.27664,11.2523 9.36171,25.20197c0.08508,13.94969 -3.96837,25.28328 -9.05361,25.31428c-5.08525,0.03101 -9.27664,-11.2523 -9.36172,-25.20198c-0.08508,-13.94969 3.96836,-25.28328 9.05362,-25.31429z" fill="#000000" stroke="none" stroke-width="0" stroke-linecap="butt"/><path d="M77.98184,307.59551c0.08314,0.4841 -0.23022,0.94194 -0.6999,1.0226c-0.46969,0.08066 -0.91784,-0.24639 -1.00098,-0.73049c-0.08314,-0.4841 0.23022,-0.94194 0.6999,-1.0226c0.46969,-0.08066 0.91784,0.24639 1.00098,0.73049z" fill="#ff0000" stroke="#000000" stroke-width="1" stroke-linecap="butt"/><path d="M109.22105,320.13176l-15.29115,-7.10668" fill="none" stroke="#000000" stroke-width="2.5" stroke-linecap="round"/><path d="M95.1784,330.01162l16.73026,10.74215" fill="none" stroke="#000000" stroke-width="2.5" stroke-linecap="round"/><path d="M64.33873,303.77603l16.69276,-4.52581" fill="none" stroke="#000000" stroke-width="2.5" stroke-linecap="round"/><path d="M62.12095,349.57707l16.54,8.28815" fill="none" stroke="#000000" stroke-width="2.5" stroke-linecap="round"/><path d="M47.41581,302.66038c5.08011,0.08966 8.88564,11.09928 8.49989,24.59069c-0.38575,13.49141 -4.81669,24.35568 -9.89679,24.26602c-5.08011,-0.08966 -8.88564,-11.09929 -8.49989,-24.59071c0.38574,-13.49141 4.81668,-24.35567 9.8968,-24.26602z" fill-opacity="0.50196" fill="#000000" stroke="none" stroke-width="0" stroke-linecap="butt"/><path d="M50.54716,302.69636c5.07844,0.0779 8.8602,10.91998 8.44679,24.21646c-0.41341,13.29649 -4.86542,24.01226 -9.94385,23.93436c-5.07844,-0.0779 -8.8602,-10.91999 -8.44679,-24.21647c0.4134,-13.29648 4.86541,-24.01226 9.94386,-23.93436z" fill-opacity="0.50196" fill="#000000" stroke="none" stroke-width="0" stroke-linecap="butt"/></g></g></svg>