<svg version="1.1" xmlns="http://www.w3.org/2000/svg" xmlns:xlink="http://www.w3.org/1999/xlink" width="703.5" height="484.40292" viewBox="0,0,703.5,484.40292"><g transform="translate(39.75,30.96155)"><g fill="none" stroke-width="2.5" stroke-miterlimit="10"><path d="M-38.5,416v-70h701v70z" stroke="#ffffff"/><path d="M-37.20919,288v-25h612.78424v25z" stroke="#ffffff"/><path d="M353.25567,65.31764v-71h78.12012v71z" stroke="#ffffff"/><path d="M-26.49013,105h139l0.12012,-127v127z" stroke="#ffffff"/><path d="M-11.57129,452.19137v-346.4803h26.4803v346.4803z" stroke="#ffffff"/><path d="M622.88462,423.42027v-440.28893h26.4803v440.28893z" stroke="#ffffff"/><path d="M69.75968,175.33402v-14.28188h558.65777v14.28188z" stroke="#ffffff"/><path d="M196.89708,263.60413v-8.447h33.77111v8.447z" stroke="#ff0000"/><path d="M347.12752,262.70917v-8.447h33.7711v8.447z" stroke="#ff0000"/><path d="M474.91061,262.25214v-8.447h33.77111v8.447z" stroke="#ff0000"/><path d="M85.30653,178.51051v-6.34587h543.99656v6.34587z" stroke="#ff0000"/><path d="M127.40619,263.24507v-26.6678h12.33488v26.6678z" stroke="#ff0000"/><path d="M166.11782,116.34438l4.87645,-22.61606l208.75682,45.01193l-4.87645,22.61606z" stroke="#ffffff"/><path d="M114.95261,36.7113v-14.28188h237.33644v14.28189z" stroke="#ffffff"/><path d="M346.64071,81.36832v-14.28189h207.30641v14.28189z" stroke="#ffffff"/><path d="M79.94586,-21.26454v-8.447h33.77111v8.447z" stroke="#ff0000"/></g></g></svg>