<svg version="1.1" xmlns="http://www.w3.org/2000/svg" xmlns:xlink="http://www.w3.org/1999/xlink" width="921.90788" height="541.29533" viewBox="0,0,921.90788,541.29533"><g transform="translate(140.95394,90.64766)"><g stroke-miterlimit="10"><path d="M-139.95394,449.64768v-539.29533h919.90788v539.29533z" fill="#ffffff" stroke="#000000" stroke-width="2" stroke-linecap="butt"/><path d="M67.57344,327.44719l0.21961,-44.65806l47.18776,0.4753c0,0 -0.60709,28.19541 -0.65013,36.59671c-0.01233,2.40785 -0.12583,7.74175 -0.88537,8.86524c-1.21934,1.80353 -3.59119,2.63698 -5.12176,3.00144c-0.59228,0.14102 -5.84917,1.88326 -9.05084,2.22083c-0.97729,0.10304 -7.96779,0.57056 -11.51869,0.44117c-0.78874,-0.02875 -6.79676,-0.18267 -10.17266,-1.07096c-1.0106,-0.26592 -4.65935,-2.11725 -5.91588,-2.55317c-1.82066,-0.63162 -3.86886,-2.62559 -3.86886,-2.62559" fill="#ffffff" stroke="#000000" stroke-width="2.5" stroke-linecap="round"/><path d="M110.45893,297.95218l-0.09739,9.66774" fill="none" stroke="#000000" stroke-width="2.5" stroke-linecap="round"/><path d="M116.60685,283.51101c-0.05123,5.08509 -11.40084,9.09347 -25.35007,8.95296c-13.94925,-0.14049 -25.21579,-4.3767 -25.16457,-9.46176c0.05123,-5.08509 11.40084,-9.09347 25.35007,-8.95297c13.94925,0.1405 25.21581,4.37667 25.16458,9.46178z" fill="#000000" stroke="none" stroke-width="0" stroke-linecap="butt"/><path d="M110.34351,318.39281c-0.48538,0.0753 -0.9381,-0.24542 -1.01113,-0.71635c-0.07305,-0.47094 0.26118,-0.91374 0.74657,-0.98903c0.48538,-0.0753 0.9381,0.24542 1.01114,0.71635c0.07305,0.47094 -0.26119,0.91374 -0.74657,0.98903z" fill="#ff0000" stroke="#000000" stroke-width="1" stroke-linecap="butt"/><path d="M81.55704,356.52705l1.3725,-21.037" fill="none" stroke="#000000" stroke-width="2.5" stroke-linecap="round"/><path d="M120.75346,326.07538l-5.71215,-16.33834" fill="none" stroke="#000000" stroke-width="2.5" stroke-linecap="round"/><path d="M67.52654,309.61532l-9.23946,16.02801" fill="none" stroke="#000000" stroke-width="2.5" stroke-linecap="round"/><path d="M99.78494,352.91185l0.28218,-17.75668" fill="none" stroke="#000000" stroke-width="2.5" stroke-linecap="round"/><path d="M116.11051,285.89259c0.10291,5.07986 -10.7546,9.29985 -24.25094,9.42562c-13.49634,0.12577 -24.52071,-3.89029 -24.62361,-8.97014c-0.10291,-5.07986 10.75461,-9.29986 24.25095,-9.42563c13.49634,-0.12579 24.52071,3.89029 24.62362,8.97015z" fill-opacity="0.50196" fill="#000000" stroke="none" stroke-width="0" stroke-linecap="butt"/><path d="M116.19322,289.02305c0.11459,5.07774 -10.57639,9.26763 -23.87898,9.35838c-13.3026,0.09075 -24.17939,-3.952 -24.29398,-9.02974c-0.11459,-5.07774 10.5764,-9.26764 23.879,-9.35839c13.3026,-0.09076 24.17938,3.952 24.29398,9.02975z" fill-opacity="0.50196" fill="#000000" stroke="none" stroke-width="0" stroke-linecap="butt"/></g></g></svg>