<svg version="1.1" xmlns="http://www.w3.org/2000/svg" xmlns:xlink="http://www.w3.org/1999/xlink" width="152.45907" height="127.73382" viewBox="0,0,152.45907,127.73382"><defs><radialGradient cx="381.3653" cy="180.43862" r="65.05568" gradientUnits="userSpaceOnUse" id="color-1"><stop offset="0" stop-color="#000000"/><stop offset="1" stop-color="#ffad00"/></radialGradient><radialGradient cx="445.72423" cy="180.351" r="63.86691" gradientUnits="userSpaceOnUse" id="color-2"><stop offset="0" stop-color="#000000"/><stop offset="1" stop-color="#ffad00"/></radialGradient></defs><g transform="translate(-316.54768,-116.48411)"><g stroke-miterlimit="10"><path d="M333.27439,121.57674l112.91758,-0.79879l0.22904,119.32128c0,0 -71.30609,-0.68001 -92.54875,-0.5341c-6.08827,0.04182 -19.57761,-0.0834 -22.44118,-1.96977c-4.59696,-3.02821 -6.77606,-8.99979 -7.74397,-12.85859c-0.37453,-1.49319 -4.93889,-14.7316 -5.88943,-22.81624c-0.29015,-2.46779 -1.68412,-20.12806 -1.46468,-29.10982c0.04874,-1.99511 0.25574,-17.19004 2.39935,-25.75244c0.64168,-2.56319 5.21186,-11.8446 6.27589,-15.03477c1.54174,-4.62243 6.52108,-9.86137 6.52108,-9.86137" fill="#ffffff" stroke="url(#color-1)" stroke-width="2.5" stroke-linecap="round"/><path d="M445.84681,244.21791c-12.85841,0.02468 -23.33708,-28.54951 -23.40476,-63.8222c-0.06772,-35.27273 10.30121,-63.8869 23.15959,-63.91158c12.85841,-0.02468 23.3371,28.54951 23.40478,63.82221c0.06772,35.2727 -10.30121,63.88691 -23.15963,63.91159z" fill="url(#color-2)" stroke="none" stroke-width="0" stroke-linecap="butt"/></g></g></svg>