<svg version="1.1" xmlns="http://www.w3.org/2000/svg" xmlns:xlink="http://www.w3.org/1999/xlink" width="691.52383" height="676.17568" viewBox="0,0,691.52383,676.17568"><g transform="translate(18.60116,43.97373)"><g stroke-miterlimit="10"><path d="M534.04655,318.68056c0,27.36546 -23.52858,49.54955 -52.55255,49.54955c-29.02397,0 -52.55255,-22.18409 -52.55255,-49.54955c0,-27.36546 23.52858,-49.54955 52.55255,-49.54955c29.02397,0 52.55255,22.18409 52.55255,49.54955z" fill="#fa0000" stroke="none" stroke-width="0"/><path d="M412.42492,328.44032c0,17.82901 -22.52021,32.28228 -50.3003,32.28228c-27.78009,0 -50.3003,-14.45327 -50.3003,-32.28228c0,-17.82901 22.52021,-32.28228 50.3003,-32.28228c27.78009,0 50.3003,14.45327 50.3003,32.28228z" fill="#fa0000" stroke="none" stroke-width="0"/><path d="M302.81532,338.20008c0,9.95108 -18.48674,18.01802 -41.29129,18.01802c-22.80455,0 -41.29129,-8.06694 -41.29129,-18.01802c0,-9.95108 18.48674,-18.01802 41.29129,-18.01802c22.80455,0 41.29129,8.06694 41.29129,18.01802z" fill="#fa0000" stroke="none" stroke-width="0"/><path d="M10.02252,34.35435v-19.51952h52.55255v19.51952z" fill="#fa0000" stroke="none" stroke-width="0"/><path d="M-9.497,92.91291v-93.09309h27.02703v93.09309z" fill="#fa0000" stroke="none" stroke-width="0"/><path d="M-1.98949,119.93994v-40.54054h64.56456v40.54054z" fill="#fa0000" stroke="none" stroke-width="0"/><path d="M131.64414,41.86186v-16.51652h58.55856v16.51652z" fill="#fa0000" stroke="none" stroke-width="0"/><path d="M257.77027,106.42643v-12.01201h51.05105v12.01201z" fill="#fa0000" stroke="none" stroke-width="0"/><path d="M376.38889,40.36036v-13.51351h48.04805v13.51351z" fill="#fa0000" stroke="none" stroke-width="0"/><path d="M-4.99249,131.95195v-7.50751h493.99399v7.50751z" fill="#fa0000" stroke="none" stroke-width="0"/><path d="M-6.49399,367.68769v-252.25225h21.02102v252.25225z" fill="#fa0000" stroke="none" stroke-width="0"/><path d="M-12.5,631.95195v-675.67568h24.02402v675.67568z" fill="#f5fa00" stroke="#000000" stroke-width="0.5"/><path d="M580.06757,220.54054v-223.72372h78.07808v223.72372z" fill="#f5fa00" stroke="#000000" stroke-width="0.5"/><path d="M-3.003,372.19219v-22.52252h668.16817v22.52252z" fill="#f5fa00" stroke="#000000" stroke-width="0.5"/><path d="M219.21921,388.70871c-14.09736,0 -25.52553,-19.4951 -25.52553,-43.54354c0,-24.04843 11.42817,-43.54354 25.52553,-43.54354c14.09736,0 25.52553,19.4951 25.52553,43.54354c0,24.04843 -11.42817,43.54354 -25.52553,43.54354z" fill="#f5fa00" stroke="#000000" stroke-width="0.5"/><path d="M309.3093,390.21021c-14.09736,0 -25.52553,-25.2092 -25.52553,-56.30631c0,-31.09712 11.42817,-56.30631 25.52553,-56.30631c14.09736,0 25.52553,25.2092 25.52553,56.30631c0,31.09712 -11.42817,56.30631 -25.52553,56.30631z" fill="#f5fa00" stroke="#000000" stroke-width="0.5"/><path d="M425.67567,393.21321c-20.31678,0 -36.78679,-32.26776 -36.78679,-72.07207c0,-39.8043 16.47001,-72.07207 36.78679,-72.07207c20.31678,0 36.78679,32.26776 36.78679,72.07207c0,39.8043 -16.47001,72.07207 -36.78679,72.07207z" fill="#f5fa00" stroke="#000000" stroke-width="0.5"/><path d="M585.70692,385.7057c-48.02986,0 -86.96575,-41.00695 -86.96575,-91.59159c0,-50.58464 38.93589,-91.59159 86.96575,-91.59159c48.02986,0 86.96575,41.00695 86.96575,91.59159c0,50.58464 -38.93589,91.59159 -86.96575,91.59159z" fill="#f5fa00" stroke="#000000" stroke-width="0.5"/><path d="M-10.02252,29.84985v-45.04505h603.6036v45.04505z" fill="#f5fa00" stroke="#000000" stroke-width="0.5"/><path d="M-18.35116,127.44745v-22.52252h508.32864v22.52252z" fill="#f5fa00" stroke="#000000" stroke-width="0.5"/><text transform="translate(43.04349,357.60963) scale(0.3082,0.22152)" font-size="40" xml:space="preserve" fill="#000000" stroke="none" stroke-width="1" font-family="Sans Serif" font-weight="normal" text-anchor="start"><tspan x="0" dy="0">property of richmallow</tspan></text></g></g></svg>