<svg version="1.1" xmlns="http://www.w3.org/2000/svg" xmlns:xlink="http://www.w3.org/1999/xlink" width="921.90788" height="541.29533" viewBox="0,0,921.90788,541.29533"><g transform="translate(140.95394,90.64766)"><g stroke-miterlimit="10"><path d="M-139.95394,449.64768v-539.29533h919.90788v539.29533z" fill="#ffffff" stroke="#000000" stroke-width="2" stroke-linecap="butt"/><path d="M-10.49113,411.95237v-416.09823h676.67121v416.09823z" fill="#424242" stroke="#ffffff" stroke-width="0.5" stroke-linecap="butt"/><path d="M67.85648,330.98526l0.21961,-44.65806l47.18776,0.4753c0,0 -0.60709,28.19541 -0.65013,36.59671c-0.01233,2.40785 -0.12583,7.74175 -0.88537,8.86524c-1.21934,1.80353 -3.59119,2.63698 -5.12176,3.00144c-0.59228,0.14102 -5.84917,1.88326 -9.05084,2.22083c-0.97729,0.10304 -7.96779,0.57056 -11.51869,0.44117c-0.78874,-0.02875 -6.79676,-0.18267 -10.17266,-1.07096c-1.0106,-0.26592 -4.65935,-2.11725 -5.91588,-2.55317c-1.82066,-0.63162 -3.86886,-2.62559 -3.86886,-2.62559" fill="#ffffff" stroke="#000000" stroke-width="2.5" stroke-linecap="round"/><path d="M110.64458,311.15799l0.09739,-9.66774" fill="none" stroke="#000000" stroke-width="2.5" stroke-linecap="round"/><path d="M116.88989,287.04907c-0.05123,5.08509 -11.40084,9.09347 -25.35007,8.95296c-13.94925,-0.14049 -25.21579,-4.3767 -25.16457,-9.46176c0.05123,-5.08509 11.40084,-9.09347 25.35007,-8.95297c13.94925,0.1405 25.21581,4.37667 25.16458,9.46178z" fill="#000000" stroke="none" stroke-width="0" stroke-linecap="butt"/><path d="M110.62655,321.93088c-0.48538,0.0753 -0.9381,-0.24542 -1.01113,-0.71635c-0.07305,-0.47094 0.26118,-0.91374 0.74657,-0.98903c0.48538,-0.0753 0.9381,0.24542 1.01114,0.71635c0.07305,0.47094 -0.26119,0.91374 -0.74657,0.98903z" fill="#ff0000" stroke="#000000" stroke-width="1" stroke-linecap="butt"/><path d="M82.53915,351.65033l0.8235,-12.6222" fill="none" stroke="#000000" stroke-width="2.5" stroke-linecap="round"/><path d="M115.32435,313.27511l5.71215,16.33834" fill="none" stroke="#000000" stroke-width="2.5" stroke-linecap="round"/><path d="M67.80958,313.15339l-9.23946,16.02801" fill="none" stroke="#000000" stroke-width="2.5" stroke-linecap="round"/><path d="M100.66125,338.69325l-0.19447,12.23729" fill="none" stroke="#000000" stroke-width="2.5" stroke-linecap="round"/><text transform="translate(114.86714,189.58117) scale(0.79843,0.79843)" font-size="40" xml:space="preserve" fill="#424242" stroke="#ffffff" stroke-width="1" stroke-linecap="butt" font-family="Sans Serif" font-weight="normal" text-anchor="start"><tspan x="0" dy="0">iamextremelydisappointed</tspan></text><text transform="translate(395.66451,344.43553) scale(0.34901,0.34901)" font-size="40" xml:space="preserve" fill="#424242" stroke="#ffffff" stroke-width="1" stroke-linecap="butt" font-family="Sans Serif" font-weight="normal" text-anchor="start"><tspan x="0" dy="0">(animation is bad cuz of how it runs)</tspan></text><path d="M-71.18199,435.15948v-510.31895h782.36398v510.31895z" fill-opacity="0.30196" fill="#000000" stroke="#ffffff" stroke-width="0.5" stroke-linecap="butt"/><path d="M115.20075,289.74074c-0.05375,5.08062 -11.03618,8.96388 -24.52998,8.67353c-13.4938,-0.29035 -24.38912,-4.64437 -24.33538,-9.72498c0.05375,-5.08062 11.03619,-8.96389 24.53,-8.67354c13.4938,0.29034 24.38912,4.64436 24.33538,9.72499z" fill-opacity="0.50196" fill="#000000" stroke="none" stroke-width="0" stroke-linecap="butt"/><path d="M115.18692,292.87226c-0.04199,5.07887 -10.85706,8.93718 -24.15613,8.6178c-13.29908,-0.31939 -24.04606,-4.69553 -24.00406,-9.77438c0.042,-5.07887 10.85707,-8.93718 24.15615,-8.6178c13.29908,0.31937 24.04605,4.69552 24.00406,9.7744z" fill-opacity="0.50196" fill="#000000" stroke="none" stroke-width="0" stroke-linecap="butt"/></g></g></svg>