<svg version="1.1" xmlns="http://www.w3.org/2000/svg" xmlns:xlink="http://www.w3.org/1999/xlink" width="556.36987" height="526.88546" viewBox="0,0,556.36987,526.88546"><g transform="translate(-70.5,33.38547)"><g fill="#000000" stroke-miterlimit="10"><path d="M297.2228,278.5v-170h34v170z" stroke="#001026" stroke-width="1.2"/><path d="M70.5,493.5v-144h498v144z" stroke="none" stroke-width="NaN"/><path d="M291.62914,357.44186l165.01017,-40.88574l8.17715,33.00204l-165.01017,40.88574z" stroke="#001026" stroke-width="1.2"/><path d="M456.2692,316.26961l169.99938,0.58128l-0.09218,42.8795l-169.99938,-0.58128z" stroke="#001026" stroke-width="1.2"/><path d="M327.2692,242.26961l169.99938,0.23353l-0.09218,17.22725l-169.99938,-0.23354z" stroke="#001026" stroke-width="1.2"/><path d="M543.20634,-32.73039l54.06225,4.75422l-0.02931,350.70656l-54.06225,-4.75422z" stroke="#001026" stroke-width="1.2"/><path d="M381.29359,165.26961l214.975,0.27366l-0.11657,20.18712l-214.97499,-0.27366z" stroke="#001026" stroke-width="1.2"/><path d="M297.29359,87.26961l175.97499,0.27366l25.88344,20.18712l-201.97499,-0.27366z" stroke="#001026" stroke-width="1.2"/><path d="M230.35483,-26.73039l327.91375,0.7819l-0.1778,57.67888l-327.91376,-0.7819z" stroke="#001026" stroke-width="1.2"/><path d="M270.2228,278.5l30,-191h16l-12,191z" stroke="#001026" stroke-width="1.2"/><path d="M193.2228,204.5l42.31818,-117.38542l14.68182,-0.61458l-27.63636,118z" stroke="#001026" stroke-width="1.2"/><path d="M230.18737,86.26961l21.08121,0.22016l-7.01034,19.24062l-14.08122,-3.22016z" stroke="#001026" stroke-width="1.2"/><path d="M230.18845,-11.73039l21.08013,1.3169l-0.01143,97.14388l-21.08013,-1.3169z" stroke="#001026" stroke-width="1.2"/><path d="M76.29142,260.26961l210.97716,0.23354l-0.1144,17.22724l-210.97716,-0.23354z" stroke="#001026" stroke-width="1.2"/><path d="M206.25,191.375l-11,13.75h-53.5v-13.75z" stroke="#001026" stroke-width="1.2"/><path d="M238.25,118.375v13.75h-46.5v-13.75z" stroke="#001026" stroke-width="1.2"/><path d="M251.25,45.375v13.75h-34.5v-13.75z" stroke="#001026" stroke-width="1.2"/></g></g></svg>