<svg version="1.1" xmlns="http://www.w3.org/2000/svg" xmlns:xlink="http://www.w3.org/1999/xlink" width="23.7672" height="28.64277" viewBox="0,0,23.7672,28.64277"><g transform="translate(-308.1164,-165.79499)"><g stroke-miterlimit="10"><path d="M309.02385,191.02934l-0.10829,-21.01058h22.2019c0,0 -0.15199,13.26751 -0.13243,17.22014c0.00561,1.13285 -0.02251,3.64272 -0.37453,4.17487c-0.56509,0.85426 -1.67699,1.25759 -2.39533,1.43631c-0.27796,0.06915 -2.74283,0.9137 -4.24746,1.08768c-0.45928,0.0531 -3.74578,0.30617 -5.41692,0.26214c-0.3712,-0.00978 -3.19842,-0.05373 -4.79084,-0.45564c-0.4767,-0.12032 -2.20204,-0.97399 -2.79525,-1.17311c-0.85953,-0.28852 -1.83255,-1.21689 -1.83255,-1.21689" fill="#ffffff" stroke="#000000" stroke-linecap="round"/><path d="M329.05972,181.49877v-4.54868" fill="none" stroke="#000000" stroke-linecap="round"/><path d="M326.56877,186.15575l4.22378,-0.21661" fill="none" stroke="#000000" stroke-linecap="round"/><path d="M331.8836,170.12707c0,2.39254 -5.32047,4.33208 -11.8836,4.33208c-6.56313,0 -11.8836,-1.93954 -11.8836,-4.33208c0,-2.39254 5.32047,-4.33208 11.8836,-4.33208c6.56313,0 11.8836,1.93954 11.8836,4.33208z" fill="#000000" stroke="none" stroke-linecap="butt"/></g></g></svg>