<svg version="1.1" xmlns="http://www.w3.org/2000/svg" xmlns:xlink="http://www.w3.org/1999/xlink" width="921.90788" height="541.29533" viewBox="0,0,921.90788,541.29533"><g transform="translate(140.95394,90.64766)"><g stroke-miterlimit="10"><path d="M-139.95394,449.64768v-539.29533h919.90788v539.29533z" fill="#ffffff" stroke="#000000" stroke-width="2" stroke-linecap="butt"/><path d="M69.20505,340.88629l-32.99633,-30.09373l31.97895,-34.70241c0,0 20.51868,19.3477 26.72496,25.01036c1.77875,1.62294 5.6613,5.28207 5.98605,6.59876c0.52129,2.11371 -0.44981,4.4326 -1.20515,5.8128c-0.29229,0.53408 -2.52254,5.60323 -4.41784,8.20563c-0.57853,0.79436 -4.91672,6.29579 -7.39264,8.84441c-0.54997,0.56612 -4.69089,4.92187 -7.61275,6.83198c-0.87467,0.57181 -4.69413,2.03896 -5.85981,2.67935c-1.68901,0.9279 -4.5416,1.11159 -4.5416,1.11159" fill="#ffffff" stroke="#000000" stroke-width="2.5" stroke-linecap="round"/><path d="M76.05769,289.29016l7.10976,6.55179" fill="none" stroke="#000000" stroke-width="2.5" stroke-linecap="round"/><path d="M69.46047,275.04864c3.73963,3.44615 -0.89224,14.5559 -10.34558,24.81431c-9.45334,10.25844 -20.14836,15.78086 -23.88797,12.33472c-3.73963,-3.44615 0.89224,-14.5559 10.34558,-24.81432c9.45334,-10.25843 20.14835,-15.78088 23.88798,-12.33472z" fill="#000000" stroke="none" stroke-width="0" stroke-linecap="butt"/><path d="M91.1506,303.07554c-0.26943,0.4107 -0.81088,0.53173 -1.20933,0.27032c-0.39847,-0.26141 -0.50309,-0.80625 -0.23366,-1.21695c0.26943,-0.4107 0.81088,-0.53173 1.20934,-0.27033c0.39847,0.26141 0.50308,0.80626 0.23366,1.21695z" fill="#ff0000" stroke="#000000" stroke-width="1" stroke-linecap="butt"/><path d="M88.29288,331.19716l4.90604,19.26723" fill="none" stroke="#000000" stroke-width="2.5" stroke-linecap="round"/><path d="M87.34894,293.37341l17.22209,-1.72338" fill="none" stroke="#000000" stroke-width="2.5" stroke-linecap="round"/><path d="M47.96508,344.58864l4.9546,-17.82462" fill="none" stroke="#000000" stroke-width="2.5" stroke-linecap="round"/><path d="M110.25282,335.41301l-11.46501,-16.24343" fill="none" stroke="#000000" stroke-width="2.5" stroke-linecap="round"/><path d="M70.80609,277.51574c3.7888,3.38534 -0.51869,14.20844 -9.62105,24.17407c-9.10237,9.96564 -19.55272,15.30003 -23.34151,11.9147c-3.7888,-3.38534 0.51869,-14.20844 9.62106,-24.17409c9.10236,-9.96565 19.5527,-15.30003 23.34152,-11.91469z" fill-opacity="0.50196" fill="#000000" stroke="none" stroke-width="0" stroke-linecap="butt"/><path d="M73.15409,279.58783c3.79522,3.37534 -0.42086,14.05602 -9.41688,23.85597c-8.99602,9.79995 -19.36536,15.00813 -23.16057,11.63279c-3.79522,-3.37534 0.42087,-14.05603 9.41689,-23.85599c8.99601,-9.79996 19.36535,-15.00813 23.16057,-11.63278z" fill-opacity="0.50196" fill="#000000" stroke="none" stroke-width="0" stroke-linecap="butt"/></g></g></svg>