<svg version="1.1" xmlns="http://www.w3.org/2000/svg" xmlns:xlink="http://www.w3.org/1999/xlink" width="697.20531" height="316.7379" viewBox="0,0,697.20531,316.7379"><g transform="translate(22.1002,-106.50534)"><g stroke="none" stroke-miterlimit="10"><path d="M23.69951,247v-73h90v73z" fill="#ff0000" stroke-width="0"/><path d="M-5.30049,185v-65h193v65z" fill="#ff0000" stroke-width="0"/><path d="M247.69951,134l0.65232,-23.70254c0,0 12.9869,10.29226 28.80066,13.92628c26.04194,5.98446 60.30845,6.7545 60.99078,8.61711c1.05217,2.87215 -13.54161,-23.84802 -13.54161,-23.84802l-49.90215,25.00717z" fill="#ff0000" stroke-width="0"/><path d="M358.69951,123.66667l8.4801,-17.16133l8.1259,11.41553l-9.78474,5.74581z" fill="#ff0000" stroke-width="0"/><path d="M199.69951,394.05419v-52h399v52z" fill="#ff0000" stroke-width="0"/><path d="M8.43844,423.24324v-73.57357h666.66667v73.57357z" fill="#000000" stroke-width="0"/><path d="M-22.1002,305.30477l208.55155,-186.83214l54.04787,60.33099l-208.55155,186.83214z" fill="#000000" stroke-width="0"/><path d="M185.69951,197.05419v-79h298v79z" fill="#000000" stroke-width="0"/><text transform="translate(223.01041,335.74324) scale(0.5,0.5)" font-size="40" xml:space="preserve" fill="#ff0000" stroke-width="1" font-family="Sans Serif" font-weight="normal" text-anchor="start"><tspan x="0" dy="0">become pro climbing and not noob</tspan></text></g></g></svg>