<svg version="1.1" xmlns="http://www.w3.org/2000/svg" xmlns:xlink="http://www.w3.org/1999/xlink" width="518.8862" height="554.6" viewBox="0,0,518.8862,554.6"><g transform="translate(30.3862,61.1)"><g stroke-miterlimit="10"><path d="M-29.7862,367.5v-428h34v428z" fill="#000000" stroke="#001026" stroke-width="1.2" stroke-linecap="butt"/><path d="M0.5,493.5v-144h488v144z" fill="#000000" stroke="none" stroke-width="NaN" stroke-linecap="butt"/><path d="M55.43086,354.86872l424.92492,-58.55856" fill="none" stroke="#001026" stroke-width="1.2" stroke-linecap="round"/><path d="M414.28972,303.81767l-4.5045,-346.84685" fill="none" stroke="#001026" stroke-width="1.2" stroke-linecap="round"/><path d="M363.23867,227.24109l-287.36637,43.57605" fill="none" stroke="#001026" stroke-width="1.2" stroke-linecap="round"/><path d="M80.95638,267.78163l-79.57958,-39.03904" fill="none" stroke="#001026" stroke-width="1.2" stroke-linecap="round"/><path d="M413.30289,175.62403l-75.06051,-16.73875" fill="#ff0000" stroke="#ff0000" stroke-width="4" stroke-linecap="round"/><path d="M2.87831,83.62999h361.86186" fill="none" stroke="#000000" stroke-width="1.2" stroke-linecap="round"/><path d="M146.44275,258.63652l7.5,-1" fill="none" stroke="#ff0000" stroke-width="4" stroke-linecap="round"/><path d="M215.44275,248.13652l6,-1" fill="none" stroke="#ff0000" stroke-width="4" stroke-linecap="round"/><path d="M268.39729,239.24174l1,4.5" fill="none" stroke="#ff0000" stroke-width="4" stroke-linecap="round"/><path d="M336.7418,159.99068l0.33855,23.81103l-191.5,3.274" fill="none" stroke="#000000" stroke-width="4" stroke-linecap="round"/><path d="M3.25,93.9v-10.8h362.4v10.8z" fill="#000000" stroke="none" stroke-width="0" stroke-linecap="butt"/></g></g></svg>