<svg version="1.1" xmlns="http://www.w3.org/2000/svg" xmlns:xlink="http://www.w3.org/1999/xlink" width="533.56094" height="427.84541" viewBox="0,0,533.56094,427.84541"><g transform="translate(-62.97605,24.42792)"><g fill="#000000" stroke="none" stroke-width="0" stroke-miterlimit="10"><path d="M68.57566,403.41749v-51.99323h527.96133v51.99323z"/><path d="M407.45089,283.232v-18.29761h155.98853v18.29761z"/><path d="M66.97581,96.05638v-15.298h150.38898v15.298z"/><path d="M448.54788,209.25355v-233.68147h15.59882v233.68147z"/><path d="M62.97605,351.72309v-140.98166h29.39706v140.98166z"/><path d="M63.97599,216.04072v-20.1958h79.69415v20.1958z"/><path d="M337.47606,361.07208v-52h26v52z"/><path d="M367.47606,214.07208c0,8.28427 -33.13093,15 -74,15c-40.86907,0 -74,-6.71573 -74,-15c0,-8.28427 33.13093,-15 74,-15c40.86907,0 74,6.71573 74,15z"/><path d="M74.31546,6.07208v-20.5h375.5v20.5z"/></g></g></svg>