<svg version="1.1" xmlns="http://www.w3.org/2000/svg" xmlns:xlink="http://www.w3.org/1999/xlink" width="50.5172" height="61.63552" viewBox="0,0,50.5172,61.63552"><defs><radialGradient cx="319.928" cy="159.01508" r="25.2586" gradientUnits="userSpaceOnUse" id="color-1"><stop offset="0" stop-color="#2400b3"/><stop offset="1" stop-color="#00b3b3"/></radialGradient></defs><g transform="translate(-294.6694,-149.80724)"><g stroke-miterlimit="10"><path d="M296.5982,203.44288l-0.23019,-44.658h47.19016c0,0 -0.32307,28.20009 -0.28148,36.6014c0.01192,2.40786 -0.04784,7.74262 -0.79605,8.8737c-1.20111,1.81574 -3.56444,2.67301 -5.09128,3.05287c-0.59082,0.14699 -5.8299,1.94208 -9.02799,2.31187c-0.9762,0.11288 -7.96165,0.65077 -11.51366,0.55716c-0.789,-0.02079 -6.79824,-0.11419 -10.18293,-0.96846c-1.01322,-0.25573 -4.68043,-2.07022 -5.94129,-2.49345c-1.82694,-0.61325 -3.89509,-2.58649 -3.89509,-2.58649" fill="#ffffff" stroke="#000000" stroke-width="2.5" stroke-linecap="round"/><path d="M343.6982,160.20255c0,2.08316 0.99421,5.62701 -0.97436,7.31623c-4.07883,3.50001 -13.89981,4.27091 -22.72961,4.27091c-7.63154,0 -17.99621,-0.83596 -22.33176,-3.57415c-3.10176,-1.95897 -1.37221,-5.34409 -1.37221,-8.01299c0,-6.3994 10.34778,2.44985 23.43912,2.44985c13.09134,0 23.96882,-8.84925 23.96882,-2.44985z" fill-opacity="0.58039" fill="#000000" stroke="none" stroke-width="0" stroke-linecap="butt"/><path d="M339.18444,183.18565v-9.66823" fill="none" stroke="#000000" stroke-width="2.5" stroke-linecap="round"/><path d="M333.88994,193.08406l8.97764,-0.46039" fill="none" stroke="#000000" stroke-width="2.5" stroke-linecap="round"/><path d="M343.69821,159.27559c0,2.08316 0.99421,5.62701 -0.97436,7.31623c-4.07883,3.50001 -13.89981,4.27091 -22.72961,4.27091c-7.63154,0 -17.99621,-0.83596 -22.33176,-3.57415c-3.10176,-1.95897 -1.37221,-5.34409 -1.37221,-8.01299c0,-6.3994 10.34778,2.44985 23.43912,2.44985c13.09134,0 23.96882,-8.84925 23.96882,-2.44985z" fill-opacity="0.58039" fill="#000000" stroke="none" stroke-width="0" stroke-linecap="butt"/><path d="M345.1866,159.01508c0,5.08535 -11.30866,9.20783 -25.2586,9.20783c-13.94995,0 -25.2586,-4.12249 -25.2586,-9.20783c0,-5.08535 11.30866,-9.20784 25.2586,-9.20784c13.94994,0 25.2586,4.12249 25.2586,9.20784z" fill="url(#color-1)" stroke="none" stroke-width="0" stroke-linecap="butt"/></g></g></svg>