<svg version="1.1" xmlns="http://www.w3.org/2000/svg" xmlns:xlink="http://www.w3.org/1999/xlink" width="921.90788" height="541.29533" viewBox="0,0,921.90788,541.29533"><g transform="translate(140.95394,90.64766)"><g stroke-miterlimit="10"><path d="M-139.95394,449.64768v-539.29533h919.90788v539.29533z" fill="#ffffff" stroke="#000000" stroke-width="2" stroke-linecap="butt"/><path d="M78.11794,346.54678l-41.4411,-16.64407l17.81306,-43.69903c0,0 25.9919,10.94398 33.78738,14.07675c2.23422,0.89786 7.15177,2.96695 7.91675,4.08675c1.22801,1.79764 1.12979,4.30974 0.9052,5.867c-0.08691,0.6026 -0.40223,6.13169 -1.267,9.23279c-0.26397,0.94659 -2.40267,7.61829 -3.83016,10.87219c-0.31709,0.72278 -2.67191,6.25221 -4.74059,9.06403c-0.61926,0.84174 -3.6838,3.55272 -4.55168,4.56054c-1.2575,1.46029 -3.86544,2.63061 -3.86544,2.63061" fill="#ffffff" stroke="#000000" stroke-width="2.5" stroke-linecap="round"/><path d="M66.48156,295.81498l8.95297,3.64951" fill="none" stroke="#000000" stroke-width="2.5" stroke-linecap="round"/><path d="M55.31775,284.7826c4.70913,1.91959 4.25792,13.94778 -1.00783,26.86569c-5.26574,12.91794 -13.35198,21.83384 -18.0611,19.91425c-4.70913,-1.91959 -4.25792,-13.94777 1.00782,-26.8657c5.26574,-12.91793 13.35197,-21.83385 18.06111,-19.91425z" fill="#000000" stroke="none" stroke-width="0" stroke-linecap="butt"/><path d="M85.44426,303.44705c-0.10867,0.47902 -0.57353,0.78187 -1.03827,0.67643c-0.46475,-0.10544 -0.75342,-0.57922 -0.64475,-1.05824c0.10867,-0.47902 0.57353,-0.78187 1.03827,-0.67644c0.46475,0.10544 0.75342,0.57923 0.64475,1.05824z" fill="#ff0000" stroke="#000000" stroke-width="1" stroke-linecap="butt"/><path d="M109.49712,326.99499l-11.40177,-12.42271" fill="none" stroke="#000000" stroke-width="2.5" stroke-linecap="round"/><path d="M92.74079,330.74109l11.33828,16.33214" fill="none" stroke="#000000" stroke-width="2.5" stroke-linecap="round"/><path d="M92.16603,296.76534l-17.15302,-2.21474" fill="none" stroke="#000000" stroke-width="2.5" stroke-linecap="round"/><path d="M67.42508,350.40975l-13.32788,-12.83093" fill="none" stroke="#000000" stroke-width="2.5" stroke-linecap="round"/><path d="M58.54404,287.54999c4.76619,1.76039 4.72704,13.40909 -0.08745,26.01812c-4.81449,12.60903 -12.58116,21.4036 -17.34734,19.64321c-4.76619,-1.76039 -4.72703,-13.4091 0.08746,-26.01814c4.81448,-12.60903 12.58115,-21.40359 17.34735,-19.6432z" fill-opacity="0.50196" fill="#000000" stroke="none" stroke-width="0" stroke-linecap="butt"/><path d="M61.48825,288.61687c4.76849,1.74874 4.76217,13.23143 -0.01414,25.64732c-4.7763,12.41589 -12.51388,21.06333 -17.28237,19.31459c-4.76849,-1.74874 -4.76216,-13.23144 0.01414,-25.64733c4.77629,-12.41589 12.51387,-21.06333 17.28238,-19.31459z" fill-opacity="0.50196" fill="#000000" stroke="none" stroke-width="0" stroke-linecap="butt"/></g></g></svg>