<svg version="1.1" xmlns="http://www.w3.org/2000/svg" xmlns:xlink="http://www.w3.org/1999/xlink" width="479.9777" height="360" viewBox="0,0,479.9777,360"><g transform="translate(-0.1083,0)"><g stroke-miterlimit="10"><path d="M0.1083,0h479.9777v360h-479.9777z" fill="#0072ff" stroke="none" stroke-width="1.00207" stroke-linecap="butt"/><path d="M72,128l0.3,0.3" fill="none" stroke="#ccd8ff" stroke-width="2" stroke-linecap="round"/><path d="M242.1593,323.01291c2.37171,0.79057 1.58114,3.16228 1.58114,3.16228l-0.81913,2.45157c-0.95982,3.73223 -2.68068,8.80996 -5.83214,11.34791c-4.04927,3.26098 -7.87569,2.52992 -12.43353,1.39888c-8.63658,-2.14318 -18.12509,-6.51785 -25.11902,-11.9284c-27.44111,-21.41516 -47.80884,-49.74598 -63.28563,-80.69956c-2.23979,-4.47989 -4.6814,-8.8717 -7.02759,-13.30578c-0.64047,2.42512 -1.38357,5.28682 -1.65461,6.05718c-0.88608,2.51848 -2.51565,4.71991 -3.53065,7.18925c-0.66294,1.61284 -0.89073,3.39921 -1.67946,4.95441c-0.66559,1.31241 -1.84871,2.29857 -2.63099,3.54496c-2.17616,3.46721 -1.69524,5.75017 -6.81251,7.08746c-1.93108,0.50465 -6.38497,-2.20743 -7.47356,-3.49341c-0.66621,-0.787 -0.56111,-2.00669 -1.07541,-2.90039c-0.6816,-1.18442 -1.75286,-2.10811 -2.4746,-3.2685c-2.31899,-3.72838 -3.78322,-8.28319 -5.31301,-12.36274c-1.81048,-6.22506 -4.33845,-11.92175 -6.45581,-18.01003c-3.58968,-10.32181 -6.56277,-21.61395 -8.88252,-32.30544c-3.08306,-14.20944 -3.43904,-29.02541 -3.43904,-43.47886c0,-2.11947 -0.00312,-4.24015 -0.00713,-6.36174c-0.82976,-0.27035 -1.66867,-0.55038 -2.52206,-0.83484c-3.40481,-1.13494 -6.88372,-2.15012 -10.24201,-3.41514c-3.60081,-1.35637 -5.85096,-2.17528 -9.01232,-4.51146c-3.58677,-2.65055 -7.10245,-4.37943 -2.60997,-9.18907c0.75912,-0.81271 2.166,-0.29369 3.30838,-0.39644c0.24114,-0.79213 0.86496,-1.41752 1.65613,-1.66084l0.05635,-0.01878c0.04091,-0.13274 0.08715,-0.26764 0.13891,-0.40476c0.2377,-0.62972 0.78669,-0.99551 1.44403,-1.26184c-0.06244,-0.75987 0.10403,-2.00404 1.69692,-2.53501c1.59907,-0.53302 2.47938,0.37147 2.88324,1.01735c2.81976,-0.7086 6.43098,-0.84867 8.80448,-0.19065c1.58876,0.44047 2.92987,1.51767 4.40951,2.25023c0.08336,-12.22207 0.38083,-24.4417 1.31488,-36.60243c0.39455,-5.13684 0.96316,-10.23906 1.5347,-15.35922c0.17978,-1.61058 0.43361,-3.21455 0.54069,-4.83159c0.07837,-1.18345 -0.38217,-2.4405 0.01491,-3.5581c0.03436,-0.0967 0.07034,-0.19265 0.10784,-0.2879l-0.05193,-0.01298l0.83504,-3.34016c0.25265,-1.1133 1.24829,-1.9444 2.43804,-1.9444c1.1246,0 2.07576,0.74256 2.38994,1.76412l0.18345,0.55036c0.05132,-1.15997 0.09314,-2.31944 0.12086,-3.4783c0.08296,-3.35986 0.49118,-6.70379 0.74464,-10.0551c0.12256,-1.62051 -0.56887,-3.40356 0.12346,-4.87384c0.969,-2.05785 2.32908,-4.6384 4.56133,-5.0752c2.03673,-0.39855 3.69759,1.91765 5.38245,3.12941c4.26252,3.06561 8.02589,8.22094 10.87194,12.58525c2.71763,4.16737 5.74789,8.38199 8.30815,12.64278c1.42904,2.3782 2.3298,5.03627 3.49013,7.55652c4.93142,10.71109 8.79628,21.4615 12.42801,32.67137c5.6213,17.37808 8.17943,36.0559 8.14994,54.27095c-0.00751,4.63595 0.33012,9.46458 -0.06036,14.07851c-0.17011,2.01002 -1.42933,7.78322 -1.64583,9.88462c-0.46988,4.56074 0.0929,9.23631 -0.27871,13.80781c-0.00897,0.11034 -1.4132,9.922 -1.43828,10.0974c-1.52462,8.39017 -4.01128,16.01122 -6.58624,23.9768c3.02527,6.04432 6.416,11.9278 9.43838,17.97214c15.14022,30.28045 35.02797,58.05321 61.88864,78.99311c6.4012,5.03989 15.31083,9.01693 23.25655,11.02021c2.61753,0.65993 5.5429,1.80143 7.91184,-0.29656c2.38813,-2.11498 3.62029,-6.01684 4.34055,-8.99746l0.87632,-2.63477c0,0 0.79057,-2.37171 3.16228,-1.58114zM128.15765,221.94608c1.89277,-5.94882 3.62294,-11.83775 4.7779,-18.18641c0.46171,-3.2341 1.12546,-6.44544 1.39015,-9.70159c0.37332,-4.59254 -0.18492,-9.28144 0.28376,-13.86572c0.33832,-3.30918 1.36164,-6.52867 1.64215,-9.84325c0.37896,-4.47786 0.03527,-9.16708 0.04256,-13.66614c0.02862,-17.68279 -2.43268,-35.8523 -7.90654,-52.72065c-3.57183,-11.02498 -7.36327,-21.58757 -12.21316,-32.12133c-1.09796,-2.38473 -1.92727,-4.91124 -3.28474,-7.1584c-2.52771,-4.18436 -5.49141,-8.30239 -8.16089,-12.40223c-2.26868,-3.48428 -4.62618,-6.19696 -7.54545,-9.11541c-0.80607,-0.80584 -1.66498,-1.56267 -2.41341,-2.4223c-0.52658,-0.60481 -0.60411,-1.85348 -1.39934,-1.95693c-0.5902,-0.07678 -0.48014,1.11311 -0.52502,1.70659c-0.09063,1.19841 0.19309,2.40358 0.12346,3.60339c-0.19103,3.29187 -0.65918,6.56827 -0.73643,9.86478c-0.23552,9.71866 -1.48949,19.49038 -0.94723,29.22622c0.53698,9.6411 2.98647,18.8976 4.89267,28.30666c0.42204,2.08318 0.83448,4.16454 1.24312,6.24394l2.77812,0.03047c1.32567,0.53894 3.04716,0.52906 3.97702,1.61682c3.42887,4.01114 1.0003,8.81649 -0.31735,12.68265c-0.77647,2.27826 0.17822,5.05588 -1.00822,7.15009c-0.21375,0.3773 -0.53092,0.66107 -0.89098,0.90766c1.08977,4.92701 2.27682,9.83998 3.63999,14.737c6.28872,22.59141 12.83386,45.63284 22.55785,67.0841zM125.90443,228.93006c-0.13447,-0.27752 -0.26802,-0.55545 -0.4006,-0.8338c-8.81891,-18.51597 -15.14199,-38.2956 -20.82155,-58.05909c-0.96152,-0.45999 -1.32105,-1.53858 -1.32105,-1.53858c-1.01215,-3.06207 -2.70979,-5.34048 -4.1127,-8.16943c-0.75811,-1.52872 -0.62009,-3.4571 -1.57629,-4.87039c-0.74358,-1.09903 -2.20848,-1.67903 -2.72624,-2.90079c-0.50434,-1.19006 0.14077,-2.61435 -0.14519,-3.87483c-0.31163,-1.37363 -1.1868,-2.57005 -1.60422,-3.91212c-0.06004,0.00108 -0.11988,0.00281 -0.17951,0.00529c-3.66432,0.15238 -6.95653,-0.35893 -10.22056,-1.19693c0.00279,1.62542 0.0047,3.25024 0.0047,4.87433c0,14.12161 0.30965,28.62086 3.34275,42.5023c2.2876,10.46953 5.18548,21.52996 8.70138,31.63961c2.1228,6.10393 4.66792,11.83135 6.47834,18.07632c1.40152,3.73728 2.7246,7.96675 4.85967,11.37352c0.77492,1.23648 1.89195,2.24393 2.61174,3.51329c0.37745,0.66564 1.49079,4.43814 3.31916,3.77889c2.07335,-0.74758 2.40391,-3.24326 3.36017,-4.78068c0.71526,-1.14995 1.84306,-2.02891 2.45535,-3.23683c0.7187,-1.41786 0.87999,-3.06155 1.48282,-4.53242c0.99499,-2.42773 2.61642,-4.58258 3.47976,-7.06018c1.04533,-2.99987 1.53286,-6.17054 2.49866,-9.19695c0.17097,-0.53574 0.34219,-1.06912 0.5134,-1.60051zM92.31618,137.90232c-0.46663,-1.53374 -1.46302,-2.90169 -1.75398,-4.47822c-0.31283,-1.69506 0.18039,-3.4598 -0.02683,-5.17098c-0.05171,-0.42703 -0.11134,-0.85333 -0.17763,-1.27902l-1.57927,0c-1.63353,0.45402 -3.39089,0 -5.08634,0c-0.30376,0 -0.60868,-0.00239 -0.91457,-0.00669c-0.00715,3.84446 0.00018,7.68821 0.00851,11.52944c2.47816,0.74545 4.98445,1.28844 7.68785,1.27944c0.72012,-0.0024 1.47825,0.21466 2.22183,0.38167c-0.05732,-0.7662 -0.15681,-1.52346 -0.37957,-2.25564zM87.13362,110.25531c-0.1977,-3.21284 -0.29781,-6.45573 -0.93089,-9.61178c-0.89989,-4.61802 -0.78718,-9.16152 -1.30308,-13.84138c-0.1825,-1.6555 -0.37079,-3.30257 -0.55542,-4.94486c-0.08488,0.95382 -0.16475,1.90852 -0.23839,2.86447c-0.93156,12.09176 -1.2245,24.24351 -1.30447,36.39752c2.11627,0.00472 4.23248,0.01596 6.34854,0.03906c-0.86007,-3.60058 -1.78875,-7.20543 -2.01628,-10.90303zM77.6348,129.41c-0.26415,0.18566 -0.57488,0.21142 -0.90471,0.17964c0.06936,0.20025 0.11397,0.41204 0.1302,0.63174c0.52378,0.45825 0.8546,1.13161 0.8546,1.88224c0,1.38071 -1.11929,2.5 -2.5,2.5l-2.54317,0c-0.76321,-0.02505 -1.55046,-0.1117 -2.33835,-0.26337c2.17336,0.72422 4.34652,1.44902 6.51981,2.17345c0.31162,0.10387 0.62165,0.20888 0.93039,0.31436c-0.0047,-2.50617 -0.00809,-5.01326 -0.00652,-7.5208c-0.04692,0.0348 -0.09433,0.06906 -0.14225,0.10274zM100.75665,127.29061c0.43472,-1.55978 0.44968,-4.45927 -1.35823,-4.58741l-1.00192,0.01509c0.47044,2.40413 0.94198,4.80549 1.42363,7.20385c0.35045,-0.86746 0.68773,-1.73887 0.93652,-2.63153zM66.11269,132.81503c-1.16886,-0.66342 -2.22265,-1.51994 -3.05725,-2.58483c-0.36486,-0.46554 -0.66577,-1.01927 -0.92161,-1.62855c-0.49382,-0.2663 -0.97079,-0.55298 -1.41226,-0.86503c-0.12201,0.01429 -0.24377,0.03178 -0.36524,0.05292c-1.09322,0.19024 -2.28841,0.73671 -3.35573,0.60099c0.61987,0.2386 1.42496,0.57471 1.80708,0.79073c2.49598,1.41104 4.80203,2.60461 7.30503,3.63376z" fill="#0072ff" stroke="none" stroke-width="0.5" stroke-linecap="butt"/></g></g></svg>