<svg version="1.1" xmlns="http://www.w3.org/2000/svg" xmlns:xlink="http://www.w3.org/1999/xlink" width="649.85" height="554.6" viewBox="0,0,649.85,554.6"><g transform="translate(145.5,61.1)"><g stroke-miterlimit="10"><path d="M-20.77719,367.5v-428h34v428z" fill="#000000" stroke="#001026" stroke-width="1.2"/><path d="M-145.5,493.5v-144h634v144z" fill="#000000" stroke="none" stroke-width="NaN"/><path d="M-8.77719,397.5v-60h185v60z" fill="#000000" stroke="#001026" stroke-width="1.2"/><path d="M156.53807,394.12724l20.47866,-56.39703l173.89083,63.14254l-20.47866,56.39703z" fill="#000000" stroke="#001026" stroke-width="1.2"/><path d="M0.75,269.25v-22h395v22z" fill="#000000" stroke="#001026" stroke-width="1.2"/><path d="M466.75,361.25v-373h37v373z" fill="#000000" stroke="#001026" stroke-width="1.2"/><path d="M74.75,172.25v-22h395v22z" fill="#000000" stroke="#001026" stroke-width="1.2"/><path d="M73.85273,172.87684v-23.22642h4.04612v23.22642z" fill="#ff0000" stroke="none" stroke-width="0"/><path d="M73.9193,172.98322v-5.71191h396.4072v5.71191z" fill="#ff0000" stroke="none" stroke-width="0"/><path d="M334.16304,253.37978v-10.52174h24.3913v10.52174z" fill="#ff0000" stroke="none" stroke-width="0"/><path d="M197.11956,252.16239v-10.52174h24.3913v10.52174z" fill="#ff0000" stroke="none" stroke-width="0"/><path d="M99.83533,255.1917l-3.51142,-9.91851l22.99292,-8.14011l3.51142,9.91851z" fill="#ff0000" stroke="none" stroke-width="0"/><path d="M73.86511,155.34313v-5.71191h396.4072v5.71191z" fill="#ff0000" stroke="none" stroke-width="0"/><path d="M90.02305,159.00845v-11.25402h36.44159v11.25402z" fill="#000000" stroke="none" stroke-width="0"/><path d="M185.95016,158.47255v-12.32583h38.58521v12.32583z" fill="#000000" stroke="none" stroke-width="0"/><path d="M270.62326,161.15208v-69.13183h42.87246v69.13183z" fill="#000000" stroke="none" stroke-width="0"/><path d="M357.43998,157.93664v-10.71812h62.70097v10.71812z" fill="#000000" stroke="none" stroke-width="0"/><path d="M181.12701,48.61188v-14.46946h235.26259v14.46946z" fill="#000000" stroke="none" stroke-width="0"/><path d="M104.48946,53.84456l78.36095,-19.86107l3.50489,13.8284l-78.36095,19.86107z" fill="#000000" stroke="none" stroke-width="0"/><path d="M319.03161,178.33428v-12.32583c0,0 12.26193,0 19.71839,0c9.77278,0 33.87218,0 33.87218,0v12.32583z" fill="#000000" stroke="none" stroke-width="0"/><path d="M78.05091,178.65476v-12.32583h59.48553v12.32583z" fill="#000000" stroke="none" stroke-width="0"/><path d="M182.19346,178.83161v-12.32583h59.48554v12.32583z" fill="#000000" stroke="none" stroke-width="0"/></g></g></svg>