<svg version="1.1" xmlns="http://www.w3.org/2000/svg" xmlns:xlink="http://www.w3.org/1999/xlink" width="320.78329" height="113.42622" viewBox="0,0,320.78329,113.42622"><defs><radialGradient cx="416.27667" cy="178.50097" r="21.05931" gradientUnits="userSpaceOnUse" id="color-1"><stop offset="0" stop-color="#fdfdfd"/><stop offset="1" stop-color="#fff9b9"/></radialGradient><radialGradient cx="416.27667" cy="178.50097" r="21.05931" gradientUnits="userSpaceOnUse" id="color-2"><stop offset="0" stop-color="#ffffff"/><stop offset="1" stop-color="#ffea00"/></radialGradient><radialGradient cx="413.33817" cy="157.83814" r="20.69444" gradientUnits="userSpaceOnUse" id="color-3"><stop offset="0" stop-color="#ffffff"/><stop offset="1" stop-color="#ffea00"/></radialGradient><radialGradient cx="413.75495" cy="157.44544" r="24.71154" gradientUnits="userSpaceOnUse" id="color-4"><stop offset="0" stop-color="#ffffff"/><stop offset="1" stop-color="#ffea00"/></radialGradient><radialGradient cx="411.77276" cy="145.20769" r="15.58892" gradientUnits="userSpaceOnUse" id="color-5"><stop offset="0" stop-color="#fdfdfd"/><stop offset="1" stop-color="#fff9b9"/></radialGradient><radialGradient cx="411.77276" cy="145.20769" r="15.58892" gradientUnits="userSpaceOnUse" id="color-6"><stop offset="0" stop-color="#ffffff"/><stop offset="1" stop-color="#ffea00"/></radialGradient><radialGradient cx="409.59756" cy="129.91227" r="15.31883" gradientUnits="userSpaceOnUse" id="color-7"><stop offset="0" stop-color="#ffffff"/><stop offset="1" stop-color="#ffea00"/></radialGradient><radialGradient cx="412.18084" cy="148.69325" r="13.84556" gradientUnits="userSpaceOnUse" id="color-8"><stop offset="0" stop-color="#ffffff"/><stop offset="1" stop-color="#ffea00"/></radialGradient><radialGradient cx="425.31351" cy="187.46247" r="10.96566" gradientUnits="userSpaceOnUse" id="color-9"><stop offset="0" stop-color="#ffffff"/><stop offset="1" stop-color="#ffea00"/></radialGradient><radialGradient cx="408.50635" cy="192.25914" r="8.54686" gradientUnits="userSpaceOnUse" id="color-10"><stop offset="0" stop-color="#ffffff"/><stop offset="1" stop-color="#ffea00"/></radialGradient><radialGradient cx="416.80951" cy="191.81799" r="8.10996" gradientUnits="userSpaceOnUse" id="color-11"><stop offset="0" stop-color="#ffffff"/><stop offset="1" stop-color="#ffea00"/></radialGradient><radialGradient cx="366.62636" cy="166.71217" r="22.74768" gradientUnits="userSpaceOnUse" id="color-12"><stop offset="0" stop-color="#ffea00"/><stop offset="1" stop-color="#ffffff"/></radialGradient><radialGradient cx="368.40716" cy="180.60909" r="22.36875" gradientUnits="userSpaceOnUse" id="color-13"><stop offset="0" stop-color="#ffffff"/><stop offset="1" stop-color="#ffea00"/></radialGradient><radialGradient cx="390.59854" cy="177.70371" r="11.1016" gradientUnits="userSpaceOnUse" id="color-14"><stop offset="0" stop-color="#ffea00"/><stop offset="1" stop-color="#ffffff"/></radialGradient><radialGradient cx="392.37433" cy="194.34389" r="7.90799" gradientUnits="userSpaceOnUse" id="color-15"><stop offset="0" stop-color="#ffea00"/><stop offset="1" stop-color="#ffffff"/></radialGradient><radialGradient cx="392.37433" cy="194.34389" r="7.90799" gradientUnits="userSpaceOnUse" id="color-16"><stop offset="0" stop-color="#ffea00"/><stop offset="1" stop-color="#ffea00"/></radialGradient><radialGradient cx="389.92346" cy="195.51719" r="6.91949" gradientUnits="userSpaceOnUse" id="color-17"><stop offset="0" stop-color="#ffea00"/><stop offset="1" stop-color="#ffffff"/></radialGradient><radialGradient cx="389.92346" cy="195.51719" r="6.91949" gradientUnits="userSpaceOnUse" id="color-18"><stop offset="0" stop-color="#ffea00"/><stop offset="1" stop-color="#ffea00"/></radialGradient><radialGradient cx="388.15057" cy="191.459" r="2.35719" gradientUnits="userSpaceOnUse" id="color-19"><stop offset="0" stop-color="#ffea00"/><stop offset="1" stop-color="#ffffff"/></radialGradient><radialGradient cx="388.15057" cy="191.459" r="2.35719" gradientUnits="userSpaceOnUse" id="color-20"><stop offset="0" stop-color="#ffea00"/><stop offset="1" stop-color="#ffea00"/></radialGradient><radialGradient cx="345.99723" cy="183.79103" r="11.17764" gradientUnits="userSpaceOnUse" id="color-21"><stop offset="0" stop-color="#ffffff"/><stop offset="1" stop-color="#fff58c"/></radialGradient><radialGradient cx="387.27662" cy="191.80661" r="0.83643" gradientUnits="userSpaceOnUse" id="color-22"><stop offset="0" stop-color="#ffea00"/><stop offset="1" stop-color="#ffffff"/></radialGradient><radialGradient cx="387.27662" cy="191.80661" r="0.83643" gradientUnits="userSpaceOnUse" id="color-23"><stop offset="0" stop-color="#ffea00"/><stop offset="1" stop-color="#ffea00"/></radialGradient><radialGradient cx="385.39706" cy="191.52213" r="2.20511" gradientUnits="userSpaceOnUse" id="color-24"><stop offset="0" stop-color="#ffea00"/><stop offset="1" stop-color="#ffffff"/></radialGradient><radialGradient cx="385.39706" cy="191.52213" r="2.20511" gradientUnits="userSpaceOnUse" id="color-25"><stop offset="0" stop-color="#ffea00"/><stop offset="1" stop-color="#ffea00"/></radialGradient><radialGradient cx="392.56109" cy="195.16274" r="6.61534" gradientUnits="userSpaceOnUse" id="color-26"><stop offset="0" stop-color="#ffea00"/><stop offset="1" stop-color="#ffffff"/></radialGradient><radialGradient cx="392.56109" cy="195.16274" r="6.61534" gradientUnits="userSpaceOnUse" id="color-27"><stop offset="0" stop-color="#ffea00"/><stop offset="1" stop-color="#ffea00"/></radialGradient><radialGradient cx="390.49031" cy="194.59707" r="5.62684" gradientUnits="userSpaceOnUse" id="color-28"><stop offset="0" stop-color="#ffea00"/><stop offset="1" stop-color="#ffffff"/></radialGradient><radialGradient cx="390.49031" cy="194.59707" r="5.62684" gradientUnits="userSpaceOnUse" id="color-29"><stop offset="0" stop-color="#ffea00"/><stop offset="1" stop-color="#ffea00"/></radialGradient><radialGradient cx="391.24215" cy="199.47084" r="2.66219" gradientUnits="userSpaceOnUse" id="color-30"><stop offset="0" stop-color="#ffea00"/><stop offset="1" stop-color="#ffffff"/></radialGradient><radialGradient cx="391.24215" cy="199.47084" r="2.66219" gradientUnits="userSpaceOnUse" id="color-31"><stop offset="0" stop-color="#ffea00"/><stop offset="1" stop-color="#ffea00"/></radialGradient><radialGradient cx="387.6912" cy="192.51812" r="1.34469" gradientUnits="userSpaceOnUse" id="color-32"><stop offset="0" stop-color="#ffea00"/><stop offset="1" stop-color="#ffffff"/></radialGradient><radialGradient cx="387.6912" cy="192.51812" r="1.34469" gradientUnits="userSpaceOnUse" id="color-33"><stop offset="0" stop-color="#ffea00"/><stop offset="1" stop-color="#ffea00"/></radialGradient><radialGradient cx="385.41549" cy="191.20873" r="1.92097" gradientUnits="userSpaceOnUse" id="color-34"><stop offset="0" stop-color="#ffea00"/><stop offset="1" stop-color="#ffffff"/></radialGradient><radialGradient cx="385.41549" cy="191.20873" r="1.92097" gradientUnits="userSpaceOnUse" id="color-35"><stop offset="0" stop-color="#ffea00"/><stop offset="1" stop-color="#ffea00"/></radialGradient><radialGradient cx="385.2862" cy="193.57391" r="0.41453" gradientUnits="userSpaceOnUse" id="color-36"><stop offset="0" stop-color="#ffea00"/><stop offset="1" stop-color="#ffffff"/></radialGradient><radialGradient cx="385.2862" cy="193.57391" r="0.41453" gradientUnits="userSpaceOnUse" id="color-37"><stop offset="0" stop-color="#ffea00"/><stop offset="1" stop-color="#ffea00"/></radialGradient><radialGradient cx="387.0701" cy="189.73663" r="0.93147" gradientUnits="userSpaceOnUse" id="color-38"><stop offset="0" stop-color="#ffea00"/><stop offset="1" stop-color="#ffffff"/></radialGradient><radialGradient cx="387.0701" cy="189.73663" r="0.93147" gradientUnits="userSpaceOnUse" id="color-39"><stop offset="0" stop-color="#ffea00"/><stop offset="1" stop-color="#ffea00"/></radialGradient><radialGradient cx="346.06247" cy="183.70555" r="10.64537" gradientUnits="userSpaceOnUse" id="color-40"><stop offset="0" stop-color="#ffea00"/><stop offset="1" stop-color="#ffffff"/></radialGradient><radialGradient cx="324.00223" cy="190.61371" r="20.69161" gradientUnits="userSpaceOnUse" id="color-41"><stop offset="0" stop-color="#ffea00"/><stop offset="1" stop-color="#ffffff"/></radialGradient><radialGradient cx="324.03404" cy="190.68535" r="20.69161" gradientUnits="userSpaceOnUse" id="color-42"><stop offset="0" stop-color="#ffffff"/><stop offset="1" stop-color="#ffea00"/></radialGradient><radialGradient cx="288.64866" cy="190.61715" r="10.92639" gradientUnits="userSpaceOnUse" id="color-43"><stop offset="0" stop-color="#000000"/><stop offset="1" stop-color="#ffad00"/></radialGradient><radialGradient cx="299.43784" cy="189.95638" r="10.72674" gradientUnits="userSpaceOnUse" id="color-44"><stop offset="0" stop-color="#000000"/><stop offset="1" stop-color="#ffad00"/></radialGradient></defs><g transform="translate(-160.22972,-123.96952)"><g stroke-miterlimit="10"><path d="M201.6178,222.17316l-1.80344,-36.54443l38.62534,-1.70661c0,0 0.75541,23.09357 1.09327,29.96858c0.09683,1.9704 0.24085,6.33909 -0.33066,7.29194c-0.91745,1.52963 -2.82085,2.31678 -4.05683,2.6829c-0.47828,0.14168 -4.70156,1.80044 -7.30584,2.21877c-0.79494,0.12769 -6.49311,0.82059 -9.40383,0.87243c-0.64654,0.01152 -5.56852,0.15238 -8.3698,-0.42443c-0.83857,-0.17268 -3.90582,-1.52522 -4.95314,-1.82604c-1.51754,-0.43588 -3.28169,-1.97619 -3.28169,-1.97619" fill="#ffffff" stroke="#000000" stroke-width="2.5" stroke-linecap="round"/><path d="M235.8065,206.57318l-0.34964,-7.91349" fill="none" stroke="#000000" stroke-width="2.5" stroke-linecap="round"/><path d="M239.7809,184.05165c0.1839,4.16238 -8.92319,7.94562 -20.34127,8.45011c-11.41809,0.50449 -20.82336,-2.46081 -21.00727,-6.62319c-0.1839,-4.16238 8.92319,-7.94563 20.34128,-8.45012c11.41808,-0.50449 20.82335,2.46082 21.00727,6.62319z" fill="#000000" stroke="none" stroke-width="0" stroke-linecap="butt"/><path d="M437.32653,191.73789c0,0 -1.4474,1.84114 -2.85759,2.55126c-0.97324,0.49009 -3.73594,2.38873 -4.52786,2.71413c-2.64543,1.08702 -7.50793,1.86267 -8.14537,1.97143c-2.86971,0.48962 -8.59743,0.86701 -9.40226,0.88917c-2.63666,0.0726 -7.09454,-0.77299 -7.5908,-0.82338c-1.28248,-0.13022 -3.29895,-0.55019 -4.48451,-1.88283c-0.73852,-0.83014 -1.40834,-5.14957 -1.67912,-7.10369c-0.94479,-6.81815 -4.4913,-29.65028 -4.4913,-29.65028l38.27036,-5.49632l5.01472,36.24363" fill="url(#color-1)" stroke="url(#color-2)" stroke-width="2.5" stroke-linecap="round"/><path d="M399.41066,171.8421l1.12607,7.84076" fill="none" stroke="#ffea00" stroke-width="2.5" stroke-linecap="round"/><path d="M412.26571,150.37075c11.31315,-1.62477 20.96441,0.40135 21.55671,4.52548c0.5923,4.12411 -8.09865,8.78452 -19.41181,10.40929c-11.31315,1.62477 -20.96441,-0.40134 -21.55671,-4.52547c-0.5923,-4.12412 8.09867,-8.78453 19.41181,-10.4093z" fill="url(#color-3)" stroke="none" stroke-width="0" stroke-linecap="butt"/><path d="M412.47432,148.52853c13.50919,-1.94017 25.03392,0.47925 25.7412,5.40394c0.70727,4.92467 -9.67073,10.48973 -23.17994,12.4299c-13.50919,1.94017 -25.03393,-0.47924 -25.7412,-5.40392c-0.70728,-4.92468 9.67074,-10.48974 23.17994,-12.4299z" fill="url(#color-4)" stroke="none" stroke-width="0" stroke-linecap="butt"/><path d="M427.3547,155.00617c0,0 -1.07143,1.36288 -2.11531,1.88854c-0.72043,0.36278 -2.76549,1.76823 -3.35169,2.00911c-1.95825,0.80465 -5.55766,1.37882 -6.02953,1.45933c-2.12427,0.36244 -6.36416,0.64179 -6.95992,0.6582c-1.95176,0.05373 -5.25165,-0.57219 -5.619,-0.60949c-0.94935,-0.0964 -2.44201,-0.40729 -3.31961,-1.39375c-0.54668,-0.61451 -1.04252,-3.81191 -1.24295,-5.25843c-0.69937,-5.04706 -3.32463,-21.94829 -3.32463,-21.94829l28.32921,-4.06859l3.71209,26.82895" fill="url(#color-5)" stroke="url(#color-6)" stroke-width="2.5" stroke-linecap="round"/><path d="M399.28788,140.27855l0.83356,5.80403" fill="none" stroke="#ffea00" stroke-width="2.5" stroke-linecap="round"/><path d="M408.80369,124.38461c8.37443,-1.20272 15.51867,0.29709 15.95712,3.34993c0.43845,3.05284 -5.99494,6.50265 -14.36938,7.70537c-8.37443,1.20272 -15.51868,-0.2971 -15.95712,-3.34993c-0.43845,-3.05284 5.99494,-6.50265 14.36938,-7.70537z" fill="url(#color-7)" stroke="none" stroke-width="0" stroke-linecap="butt"/><path d="M426.45921,150.71776c0,0 -8.70091,3.45239 -13.28707,4.11103c-4.55018,0.65348 -14.12282,-0.17448 -14.12282,-0.17448l-1.14687,-7.98555c0,0 9.65567,0.37549 14.27666,-0.28817c4.51309,-0.64816 13.13323,-3.64839 13.13323,-3.64839l1.14687,7.98555z" fill="url(#color-8)" stroke="none" stroke-width="0" stroke-linecap="butt"/><path d="M411.50601,156.3068l-0.05192,-0.36148c-0.13313,-0.92695 -0.1962,-1.84236 -0.27482,-2.76231c-1.35749,-0.42991 -2.08761,-1.86278 -2.33747,-4.05223c0.47431,-1.07991 0.96472,-1.99293 1.96979,-2.6927c0.00985,-0.00687 0.01996,-0.01369 0.03028,-0.02049c0.06829,-1.4937 0.17892,-2.98514 0.17018,-4.50636c-0.5166,-0.04951 -0.99471,-0.00798 -1.33632,0.1342c0,0 -0.56889,0.23227 -0.80115,-0.33662c-0.23226,-0.56888 0.33663,-0.80115 0.33663,-0.80115c0.5011,-0.20134 1.11606,-0.26956 1.76115,-0.22075c-0.07542,-1.10038 -0.248,-2.09183 -0.12893,-3.25137c0,0 0.06278,-0.61126 0.67404,-0.54849c0.61126,0.06278 0.54848,0.67403 0.54848,0.67403c-0.12341,1.20178 0.09247,2.19332 0.15123,3.35649c1.98784,0.58455 3.75933,2.16895 2.91417,4.29073c-0.46396,1.16478 -1.39125,1.06557 -2.3314,1.5385c-0.27793,0.13981 -0.53387,0.28309 -0.77118,0.43456c-0.04182,1.33368 -0.02328,2.67405 0.17358,4.04475c0.04314,0.30036 0.07898,0.5994 0.11038,0.89753c0.43226,-0.04047 0.95126,-0.18943 1.58047,-0.45132l-0.10481,-0.00613c0,0 0.36832,-0.49186 0.86017,-0.12354c0.49186,0.36832 0.12354,0.86017 0.12354,0.86017l-0.41438,0.40727c-0.72349,0.2907 -1.36727,0.45325 -1.93683,0.49677c0.06813,0.82063 0.1312,1.63881 0.24967,2.46374l0.05192,0.36148c0,0 0.08735,0.60823 -0.52089,0.69559c-0.60823,0.08735 -0.69559,-0.52089 -0.69559,-0.52089zM410.98588,151.40082c-0.15341,-1.0682 -0.20047,-2.11829 -0.19542,-3.161c-0.26821,0.31157 -0.50881,0.66469 -0.73375,1.07624c0.22662,1.17616 0.4961,2.00117 0.97741,2.44293c-0.01504,-0.11917 -0.03106,-0.23855 -0.04824,-0.35817zM413.98672,144.761c0.48072,-1.23859 -0.52963,-2.13867 -1.74857,-2.57461c-0.00866,1.24903 -0.09091,2.47872 -0.15411,3.70765c0.81848,-0.28898 1.69862,-0.60728 1.90268,-1.13305z" fill="#ffea00" stroke="#ffea00" stroke-width="1.5" stroke-linecap="butt"/><path d="M434.61506,173.77297l-20.01746,25.89991" fill="none" stroke="#ffea00" stroke-width="1.5" stroke-linecap="round"/><path d="M397.37346,183.86897l21.10862,11.44809" fill="none" stroke="#ffea00" stroke-width="1.5" stroke-linecap="round"/><path d="M428.81554,197.26404l-13.04949,0.8567l18.43083,-22.23861l2.7393,15.37174z" fill="url(#color-9)" stroke="#ffea00" stroke-width="1.5" stroke-linecap="butt"/><path d="M415.87031,198.69699l-14.91853,-0.74759l-1.96022,-11.81919l18.61147,9.34676z" fill="url(#color-10)" stroke="#ffea00" stroke-width="1.5" stroke-linecap="butt"/><path d="M398.50499,190.94715c0,0 1.1189,-6.39989 2.33844,-6.56575c1.21305,-0.16496 4.95946,5.5733 4.95946,5.5733" fill="none" stroke="#fff8b1" stroke-width="2.5" stroke-linecap="round"/><path d="M411.98562,182.67899l5.2588,-0.87231" fill="none" stroke="#ffea00" stroke-width="2.5" stroke-linecap="round"/><path d="M414.73794,182.28371l5.59615,12.07128l-1.91417,3.78627l-4.16386,-2.91335l0.58131,-11.43688" fill="url(#color-11)" stroke="#ffea00" stroke-width="2.5" stroke-linecap="round"/><path d="M248.12597,205.08898l-1.84074,-22.34556l29.90833,-2.46372l1.84074,22.34556z" fill="#000000" stroke="none" stroke-width="0" stroke-linecap="butt"/><path d="M282.69996,190.99232c0.51066,6.19916 -1.22912,11.40199 -3.8859,11.62085c-2.65678,0.21886 -5.22451,-4.62914 -5.73516,-10.8283c-0.51066,-6.19916 1.22911,-11.40199 3.88589,-11.62084c2.65678,-0.21886 5.22451,4.62914 5.73516,10.8283z" fill="#737373" stroke="none" stroke-width="0" stroke-linecap="butt"/><path d="M281.77738,190.99143c0.48635,5.90396 -0.8971,10.83651 -3.08999,11.01714c-2.19289,0.18064 -4.36486,-4.45902 -4.8512,-10.36299c-0.48635,-5.90396 0.8971,-10.83651 3.08999,-11.01715c2.19289,-0.18064 4.36485,4.45903 4.8512,10.36299z" fill="#000000" stroke="none" stroke-width="0" stroke-linecap="butt"/><path d="M250.48333,193.72306c0.50719,6.15699 -0.55168,11.2693 -2.36504,11.41868c-1.81335,0.14938 -3.69453,-4.72075 -4.20172,-10.87774c-0.50719,-6.15699 0.55167,-11.26931 2.36503,-11.41868c1.81335,-0.14938 3.69454,4.72075 4.20173,10.87775z" fill="#000000" stroke="none" stroke-width="0" stroke-linecap="butt"/><path d="M249.41638,205.03482l1.42505,13.5665l-2.29073,0.1887l-1.15561,-15.89496" fill="none" stroke="#000000" stroke-width="0.5" stroke-linecap="round"/><path d="M251.82208,204.37539l1.45198,12.02676l-2.13977,2.02128" fill="none" stroke="#000000" stroke-width="0.5" stroke-linecap="round"/><path d="M254.63386,204.91253l0.46721,3.8053l-4.73418,0.38998" fill="none" stroke="#000000" stroke-width="0.5" stroke-linecap="round"/><path d="M255.80525,204.20102l0.49237,4.11073l-1.65471,0.44381" fill="none" stroke="#000000" stroke-width="0.5" stroke-linecap="round"/><path d="M248.51297,218.33187l-1.09446,-13.28623l2.13801,-0.17612l1.09447,13.28623z" fill="#000000" stroke="#000000" stroke-width="0.5" stroke-linecap="butt"/><path d="M249.88916,216.37349l-0.93092,-11.30093l3.05431,-0.2516l0.93092,11.30093z" fill="#000000" stroke="#000000" stroke-width="0.5" stroke-linecap="butt"/><path d="M250.76555,218.28878l-1.41802,-3.51295l2.41147,-1.95192l1.41802,3.51294z" fill="#000000" stroke="#000000" stroke-width="0.5" stroke-linecap="butt"/><path d="M251.95468,208.63714l-0.09534,-1.15741l2.70066,-0.22247l0.09534,1.15741z" fill="#000000" stroke="#000000" stroke-width="0.5" stroke-linecap="butt"/><path d="M254.76275,208.14688l-0.31781,-3.85808l1.22172,-0.10064l0.31781,3.85808z" fill="#000000" stroke="#000000" stroke-width="0.5" stroke-linecap="butt"/><path d="M255.4612,208.62651l-0.0203,-0.06419l0.80229,-0.2538l0.02031,0.06418z" fill="#000000" stroke="#000000" stroke-width="0.5" stroke-linecap="butt"/><path d="M253.37886,204.54757l0.15768,1.44765l-0.27039,-0.01616l-0.26549,-1.82315" fill="none" stroke="#000000" stroke-width="0.5" stroke-linecap="round"/><text transform="translate(246.06754,187.24246) rotate(-4.70877) scale(0.10333,0.1036) skewX(0.00114)" font-size="40" xml:space="preserve" fill="#ffffff" stroke="none" stroke-width="1" stroke-linecap="butt" font-family="Sans Serif" font-weight="normal" text-anchor="start"><tspan x="0" dy="0">marshmallow</tspan><tspan x="0" dy="46.15px"> </tspan></text><text transform="translate(244.8826,193.38897) rotate(-4.70954) scale(0.12835,0.15709) skewX(-0.00134)" font-size="40" xml:space="preserve" fill="#ffffff" stroke="none" stroke-width="1" stroke-linecap="butt" font-family="Sans Serif" font-weight="normal" text-anchor="start"><tspan x="0" dy="0">launcher </tspan></text><text transform="translate(268.20917,189.12597) rotate(-4.70772) scale(0.1373,0.09081) skewX(0.00084)" font-size="40" xml:space="preserve" fill="#ffffff" stroke="none" stroke-width="1" stroke-linecap="butt" font-family="Sans Serif" font-weight="normal" text-anchor="start"><tspan x="0" dy="0">3</tspan><tspan x="0" dy="46.15px">0</tspan><tspan x="0" dy="46.15px">0</tspan><tspan x="0" dy="46.15px">0</tspan></text><text transform="translate(246.09679,200.66268) rotate(-4.70932) scale(0.23773,0.23773)" font-size="40" xml:space="preserve" fill="#ffffff" stroke="none" stroke-width="1" stroke-linecap="butt" font-family="Sans Serif" font-weight="normal" text-anchor="start"><tspan x="0" dy="0">yeah</tspan></text><path d="M229.33636,225.93906l11.42973,7.46116" fill="none" stroke="#000000" stroke-width="2" stroke-linecap="round"/><path d="M223.66799,236.39573l-10.30798,-8.56549" fill="none" stroke="#000000" stroke-width="2" stroke-linecap="round"/><path d="M200.20985,206.72528l-10.54917,16.88711" fill="none" stroke="#000000" stroke-width="2" stroke-linecap="round"/><path d="M254.35182,207.08828l-1.67987,0.13838l-13.26553,-4.06299" fill="none" stroke="#000000" stroke-width="2" stroke-linecap="round"/><path d="M236.98228,214.3362c-0.69316,0.22423 -1.46109,-0.23083 -1.71521,-1.0164c-0.25413,-0.78557 0.10178,-1.60419 0.79493,-1.82842c0.69316,-0.22423 1.46109,0.23083 1.71521,1.0164c0.25413,0.78557 -0.10178,1.60419 -0.79493,1.82842z" fill="#ff0000" stroke="#000000" stroke-width="1" stroke-linecap="butt"/><path d="M403.38481,164.91704l-5.96679,5.20989" fill="none" stroke="#ffea00" stroke-width="2.5" stroke-linecap="round"/><path d="M344.50386,172.88628l4.92721,-7.06468l35.08472,-4.7147l5.06954,5.65601z" fill="url(#color-12)" stroke="none" stroke-width="0" stroke-linecap="butt"/><path d="M347.7195,194.61518l-2.96362,-22.0539l44.33895,-5.95829l2.96362,22.0539z" fill="url(#color-13)" stroke="none" stroke-width="0" stroke-linecap="butt"/><path d="M389.12,166.70101c1.78969,-0.2405 3.90249,4.49061 4.71907,10.56724c0.81658,6.07663 0.02771,11.19767 -1.76197,11.43817c-1.78969,0.2405 -3.90249,-4.49061 -4.71907,-10.56724c-0.81658,-6.07663 -0.02771,-11.19767 1.76197,-11.43817z" fill="url(#color-14)" stroke="none" stroke-width="0" stroke-linecap="butt"/><path d="M392.30081,186.3747l2.25715,15.65483l-2.26083,0.30381l-1.50117,-13.45476" fill="url(#color-15)" stroke="url(#color-16)" stroke-width="0.5" stroke-linecap="round"/><path d="M391.97543,202.22312l-2.50388,-1.50485l-1.1479,-11.9678" fill="url(#color-17)" stroke="url(#color-18)" stroke-width="0.5" stroke-linecap="round"/><path d="M390.73993,193.02909l-4.67238,0.62788l-0.35563,-3.7883" fill="url(#color-19)" stroke="url(#color-20)" stroke-width="0.5" stroke-linecap="round"/><path d="M344.50856,172.71297c2.62211,-0.35236 5.41425,4.32181 6.23642,10.44006c0.82217,6.11825 -0.63696,11.36371 -3.25906,11.71607c-2.62211,0.35236 -5.41425,-4.32181 -6.23642,-10.44006c-0.82217,-6.11825 0.63696,-11.36371 3.25906,-11.71607z" fill="url(#color-21)" stroke="none" stroke-width="0" stroke-linecap="butt"/><path d="M388.10559,191.69521l-1.65794,0.2228" fill="url(#color-22)" stroke="url(#color-23)" stroke-width="0.5" stroke-linecap="round"/><path d="M386.51972,193.59619l-1.69845,-0.07865l-0.39614,-4.08975" fill="url(#color-24)" stroke="url(#color-25)" stroke-width="0.5" stroke-linecap="round"/><path d="M392.38709,201.86091l-1.7621,-13.11281l2.11011,-0.28356l1.7621,13.11281z" fill="url(#color-26)" stroke="url(#color-27)" stroke-width="0.5" stroke-linecap="butt"/><path d="M389.73249,200.37632l-1.4988,-11.15343l3.01444,-0.40508l1.4988,11.15343z" fill="url(#color-28)" stroke="url(#color-29)" stroke-width="0.5" stroke-linecap="butt"/><path d="M389.55175,200.63435l0.62824,-3.70691l2.75254,1.37987l-0.62824,3.70691z" fill="url(#color-30)" stroke="url(#color-31)" stroke-width="0.5" stroke-linecap="butt"/><path d="M386.43525,193.26836l-0.1535,-1.1423l2.6654,-0.35818l0.1535,1.1423z" fill="url(#color-32)" stroke="url(#color-33)" stroke-width="0.5" stroke-linecap="butt"/><path d="M385.06845,193.19359l-0.51168,-3.80772l1.20578,-0.16204l0.51168,3.80772z" fill="url(#color-34)" stroke="url(#color-35)" stroke-width="0.5" stroke-linecap="butt"/><path d="M384.86732,193.56939l0.00605,-0.06653l0.83171,0.07557l-0.00605,0.06653z" fill="url(#color-36)" stroke="url(#color-37)" stroke-width="0.5" stroke-linecap="butt"/><path d="M387.13445,188.78813l0.13001,1.82385l-0.2587,0.07312l-0.15473,-1.43692" fill="url(#color-38)" stroke="url(#color-39)" stroke-width="0.5" stroke-linecap="round"/><text transform="translate(385.47355,164.49622) rotate(172.34582) scale(0.09659,-0.10281) skewX(0.00103)" font-size="40" xml:space="preserve" fill="#ffffff" stroke="none" stroke-width="1" stroke-linecap="butt" font-family="Sans Serif" font-weight="normal" text-anchor="start"><tspan x="0" dy="0">marshmallow thing</tspan><tspan x="0" dy="46.15px"> </tspan></text><text transform="translate(386.18116,168.88563) rotate(172.34604) scale(0.10648,-0.10727) skewX(0.00082)" font-size="40" xml:space="preserve" fill="#ffffff" stroke="none" stroke-width="1" stroke-linecap="butt" font-family="Sans Serif" font-weight="normal" text-anchor="start"><tspan x="0" dy="0">launcher </tspan></text><text transform="translate(367.06956,172.2395) rotate(172.34608) scale(0.19809,-0.13917) skewX(-0.00005)" font-size="40" xml:space="preserve" fill="#ffffff" stroke="none" stroke-width="1" stroke-linecap="butt" font-family="Sans Serif" font-weight="normal" text-anchor="start"><tspan x="0" dy="0">4000</tspan></text><text transform="translate(387.17364,173.93447) rotate(172.34703) scale(0.14426,-0.149) skewX(-0.00005)" font-size="40" xml:space="preserve" fill="#ffffff" stroke="none" stroke-width="1" stroke-linecap="butt" font-family="Sans Serif" font-weight="normal" text-anchor="start"><tspan x="0" dy="0">yippee yeah</tspan></text><path d="M344.64468,173.155c2.16427,-0.29083 4.55354,4.19703 5.33656,10.02393c0.78302,5.8269 -0.33671,10.78631 -2.50098,11.07715c-2.16427,0.29083 -4.55354,-4.19703 -5.33656,-10.02393c-0.78302,-5.8269 0.33671,-10.78631 2.50098,-11.07715z" fill="url(#color-40)" stroke="none" stroke-width="0" stroke-linecap="butt"/><text transform="translate(388.1222,179.95748) rotate(172.3466) scale(0.06981,-0.13884) skewX(-0.00051)" font-size="40" xml:space="preserve" fill="#ffffff" stroke="none" stroke-width="1" stroke-linecap="butt" font-family="Sans Serif" font-weight="normal" text-anchor="start"><tspan x="0" dy="0">lorem ipsum dolor sit amet, </tspan><tspan x="0" dy="46.15px">consectetur adipiscing elit</tspan></text><path d="M342.98806,177.3834c0,0 0.54196,1.0407 1.06295,1.95214c1.09531,2.25139 4.47573,9.08792 4.47573,9.08792l-37.69316,17.08495l-4.70524,-11.21553z" fill="url(#color-41)" stroke="url(#color-42)" stroke-width="2.5" stroke-linecap="round"/><path d="M279.99513,181.23147l18.92309,-1.26746l1.23623,20.00242c0,0 -11.96159,0.6018 -15.52155,0.83952c-1.0203,0.06813 -3.2831,0.18255 -3.78213,-0.10496c-0.8011,-0.46155 -1.22638,-1.44083 -1.4274,-2.07806c-0.07778,-0.24658 -0.97592,-2.42024 -1.21644,-3.76613c-0.07342,-0.41082 -0.48442,-3.35765 -0.53779,-4.86568c-0.01186,-0.33498 -0.12969,-2.88455 0.14374,-4.3416c0.08185,-0.43618 0.75488,-2.03812 0.90125,-2.58364c0.21207,-0.79045 0.99429,-1.71876 0.99429,-1.71876" fill="#ffffff" stroke="url(#color-43)" stroke-width="2.5" stroke-linecap="round"/><path d="M300.09952,200.66271c-2.15552,0.13322 -4.19916,-4.55216 -4.5646,-10.4651c-0.36544,-5.91294 1.0857,-10.81432 3.24121,-10.94754c2.15552,-0.13322 4.19916,4.55217 4.5646,10.46512c0.36544,5.91293 -1.0857,10.81433 -3.24122,10.94755z" fill="url(#color-44)" stroke="none" stroke-width="0" stroke-linecap="butt"/><path d="M239.00956,188.90719c0.1839,4.16238 -6.60971,7.30416 -18.02779,7.80865c-11.41809,0.50449 -20.82336,-2.46081 -21.00727,-6.62319c-0.1839,-4.16238 8.92319,-7.94563 20.34128,-8.45012c11.41808,-0.50449 18.50987,3.10227 18.69378,7.26465z" fill-opacity="0.8" fill="#000000" stroke="none" stroke-width="0" stroke-linecap="butt"/><path d="M239.11892,192.89571c0.1839,4.16238 -6.60971,7.30416 -18.02779,7.80865c-11.41809,0.50449 -20.82336,-2.46081 -21.00727,-6.62319c-0.08904,-2.01535 -1.74411,-8.01092 1.73079,-9.51938c3.70193,-1.60701 12.72084,1.32949 18.61049,1.06926c5.37245,-0.23737 12.95026,-3.4312 16.13819,-2.21858c3.5874,1.36456 2.45822,7.27934 2.5556,9.48323z" fill-opacity="0.58039" fill="#000000" stroke="none" stroke-width="0" stroke-linecap="butt"/><text transform="translate(160.84451,194.75485) scale(1.22957,1.22957)" font-size="40" xml:space="preserve" fill="#000000" stroke="#ffffff" stroke-width="1" stroke-linecap="butt" font-family="Sans Serif" font-weight="400" text-anchor="start"><tspan x="0" dy="0">coolguygame</tspan></text><text transform="translate(164.98032,225.78865) scale(0.60843,0.60843)" font-size="40" xml:space="preserve" fill="#000000" stroke="#ffffff" stroke-width="1" stroke-linecap="butt" font-family="Sans Serif" font-weight="400" text-anchor="start"><tspan x="0" dy="0">a cool game!</tspan></text></g></g></svg>