<svg version="1.1" xmlns="http://www.w3.org/2000/svg" xmlns:xlink="http://www.w3.org/1999/xlink" width="634" height="554.6" viewBox="0,0,634,554.6"><g transform="translate(145.5,61.1)"><g stroke-miterlimit="10"><path d="M-29.7862,367.5v-428h34v105.35023c-0.9697,2.33301 -1.78618,4.81551 -2.1758,7.27698c-1.6437,2.49487 -3.73346,7.50507 1.27675,12.51528c0.16255,0.16255 0.3251,0.31762 0.48756,0.46548c0.01779,0.15702 0.03287,0.29037 0.04441,0.39658c0.16434,1.5131 0.27537,3.16608 0.3671,4.90848v297.08697z" fill="#000000" stroke="#001026" stroke-width="1.2" stroke-linecap="butt"/><path d="M-145.5,493.5v-144h634v144z" fill="#000000" stroke="none" stroke-width="NaN" stroke-linecap="butt"/><path d="M363.36492,266.17224c0.07711,-4.5904 0.447,-9.36169 0.3929,-14.07279c-0.42129,-0.52643 -0.55731,-1.10464 -0.55731,-1.10464l-0.21388,-1.1474c-0.06049,-2.7849 -0.21134,-5.5643 -0.41683,-8.34064c-0.13197,-0.52697 -0.2774,-1.05056 -0.43746,-1.57037c0,0 -0.31582,-1.03584 0.14999,-1.95189c-0.84056,-9.50411 -2.14531,-18.98431 -2.47858,-28.53852c-0.1748,-7.85573 -0.15266,-15.72542 -0.42413,-23.57984c-0.43065,-2.10616 -0.82061,-4.21856 -1.10419,-6.3496c-0.70807,-5.32083 -0.7998,-10.52433 -0.7998,-15.87983c0.00035,-1.66989 0.0601,-3.36546 0.21746,-5.0532c0.01241,-2.52818 0.03677,-5.05564 0.03677,-7.57879c0,0 0,-2.5 2.5,-2.5c0.01075,0 0.02145,0.00005 0.03211,0.00014c0.77899,-1.62466 1.76201,-3.16016 2.99648,-4.56488c3.62734,-4.12758 10.41108,-3.7894 15.38279,-4.43508c11.76506,-1.52794 23.78003,-0.79824 35.6359,-0.79824c15.31747,0 30.77569,1.03948 46.0784,0.22481c7.25609,-0.38629 14.06855,-1.9369 21.38554,-1.43038l4.32847,0.68095c0,0 2.46941,0.38988 2.07954,2.85929l-0.00001,0.00002c-0.38988,2.46941 -2.85929,2.07954 -2.85929,2.07954l-4.11111,-0.65151c-7.01565,-0.48161 -13.61855,1.0811 -20.58956,1.45665c-15.37959,0.82853 -30.91737,-0.21935 -46.31198,-0.21935c-11.63527,0 -23.44445,-0.74298 -34.98934,0.75626c-3.19416,0.4148 -10.0643,0.05966 -12.37868,2.89359c-2.69117,3.2953 -3.80272,7.29087 -4.2161,11.39609c-0.01775,3.95354 -0.0036,7.90845 0.18159,11.85136c0.20003,4.25904 1.21799,8.381 1.40788,12.65051c0.03165,0.71156 0.0603,1.42328 0.08634,2.13516c0.96535,4.69088 2.12992,9.35439 2.74974,14.12267c0.60444,4.64999 0.22244,9.29182 0.67441,13.94959c0.65619,6.76224 2.21757,13.79555 4.36314,20.23649c2.20219,9.81922 0.98178,18.22963 -1.60658,27.64822c0.16671,1.78089 0.31469,3.55965 0.43273,5.33542l0.0388,2.80528c0,0 0.03379,2.49977 -2.46598,2.53357c-0.43912,0.00594 -0.80214,-0.06631 -1.10226,-0.18945c-0.55243,1.48276 -1.18947,2.92375 -1.96192,4.28387c-3.2799,5.77525 -9.54857,10.2298 -14.63054,14.29536c-20.303,15.6621 -47.44888,20.52639 -71.77776,26.24469c-18.95048,3.35104 -36.59479,-0.048 -55.19643,-3.88611c-5.06404,-1.04487 -10.19968,-1.10384 -15.29799,-1.86348c-5.3256,-0.79351 -10.51485,-2.33594 -15.62749,-3.98414c-10.66394,-3.55447 -21.40963,-7.38026 -31.88501,-11.48211c-6.80691,-2.66538 -13.13682,-6.95608 -20.19456,-8.9153c-5.99207,-1.66339 -12.70527,-1.89887 -18.89856,-1.91619c-1.16717,0.19109 -5.60665,0.82056 -6.90632,1.3723c-6.98643,2.96592 -8.06694,12.32984 -10.11235,18.81156c-2.97811,9.4374 -8.0942,19.31412 -9.23419,29.22032c-0.54573,4.74222 1.11325,9.74378 1.34314,14.49952c0,0 0.11706,2.49726 -2.38019,2.61432c-2.49726,0.11706 -2.61432,-2.38019 -2.61432,-2.38019c-0.23134,-5.10718 -1.86592,-10.15833 -1.31832,-15.28331c0.44987,-4.21035 2.25063,-9.02862 3.58034,-13.0198c2.29883,-6.90002 4.68758,-13.76227 6.96535,-20.67265c1.72793,-5.24224 2.86187,-12.02806 7.32933,-15.69024c3.92462,-3.21719 8.15968,-3.68598 12.94606,-4.4557c6.78027,-0.01555 14.07072,0.26781 20.63391,2.08125c7.2469,2.00235 13.68883,6.34347 20.67043,9.0731c10.39654,4.0648 21.05176,7.86494 31.6333,11.39204c4.83876,1.56176 9.75703,3.04112 14.7989,3.78869c5.19245,0.7699 10.41313,0.85198 15.57298,1.91191c17.91188,3.67943 34.93188,7.10031 53.18455,3.88672c23.48967,-5.5334 50.08811,-10.10193 69.6949,-25.27789c4.50632,-3.60446 10.45924,-7.64768 13.3531,-12.79839c0.9513,-1.69318 1.67041,-3.5213 2.27831,-5.39587c-0.44003,-0.79846 -0.2276,-1.6402 -0.03656,-2.11349z" fill="#000000" stroke="none" stroke-width="0.5" stroke-linecap="butt"/><path d="M-20.41073,88.22005c0.62711,0.01874 1.24425,-0.01769 1.83143,-0.22003c1.51828,-0.52319 2.53538,-2.01596 3.98438,-2.70827c2.52277,-1.20533 5.43708,-1.38914 8.21787,-1.67964c2.56886,-0.26836 5.22018,0.41725 7.74767,-0.11459c3.29718,-0.69381 6.35039,-2.4289 9.68965,-2.87849c2.75834,-0.37138 4.49994,-0.00148 6.30428,-0.10681c1.06967,-0.28797 2.13967,-0.55895 3.21045,-0.80599c0.22751,-0.10293 0.46204,-0.21809 0.70479,-0.34685c0,0 0.92237,-0.46118 1.8785,-0.19876c3.30424,-0.62883 6.61934,-0.97732 9.95846,-0.84206c0.62814,-0.39094 1.30536,-0.43076 1.30536,-0.43076l1.93634,-0.02128c1.14825,0.24966 2.29717,0.52503 3.44424,0.82593c0.73412,-0.62389 1.72508,-0.62389 1.72508,-0.62389c5.38714,0.00583 11.19884,0.66799 16.73466,2.22645c1.73733,-1.27988 4.24572,-1.66675 6.18926,-1.91408c6.49249,-0.82622 11.9405,1.21186 17.06574,5.06864c3.59188,2.70291 7.25801,5.66323 9.49547,9.66329c4.87643,8.71791 5.23547,19.58807 6.05088,29.2788c0.17228,2.61186 0.3203,5.17286 0.62772,7.75792c0.30116,0.42565 0.48083,1.0171 0.34468,1.83416c-0.18438,1.1065 -0.78253,1.63378 -1.386,1.87886c0.24977,0.18382 0.49955,0.36762 0.74939,0.55135c0.77831,-0.03141 1.55913,-0.09881 2.33323,-0.15363c0,0 2.49434,-0.16817 2.66251,2.32617c0.0365,0.54137 -0.05242,0.97317 -0.21404,1.31745c1.15448,0.83269 2.31397,1.65931 3.48133,2.47638c2.74093,1.91848 5.69428,3.67825 8.32457,5.74241c0.50776,0.39847 0.79873,1.07819 1.38044,1.35786c1.66954,0.80267 5.03104,-0.02289 6.8056,0.11564c1.82916,0.14279 3.18407,0.81372 4.97066,0.216c4.40934,-1.47521 6.7277,-5.26211 9.19082,-8.8154c4.53709,-4.04781 9.79811,-9.47407 15.59796,-11.5878c6.23823,-2.27349 13.47772,-0.60493 19.95172,-1.971c3.95394,-0.83431 6.52434,-3.47132 10.28129,-4.7011c4.72117,-1.5454 9.69614,-0.98066 14.56877,-0.79321c3.94785,0.21464 7.80528,0.91886 11.72796,1.22552c2.91877,0.22818 5.8447,-0.37418 8.76534,0.00982c3.84462,0.50547 7.49815,1.74152 11.2889,2.47116c6.95993,1.33963 15.35068,1.61532 22.35298,0.53998c6.66635,-1.02375 12.85571,-3.51642 19.01391,-6.13909c5.39741,-2.55677 10.77522,-5.04018 15.41954,-8.86009c7.57397,-6.22953 13.05434,-14.98744 21.07054,-20.74017c5.20657,-3.73643 11.20204,-5.95281 16.93469,-8.70142c7.12084,-3.41419 13.92021,-6.64634 21.5359,-8.8206c26.29567,-4.97814 55.42136,-4.61969 81.04265,3.26336c0,0 2.38946,0.73518 1.65427,3.12464c-0.73518,2.38946 -3.12464,1.65427 -3.12464,1.65427c-24.75816,-7.6176 -53.00277,-7.98121 -78.41963,-3.17695c-7.2627,2.07651 -13.7402,5.21048 -20.53232,8.46645c-5.44672,2.61102 -11.20402,4.68853 -16.15102,8.23462c-6.86111,4.91816 -12.24906,12.25955 -18.18268,18.17924c-5.45173,5.43892 -12.3319,8.68558 -19.19712,11.93699c-6.57095,2.79873 -13.18339,5.43189 -20.29615,6.51942c-7.55711,1.15547 -16.55087,0.85685 -24.0645,-0.5705c-3.66686,-0.69658 -7.2076,-1.91148 -10.92009,-2.41446c-2.83472,-0.38406 -5.71324,0.22548 -8.5579,0.00982c-3.87854,-0.29404 -7.68938,-1.00774 -11.59162,-1.21735c-4.2054,-0.16165 -8.67286,-0.79072 -12.74849,0.53925c-3.89713,1.27172 -6.63282,3.94001 -10.81759,4.84827c-6.21801,1.34955 -13.4003,-0.32726 -19.35859,1.80439c-4.94718,1.76992 -9.5978,6.76351 -13.49603,10.17594c-2.90843,4.32642 -6.1664,8.63583 -11.46384,10.28348c-3.15895,0.98252 -3.71836,0.23674 -6.80009,-0.00605c-2.73049,-0.21512 -5.90166,0.58467 -8.51887,-0.55062c-0.949,-0.41166 -1.56854,-1.35137 -2.39508,-1.97338c-2.61317,-1.96655 -5.43013,-3.70765 -8.11024,-5.58364c-2.22422,-1.55689 -4.41959,-3.14882 -6.60607,-4.75139c-0.45818,0.57098 -1.16185,0.93653 -1.9509,0.93653l-0.00001,-0.00004c-1.16657,0 -2.14653,-0.79903 -2.42243,-1.87965l-0.02961,-0.10591c-9.02625,-3.20933 -10.32051,-15.21144 -13.94776,-22.94882c-3.5918,-7.66177 -8.04466,-14.90417 -14.45672,-20.48608c-6.30996,-4.81355 -13.84822,-8.40733 -21.54354,-10.77455c-0.89488,0.38133 -1.85116,0.0744 -1.85116,0.0744c-5.85148,-1.88917 -11.66943,-1.46684 -17.43528,-0.19826c-0.83457,0.46855 -1.66105,0.95961 -2.58193,1.18782c-0.9346,0.23161 -1.89193,0.26203 -2.85851,0.21936c-1.86317,0.53858 -3.72021,1.11775 -5.57049,1.68717l0.26165,0.69532c0,0 -1.34513,2.10728 -3.45241,0.76214c-0.96167,-0.61386 -1.20434,-1.38644 -1.18396,-2.04504c-1.70181,0.61073 -3.39701,1.2634 -4.91024,1.56963c-2.35172,0.47592 -5.82632,-0.0714 -8.13959,0.16914c-2.29588,0.23873 -4.73012,0.296 -6.79714,1.32337c-1.54702,0.76891 -2.69266,2.30627 -4.33612,2.83873c-1.22619,0.39728 -2.53659,0.35319 -3.84276,0.3313c-0.17471,0.02327 -0.28533,0.02327 -0.28533,0.02327l-0.00896,-0.02763c-0.46077,-0.00563 -0.92018,-0.00415 -1.37435,0.02484l0.63679,-2.3004l-0.87318,-2.694c0.52639,-0.01348 1.06355,0.03266 1.59928,0.07095l0.02041,-0.07375c0,0 0.32206,0 0.73499,0.11559zM88.71626,129.97012c0.23597,0.38002 0.48484,0.74367 0.74827,1.0874c-0.17692,-0.48287 -0.35541,-0.96485 -0.53492,-1.44624c-0.05684,0.12207 -0.1271,0.24253 -0.21334,0.35884z" fill="#000000" stroke="none" stroke-width="0.5" stroke-linecap="butt"/><path d="M4.25,44.16667l-1.33333,23.66667v-27" fill="none" stroke="#000000" stroke-width="2.5" stroke-linecap="round"/><path d="M0.91667,43.16667l-0.33333,19" fill="none" stroke="#000000" stroke-width="2.5" stroke-linecap="round"/></g></g></svg>