<svg version="1.1" xmlns="http://www.w3.org/2000/svg" xmlns:xlink="http://www.w3.org/1999/xlink" width="634" height="459.85195" viewBox="0,0,634,459.85195"><g transform="translate(145.5,-33.64805)"><g data-paper-data="{&quot;isPaintingLayer&quot;:true}" fill-rule="nonzero" stroke-linejoin="miter" stroke-miterlimit="10" stroke-dasharray="" stroke-dashoffset="0" style="mix-blend-mode: normal"><path d="M-145.5,493.5v-144h634v144z" fill="#000000" stroke="none" stroke-width="NaN" stroke-linecap="butt"/><path d="M184.62351,263.90043l-84.39502,47.85815" fill="none" stroke="#000000" stroke-width="2.5" stroke-linecap="round"/><path d="M302.20718,296.32913l-101.1629,-71.73163" fill="none" stroke="#000000" stroke-width="2.5" stroke-linecap="round"/><path d="M374.06741,215.62003l68.62653,5.10782" fill="none" stroke="#000000" stroke-width="2.5" stroke-linecap="round"/><path d="M130.61126,116.74022l3.8376,89.11263" fill="none" stroke="#000000" stroke-width="2.5" stroke-linecap="round"/><path d="M84.11276,219.04553l-71.95779,38.19772" fill="none" stroke="#000000" stroke-width="2.5" stroke-linecap="round"/><path d="M176.73685,94.79465l134.2547,-17.9884" fill="none" stroke="#000000" stroke-width="2.5" stroke-linecap="round"/><path d="M435.24038,139.31903l-42.64172,-48.41333" fill="none" stroke="#000000" stroke-width="2.5" stroke-linecap="round"/><path d="M102.23171,34.89805l-27.02199,97.39713" fill="none" stroke="#000000" stroke-width="2.5" stroke-linecap="round"/><path d="M361.17258,279.78418l59.85382,31.75748" fill="none" stroke="#000000" stroke-width="2.5" stroke-linecap="round"/><path d="M249.12723,192.50699l11.10461,-63.40363" fill="none" stroke="#000000" stroke-width="2.5" stroke-linecap="round"/><path d="M386.49118,48.59961l-47.63873,18.43259" fill="none" stroke="#000000" stroke-width="2.5" stroke-linecap="round"/><path d="M98.89309,35.63363l46.76664,13.13407" fill="none" stroke="#000000" stroke-width="2.5" stroke-linecap="round"/><path d="M302.18967,138.67014l35.64575,24.98395" fill="none" stroke="#000000" stroke-width="2.5" stroke-linecap="round"/></g></g></svg>