<svg version="1.1" xmlns="http://www.w3.org/2000/svg" xmlns:xlink="http://www.w3.org/1999/xlink" width="61.64213" height="50.51701" viewBox="0,0,61.64213,50.51701"><g transform="translate(-209.73509,-154.80304)"><g data-paper-data="{&quot;isPaintingLayer&quot;:true}" fill-rule="nonzero" stroke-linejoin="miter" stroke-miterlimit="10" stroke-dasharray="" stroke-dashoffset="0" style="mix-blend-mode: normal"><path d="M263.43922,203.26096l-44.65713,0.36115l-0.13838,-47.18996c0,0 28.20092,0.24037 36.60207,0.17415c2.40782,-0.01898 7.74273,0.02514 8.876,0.77003c1.81925,1.19578 2.68345,3.55658 3.06779,5.0823c0.14872,0.59038 1.95917,5.82418 2.33834,9.02117c0.11574,0.97586 0.67411,7.95971 0.59092,11.51198c-0.01848,0.78906 -0.09425,6.79854 -0.93859,10.18572c-0.25276,1.01397 -2.05649,4.68648 -2.47602,5.94858c-0.60789,1.82873 -2.57506,3.90266 -2.57506,3.90266" fill="#ffffff" stroke="#000000" stroke-width="2.5" stroke-linecap="round"/><path d="M218.86912,154.80305c5.08533,-0.01492 9.24095,11.28161 9.28186,25.23149c0.04091,13.94989 -4.0484,25.27058 -9.13372,25.28549c-5.08533,0.01492 -9.24096,-11.2816 -9.28187,-25.23148c-0.04091,-13.94988 4.04839,-25.27058 9.13372,-25.28549z" fill="#000000" stroke="none" stroke-width="0" stroke-linecap="butt"/><path d="M223.29561,156.59941l37.72895,46.65718" fill="#000000" stroke="#ff0000" stroke-width="2.5" stroke-linecap="round"/><path d="M264.62465,157.89544l-39.745,45.64915" fill="#000000" stroke="#ff0000" stroke-width="2.5" stroke-linecap="round"/></g></g></svg>