<svg version="1.1" xmlns="http://www.w3.org/2000/svg" xmlns:xlink="http://www.w3.org/1999/xlink" width="673.5" height="547" viewBox="0,0,673.5,547"><g transform="translate(145.5,53.5)"><g data-paper-data="{&quot;isPaintingLayer&quot;:true}" fill-rule="nonzero" stroke="none" stroke-linecap="butt" stroke-linejoin="miter" stroke-miterlimit="10" stroke-dasharray="" stroke-dashoffset="0" style="mix-blend-mode: normal"><path d="M322.2228,167.5v-11h15v11z" fill="#ff0000" stroke-width="0"/><path d="M241.2228,169.5v-13h15v13z" fill="#ff0000" stroke-width="0"/><path d="M123.2228,170.5v-13h20v13z" fill="#ff0000" stroke-width="0"/><path d="M321.26436,358.5v-15h23v15z" fill="#ff0000" stroke-width="0"/><path d="M210.26436,353.5v-11h24v11z" fill="#ff0000" stroke-width="0"/><path d="M97.26436,355.5v-15h23v15z" fill="#ff0000" stroke-width="0"/><path d="M-145.5,493.5v-144h634v144z" fill="#000000" stroke-width="NaN"/><text transform="translate(90,222.12599) scale(0.5,0.5)" font-size="40" xml:space="preserve" fill="#000000" fill-rule="nonzero" stroke="none" stroke-width="1" stroke-linecap="butt" stroke-linejoin="miter" stroke-miterlimit="10" stroke-dasharray="" stroke-dashoffset="0" font-family="Sans Serif" font-weight="normal" text-anchor="start" style="mix-blend-mode: normal"><tspan x="0" dy="0"> </tspan></text><path d="M450,375.5v-429h78v429z" fill="#000000" stroke-width="0"/><path d="M-77.7772,259.5v-23h467v23z" fill="#000000" stroke-width="0"/><path d="M54.2228,185.5v-25h402v25z" fill="#000000" stroke-width="0"/><path d="M179.72281,81.90845c-5.79899,0 -10.5,-1.43458 -10.5,-3.20423c0,-1.76964 4.70101,-3.20423 10.5,-3.20423c5.79899,0 10.5,1.43458 10.5,3.20423c0,1.76964 -4.70101,3.20423 -10.5,3.20423z" fill="#ff0000" stroke-width="0"/><path d="M258.7228,82.40141c-5.79899,0 -10.5,-1.43458 -10.5,-3.20423c0,-1.76964 4.70101,-3.20423 10.5,-3.20423c5.79899,0 10.5,1.43458 10.5,3.20423c0,1.76964 -4.70101,3.20423 -10.5,3.20423z" fill="#ff0000" stroke-width="0"/><path d="M191.2228,110.5v-19.22535h17v19.22535z" fill="#ff0000" stroke-width="0"/><path d="M-41.77719,92.26056v-12.32394h433v12.32394z" fill="#000000" stroke-width="0"/><path d="M-80.5,393.18911v-422h86v422z" fill="#000000" stroke-width="0"/><path d="M2.5,9.18911v-37h495v37z" fill="#000000" stroke-width="0"/></g></g></svg>