<svg version="1.1" xmlns="http://www.w3.org/2000/svg" xmlns:xlink="http://www.w3.org/1999/xlink" width="634.16874" height="454.6344" viewBox="0,0,634.16874,454.6344"><g transform="translate(145.5,-38.8656)"><g data-paper-data="{&quot;isPaintingLayer&quot;:true}" fill="#000000" fill-rule="nonzero" stroke="none" stroke-linecap="butt" stroke-linejoin="miter" stroke-miterlimit="10" stroke-dasharray="" stroke-dashoffset="0" style="mix-blend-mode: normal"><path d="M-1.04742,171.05258v-85h169v85z" stroke-width="0"/><path d="M214.60413,279.5v-25.64638h170v25.64638z" stroke-width="0"/><path d="M232.81271,261.29142v-25.64638h170v25.64638z" stroke-width="0"/><path d="M254.69211,244.53172v-25.64638h170v25.64638z" stroke-width="0"/><path d="M275.13126,225.98915v-25.64638h170v25.64638z" stroke-width="0"/><path d="M295.23636,204.89576v-25.64638h170v25.64638z" stroke-width="0"/><path d="M318.66874,179.36024v-25.64638h170v25.64638z" stroke-width="0"/><path d="M471.0231,125.46794c0,13.61317 -9.67028,24.64882 -21.59918,24.64882c-11.9289,0 -21.59918,-11.03565 -21.59918,-24.64882c0,-13.61316 9.67028,-24.64882 21.59918,-24.64882c11.9289,0 21.59918,11.03566 21.59918,24.64882z" stroke-width="0"/><path d="M398.40244,63.51442c0,13.61316 -9.67028,24.64882 -21.59918,24.64882c-11.9289,0 -21.59918,-11.03566 -21.59918,-24.64882c0,-13.61317 9.67028,-24.64882 21.59918,-24.64882c11.9289,0 21.59918,11.03565 21.59918,24.64882z" stroke-width="0"/><path d="M308.12577,71.17803c0,13.61316 -9.67028,24.64882 -21.59918,24.64882c-11.9289,0 -21.59918,-11.03566 -21.59918,-24.64882c0,-13.61317 9.67028,-24.64882 21.59918,-24.64882c11.9289,0 21.59918,11.03566 21.59918,24.64882z" stroke-width="0"/><path d="M-145.5,493.5v-144h634v144z" stroke-width="NaN"/><path d="M158.63984,332.35812v-25.64638h170v25.64638z" stroke-width="0"/><path d="M176.84842,314.14954v-25.64638h170v25.64638z" stroke-width="0"/><path d="M198.72782,297.38984v-25.64638h170v25.64638z" stroke-width="0"/></g></g></svg>