<svg version="1.1" xmlns="http://www.w3.org/2000/svg" xmlns:xlink="http://www.w3.org/1999/xlink" width="50.5172" height="60.65618" viewBox="0,0,50.5172,60.65618"><g transform="translate(-214.66944,-149.53658)"><g stroke-miterlimit="10"><path d="M216.82846,155.86652c0,0 2.06815,-1.97324 3.89509,-2.58649c1.26086,-0.42323 4.92807,-2.23772 5.94129,-2.49345c3.38469,-0.85427 9.39393,-0.94767 10.18293,-0.96846c3.55201,-0.09361 10.53746,0.44428 11.51366,0.55716c3.19809,0.36979 8.43717,2.16488 9.02799,2.31187c1.52684,0.37986 3.89017,1.23713 5.09128,3.05287c0.74821,1.13108 0.80797,6.46584 0.79605,8.8737c-0.04159,8.40131 0.28148,36.6014 0.28148,36.6014h-47.19016l0.23019,-44.658" fill="#ffffff" stroke="#000000" stroke-width="2.5" stroke-linecap="round"/><path d="M259.18449,176.81435v9.66823" fill="none" stroke="#000000" stroke-width="2.5" stroke-linecap="round"/><path d="M262.72363,167.37633l-8.97764,-0.46039" fill="none" stroke="#000000" stroke-width="2.5" stroke-linecap="round"/><path d="M239.92805,210.19276c-13.94994,0 -25.2586,-4.12249 -25.2586,-9.20784c0,-5.08534 11.30865,-9.20783 25.2586,-9.20783c13.94994,0 25.2586,4.12248 25.2586,9.20783c0,5.08535 -11.30866,9.20784 -25.2586,9.20784z" fill="#000000" stroke="none" stroke-width="0" stroke-linecap="butt"/></g></g></svg>