<svg version="1.1" xmlns="http://www.w3.org/2000/svg" xmlns:xlink="http://www.w3.org/1999/xlink" width="634" height="448.6344" viewBox="0,0,634,448.6344"><g transform="translate(145.5,-44.8656)"><g data-paper-data="{&quot;isPaintingLayer&quot;:true}" fill="#000000" fill-rule="nonzero" stroke="none" stroke-linecap="butt" stroke-linejoin="miter" stroke-miterlimit="10" stroke-dasharray="" stroke-dashoffset="0" style="mix-blend-mode: normal"><path d="M127.95258,217.05258v-85h169v85z" stroke-width="0"/><path d="M146.04377,394.96207l-16.78016,-19.39492l128.5615,-111.22923l16.78016,19.39492z" stroke-width="0"/><path d="M147.90022,369.27825l-16.78016,-19.39492l128.5615,-111.22923l16.78016,19.39492z" stroke-width="0"/><path d="M153.48069,342.28836l-16.78016,-19.39492l128.5615,-111.22923l16.78016,19.39492z" stroke-width="0"/><path d="M156.80547,314.89253l-16.78016,-19.39492l128.5615,-111.22923l16.78016,19.39492z" stroke-width="0"/><path d="M158.20864,285.78622l-16.78016,-19.39492l128.5615,-111.22923l16.78016,19.39492z" stroke-width="0"/><path d="M159.22162,251.14357l-16.78016,-19.39492l128.5615,-111.22923l16.78016,19.39492z" stroke-width="0"/><path d="M66.0231,111.46794c0,13.61317 -9.67028,24.64882 -21.59918,24.64882c-11.9289,0 -21.59918,-11.03565 -21.59918,-24.64882c0,-13.61316 9.67028,-24.64882 21.59918,-24.64882c11.9289,0 21.59918,11.03566 21.59918,24.64882z" stroke-width="0"/><path d="M230.40244,69.51442c0,13.61316 -9.67028,24.64882 -21.59918,24.64882c-11.9289,0 -21.59918,-11.03566 -21.59918,-24.64882c0,-13.61317 9.67028,-24.64882 21.59918,-24.64882c11.9289,0 21.59918,11.03565 21.59918,24.64882z" stroke-width="0"/><path d="M82.12577,241.17803c0,13.61316 -9.67028,24.64882 -21.59918,24.64882c-11.9289,0 -21.59918,-11.03566 -21.59918,-24.64882c0,-13.61317 9.67028,-24.64882 21.59918,-24.64882c11.9289,0 21.59918,11.03566 21.59918,24.64882z" stroke-width="0"/><path d="M-145.5,493.5v-144h634v144z" stroke-width="NaN"/><path d="M138.30563,471.55256l-16.78016,-19.39492l128.5615,-111.22923l16.78016,19.39492z" stroke-width="0"/><path d="M140.16207,445.86875l-16.78016,-19.39492l128.5615,-111.22923l16.78016,19.39492z" stroke-width="0"/><path d="M145.74254,418.87886l-16.78016,-19.39492l128.5615,-111.22923l16.78016,19.39492z" stroke-width="0"/></g></g></svg>