<svg version="1.1" xmlns="http://www.w3.org/2000/svg" xmlns:xlink="http://www.w3.org/1999/xlink" width="259.09958" height="245.37618" viewBox="0,0,259.09958,245.37618"><defs><radialGradient cx="461.43929" cy="95.7284" r="25.70394" gradientUnits="userSpaceOnUse" id="color-1"><stop offset="0" stop-color="#fdfdfd"/><stop offset="1" stop-color="#fff9b9"/></radialGradient><radialGradient cx="461.43929" cy="95.7284" r="25.70394" gradientUnits="userSpaceOnUse" id="color-2"><stop offset="0" stop-color="#ffffff"/><stop offset="1" stop-color="#ffea00"/></radialGradient><radialGradient cx="445.89771" cy="75.54493" r="25.2586" gradientUnits="userSpaceOnUse" id="color-3"><stop offset="0" stop-color="#ffffff"/><stop offset="1" stop-color="#ffea00"/></radialGradient><radialGradient cx="446.10441" cy="74.87726" r="30.16168" gradientUnits="userSpaceOnUse" id="color-4"><stop offset="0" stop-color="#ffffff"/><stop offset="1" stop-color="#ffea00"/></radialGradient><radialGradient cx="436.64287" cy="63.06878" r="19.02706" gradientUnits="userSpaceOnUse" id="color-5"><stop offset="0" stop-color="#fdfdfd"/><stop offset="1" stop-color="#fff9b9"/></radialGradient><radialGradient cx="436.64287" cy="63.06878" r="19.02706" gradientUnits="userSpaceOnUse" id="color-6"><stop offset="0" stop-color="#ffffff"/><stop offset="1" stop-color="#ffea00"/></radialGradient><radialGradient cx="425.13838" cy="48.1282" r="18.6974" gradientUnits="userSpaceOnUse" id="color-7"><stop offset="0" stop-color="#ffffff"/><stop offset="1" stop-color="#ffea00"/></radialGradient><radialGradient cx="439.17147" cy="66.52614" r="16.8992" gradientUnits="userSpaceOnUse" id="color-8"><stop offset="0" stop-color="#ffffff"/><stop offset="1" stop-color="#ffea00"/></radialGradient><radialGradient cx="476.42556" cy="99.81615" r="13.38414" gradientUnits="userSpaceOnUse" id="color-9"><stop offset="0" stop-color="#ffffff"/><stop offset="1" stop-color="#ffea00"/></radialGradient><radialGradient cx="461.45482" cy="115.01406" r="10.43187" gradientUnits="userSpaceOnUse" id="color-10"><stop offset="0" stop-color="#ffffff"/><stop offset="1" stop-color="#ffea00"/></radialGradient><radialGradient cx="470.00995" cy="109.55455" r="9.89861" gradientUnits="userSpaceOnUse" id="color-11"><stop offset="0" stop-color="#ffffff"/><stop offset="1" stop-color="#ffea00"/></radialGradient><radialGradient cx="401.61063" cy="113.0493" r="27.76469" gradientUnits="userSpaceOnUse" id="color-12"><stop offset="0" stop-color="#ffea00"/><stop offset="1" stop-color="#ffffff"/></radialGradient><radialGradient cx="411.85554" cy="126.74133" r="27.30218" gradientUnits="userSpaceOnUse" id="color-13"><stop offset="0" stop-color="#ffffff"/><stop offset="1" stop-color="#ffea00"/></radialGradient><radialGradient cx="433.68267" cy="110.31616" r="13.55006" gradientUnits="userSpaceOnUse" id="color-14"><stop offset="0" stop-color="#ffea00"/><stop offset="1" stop-color="#ffffff"/></radialGradient><radialGradient cx="445.57117" cy="126.92532" r="9.6521" gradientUnits="userSpaceOnUse" id="color-15"><stop offset="0" stop-color="#ffea00"/><stop offset="1" stop-color="#ffffff"/></radialGradient><radialGradient cx="445.57117" cy="126.92532" r="9.6521" gradientUnits="userSpaceOnUse" id="color-16"><stop offset="0" stop-color="#ffea00"/><stop offset="1" stop-color="#ffea00"/></radialGradient><radialGradient cx="443.6729" cy="129.64487" r="8.44559" gradientUnits="userSpaceOnUse" id="color-17"><stop offset="0" stop-color="#ffea00"/><stop offset="1" stop-color="#ffffff"/></radialGradient><radialGradient cx="443.6729" cy="129.64487" r="8.44559" gradientUnits="userSpaceOnUse" id="color-18"><stop offset="0" stop-color="#ffea00"/><stop offset="1" stop-color="#ffea00"/></radialGradient><radialGradient cx="439.35029" cy="126.39959" r="2.87707" gradientUnits="userSpaceOnUse" id="color-19"><stop offset="0" stop-color="#ffea00"/><stop offset="1" stop-color="#ffffff"/></radialGradient><radialGradient cx="439.35029" cy="126.39959" r="2.87707" gradientUnits="userSpaceOnUse" id="color-20"><stop offset="0" stop-color="#ffea00"/><stop offset="1" stop-color="#ffea00"/></radialGradient><radialGradient cx="389.96249" cy="143.59167" r="13.64287" gradientUnits="userSpaceOnUse" id="color-21"><stop offset="0" stop-color="#ffffff"/><stop offset="1" stop-color="#fff58c"/></radialGradient><radialGradient cx="438.63085" cy="127.29416" r="1.0209" gradientUnits="userSpaceOnUse" id="color-22"><stop offset="0" stop-color="#ffea00"/><stop offset="1" stop-color="#ffffff"/></radialGradient><radialGradient cx="438.63085" cy="127.29416" r="1.0209" gradientUnits="userSpaceOnUse" id="color-23"><stop offset="0" stop-color="#ffea00"/><stop offset="1" stop-color="#ffea00"/></radialGradient><radialGradient cx="436.46324" cy="128.12173" r="2.69145" gradientUnits="userSpaceOnUse" id="color-24"><stop offset="0" stop-color="#ffea00"/><stop offset="1" stop-color="#ffffff"/></radialGradient><radialGradient cx="436.46324" cy="128.12173" r="2.69145" gradientUnits="userSpaceOnUse" id="color-25"><stop offset="0" stop-color="#ffea00"/><stop offset="1" stop-color="#ffea00"/></radialGradient><radialGradient cx="446.26176" cy="127.68291" r="8.07435" gradientUnits="userSpaceOnUse" id="color-26"><stop offset="0" stop-color="#ffea00"/><stop offset="1" stop-color="#ffffff"/></radialGradient><radialGradient cx="446.26176" cy="127.68291" r="8.07435" gradientUnits="userSpaceOnUse" id="color-27"><stop offset="0" stop-color="#ffea00"/><stop offset="1" stop-color="#ffea00"/></radialGradient><radialGradient cx="443.72199" cy="128.32672" r="6.86784" gradientUnits="userSpaceOnUse" id="color-28"><stop offset="0" stop-color="#ffea00"/><stop offset="1" stop-color="#ffffff"/></radialGradient><radialGradient cx="443.72199" cy="128.32672" r="6.86784" gradientUnits="userSpaceOnUse" id="color-29"><stop offset="0" stop-color="#ffea00"/><stop offset="1" stop-color="#ffea00"/></radialGradient><radialGradient cx="447.45019" cy="133.05212" r="3.24934" gradientUnits="userSpaceOnUse" id="color-30"><stop offset="0" stop-color="#ffea00"/><stop offset="1" stop-color="#ffffff"/></radialGradient><radialGradient cx="447.45019" cy="133.05212" r="3.24934" gradientUnits="userSpaceOnUse" id="color-31"><stop offset="0" stop-color="#ffea00"/><stop offset="1" stop-color="#ffea00"/></radialGradient><radialGradient cx="439.49893" cy="127.80078" r="1.64126" gradientUnits="userSpaceOnUse" id="color-32"><stop offset="0" stop-color="#ffea00"/><stop offset="1" stop-color="#ffffff"/></radialGradient><radialGradient cx="439.49893" cy="127.80078" r="1.64126" gradientUnits="userSpaceOnUse" id="color-33"><stop offset="0" stop-color="#ffea00"/><stop offset="1" stop-color="#ffea00"/></radialGradient><radialGradient cx="436.29443" cy="127.77773" r="2.34464" gradientUnits="userSpaceOnUse" id="color-34"><stop offset="0" stop-color="#ffea00"/><stop offset="1" stop-color="#ffffff"/></radialGradient><radialGradient cx="436.29443" cy="127.77773" r="2.34464" gradientUnits="userSpaceOnUse" id="color-35"><stop offset="0" stop-color="#ffea00"/><stop offset="1" stop-color="#ffea00"/></radialGradient><radialGradient cx="437.57876" cy="130.36793" r="0.50596" gradientUnits="userSpaceOnUse" id="color-36"><stop offset="0" stop-color="#ffea00"/><stop offset="1" stop-color="#ffffff"/></radialGradient><radialGradient cx="437.57876" cy="130.36793" r="0.50596" gradientUnits="userSpaceOnUse" id="color-37"><stop offset="0" stop-color="#ffea00"/><stop offset="1" stop-color="#ffea00"/></radialGradient><radialGradient cx="437.16724" cy="125.21939" r="1.13691" gradientUnits="userSpaceOnUse" id="color-38"><stop offset="0" stop-color="#ffea00"/><stop offset="1" stop-color="#ffffff"/></radialGradient><radialGradient cx="437.16724" cy="125.21939" r="1.13691" gradientUnits="userSpaceOnUse" id="color-39"><stop offset="0" stop-color="#ffea00"/><stop offset="1" stop-color="#ffea00"/></radialGradient><radialGradient cx="389.98041" cy="143.46165" r="12.99321" gradientUnits="userSpaceOnUse" id="color-40"><stop offset="0" stop-color="#ffea00"/><stop offset="1" stop-color="#ffffff"/></radialGradient><radialGradient cx="370.69859" cy="164.06009" r="25.25515" gradientUnits="userSpaceOnUse" id="color-41"><stop offset="0" stop-color="#ffea00"/><stop offset="1" stop-color="#ffffff"/></radialGradient><radialGradient cx="370.77544" cy="164.11707" r="25.25515" gradientUnits="userSpaceOnUse" id="color-42"><stop offset="0" stop-color="#ffffff"/><stop offset="1" stop-color="#ffea00"/></radialGradient><radialGradient cx="333.1452" cy="185.31415" r="13.33621" gradientUnits="userSpaceOnUse" id="color-43"><stop offset="0" stop-color="#000000"/><stop offset="1" stop-color="#ffad00"/></radialGradient><radialGradient cx="344.20917" cy="178.12704" r="13.09252" gradientUnits="userSpaceOnUse" id="color-44"><stop offset="0" stop-color="#000000"/><stop offset="1" stop-color="#ffad00"/></radialGradient></defs><g transform="translate(-233.90707,-35.48814)"><g stroke-miterlimit="10"><path d="M259.66166,271.14824l-23.88198,-37.73647l40.00519,-25.02991c0,0 14.6836,24.07782 19.17495,31.17793c1.28724,2.03492 4.06617,6.58913 4.03181,7.94485c-0.05516,2.17636 -1.60396,4.15663 -2.69685,5.28849c-0.4229,0.43799 -3.91217,4.7386 -6.4272,6.74837c-0.7677,0.61347 -6.40427,4.77459 -9.46511,6.57924c-0.67989,0.40086 -5.82374,3.50901 -9.1462,4.58007c-0.99459,0.32062 -5.06586,0.72751 -6.35923,1.03748c-1.87405,0.44914 -4.67393,-0.12671 -4.67393,-0.12671" fill="#ffffff" stroke="#000000" stroke-width="2.5" stroke-linecap="round"/><path d="M286.60283,234.02644l-5.12808,-8.19619" fill="none" stroke="#000000" stroke-width="2.5" stroke-linecap="round"/><path d="M277.28746,207.71329c2.69729,4.31108 -4.70297,13.80406 -16.52895,21.20318c-11.82599,7.39913 -23.59943,9.90248 -26.29672,5.59141c-2.69729,-4.31108 4.70297,-13.80407 16.52895,-21.20319c11.82598,-7.39912 23.59942,-9.90247 26.29672,-5.5914z" fill="#000000" stroke="none" stroke-width="0" stroke-linecap="butt"/><path d="M491.75665,97.13704c0,0 -0.43087,2.82582 -1.50205,4.42781c-0.73927,1.10561 -2.5328,4.78311 -3.17845,5.60479c-2.1568,2.74484 -6.85592,6.49156 -7.46769,6.99025c-2.75414,2.24505 -8.61175,6.08878 -9.45339,6.59608c-2.75724,1.66197 -8.00103,3.44327 -8.55849,3.68804c-1.44063,0.63254 -3.83512,1.39848 -5.89555,0.69546c-1.2835,-0.43793 -4.59137,-4.62377 -6.0536,-6.53683c-5.1019,-6.6749 -22.59329,-28.79731 -22.59329,-28.79731l37.35016,-28.84228l27.11245,35.48669" fill="url(#color-1)" stroke="url(#color-2)" stroke-width="2.5" stroke-linecap="round"/><path d="M439.52031,98.79267l5.90915,7.65223" fill="none" stroke="#ffea00" stroke-width="2.5" stroke-linecap="round"/><path d="M440.26994,68.2571c11.04113,-8.5261 22.51136,-12.17499 25.61949,-8.15003c3.10812,4.02495 -3.32283,14.19959 -14.36397,22.7257c-11.04113,8.5261 -22.51135,12.175 -25.61948,8.15004c-3.10813,-4.02496 3.32284,-14.19961 14.36396,-22.72571z" fill="url(#color-3)" stroke="none" stroke-width="0" stroke-linecap="butt"/><path d="M439.38422,66.17475c13.18437,-10.18114 26.88115,-14.53835 30.59262,-9.73208c3.71145,4.80626 -3.96785,16.95595 -17.15223,27.13711c-13.18437,10.18114 -26.88115,14.53836 -30.59261,9.73209c-3.71147,-4.80627 3.96786,-16.95597 17.15223,-27.13711z" fill="url(#color-4)" stroke="none" stroke-width="0" stroke-linecap="butt"/><path d="M459.08497,64.1115c0,0 -0.31896,2.09178 -1.11188,3.27764c-0.54724,0.81841 -1.87488,3.54065 -2.3528,4.14888c-1.59655,2.03183 -5.07502,4.80531 -5.52788,5.17446c-2.03872,1.66188 -6.37476,4.50715 -6.99776,4.88268c-2.04102,1.23025 -5.92266,2.54885 -6.33532,2.73003c-1.06642,0.46823 -2.83892,1.0352 -4.36412,0.51481c-0.9501,-0.32418 -3.39872,-3.42269 -4.48111,-4.83882c-3.77662,-4.94102 -16.72443,-21.31689 -16.72443,-21.31689l27.64805,-21.35018l20.06969,26.26863" fill="url(#color-5)" stroke="url(#color-6)" stroke-width="2.5" stroke-linecap="round"/><path d="M420.41758,65.33708l4.37418,5.66448" fill="none" stroke="#ffea00" stroke-width="2.5" stroke-linecap="round"/><path d="M420.97249,42.73346c8.17307,-6.31135 16.66378,-9.01241 18.96454,-6.03297c2.30076,2.97943 -2.45969,10.5111 -10.63277,16.82245c-8.17307,6.31135 -16.66379,9.0124 -18.96454,6.03297c-2.30076,-2.97943 2.45969,-10.5111 10.63277,-16.82245z" fill="url(#color-7)" stroke="none" stroke-width="0" stroke-linecap="butt"/><path d="M455.55602,60.09426c0,0 -7.16765,8.89737 -11.64354,12.3537c-4.44078,3.42922 -15.10729,8.30363 -15.10729,8.30363l-6.01827,-7.79354c0,0 10.48274,-5.40498 14.99262,-8.88757c4.40457,-3.40127 11.75821,-11.76977 11.75821,-11.76977l6.01827,7.79354z" fill="url(#color-8)" stroke="none" stroke-width="0" stroke-linecap="butt"/><path d="M443.03098,75.0195l-0.27243,-0.35279c-0.69859,-0.90466 -1.31583,-1.83918 -1.95231,-2.76917c-1.70044,0.35928 -3.33731,-0.72397 -4.91877,-2.8996c-0.14526,-1.43227 -0.17311,-2.69693 0.47394,-4.04441c0.00634,-0.01322 0.01297,-0.02654 0.01985,-0.03997c-0.82529,-1.62778 -1.60425,-3.2786 -2.52791,-4.88932c-0.57853,0.25793 -1.06146,0.58942 -1.33888,0.9458c0,0 -0.46471,0.58869 -1.05339,0.12397c-0.58867,-0.46471 -0.12396,-1.05339 -0.12396,-1.05339c0.41129,-0.51509 1.02355,-0.95719 1.73815,-1.29309c-0.74154,-1.12358 -1.52081,-2.07304 -2.0913,-3.37638c0,0 -0.30073,-0.68706 0.38633,-0.9878c0.68706,-0.30073 0.98779,0.38632 0.98779,0.38632c0.59127,1.35081 1.41659,2.27434 2.17818,3.47464c2.46301,-0.5739 5.29719,0.04437 5.67475,2.80631c0.20727,1.5162 -0.8374,1.96819 -1.55184,3.03569c-0.2112,0.31558 -0.39696,0.62162 -0.558,0.92517c0.75722,1.44188 1.58259,2.85459 2.61562,4.19233c0.22637,0.29314 0.44419,0.58925 0.65674,0.88708c0.43486,-0.30281 0.89664,-0.77301 1.40762,-1.42942l-0.11502,0.05648c0,0 0.09561,-0.74388 0.83949,-0.64827c0.74388,0.09561 0.64827,0.83949 0.64827,0.83949l-0.19539,0.68171c-0.59381,0.74368 -1.17999,1.30332 -1.75886,1.69191c0.56564,0.83079 1.12443,1.66202 1.74613,2.46711l0.27243,0.35279c0,0 0.45839,0.59361 -0.13522,1.05201c-0.59361,0.45839 -1.05201,-0.13522 -1.05201,-0.13522zM439.52956,70.12061c-0.80504,-1.04252 -1.48622,-2.12972 -2.10761,-3.24041c-0.09763,0.49219 -0.14097,1.01192 -0.13254,1.58432c0.9477,1.1132 1.72987,1.82761 2.50669,2.00758c-0.0876,-0.11755 -0.17638,-0.23474 -0.26653,-0.35148zM438.72622,61.26349c-0.23383,-1.60468 -1.84813,-1.95352 -3.40503,-1.68392c0.74157,1.33203 1.39334,2.68775 2.0649,4.0312c0.69575,-0.79895 1.43939,-1.66612 1.34013,-2.34729z" fill="#ffea00" stroke="#ffea00" stroke-width="1.5" stroke-linecap="butt"/><path d="M478.07792,79.68305l-5.6962,39.54515" fill="none" stroke="#ffea00" stroke-width="1.5" stroke-linecap="round"/><path d="M444.58537,112.79312l29.30455,-0.52692" fill="none" stroke="#ffea00" stroke-width="1.5" stroke-linecap="round"/><path d="M486.03726,108.12317l-13.34729,8.75387l6.2115,-34.70212l12.14959,14.68257z" fill="url(#color-9)" stroke="#ffea00" stroke-width="1.5" stroke-linecap="butt"/><path d="M473.1471,117.42652l-16.29705,8.17311l-9.18661,-11.37706l25.3888,-1.25814z" fill="url(#color-10)" stroke="#ffea00" stroke-width="1.5" stroke-linecap="butt"/><path d="M450.04194,119.63199c0,0 -2.65828,-7.47104 -1.46247,-8.38027c1.18945,-0.90438 8.61835,2.93937 8.61835,2.93937" fill="none" stroke="#fff8b1" stroke-width="2.5" stroke-linecap="round"/><path d="M459.39233,102.74591l5.062,-4.08761" fill="none" stroke="#ffea00" stroke-width="2.5" stroke-linecap="round"/><path d="M462.07847,100.67164l13.20052,9.45935l0.24247,5.17266l-6.17436,-0.59198l-6.25699,-12.49861" fill="url(#color-11)" stroke="#ffea00" stroke-width="2.5" stroke-linecap="round"/><path d="M298.79745,225.04478l-15.38691,-22.63085l30.29018,-20.59454l15.38691,22.63085z" fill="#000000" stroke="none" stroke-width="0" stroke-linecap="butt"/><path d="M327.05151,189.28834c4.26867,6.27831 5.54787,12.85093 2.85717,14.68036c-2.6907,1.82943 -8.33239,-1.77709 -12.60106,-8.0554c-4.26867,-6.27831 -5.54787,-12.85092 -2.85717,-14.68035c2.6907,-1.82943 8.33239,1.77709 12.60106,8.0554z" fill="#737373" stroke="none" stroke-width="0" stroke-linecap="butt"/><path d="M326.07094,189.84195c4.0654,5.97933 5.56066,12.05066 3.33977,13.56065c-2.22089,1.51 -7.31695,-2.1131 -11.38235,-8.09244c-4.0654,-5.97933 -5.56066,-12.05066 -3.33977,-13.56066c2.22089,-1.51 7.31695,2.11311 11.38235,8.09244z" fill="#000000" stroke="none" stroke-width="0" stroke-linecap="butt"/><path d="M294.46978,211.55401c4.23964,6.23559 6.18774,12.30278 4.35123,13.55144c-1.8365,1.24866 -6.76219,-2.79405 -11.00183,-9.02964c-4.23964,-6.23559 -6.18776,-12.30278 -4.35124,-13.55144c1.8365,-1.24866 6.7622,2.79405 11.00184,9.02965z" fill="#000000" stroke="none" stroke-width="0" stroke-linecap="butt"/><path d="M300.13567,224.21161l9.66839,13.55487l-2.31997,1.57737l-10.78177,-16.19031" fill="none" stroke="#000000" stroke-width="0.5" stroke-linecap="round"/><path d="M302.29483,222.06509l8.77148,11.90305l-1.05808,3.43335" fill="none" stroke="#000000" stroke-width="0.5" stroke-linecap="round"/><path d="M305.6046,220.94557l2.78361,3.76147l-4.79462,3.2599" fill="none" stroke="#000000" stroke-width="0.5" stroke-linecap="round"/><path d="M306.42127,219.48564l2.99393,4.0708l-1.491,1.46607" fill="none" stroke="#000000" stroke-width="0.5" stroke-linecap="round"/><path d="M307.16862,238.87985l-9.14875,-13.45586l2.16531,-1.47221l9.14875,13.45585z" fill="#000000" stroke="#000000" stroke-width="0.5" stroke-linecap="butt"/><path d="M307.45337,235.97229l-7.78169,-11.44521l3.0933,-2.10316l7.78169,11.44521z" fill="#000000" stroke="#000000" stroke-width="0.5" stroke-linecap="butt"/><path d="M309.5356,237.48009l-3.61791,-2.87939l1.3884,-3.52298l3.6179,2.87939z" fill="#000000" stroke="#000000" stroke-width="0.5" stroke-linecap="butt"/><path d="M304.99736,226.51256l-0.79698,-1.17219l2.73514,-1.85964l0.79698,1.17219z" fill="#000000" stroke="#000000" stroke-width="0.5" stroke-linecap="butt"/><path d="M307.68563,224.30388l-2.65663,-3.90733l1.23732,-0.84126l2.65663,3.90733z" fill="#000000" stroke="#000000" stroke-width="0.5" stroke-linecap="butt"/><path d="M308.71588,224.39356l-0.06015,-0.05598l0.6997,-0.75185l0.06015,0.05597z" fill="#000000" stroke="#000000" stroke-width="0.5" stroke-linecap="butt"/><path d="M304.05207,221.31223l1.03766,1.44303l-0.29695,0.14536l-1.37789,-1.77711" fill="none" stroke="#000000" stroke-width="0.5" stroke-linecap="round"/><text transform="translate(285.88359,207.32404) rotate(-34.21172) scale(0.12612,0.12645) skewX(0.00114)" font-size="40" xml:space="preserve" fill="#ffffff" stroke="none" stroke-width="1" stroke-linecap="butt" font-family="Sans Serif" font-weight="normal" text-anchor="start"><tspan x="0" dy="0">marshmallow</tspan><tspan x="0" dy="46.15px"> </tspan></text><text transform="translate(288.31941,214.56561) rotate(-34.2125) scale(0.15665,0.19173) skewX(-0.00134)" font-size="40" xml:space="preserve" fill="#ffffff" stroke="none" stroke-width="1" stroke-linecap="butt" font-family="Sans Serif" font-weight="normal" text-anchor="start"><tspan x="0" dy="0">launcher </tspan></text><text transform="translate(310.53638,196.01591) rotate(-34.21067) scale(0.16758,0.11084) skewX(0.00084)" font-size="40" xml:space="preserve" fill="#ffffff" stroke="none" stroke-width="1" stroke-linecap="butt" font-family="Sans Serif" font-weight="normal" text-anchor="start"><tspan x="0" dy="0">3</tspan><tspan x="0" dy="46.15px">0</tspan><tspan x="0" dy="46.15px">0</tspan><tspan x="0" dy="46.15px">0</tspan></text><text transform="translate(293.98131,221.56251) rotate(-34.21227) scale(0.29016,0.29016)" font-size="40" xml:space="preserve" fill="#ffffff" stroke="none" stroke-width="1" stroke-linecap="butt" font-family="Sans Serif" font-weight="normal" text-anchor="start"><tspan x="0" dy="0">yeah</tspan></text><path d="M307.99658,259.54319l-16.62637,-1.05564" fill="none" stroke="#000000" stroke-width="2" stroke-linecap="round"/><path d="M291.63412,273.00264l-16.09855,-2.90302" fill="none" stroke="#000000" stroke-width="2" stroke-linecap="round"/><path d="M248.88058,255.58453l-1.05564,24.27979" fill="none" stroke="#000000" stroke-width="2" stroke-linecap="round"/><path d="M306.6128,223.42635l-1.70132,1.15674l-16.53392,3.65763" fill="none" stroke="#000000" stroke-width="2" stroke-linecap="round"/><path d="M292.51805,241.56622c-0.60155,0.65484 -1.69083,0.63303 -2.43298,-0.04872c-0.74215,-0.68175 -0.85613,-1.76528 -0.25459,-2.42012c0.60155,-0.65484 1.69083,-0.63303 2.43298,0.04872c0.74215,0.68175 0.85613,1.76528 0.25459,2.42012z" fill="#ff0000" stroke="#000000" stroke-width="1" stroke-linecap="butt"/><path d="M436.3726,98.16841l3.20684,-9.1209" fill="none" stroke="#ffea00" stroke-width="2.5" stroke-linecap="round"/><path d="M381.82145,132.90539l0.98763,-10.46634l34.43593,-26.09715l8.78501,2.96107z" fill="url(#color-12)" stroke="none" stroke-width="0" stroke-linecap="butt"/><path d="M398.29822,154.05474l-16.40441,-21.64608l43.51904,-32.98075l16.40441,21.64608z" fill="url(#color-13)" stroke="none" stroke-width="0" stroke-linecap="butt"/><path d="M425.49851,99.51692c1.7566,-1.33123 6.84477,2.42458 11.36477,8.38884c4.51999,5.96426 6.76016,11.87842 5.00357,13.20965c-1.75659,1.33123 -6.84477,-2.42458 -11.36477,-8.38884c-4.51999,-5.96426 -6.76016,-11.87842 -5.00357,-13.20965z" fill="url(#color-14)" stroke="none" stroke-width="0" stroke-linecap="butt"/><path d="M440.70293,118.50399l11.80757,15.27311l-2.21902,1.68168l-9.68209,-13.39042" fill="url(#color-15)" stroke="url(#color-16)" stroke-width="0.5" stroke-linecap="round"/><path d="M449.8835,135.53506l-3.56436,-0.09354l-8.41303,-12.02319" fill="url(#color-17)" stroke="url(#color-18)" stroke-width="0.5" stroke-linecap="round"/><path d="M443.04468,126.51104l-4.58598,3.47547l-2.65486,-3.81048" fill="url(#color-19)" stroke="url(#color-20)" stroke-width="0.5" stroke-linecap="round"/><path d="M381.72227,132.71846c2.57362,-1.95041 8.34922,1.33657 12.90017,7.34168c4.55095,6.00511 6.15389,12.45433 3.58028,14.40473c-2.57362,1.95041 -8.34922,-1.33657 -12.90017,-7.34168c-4.55095,-6.00511 -6.15389,-12.45433 -3.58028,-14.40473z" fill="url(#color-21)" stroke="none" stroke-width="0" stroke-linecap="butt"/><path d="M437.81721,127.91077l1.62728,-1.23323" fill="url(#color-22)" stroke="url(#color-23)" stroke-width="0.5" stroke-linecap="round"/><path d="M438.9025,129.65016l-1.85151,0.93736l-2.87909,-4.10635" fill="url(#color-24)" stroke="url(#color-25)" stroke-width="0.5" stroke-linecap="round"/><path d="M450.10308,134.90285l-9.75373,-12.87033l2.07109,-1.56957l9.75373,12.87033z" fill="url(#color-26)" stroke="url(#color-27)" stroke-width="0.5" stroke-linecap="butt"/><path d="M446.39078,134.92143l-8.29628,-10.94718l2.9587,-2.24224l8.29628,10.94718z" fill="url(#color-28)" stroke="url(#color-29)" stroke-width="0.5" stroke-linecap="butt"/><path d="M446.35388,135.30417l-1.56079,-4.31541l3.75339,-0.18869l1.56079,4.31541z" fill="url(#color-30)" stroke="url(#color-31)" stroke-width="0.5" stroke-linecap="butt"/><path d="M438.61571,129.35268l-0.84968,-1.12118l2.61611,-1.98261l0.84968,1.12118z" fill="url(#color-32)" stroke="url(#color-33)" stroke-width="0.5" stroke-linecap="butt"/><path d="M437.11884,130.09482l-2.8323,-3.73731l1.18348,-0.8969l2.8323,3.73731z" fill="url(#color-34)" stroke="url(#color-35)" stroke-width="0.5" stroke-linecap="butt"/><path d="M437.13107,130.61492l-0.03357,-0.07431l0.92893,-0.41965l0.03357,0.07431z" fill="url(#color-36)" stroke="url(#color-37)" stroke-width="0.5" stroke-linecap="butt"/><path d="M436.66547,124.17314l1.23439,1.8593l-0.23086,0.23318l-1.02808,-1.43341" fill="url(#color-38)" stroke="url(#color-39)" stroke-width="0.5" stroke-linecap="round"/><text transform="translate(420.29969,99.36662) rotate(142.84287) scale(0.11789,-0.12549) skewX(0.00103)" font-size="40" xml:space="preserve" fill="#ffffff" stroke="none" stroke-width="1" stroke-linecap="butt" font-family="Sans Serif" font-weight="normal" text-anchor="start"><tspan x="0" dy="0">marshmallow thing</tspan><tspan x="0" dy="46.15px"> </tspan></text><text transform="translate(423.68977,103.60408) rotate(142.84309) scale(0.12996,-0.13093) skewX(0.00082)" font-size="40" xml:space="preserve" fill="#ffffff" stroke="none" stroke-width="1" stroke-linecap="butt" font-family="Sans Serif" font-weight="normal" text-anchor="start"><tspan x="0" dy="0">launcher </tspan></text><text transform="translate(405.40382,118.65448) rotate(142.84312) scale(0.24178,-0.16986) skewX(-0.00005)" font-size="40" xml:space="preserve" fill="#ffffff" stroke="none" stroke-width="1" stroke-linecap="butt" font-family="Sans Serif" font-weight="normal" text-anchor="start"><tspan x="0" dy="0">4000</tspan></text><text transform="translate(427.77883,108.37081) rotate(142.84408) scale(0.17608,-0.18186) skewX(-0.00005)" font-size="40" xml:space="preserve" fill="#ffffff" stroke="none" stroke-width="1" stroke-linecap="butt" font-family="Sans Serif" font-weight="normal" text-anchor="start"><tspan x="0" dy="0">yippee yeah</tspan></text><path d="M382.13257,133.1062c2.12425,-1.60985 7.3599,1.72138 11.69414,7.44053c4.33424,5.71915 6.12578,11.66049 4.00153,13.27035c-2.12425,1.60985 -7.3599,-1.72138 -11.69414,-7.44053c-4.33424,-5.71915 -6.12578,-11.66049 -4.00153,-13.27035z" fill="url(#color-40)" stroke="none" stroke-width="0" stroke-linecap="butt"/><text transform="translate(432.40679,114.19878) rotate(142.84365) scale(0.08521,-0.16946) skewX(-0.00051)" font-size="40" xml:space="preserve" fill="#ffffff" stroke="none" stroke-width="1" stroke-linecap="butt" font-family="Sans Serif" font-weight="normal" text-anchor="start"><tspan x="0" dy="0">lorem ipsum dolor sit amet, </tspan><tspan x="0" dy="46.15px">consectetur adipiscing elit</tspan></text><path d="M382.91439,138.59372c0,0 1.20126,0.77976 2.30255,1.4348c2.5168,1.73324 10.21707,6.96365 10.21707,6.96365l-29.77129,40.80573l-11.73975,-9.08582z" fill="url(#color-41)" stroke="url(#color-42)" stroke-width="2.5" stroke-linecap="round"/><path d="M318.31115,180.5454l19.33981,-12.72074l13.33632,20.50513c0,0 -12.34485,7.82919 -15.98364,10.22154c-1.04289,0.68566 -3.37785,2.16734 -4.08078,2.16188c-1.12842,-0.00877 -2.16882,-0.79341 -2.76538,-1.3495c-0.23084,-0.21518 -2.49146,-1.98437 -3.55595,-3.26951c-0.32493,-0.39228 -2.53281,-3.27559 -3.49596,-4.84547c-0.21395,-0.34871 -1.87162,-2.98625 -2.45696,-4.6984c-0.17523,-0.51254 -0.42318,-2.6188 -0.5956,-3.28628c-0.24984,-0.96715 0.0231,-2.42346 0.0231,-2.42346" fill="#ffffff" stroke="url(#color-43)" stroke-width="2.5" stroke-linecap="round"/><path d="M351.34745,189.10245c-2.2097,1.43716 -7.19691,-2.31164 -11.13928,-8.37319c-3.94237,-6.06155 -5.34698,-12.14045 -3.13729,-13.57761c2.2097,-1.43716 7.19692,2.31164 11.13929,8.3732c3.94236,6.06154 5.34698,12.14046 3.13729,13.57762z" fill="url(#color-44)" stroke="none" stroke-width="0" stroke-linecap="butt"/><path d="M279.38666,213.33488c2.69729,4.31108 -2.63097,11.73206 -14.45695,19.13118c-11.82599,7.39913 -23.59943,9.90248 -26.29672,5.59141c-2.69729,-4.31108 4.70297,-13.80407 16.52895,-21.20319c11.82598,-7.39912 21.52742,-7.83047 24.22472,-3.5194z" fill-opacity="0.8" fill="#000000" stroke="none" stroke-width="0" stroke-linecap="butt"/><path d="M281.90026,217.50608c2.69729,4.31108 -2.63097,11.73206 -14.45695,19.13118c-11.82599,7.39913 -23.59943,9.90248 -26.29672,5.59141c-1.30598,-2.08735 -6.66796,-7.4615 -3.88335,-11.15261c2.96655,-3.93227 14.31225,-6.23398 20.4123,-10.05058c5.56437,-3.48144 11.69439,-11.42908 15.80975,-12.05714c4.63104,-0.70677 6.98681,6.25512 8.41497,8.53774z" fill-opacity="0.58039" fill="#000000" stroke="none" stroke-width="0" stroke-linecap="butt"/></g></g></svg>