<svg version="1.1" xmlns="http://www.w3.org/2000/svg" xmlns:xlink="http://www.w3.org/1999/xlink" width="692.36987" height="526.88546" viewBox="0,0,692.36987,526.88546"><g transform="translate(145.5,33.38547)"><g stroke-miterlimit="10"><path d="M217.2228,278.5v-170h34v170z" fill="#000000" stroke="#001026" stroke-width="1.2"/><path d="M-145.5,493.5v-144h634v144z" fill="#000000" stroke="none" stroke-width="NaN"/><path d="M211.62914,357.44186l165.01017,-40.88574l8.17715,33.00204l-165.01017,40.88574z" fill="#000000" stroke="#001026" stroke-width="1.2"/><path d="M376.2692,316.26961l169.99938,0.58128l-0.09218,42.8795l-169.99938,-0.58128z" fill="#000000" stroke="#001026" stroke-width="1.2"/><path d="M247.2692,242.26961l169.99938,0.23353l-0.09218,17.22725l-169.99938,-0.23354z" fill="#000000" stroke="#001026" stroke-width="1.2"/><path d="M463.20634,-32.73039l54.06225,4.75422l-0.02931,350.70656l-54.06225,-4.75422z" fill="#000000" stroke="#001026" stroke-width="1.2"/><path d="M301.29359,165.26961l214.975,0.27366l-0.11657,20.18712l-214.97499,-0.27366z" fill="#000000" stroke="#001026" stroke-width="1.2"/><path d="M217.29359,87.26961l175.97499,0.27366l25.88344,20.18712l-201.97499,-0.27366z" fill="#000000" stroke="#001026" stroke-width="1.2"/><path d="M150.35483,-26.73039l327.91375,0.7819l-0.1778,57.67888l-327.91376,-0.7819z" fill="#000000" stroke="#001026" stroke-width="1.2"/><path d="M190.2228,278.5l30,-191h16l-12,191z" fill="#000000" stroke="#001026" stroke-width="1.2"/><path d="M113.2228,204.5l42.31818,-117.38542l14.68182,-0.61458l-27.63636,118z" fill="#000000" stroke="#001026" stroke-width="1.2"/><path d="M150.18737,86.26961l21.08121,0.22016l-7.01034,19.24062l-14.08122,-3.22016z" fill="#000000" stroke="#001026" stroke-width="1.2"/><path d="M150.18845,-11.73039l21.08013,1.3169l-0.01143,97.14388l-21.08013,-1.3169z" fill="#000000" stroke="#001026" stroke-width="1.2"/><path d="M2.28817,260.26961l204.98041,0.23354l-0.11115,17.22724l-204.98041,-0.23354z" fill="#000000" stroke="#001026" stroke-width="1.2"/><path d="M126.25,191.375l-11,13.75h-53.5v-13.75z" fill="#000000" stroke="#001026" stroke-width="1.2"/><path d="M158.25,118.375v13.75h-46.5v-13.75z" fill="#000000" stroke="#001026" stroke-width="1.2"/><path d="M171.25,45.375v13.75h-34.5v-13.75z" fill="#000000" stroke="#001026" stroke-width="1.2"/><path d="M-2.25,94.25l-1,-65c0,0 13.01002,-0.47938 21.71708,1.34803c3.50185,0.73496 2.64788,21.508 8.46812,25.37309c5.19084,3.44712 -4.08205,17.96747 1.49324,19.47115c7.08107,1.90979 22.14967,6.37666 27.57196,3.2407c5.82465,-3.36867 7.74959,-17.43297 7.74959,-17.43297l9,30z" fill="#ff0000" stroke="none" stroke-width="0"/></g></g></svg>