<svg version="1.1" xmlns="http://www.w3.org/2000/svg" xmlns:xlink="http://www.w3.org/1999/xlink" width="661.33296" height="415.41441" viewBox="0,0,661.33296,415.41441"><g transform="translate(19,20.25075)"><g data-paper-data="{&quot;isPaintingLayer&quot;:true}" fill-rule="nonzero" stroke-linejoin="miter" stroke-miterlimit="10" stroke-dasharray="" stroke-dashoffset="0" style="mix-blend-mode: normal"><path d="M128.56945,394.91367v-39.03904h513.51351v39.03904z" fill="#ff0000" stroke="#ff0000" stroke-width="0.5" stroke-linecap="butt"/><path d="M-19,372.497v-18h149v18z" fill="#000000" stroke="none" stroke-width="0" stroke-linecap="butt"/><path d="M226,342.5c0,9.94113 -17.01318,18 -38,18c-20.98682,0 -38,-8.05887 -38,-18c0,-9.94113 17.01318,-18 38,-18c20.98682,0 38,8.05887 38,18z" fill="#000000" stroke="none" stroke-width="0" stroke-linecap="butt"/><path d="M238,297.5c0,17.12083 -2.68629,31 -6,31c-3.31371,0 -6,-13.87917 -6,-31c0,-17.12083 2.68629,-31 6,-31c3.31371,0 6,13.87917 6,31z" fill="#000000" stroke="none" stroke-width="0" stroke-linecap="butt"/><path d="M347,343c0,6.90356 -20.81876,12.5 -46.5,12.5c-25.68124,0 -46.5,-5.59644 -46.5,-12.5c0,-6.90356 20.81876,-12.5 46.5,-12.5c25.68124,0 46.5,5.59644 46.5,12.5z" fill="#000000" stroke="none" stroke-width="0" stroke-linecap="butt"/><path d="M342,274.5v-23h92.97298v23z" fill="#000000" stroke="none" stroke-width="0" stroke-linecap="butt"/><path d="M326.76765,217.73649l-64.56457,-63.06306" fill="none" stroke="#000000" stroke-width="1.5" stroke-linecap="round"/><path d="M223.16404,148.66742l-79.57958,31.53153" fill="none" stroke="#000000" stroke-width="1.5" stroke-linecap="round"/><path d="M472.41329,381.40015v-219.21922h25.52552v219.21922z" fill="#000000" stroke="none" stroke-width="0" stroke-linecap="butt"/><path d="M238.17906,0.01877l-1.5015,49.54955" fill="none" stroke="#ff0000" stroke-width="1.5" stroke-linecap="round"/><path d="M475.4163,162.18093l-157.65766,-181.68168" fill="none" stroke="#ff0000" stroke-width="1.5" stroke-linecap="round"/><path d="M-11.07019,268.78754l157.65766,-1.5015" fill="none" stroke="#ff0000" stroke-width="1.5" stroke-linecap="round"/><path d="M98.53942,201.21997c0,9.95108 -22.52021,18.01802 -50.3003,18.01802c-27.78009,0 -50.3003,-8.06694 -50.3003,-18.01802c0,-9.95108 22.52021,-18.01802 50.3003,-18.01802c27.78009,0 50.3003,8.06694 50.3003,18.01802z" fill="#000000" stroke="#000000" stroke-width="1.5" stroke-linecap="butt"/><path d="M-9.56869,201.21997v-213.21321h15.01502v213.21321z" fill="#000000" stroke="#000000" stroke-width="1.5" stroke-linecap="butt"/></g></g></svg>