<svg version="1.1" xmlns="http://www.w3.org/2000/svg" xmlns:xlink="http://www.w3.org/1999/xlink" width="32.43383" height="30.24064" viewBox="0,0,32.43383,30.24064"><g transform="translate(-256.0347,-159.49562)"><g stroke-miterlimit="10"><path d="M283.89628,170.91301v18.29022h-24.48047v-18.29022z" fill="#000000" stroke="none" stroke-width="0" stroke-linecap="butt"/><path d="M284.53103,189.24562c-2.17462,0 -3.9375,-4.11338 -3.9375,-9.1875c0,-5.07412 1.76288,-9.1875 3.9375,-9.1875c2.17462,0 3.9375,4.11338 3.9375,9.1875c0,5.07412 -1.76288,9.1875 -3.9375,9.1875z" fill="#737373" stroke="none" stroke-width="0" stroke-linecap="butt"/><path d="M284.46853,188.87062c-1.79492,0 -3.25,-3.91751 -3.25,-8.75c0,-4.83249 1.45508,-8.75 3.25,-8.75c1.79492,0 3.25,3.91751 3.25,8.75c0,4.83249 -1.45508,8.75 -3.25,8.75z" fill="#000000" stroke="none" stroke-width="0" stroke-linecap="butt"/><path d="M259.40603,189.12062c-1.48427,0 -2.6875,-4.0854 -2.6875,-9.125c0,-5.0396 1.20324,-9.125 2.6875,-9.125c1.48426,0 2.6875,4.0854 2.6875,9.125c0,5.0396 -1.20324,9.125 -2.6875,9.125z" fill="#000000" stroke="none" stroke-width="0" stroke-linecap="butt"/><path d="M258.96853,172.74562l-0.125,-13h1.875l-0.25,11.125" fill="none" stroke="#000000" stroke-width="0.5" stroke-linecap="round"/><path d="M260.96853,159.87062l1.875,1.5l-0.375,9.875" fill="none" stroke="#000000" stroke-width="0.5" stroke-linecap="round"/><path d="M260.96853,167.49562h3.875l-0.125,3.125" fill="none" stroke="#000000" stroke-width="0.5" stroke-linecap="round"/><path d="M264.34353,168.87062h-1.375" fill="none" stroke="#000000" stroke-width="0.5" stroke-linecap="round"/><path d="M264.46853,167.49562l1.375,0.25l-0.125,3.375" fill="none" stroke="#000000" stroke-width="0.5" stroke-linecap="round"/><path d="M260.59353,160.12062v10.875h-1.75v-10.875z" fill="#000000" stroke="#000000" stroke-width="0.5" stroke-linecap="butt"/><path d="M262.59353,161.62062v9.25h-2.5v-9.25z" fill="#000000" stroke="#000000" stroke-width="0.5" stroke-linecap="butt"/><path d="M262.76901,161.4302l-0.91758,2.95099l-2.09125,-1.42541l0.91758,-2.95099z" fill="#000000" stroke="#000000" stroke-width="0.5" stroke-linecap="butt"/><path d="M264.50145,167.77194v0.94736h-2.21053v-0.94736z" fill="#000000" stroke="#000000" stroke-width="0.5" stroke-linecap="butt"/><path d="M265.6067,167.98246v3.1579h-1v-3.1579z" fill="#000000" stroke="#000000" stroke-width="0.5" stroke-linecap="butt"/><path d="M265.8117,167.69835l-0.01221,0.05354l-0.66926,-0.15261l0.01221,-0.05354z" fill="#000000" stroke="#000000" stroke-width="0.5" stroke-linecap="butt"/><path d="M263.4414,171.34513l0.09375,-1.5l0.21875,-0.03125l-0.03125,1.1875" fill="none" stroke="#000000" stroke-width="0.5" stroke-linecap="round"/><text transform="translate(280.93751,186.06008) rotate(-180) scale(0.08429,0.08451)" font-size="40" xml:space="preserve" fill="#ffffff" stroke="none" stroke-width="1" stroke-linecap="butt" font-family="Sans Serif" font-weight="normal" text-anchor="start"><tspan x="0" dy="0">marshmallow</tspan><tspan x="0" dy="46.150000000000006px"> </tspan></text><text transform="translate(277.43752,180.36108) rotate(-180) scale(0.11836,0.15678) skewX(0)" font-size="40" xml:space="preserve" fill="#ffffff" stroke="none" stroke-width="1" stroke-linecap="butt" font-family="Sans Serif" font-weight="normal" text-anchor="start"><tspan x="0" dy="0">launcher </tspan></text><text transform="translate(279.68751,182.42093) rotate(-180) scale(0.09014,0.07408)" font-size="40" xml:space="preserve" fill="#ffffff" stroke="none" stroke-width="1" stroke-linecap="butt" font-family="Sans Serif" font-weight="normal" text-anchor="start"><tspan x="0" dy="0">3</tspan><tspan x="0" dy="46.150000000000006px">0</tspan><tspan x="0" dy="46.150000000000006px">0</tspan><tspan x="0" dy="46.150000000000006px">0</tspan></text><text transform="translate(276.93752,173.89749) rotate(-180) scale(0.21179,0.19393)" font-size="40" xml:space="preserve" fill="#ffffff" stroke="none" stroke-width="1" stroke-linecap="butt" font-family="Sans Serif" font-weight="normal" text-anchor="start"><tspan x="0" dy="0">yeah</tspan></text></g></g></svg>